<svg width="74" height="55" viewBox="0 0 74 55" fill="none" xmlns="http://www.w3.org/2000/svg">
<g clip-path="url(#clip0_247_817)">
<path d="M63.0793 8.4375H10.5138V16.9758H6.94141V37.7117H10.5138V46.25H63.0793V37.7117H66.1414V16.9758H63.0793V8.4375Z" fill="#F5A623"/>
<path d="M62.14 10.9375H11.4352V18.1351H7.98926V35.6149H11.4352V42.8125H62.14V35.6149H65.0937V18.1351H62.14V10.9375Z" fill="#623E17"/>
<path d="M47.0607 28.0607C47.6464 27.4749 47.6464 26.5251 47.0607 25.9393L37.5147 16.3934C36.9289 15.8076 35.9792 15.8076 35.3934 16.3934C34.8076 16.9792 34.8076 17.9289 35.3934 18.5147L43.8787 27L35.3934 35.4853C34.8076 36.0711 34.8076 37.0208 35.3934 37.6066C35.9792 38.1924 36.9289 38.1924 37.5147 37.6066L47.0607 28.0607ZM27 27V28.5H46V27V25.5H27V27Z" fill="white"/>
</g>
<defs>
<clipPath id="clip0_247_817">
<rect width="74" height="55" fill="white"/>
</clipPath>
</defs>
</svg>
