<svg width="69" height="55" viewBox="0 0 69 55" fill="none" xmlns="http://www.w3.org/2000/svg">
<g filter="url(#filter0_dn_556_245)">
<path d="M34.8588 32.1272H17.4564H17.09V31.5796H15.8077V30.3018H14.8918V29.2065H13.9759V27.9288H13.2432V27.1986H12.3273V14.6033H13.6095V11.8652H15.8077V10.5874H34.8588V11.5001H35.9579V12.7779H37.057V29.2065H35.5915V30.3018H34.8588V32.1272Z" fill="#ED9F7B"/>
<path d="M18.0058 32.4922V32.1272V31.9446H34.6755V30.1192H35.4082V29.024H36.8737V12.7778H35.9578V11.5001H34.8587V10.5874H16.3572H15.8076V11.8651H13.6094V14.6033H12.3271V15.6985H11.5944H7.3812V13.1429H4.99982V7.30163H9.02985V9.49211H12.5103V11.135L13.6094 11.8651H15.8076V10.5874L15.0749 8.57941H12.8767V5.11114H11.0449V0H13.9758V2.73811H16.174V5.11114H18.3722V9.12703H19.8377V7.30163H38.5223V8.03179H38.8887V9.85719H40.3542V5.47622H42.9187V2.55557H45.8497V0.365081H49.5133V5.47622H47.3151V7.66671H44.3842V10.5874H43.2851V11.6826H42.186V13.508H42.5524V13.8731H46.216V12.4128H48.7806V10.2223H51.3452V7.66671H55.0088V8.03179H55.3752V12.7778H52.4443V15.3334H49.5133V17.889H44.7506V21.9049H55.3752V25.9208H52.4443V28.4763H48.4142V29.5716H49.5133V29.9367V30.6668H50.2461V31.0319H50.6124V31.7621H51.7115V33.9526H52.8106V35.0478H53.5434V35.778H56.4743V34.3176H57.5734V32.8573H59.4052V31.7621H65.9998V36.5081H64.9007V36.8732V37.2383H63.4352V38.3335H62.3362V39.4288H61.2371V40.1589H60.8707V40.524H59.0389V41.6193H57.5734V41.9843H50.2461V44.5399H49.8797V44.905H43.2851V44.7225V42.3494H39.9878V41.4367H38.5223V36.3256H36.141V37.2383H35.225V38.151H34.1259V39.4288H32.8437V40.3415H32.6605V40.8891H27.165H23.5013V39.2462H19.8377V36.8732H20.9368V32.4922H18.3722H18.0058Z" fill="#B95F3D"/>
<g filter="url(#filter1_n_556_245)">
<path d="M11.4113 18.9839H12.3272V23.3649H12.144H10.6786V25.1903H7.56444V23.3649H5.7326V19.349H11.4113V18.9839Z" fill="url(#paint0_linear_556_245)"/>
</g>
<path d="M19.8377 41.254V39.2461H23.5014V43.4445H22.4023V44.5398H20.5704V46.0001H18.3722V45.0874H17.6395V43.8096H16.3572V42.7144H18.3722V41.254H19.8377Z" fill="#ED9F7B"/>
<path d="M27.1649 41.6194V40.8892H32.6604V40.3416H32.8436V39.4289H34.1258V38.1511H35.2249V37.2384H36.1409V36.3257H38.5222V44.54H32.6604V41.6194H27.1649Z" fill="#ED9F7B"/>
<path d="M27.8978 24.4604H20.5705V26.1033H27.8978V24.4604Z" fill="#D26E4C"/>
<path d="M33.0268 18.0713H30.279V22.8173H33.0268V18.0713Z" fill="#5B322E"/>
<path d="M19.6544 18.2544H16.9066V23.0005H19.6544V18.2544Z" fill="#5B322E"/>
</g>
<defs>
<filter id="filter0_dn_556_245" x="-0.000183105" y="0" width="69" height="55" filterUnits="userSpaceOnUse" color-interpolation-filters="sRGB">
<feFlood flood-opacity="0" result="BackgroundImageFix"/>
<feColorMatrix in="SourceAlpha" type="matrix" values="0 0 0 0 0 0 0 0 0 0 0 0 0 0 0 0 0 0 127 0" result="hardAlpha"/>
<feOffset dx="-1" dy="5"/>
<feGaussianBlur stdDeviation="2"/>
<feComposite in2="hardAlpha" operator="out"/>
<feColorMatrix type="matrix" values="0 0 0 0 0 0 0 0 0 0 0 0 0 0 0 0 0 0 0.35 0"/>
<feBlend mode="normal" in2="BackgroundImageFix" result="effect1_dropShadow_556_245"/>
<feBlend mode="normal" in="SourceGraphic" in2="BackgroundImageFix" result="shape"/>
<feTurbulence type="fractalNoise" baseFrequency="0.25 0.25" stitchTiles="stitch" numOctaves="3" result="noise" seed="8072" />
<feColorMatrix in="noise" type="luminanceToAlpha" result="alphaNoise" />
<feComponentTransfer in="alphaNoise" result="coloredNoise1">
<feFuncA type="discrete" tableValues="1 1 1 1 1 1 1 1 1 1 1 1 1 1 1 1 1 1 1 1 1 1 1 1 1 1 1 1 1 1 1 1 1 1 1 1 1 1 1 1 1 1 1 1 1 1 1 1 1 1 1 0 0 0 0 0 0 0 0 0 0 0 0 0 0 0 0 0 0 0 0 0 0 0 0 0 0 0 0 0 0 0 0 0 0 0 0 0 0 0 0 0 0 0 0 0 0 0 0 0 "/>
</feComponentTransfer>
<feComposite operator="in" in2="shape" in="coloredNoise1" result="noise1Clipped" />
<feFlood flood-color="rgba(0, 0, 0, 0.02)" result="color1Flood" />
<feComposite operator="in" in2="noise1Clipped" in="color1Flood" result="color1" />
<feMerge result="effect2_noise_556_245">
<feMergeNode in="shape" />
<feMergeNode in="color1" />
</feMerge>
<feBlend mode="normal" in="effect2_noise_556_245" in2="effect1_dropShadow_556_245" result="effect2_noise_556_245"/>
</filter>
<filter id="filter1_n_556_245" x="5.7326" y="18.9839" width="6.59459" height="6.20654" filterUnits="userSpaceOnUse" color-interpolation-filters="sRGB">
<feFlood flood-opacity="0" result="BackgroundImageFix"/>
<feBlend mode="normal" in="SourceGraphic" in2="BackgroundImageFix" result="shape"/>
<feTurbulence type="fractalNoise" baseFrequency="2 2" stitchTiles="stitch" numOctaves="3" result="noise" seed="3591" />
<feColorMatrix in="noise" type="luminanceToAlpha" result="alphaNoise" />
<feComponentTransfer in="alphaNoise" result="coloredNoise1">
<feFuncA type="discrete" tableValues="0 0 0 0 0 0 0 0 0 0 0 0 0 0 1 1 1 1 1 1 1 1 1 1 1 1 1 1 1 1 1 1 1 1 1 1 0 0 0 0 0 0 0 0 0 0 0 0 0 0 0 0 0 0 0 0 0 0 0 0 0 0 0 0 0 0 0 0 0 0 0 0 0 0 0 0 0 0 0 0 0 0 0 0 0 0 0 0 0 0 0 0 0 0 0 0 0 0 0 0 "/>
</feComponentTransfer>
<feComposite operator="in" in2="shape" in="coloredNoise1" result="noise1Clipped" />
<feFlood flood-color="#B55D3C" result="color1Flood" />
<feComposite operator="in" in2="noise1Clipped" in="color1Flood" result="color1" />
<feMerge result="effect1_noise_556_245">
<feMergeNode in="shape" />
<feMergeNode in="color1" />
</feMerge>
</filter>
<linearGradient id="paint0_linear_556_245" x1="12.3272" y1="21.3569" x2="5.91579" y2="21.3569" gradientUnits="userSpaceOnUse">
<stop stop-color="#B95F3D"/>
<stop offset="1" stop-color="#ED9F7B"/>
</linearGradient>
</defs>
</svg>
