<svg width="69" height="68" viewBox="0 0 69 68" fill="none" xmlns="http://www.w3.org/2000/svg">
<g filter="url(#filter0_n_564_491)">
<path d="M31.9633 17.9146C31.8294 17.9146 31.4973 19.7386 34.7589 27.201L37.0885 25.5427L34.4482 9.45728L32.2739 13.9347L31.9633 17.9146Z" fill="#D7DBE8" stroke="#BEBFC9" stroke-width="2"/>
<path d="M41.5927 16.0905C42.214 19.0754 41.4944 14.5951 42.3693 21.5629L37.0887 25.3769L34.6038 9.2915L37.5956 11.9172L41.5927 16.0905Z" fill="#D6DBE8" stroke="#BEBFC9" stroke-width="2"/>
<path d="M42.6895 20.4119L45.9497 41.8619L66.9083 43.1819L63.8033 22.7219L42.6895 20.4119Z" fill="#FFDA6C"/>
<path d="M24.2148 34.2719L26.3883 33.1169L27.1646 32.7869L31.201 51.2669L27.9408 53.4119L24.2148 34.2719Z" fill="#FFDA6C"/>
<path d="M42.6895 20.4119L45.9497 41.8619L66.9083 43.1819L63.8033 22.7219L42.6895 20.4119Z" stroke="#FFDA6C"/>
<path d="M24.2148 34.2719L26.3883 33.1169L27.1646 32.7869L31.201 51.2669L27.9408 53.4119L24.2148 34.2719Z" stroke="#FFDA6C"/>
<path d="M43.3313 24.9412L51.3445 25.2718L52.9157 35.5231H52.6015H44.9025L43.3313 24.9412Z" fill="#3E3138"/>
<path d="M59.6719 36.5152C59.6719 36.3829 58.7292 29.8463 58.2579 26.5946L64.857 27.0906L66.2711 36.5152C64.0714 36.5703 59.6719 36.6475 59.6719 36.5152Z" fill="#3E3138"/>
<path d="M43.3313 24.9412L51.3445 25.2718L52.9157 35.5231H52.6015H44.9025L43.3313 24.9412Z" stroke="#3E3138"/>
<path d="M59.6719 36.5152C59.6719 36.3829 58.7292 29.8463 58.2579 26.5946L64.857 27.0906L66.2711 36.5152C64.0714 36.5703 59.6719 36.6475 59.6719 36.5152Z" stroke="#3E3138"/>
<path d="M57.8778 8.11768L56.0754 10.034L56.4032 11.9503L60.008 12.6471L61.8104 11.0792C60.6088 10.905 58.2056 10.5217 58.2056 10.3824C58.2056 10.243 57.9871 8.81451 57.8778 8.11768Z" fill="#E59C54" stroke="#E59C54"/>
<path d="M46.5173 26.2354L46.9421 29.4706L49.0662 29.2803L48.783 26.2354H46.5173Z" fill="#F2F1EC" stroke="black"/>
<path d="M61.1733 28.1765L61.3326 30.7647H63.7222L63.4036 28.1765H61.1733Z" fill="#F2F1EC" stroke="black"/>
<path d="M47.1545 29.4707L47.4544 32.0589L49.7034 31.8972L49.4035 29.4707H47.1545Z" fill="#20101B" stroke="black"/>
<path d="M61.1733 30.7646L61.4732 33.1803L63.7222 33.3529L63.4223 30.7646H61.1733Z" fill="#20101B" stroke="black"/>
<path d="M44.4674 61.1765L45.8802 62.1471V62.3089V64.4118H43.4784C42.9604 64.0883 41.9526 63.4412 42.0657 63.4412C42.1787 63.4412 43.0546 61.9314 43.4784 61.1765H44.4674Z" fill="#503E3E" stroke="#503E3E"/>
<path d="M35.0474 58.8156V57.9412L29.3125 64.4118H31.7703L35.0474 58.8156Z" fill="#403232" stroke="#503E3E"/>
<path d="M23.6276 66.8322L29.3126 58.2767L28.9878 57.9412L21.0288 67L23.6276 66.8322Z" fill="#23171B" stroke="#23171B"/>
<path d="M42.4524 37.2353L40.1453 26.6025L42.9139 24.9412L44.6058 35.5739L42.4524 37.2353Z" fill="#331D1B" stroke="black"/>
<path d="M38.3382 46.2941L34.4102 26.3025L42.4234 21.0588L45.88 42.0336L38.3382 46.2941Z" fill="#E59C54" stroke="#E59C54"/>
<path d="M66.9081 43.6668L60.956 47.5883L38.8706 46.4903L46.0758 42.4119L66.9081 43.6668Z" fill="#E59C54" stroke="#E59C54"/>
<path d="M27.4918 56.5992L26.099 54.9217L27.956 53.4119L30.5868 55.5927L21.1469 67.0001L19.7542 65.1548L27.4918 56.5992Z" fill="#503E3E" stroke="#503E3E"/>
<path d="M30.3694 60.5958L31.7681 58.9366L31.9235 57.9412L34.4102 58.1071L28.8152 64.4118L28.0381 62.089L30.3694 60.5958Z" fill="#231D1E" stroke="#23171B"/>
<path d="M13.3821 54.0312L18.0853 47.5881L19.7542 55.3528L16.113 54.8572C15.6073 54.8572 14.5958 54.7581 14.5958 54.3616C14.5958 53.9651 13.7867 53.9761 13.3821 54.0312Z" fill="#55403F" stroke="#55403F"/>
<path d="M40.1453 2.73132L42.3755 6.82353H47.1546L46.5174 4.46264L42.6941 4.30525L41.7383 1L40.1453 2.73132Z" fill="#57363C" stroke="#57363C"/>
<path d="M57.9873 7.81303L58.2907 10.0968L61.6285 10.7058L64.3595 8.87878H60.8699V5.5293L57.9873 7.81303Z" fill="#57363C" stroke="#57363C"/>
<path d="M45.4733 10.7058C44.2391 9.3925 43.4253 8.81563 43.3389 8.7679L43.3335 8.76769C43.3293 8.76359 43.3312 8.76361 43.3389 8.7679L47.1546 8.91679V9.36405L45.4733 10.7058Z" fill="#361503"/>
<path d="M45.4733 10.7058C44.1283 9.2746 43.2825 8.71799 43.3335 8.76769L47.1546 8.91679V9.36405L45.4733 10.7058Z" stroke="#3E2622"/>
<path d="M56.0363 10.2867C55.8875 10.2868 55.726 9.78883 54.3282 11.1155L56.8129 13.7691L59.9193 12.6079L56.1917 11.9446L56.0363 10.2867Z" fill="#361503" stroke="#3E2622"/>
<path d="M54.599 35.2968L53.0448 35.2942H52.8894V37.151L54.599 37.3198L54.7544 39.1765H58.1736V37.3198H59.2616V35.463C58.7435 35.463 58.0182 35.598 58.0182 35.463V37.0335C56.9303 37.0898 54.599 37.0361 54.599 37.0361V35.2968Z" fill="#5C2B24" stroke="#5C2B24"/>
<path d="M42.8961 4.22318C42.8962 4.12529 42.7321 3.4046 42.0569 1H42.2221H46.0218L46.5174 4.22318H42.8961C42.8961 4.24026 42.8911 4.23838 42.8829 4.22318H42.8961Z" fill="#FFC211"/>
<path d="M42.0569 1C42.8499 3.82412 42.938 4.3255 42.8829 4.22318H46.5174L46.0218 1H42.2221H42.0569Z" stroke="#FFC211"/>
<path d="M61.1898 8.7534C61.2127 8.65676 61.1733 7.90872 61.1733 5.5293H64.9966L64.678 8.7534H61.1898C61.186 8.769 61.1807 8.76763 61.1733 8.7534H61.1898Z" fill="#FFBF1C"/>
<path d="M61.1733 5.5293C61.1733 8.29281 61.2264 8.85575 61.1733 8.7534H64.678L64.9966 5.5293H61.1733Z" stroke="#FFBF1C"/>
<path d="M47.1545 19.1177V21.0589H49.7034L49.2536 19.1177H47.1545Z" stroke="black"/>
<path d="M47.1545 19.1177V21.0589H49.7034L49.2536 19.1177H47.1545Z" fill="#3E2622" stroke="#3E2622"/>
<path d="M52.8894 19.7646V21.7058L55.4383 21.5565L55.2683 20.8099L52.8894 19.7646Z" fill="#3E2622" stroke="#3E2622"/>
<path d="M46.5173 16.5293L46.8172 18.4705L49.0662 18.3411L48.6164 16.5293H46.5173Z" fill="#E59C54" stroke="#E59C54"/>
<path d="M45.8801 13.2942L46.3049 15.8824L48.429 15.7099L48.0042 13.2942H45.8801Z" fill="#3E2622" stroke="#3E2622"/>
<path d="M54.093 17.8235L53.5266 19.549L55.5091 20.4117L56.0755 18.6862L54.093 17.8235Z" fill="#E59C54" stroke="#E59C54"/>
<path d="M54.1638 13.9412V17.4253L56.2629 18.4706L56.7127 14.8122L54.1638 13.9412Z" fill="#3E2622" stroke="#3E2622"/>
<path d="M54.447 11.353L54.1638 13.9072L56.7127 14.5883V13.9072L55.5799 12.7153L54.447 11.353Z" fill="#E59C54" stroke="#E59C54"/>
<path d="M45.8801 10.7622L46.18 13.2942L48.429 13.1254L48.1291 11.0998L47.5294 9.41187L45.8801 10.7622Z" fill="#E59C54" stroke="#E59C54"/>
<path d="M42.6941 7.4707L43.3093 8.62103L47.1546 8.76482L47.0008 8.04587V7.4707H42.6941Z" fill="#E59C54" stroke="#E59C54"/>
<path d="M26.3329 32.706C10.7736 29.1636 6.45259 27.9927 6.16394 27.9304L6.16606 27.9353C6.14342 27.9274 6.1416 27.9256 6.16394 27.9304L3.17254 21.026L1.91211 13.2942L30.5868 30.2384L26.3329 32.706Z" fill="url(#paint0_linear_564_491)"/>
<path d="M26.3329 32.706C9.5692 28.8894 5.85095 27.8256 6.16606 27.9353L3.17254 21.026L1.91211 13.2942L30.5868 30.2384L26.3329 32.706Z" stroke="#BEBFC9" stroke-width="2"/>
<path d="M33.3612 28.6935C21.3093 16.599 12.9739 5.12167 12.8556 4.81746L12.8602 4.81408C12.8545 4.80942 12.8529 4.81059 12.8556 4.81746L7.42433 8.79394L2.14389 13.5468L30.5656 30.3517L33.3612 28.6935Z" fill="url(#paint1_linear_564_491)"/>
<path d="M33.3612 28.6935C21.037 16.3257 12.599 4.60324 12.8602 4.81408L7.42433 8.79394L2.14389 13.5468L30.5656 30.3517L33.3612 28.6935Z" stroke="#BEBFC9" stroke-width="2"/>
<path d="M32.4985 29.476L36.0635 48.2353L38.2335 46.2778L35.7535 33.7172L34.8235 28.8235L32.4985 29.476Z" fill="#553A3F" stroke="#51383E"/>
<path d="M36.312 48.2615L56.3436 49.6229L56.1917 47.764L42.835 46.9348L38.331 46.6032L36.312 48.2615Z" fill="#302023" stroke="black"/>
<path d="M32.8953 50.583L52.6197 51.7438L56.0365 49.7539L40.3502 48.7589L36.1568 48.4272L32.8953 50.583Z" fill="#D68046" stroke="black"/>
<path d="M31.1868 51.7437L49.5134 53.2361L52.6196 51.7437L37.5545 50.6899L33.3611 50.3582L31.1868 51.7437Z" fill="#2A1E2E" stroke="black"/>
<path d="M28.0806 53.4019L46.0966 55.6741L49.2028 53.4019L35.2248 52.4069L30.7208 51.7436L28.0806 53.4019Z" fill="#D68046" stroke="#D68046"/>
<path d="M25.4404 55.3918L40.9715 57.3701L46.0967 55.5459L31.4975 54.0652L28.0807 53.5677L25.4404 55.3918Z" fill="#2A1E2E" stroke="black"/>
<path d="M20.6257 58.5427L37.5546 57.8794L40.9714 57.8794L27.6147 56.8325L23.1107 56.8325L20.6257 58.5427Z" fill="#2A1E2E" stroke="#2A1E2E"/>
<path d="M23.5767 56.7185L40.8161 57.608L40.9714 57.3818L29.0125 55.8978L25.4404 55.5577L23.5767 56.7185Z" fill="#D68046" stroke="#D68046"/>
<path d="M27.4009 32.8916L30.9056 51.4707L33.1358 50.1554L30.587 36.8376L29.3125 31.4119L27.4009 32.8916Z" fill="#51383E" stroke="#4D3130"/>
<path d="M29.3125 31.3075L32.7317 50.1766L35.6847 48.6737L33.198 35.1481L32.11 29.4707L29.3125 31.3075Z" fill="#FFDA6C" stroke="#FFDA6C"/>
<path d="M19.1169 38.4399L22.7582 57.294L25.4891 55.6106L22.7582 42.3117L21.6961 36.5881L19.1169 38.4399Z" fill="#FFDA6C" stroke="#FFDA6C"/>
<path d="M16.5681 40.0464L20.6528 58.5881L22.9403 57.0711L19.9993 43.7547L18.8556 38.5293L16.5681 40.0464Z" fill="#4D3130" stroke="#4D3130"/>
<path d="M21.666 36.3304L25.7507 55.3529L28.0382 53.8378L25.2606 40.3706L24.1168 34.647L21.666 36.3304Z" fill="#563D39" stroke="#4D3130"/>
<path d="M36.5535 61.492L38.5617 62.0016L38.4072 64.5494L35.6267 65.0589L33.7729 63.7001L35.7811 60.8126L36.5535 61.492Z" fill="#503E3E"/>
<path d="M38.8707 53.3391L38.4072 51.4707H36.399C36.9655 52.0935 37.604 53.3391 37.4804 53.3391C37.3568 53.3391 37.5834 58.7744 37.4804 61.492L38.7162 61.8317L38.8707 53.3391Z" fill="#503E3E"/>
<path d="M36.5535 61.492L38.5617 62.0016L38.4072 64.5494L35.6267 65.0589L33.7729 63.7001L35.7811 60.8126L36.5535 61.492Z" stroke="#503E3E"/>
<path d="M38.8707 53.3391L38.4072 51.4707H36.399C36.9655 52.0935 37.604 53.3391 37.4804 53.3391C37.3568 53.3391 37.5834 58.7744 37.4804 61.492L38.7162 61.8317L38.8707 53.3391Z" stroke="#503E3E"/>
<path d="M36.3218 54.4318L35.0474 52.2932L35.8439 51.4707L37.5962 53.6093L37.1183 61.1766L35.8439 60.5186L36.3218 54.4318Z" fill="#23171B" stroke="#23171B"/>
<path d="M46.9953 55.556L46.1988 53.9067L47.6325 53.4119L48.429 55.721L46.3581 61.8236L44.6057 60.834L46.9953 55.556Z" fill="#23171B" stroke="#23171B"/>
<path d="M49.0662 54.5999L48.3582 53.4119L47.9334 53.7513L48.4998 55.2788L46.5173 62.2373L46.6589 63.7648L49.0662 54.5999Z" fill="#503E3E" stroke="#503E3E"/>
</g>
<defs>
<filter id="filter0_n_564_491" x="0.451904" y="0.0078125" width="67.9854" height="67.7983" filterUnits="userSpaceOnUse" color-interpolation-filters="sRGB">
<feFlood flood-opacity="0" result="BackgroundImageFix"/>
<feBlend mode="normal" in="SourceGraphic" in2="BackgroundImageFix" result="shape"/>
<feTurbulence type="fractalNoise" baseFrequency="2 2" stitchTiles="stitch" numOctaves="3" result="noise" seed="8549" />
<feColorMatrix in="noise" type="luminanceToAlpha" result="alphaNoise" />
<feComponentTransfer in="alphaNoise" result="coloredNoise1">
<feFuncA type="discrete" tableValues="1 1 1 1 1 1 1 1 1 1 1 1 1 1 1 1 1 1 1 1 1 1 1 1 1 1 1 1 1 1 1 1 1 1 1 1 1 1 1 1 1 1 1 1 1 1 1 1 1 1 1 0 0 0 0 0 0 0 0 0 0 0 0 0 0 0 0 0 0 0 0 0 0 0 0 0 0 0 0 0 0 0 0 0 0 0 0 0 0 0 0 0 0 0 0 0 0 0 0 0 "/>
</feComponentTransfer>
<feComposite operator="in" in2="shape" in="coloredNoise1" result="noise1Clipped" />
<feFlood flood-color="rgba(0, 0, 0, 0.25)" result="color1Flood" />
<feComposite operator="in" in2="noise1Clipped" in="color1Flood" result="color1" />
<feMerge result="effect1_noise_564_491">
<feMergeNode in="shape" />
<feMergeNode in="color1" />
</feMerge>
</filter>
<linearGradient id="paint0_linear_564_491" x1="28.066" y1="31.5544" x2="3.32286" y2="21.3111" gradientUnits="userSpaceOnUse">
<stop stop-color="#D3D9E9"/>
<stop offset="1" stop-color="#E0DFE4"/>
</linearGradient>
<linearGradient id="paint1_linear_564_491" x1="31.6528" y1="29.5226" x2="7.72647" y2="9.15846" gradientUnits="userSpaceOnUse">
<stop stop-color="#D3D9E9"/>
<stop offset="1" stop-color="#DFDFE5"/>
</linearGradient>
</defs>
</svg>
