<svg width="108" height="136" viewBox="0 0 108 136" fill="none" xmlns="http://www.w3.org/2000/svg">
<path d="M54 135.056C83.8234 135.056 108 130.12 108 124.031C108 117.942 83.8234 113.006 54 113.006C24.1766 113.006 0 117.942 0 124.031C0 130.12 24.1766 135.056 54 135.056Z" fill="url(#paint0_radial_340_2)"/>
<path d="M54 122.194C76.3675 122.194 94.5 118.903 94.5 114.844C94.5 110.784 76.3675 107.494 54 107.494C31.6325 107.494 13.5 110.784 13.5 114.844C13.5 118.903 31.6325 122.194 54 122.194Z" fill="url(#paint1_linear_340_2)"/>
<path d="M32.8977 115.575C44.9007 112.292 54.0053 107.246 53.2334 104.305C52.4615 101.365 42.1055 101.642 30.1025 104.925C18.0995 108.209 8.99488 113.254 9.76676 116.195C10.5386 119.136 20.8947 118.858 32.8977 115.575Z" fill="url(#paint2_linear_340_2)"/>
<path d="M75.1021 115.575C87.1051 118.858 97.4612 119.135 98.2331 116.195C99.005 113.254 89.9004 108.208 77.8974 104.925C65.8944 101.642 55.5383 101.364 54.7664 104.305C53.9946 107.246 63.0992 112.291 75.1021 115.575Z" fill="url(#paint3_linear_340_2)"/>
<path d="M54 119.438C71.397 119.438 85.5 113.267 85.5 105.656C85.5 98.0451 71.397 91.875 54 91.875C36.603 91.875 22.5 98.0451 22.5 105.656C22.5 113.267 36.603 119.438 54 119.438Z" fill="url(#paint4_radial_340_2)"/>
<path opacity="0.9" d="M27 110.25C24 98 25.5 84.2188 31.5 68.9062C34.5 53.5938 37.5 41.3438 40.5 32.1562C43.5 19.9062 46.5 10.7188 49.5 4.59375C52.5 -1.53125 55.5 -1.53125 58.5 4.59375C61.5 10.7188 64.5 19.9062 67.5 32.1562C70.5 41.3438 73.5 53.5938 76.5 68.9062C82.5 84.2188 84 98 81 110.25C75 113.312 66 114.844 54 114.844C42 114.844 33 113.312 27 110.25Z" fill="url(#paint5_radial_340_2)"/>
<path opacity="0.7" d="M9 114.844C6 105.656 6.6 94.9375 10.8 82.6875C14.4 67.375 18.3 53.5937 22.5 41.3437C25.5 29.0937 29.4 18.375 34.2 9.18746C38.4 1.83746 41.4 1.22496 43.2 7.34996C45.6 14.7 47.7 24.5 49.5 36.75C51.3 49 53.4 62.7812 55.8 78.0937C59.4 90.3437 60.3 102.594 58.5 114.844C52.5 117.906 43.5 119.437 31.5 119.437C19.5 119.437 12 117.906 9 114.844Z" fill="url(#paint6_radial_340_2)"/>
<path opacity="0.6" d="M36.0004 114.844C33.0004 102.594 28.5004 90.3437 22.5004 78.0937C16.5004 62.7812 12.0004 49 9.00039 36.75C6.00039 24.5 6.60039 15.3125 10.8004 9.18746C15.6004 1.83746 19.5004 1.22496 22.5004 7.34996C25.5004 17.7625 28.5004 29.0937 31.5004 41.3437C34.5004 53.5937 37.5004 67.375 40.5004 82.6875C44.7004 94.9375 46.2004 105.656 45.0004 114.844C42.0004 117.906 37.5004 119.437 31.5004 119.437C25.5004 119.437 27.0004 117.906 36.0004 114.844Z" fill="url(#paint7_radial_340_2)"/>
<path opacity="0.9" d="M36 110.25C33 101.063 33.6 90.3438 37.8 78.0938C41.4 62.7814 44.4 49.0001 46.8 36.7501C49.2 24.5001 51.6 14.7001 54 7.3501C56.4 14.7001 58.8 24.5001 61.2 36.7501C63.6 49.0001 66.6 62.7814 70.2 78.0938C74.4 90.3438 75 101.063 72 110.25C67.2 111.475 61.2 112.088 54 112.088C46.8 112.088 40.8 111.475 36 110.25Z" fill="url(#paint8_radial_340_2)"/>
<path opacity="0.8" d="M40.4998 112.088C38.6998 103.513 39.2998 93.7125 42.2998 82.6875C45.2998 70.4375 47.9998 58.1875 50.3998 45.9375C51.5998 33.6875 52.7998 22.9688 53.9998 13.7812C55.1998 22.9688 56.3998 33.6875 57.5998 45.9375C59.9998 58.1875 62.6998 70.4375 65.6998 82.6875C68.6998 93.7125 69.2998 103.513 67.4998 112.088C63.2998 113.313 58.7998 113.925 53.9998 113.925C49.1998 113.925 44.6998 113.313 40.4998 112.088Z" fill="url(#paint9_radial_340_2)"/>
<path opacity="0.95" d="M45.0004 110.25C43.8004 104.125 44.4004 96.4688 46.8004 87.2812C48.6004 75.0312 50.4004 62.7812 52.2004 50.5312C52.8004 38.2812 53.4004 29.0938 54.0004 22.9688C54.6004 29.0938 55.2004 38.2812 55.8004 50.5312C57.6004 62.7812 59.4004 75.0312 61.2004 87.2812C63.6004 96.4688 64.2004 104.125 63.0004 110.25C60.0004 111.475 57.0004 112.088 54.0004 112.088C51.0004 112.088 48.0004 111.475 45.0004 110.25Z" fill="url(#paint10_radial_340_2)"/>
<path opacity="0.8" d="M48.5998 108.412C47.9998 104.737 48.2998 99.8375 49.4998 93.7125C50.6998 83.3 51.8998 71.9688 53.0998 59.7188C53.6998 47.4688 53.9998 38.2812 53.9998 32.1562C53.9998 38.2812 54.2998 47.4688 54.8998 59.7188C56.0998 71.9688 57.2998 83.3 58.4998 93.7125C59.6998 99.8375 59.9998 104.737 59.3998 108.412C57.5998 109.637 55.7998 110.25 53.9998 110.25C52.1998 110.25 50.3998 109.637 48.5998 108.412Z" fill="#FFFACD"/>
<path opacity="0.8" d="M18.0004 65.6908C18.746 65.6908 19.3504 65.0738 19.3504 64.3127C19.3504 63.5516 18.746 62.9346 18.0004 62.9346C17.2548 62.9346 16.6504 63.5516 16.6504 64.3127C16.6504 65.0738 17.2548 65.6908 18.0004 65.6908Z" fill="#FF7A00"/>
<path opacity="0.9" d="M89.9996 56.0436C90.4967 56.0436 90.8996 55.6322 90.8996 55.1248C90.8996 54.6174 90.4967 54.2061 89.9996 54.2061C89.5026 54.2061 89.0996 54.6174 89.0996 55.1248C89.0996 55.6322 89.5026 56.0436 89.9996 56.0436Z" fill="#FFD4A3"/>
<path opacity="0.7" d="M13.5003 83.4226C13.8979 83.4226 14.2203 83.0936 14.2203 82.6876C14.2203 82.2817 13.8979 81.9526 13.5003 81.9526C13.1026 81.9526 12.7803 82.2817 12.7803 82.6876C12.7803 83.0936 13.1026 83.4226 13.5003 83.4226Z" fill="#FF4500"/>
<path opacity="0.8" d="M94.4999 74.6025C95.0964 74.6025 95.5799 74.1089 95.5799 73.5C95.5799 72.8911 95.0964 72.3975 94.4999 72.3975C93.9035 72.3975 93.4199 72.8911 93.4199 73.5C93.4199 74.1089 93.9035 74.6025 94.4999 74.6025Z" fill="#FF8C42"/>
<path opacity="0.6" d="M22.5 46.4887C22.7982 46.4887 23.04 46.2419 23.04 45.9375C23.04 45.633 22.7982 45.3862 22.5 45.3862C22.2017 45.3862 21.96 45.633 21.96 45.9375C21.96 46.2419 22.2017 46.4887 22.5 46.4887Z" fill="#FFD4A3"/>
<path opacity="0.7" d="M85.5004 42.1708C85.9478 42.1708 86.3104 41.8006 86.3104 41.344C86.3104 40.8873 85.9478 40.5171 85.5004 40.5171C85.0531 40.5171 84.6904 40.8873 84.6904 41.344C84.6904 41.8006 85.0531 42.1708 85.5004 42.1708Z" fill="#FF7A00"/>
<path opacity="0.6" d="M40.4998 113.925C44.4763 113.925 47.6998 113.102 47.6998 112.087C47.6998 111.073 44.4763 110.25 40.4998 110.25C36.5234 110.25 33.2998 111.073 33.2998 112.087C33.2998 113.102 36.5234 113.925 40.4998 113.925Z" fill="#1A120B"/>
<path opacity="0.6" d="M67.4998 113.925C71.4763 113.925 74.6998 113.102 74.6998 112.087C74.6998 111.073 71.4763 110.25 67.4998 110.25C63.5234 110.25 60.2998 111.073 60.2998 112.087C60.2998 113.102 63.5234 113.925 67.4998 113.925Z" fill="#1A120B"/>
<path opacity="0.4" d="M54.0002 117.6C59.9649 117.6 64.8002 116.777 64.8002 115.762C64.8002 114.747 59.9649 113.925 54.0002 113.925C48.0355 113.925 43.2002 114.747 43.2002 115.762C43.2002 116.777 48.0355 117.6 54.0002 117.6Z" fill="#4A3728"/>
<defs>
<radialGradient id="paint0_radial_340_2" cx="0" cy="0" r="1" gradientUnits="userSpaceOnUse" gradientTransform="translate(54 124.031) scale(108 22.05)">
<stop stop-color="#2A1E15" stop-opacity="0.6"/>
<stop offset="0.7" stop-color="#2A1E15" stop-opacity="0.3"/>
<stop offset="1" stop-color="#2A1E15" stop-opacity="0"/>
</radialGradient>
<linearGradient id="paint1_linear_340_2" x1="13.5" y1="107.494" x2="13.5" y2="1577.49" gradientUnits="userSpaceOnUse">
<stop stop-color="#4A3728"/>
<stop offset="0.5" stop-color="#2A1E15"/>
<stop offset="1" stop-color="#1A120B"/>
</linearGradient>
<linearGradient id="paint2_linear_340_2" x1="8.36914" y1="110.87" x2="298.843" y2="1172.81" gradientUnits="userSpaceOnUse">
<stop stop-color="#4A3728"/>
<stop offset="0.5" stop-color="#2A1E15"/>
<stop offset="1" stop-color="#1A120B"/>
</linearGradient>
<linearGradient id="paint3_linear_340_2" x1="56.1641" y1="98.9805" x2="-234.309" y2="1160.92" gradientUnits="userSpaceOnUse">
<stop stop-color="#4A3728"/>
<stop offset="0.5" stop-color="#2A1E15"/>
<stop offset="1" stop-color="#1A120B"/>
</linearGradient>
<radialGradient id="paint4_radial_340_2" cx="0" cy="0" r="1" gradientUnits="userSpaceOnUse" gradientTransform="translate(54 105.656) scale(50.4 22.05)">
<stop stop-color="#FF4500" stop-opacity="0.8"/>
<stop offset="0.5" stop-color="#CC5200" stop-opacity="0.4"/>
<stop offset="1" stop-color="#CC5200" stop-opacity="0"/>
</radialGradient>
<radialGradient id="paint5_radial_340_2" cx="0" cy="0" r="1" gradientUnits="userSpaceOnUse" gradientTransform="translate(54 91.875) scale(45.6 91.875)">
<stop stop-color="#CC5200"/>
<stop offset="0.4" stop-color="#FF4500"/>
<stop offset="0.8" stop-color="#CC5200" stop-opacity="0.6"/>
<stop offset="1" stop-color="#CC5200" stop-opacity="0"/>
</radialGradient>
<radialGradient id="paint6_radial_340_2" cx="0" cy="0" r="1" gradientUnits="userSpaceOnUse" gradientTransform="translate(22.8075 107.811) scale(36.5925 81.3845)">
<stop stop-color="#FF4500"/>
<stop offset="0.5" stop-color="#CC5200"/>
<stop offset="1" stop-color="#CC5200" stop-opacity="0"/>
</radialGradient>
<radialGradient id="paint7_radial_340_2" cx="0" cy="0" r="1" gradientUnits="userSpaceOnUse" gradientTransform="translate(33.9179 107.811) rotate(180) scale(26.7925 81.3845)">
<stop stop-color="#FF4500"/>
<stop offset="0.5" stop-color="#CC5200"/>
<stop offset="1" stop-color="#CC5200" stop-opacity="0"/>
</radialGradient>
<radialGradient id="paint8_radial_340_2" cx="0" cy="0" r="1" gradientUnits="userSpaceOnUse" gradientTransform="translate(54 101.614) scale(31.8 83.79)">
<stop stop-color="#FF7A00"/>
<stop offset="0.3" stop-color="#FF8C42"/>
<stop offset="0.7" stop-color="#FF7A00" stop-opacity="0.8"/>
<stop offset="1" stop-color="#FF7A00" stop-opacity="0"/>
</radialGradient>
<radialGradient id="paint9_radial_340_2" cx="0" cy="0" r="1" gradientUnits="userSpaceOnUse" gradientTransform="translate(56.9023 93.8963) scale(17.415 60.0863)">
<stop stop-color="#FF8C42"/>
<stop offset="0.6" stop-color="#FF7A00"/>
<stop offset="1" stop-color="#FF7A00" stop-opacity="0"/>
</radialGradient>
<radialGradient id="paint10_radial_340_2" cx="0" cy="0" r="1" gradientUnits="userSpaceOnUse" gradientTransform="translate(54.0004 103.176) scale(13.44 62.3831)">
<stop stop-color="#FFD4A3"/>
<stop offset="0.2" stop-color="#FFEB99"/>
<stop offset="0.6" stop-color="#FFD4A3" stop-opacity="0.8"/>
<stop offset="1" stop-color="#FFD4A3" stop-opacity="0"/>
</radialGradient>
</defs>
</svg>
