<svg width="310" height="125" viewBox="0 0 310 125" fill="none" xmlns="http://www.w3.org/2000/svg">
<path d="M9 22.3691C9 61.3436 9 68.6912 9 67.4933V67.8926V22.3691Z" stroke="white" stroke-width="18"/>
<path d="M101.155 94.2485C101.155 117.25 101.155 123.4 101.155 122.202V123" stroke="white" stroke-width="16"/>
<path d="M109.711 115.812H104.822" stroke="white" stroke-width="18"/>
<path d="M13.8887 80.6709C46.5465 80.6709 91.5405 80.6709 109.955 80.6709" stroke="white" stroke-width="15"/>
<path d="M18.0444 4C114.258 4 136.681 4 135.867 4H299.156" stroke="white" stroke-width="7"/>
<path d="M299.4 11.5874C303.311 11.5874 303.963 11.5874 303.8 11.5874" stroke="white" stroke-width="7"/>
<path d="M306 15.1812C306 27.6402 306 53.7935 306 65.3129V65.4965" stroke="white" stroke-width="7"/>
<path d="M301.6 65.896C301.6 72.2853 301.6 73.0839 301.6 72.6846M299.155 76.2785C294.853 76.2785 294.592 76.2785 295 76.2785M123.889 80.2718C165.933 80.2718 255.481 80.2718 295 80.2718" stroke="white" stroke-width="16"/>
<rect x="119.5" y="94.7485" width="3.88889" height="6.18791" fill="white" stroke="white"/>
<rect x="123.411" y="87.5601" width="3.88889" height="6.18791" fill="white" stroke="white"/>
<rect x="115.1" y="101.936" width="3.88889" height="6.18791" fill="white" stroke="white"/>
<rect x="115.1" y="101.936" width="3.88889" height="6.18791" fill="white" stroke="white"/>
<rect x="110.211" y="109.124" width="3.88889" height="6.18791" fill="white" stroke="white"/>
<rect x="101.9" y="86.7617" width="7.8" height="6.98657" fill="white" stroke="white"/>
<rect x="13.8999" y="7.69482" width="3.88889" height="6.18791" fill="white" stroke="white"/>
<rect x="9.5" y="14.8828" width="3.88889" height="6.98657" fill="white" stroke="white"/>
<rect x="9.5" y="68.3926" width="7.8" height="6.18791" fill="white" stroke="white"/>
<rect x="9.5" y="73.9829" width="6.33333" height="5.38925" fill="white" stroke="white"/>
</svg>
