<svg width="54" height="44" viewBox="0 0 54 44" fill="none" xmlns="http://www.w3.org/2000/svg">
<path d="M45.7431 7.75098C42.2476 6.41838 38.51 5.4499 34.6025 4.89844C34.1226 5.60539 33.562 6.55626 33.1754 7.31267C29.0216 6.80367 24.906 6.80367 20.8286 7.31267C20.4421 6.55626 19.8687 5.60539 19.3846 4.89844C15.4728 5.4499 11.731 6.42194 8.23543 7.75804C1.18495 16.4392 -0.726325 24.9048 0.229312 33.2502C4.90557 36.0956 9.43742 37.8241 13.8928 38.9552C14.9928 37.7216 15.974 36.4102 16.8191 35.0282C15.2094 34.5298 13.6677 33.9148 12.2109 33.2007C12.5974 32.9674 12.9754 32.7235 13.3407 32.4726C22.2259 35.8588 31.88 35.8588 40.6592 32.4726C41.0287 32.7235 41.4066 32.9674 41.7889 33.2007C40.3278 33.9183 38.7819 34.5333 37.1722 35.0317C38.0173 36.4102 38.9942 37.7252 40.0985 38.9587C44.5582 37.8276 49.0942 36.0992 53.7705 33.2502C54.8918 23.5758 51.855 15.1879 45.7431 7.75098ZM18.0296 28.1179C15.3624 28.1179 13.175 26.0889 13.175 23.6182C13.175 21.1474 15.3157 19.115 18.0296 19.115C20.7437 19.115 22.931 21.1439 22.8843 23.6182C22.8885 26.0889 20.7437 28.1179 18.0296 28.1179ZM35.9702 28.1179C33.3029 28.1179 31.1155 26.0889 31.1155 23.6182C31.1155 21.1474 33.2561 19.115 35.9702 19.115C38.6841 19.115 40.8715 21.1439 40.8248 23.6182C40.8248 26.0889 38.6841 28.1179 35.9702 28.1179Z" fill="#5865F2"/>
</svg>
