<svg width="175" height="135" viewBox="0 0 175 135" fill="none" xmlns="http://www.w3.org/2000/svg">
<g filter="url(#filter0_dn_166_47)">
<path d="M86.5 88H39H38V86.5H34.5V83H32V80H29.5V76.5H27.5V74.5H25V40H28.5V32.5H34.5V29H86.5V31.5H89.5V35H92.5V80H88.5V83H86.5V88Z" fill="#ED9F7B"/>
<path d="M40.5 89V88V87.5H86V82.5H88V79.5H92V35H89.5V31.5H86.5V29H36H34.5V32.5H28.5V40H25V43H23H11.5V36H5V20H16V26H25.5V30.5L28.5 32.5H34.5V29L32.5 23.5H26.5V14H21.5V0H29.5V7.5H35.5V14H41.5V25H45.5V20H96.5V22H97.5V27H101.5V15H108.5V7H116.5V1H126.5V15H120.5V21H112.5V29H109.5V32H106.5V37H107.5V38H117.5V34H124.5V28H131.5V21H141.5V22H142.5V35H134.5V42H126.5V49H113.5V60H142.5V71H134.5V78H123.5V81H126.5V82V84H128.5V85H129.5V87H132.5V93H135.5V96H137.5V98H145.5V94H148.5V90H153.5V87H171.5V100H168.5V101V102H164.5V105H161.5V108H158.5V110H157.5V111H152.5V114H148.5V115H128.5V122H127.5V123H109.5V122.5V116H100.5V113.5H96.5V99.5H90V102H87.5V104.5H84.5V108H81V110.5H80.5V112H65.5H55.5V107.5H45.5V101H48.5V89H41.5H40.5Z" fill="#B95F3D"/>
<g filter="url(#filter1_n_166_47)">
<path d="M22.5 52H25V64H24.5H20.5V69H12V64H7V53H22.5V52Z" fill="url(#paint0_linear_166_47)"/>
</g>
<path d="M45.5 113V107.5H55.5V119H52.5V122H47.5V126H41.5V123.5H39.5V120H36V117H41.5V113H45.5Z" fill="#ED9F7B"/>
<path d="M65.5 114V112H80.5V110.5H81V108H84.5V104.5H87.5V102H90V99.5H96.5V122H80.5V114H65.5Z" fill="#ED9F7B"/>
<path d="M67.5 67H47.5V71.5H67.5V67Z" fill="#D26E4C"/>
<path d="M81.5 49.5H74V62.5H81.5V49.5Z" fill="#5B322E"/>
<path d="M45 50H37.5V63H45V50Z" fill="#5B322E"/>
</g>
<defs>
<filter id="filter0_dn_166_47" x="0" y="0" width="174.5" height="135" filterUnits="userSpaceOnUse" color-interpolation-filters="sRGB">
<feFlood flood-opacity="0" result="BackgroundImageFix"/>
<feColorMatrix in="SourceAlpha" type="matrix" values="0 0 0 0 0 0 0 0 0 0 0 0 0 0 0 0 0 0 127 0" result="hardAlpha"/>
<feOffset dx="-1" dy="5"/>
<feGaussianBlur stdDeviation="2"/>
<feComposite in2="hardAlpha" operator="out"/>
<feColorMatrix type="matrix" values="0 0 0 0 0 0 0 0 0 0 0 0 0 0 0 0 0 0 0.35 0"/>
<feBlend mode="normal" in2="BackgroundImageFix" result="effect1_dropShadow_166_47"/>
<feBlend mode="normal" in="SourceGraphic" in2="BackgroundImageFix" result="shape"/>
<feTurbulence type="fractalNoise" baseFrequency="0.25 0.25" stitchTiles="stitch" numOctaves="3" result="noise" seed="8072" />
<feColorMatrix in="noise" type="luminanceToAlpha" result="alphaNoise" />
<feComponentTransfer in="alphaNoise" result="coloredNoise1">
<feFuncA type="discrete" tableValues="1 1 1 1 1 1 1 1 1 1 1 1 1 1 1 1 1 1 1 1 1 1 1 1 1 1 1 1 1 1 1 1 1 1 1 1 1 1 1 1 1 1 1 1 1 1 1 1 1 1 1 0 0 0 0 0 0 0 0 0 0 0 0 0 0 0 0 0 0 0 0 0 0 0 0 0 0 0 0 0 0 0 0 0 0 0 0 0 0 0 0 0 0 0 0 0 0 0 0 0 "/>
</feComponentTransfer>
<feComposite operator="in" in2="shape" in="coloredNoise1" result="noise1Clipped" />
<feFlood flood-color="rgba(0, 0, 0, 0.02)" result="color1Flood" />
<feComposite operator="in" in2="noise1Clipped" in="color1Flood" result="color1" />
<feMerge result="effect2_noise_166_47">
<feMergeNode in="shape" />
<feMergeNode in="color1" />
</feMerge>
<feBlend mode="normal" in="effect2_noise_166_47" in2="effect1_dropShadow_166_47" result="effect2_noise_166_47"/>
</filter>
<filter id="filter1_n_166_47" x="7" y="52" width="18" height="17" filterUnits="userSpaceOnUse" color-interpolation-filters="sRGB">
<feFlood flood-opacity="0" result="BackgroundImageFix"/>
<feBlend mode="normal" in="SourceGraphic" in2="BackgroundImageFix" result="shape"/>
<feTurbulence type="fractalNoise" baseFrequency="2 2" stitchTiles="stitch" numOctaves="3" result="noise" seed="3591" />
<feColorMatrix in="noise" type="luminanceToAlpha" result="alphaNoise" />
<feComponentTransfer in="alphaNoise" result="coloredNoise1">
<feFuncA type="discrete" tableValues="0 0 0 0 0 0 0 0 0 0 0 0 0 0 1 1 1 1 1 1 1 1 1 1 1 1 1 1 1 1 1 1 1 1 1 1 0 0 0 0 0 0 0 0 0 0 0 0 0 0 0 0 0 0 0 0 0 0 0 0 0 0 0 0 0 0 0 0 0 0 0 0 0 0 0 0 0 0 0 0 0 0 0 0 0 0 0 0 0 0 0 0 0 0 0 0 0 0 0 0 "/>
</feComponentTransfer>
<feComposite operator="in" in2="shape" in="coloredNoise1" result="noise1Clipped" />
<feFlood flood-color="#B55D3C" result="color1Flood" />
<feComposite operator="in" in2="noise1Clipped" in="color1Flood" result="color1" />
<feMerge result="effect1_noise_166_47">
<feMergeNode in="shape" />
<feMergeNode in="color1" />
</feMerge>
</filter>
<linearGradient id="paint0_linear_166_47" x1="25" y1="58.5" x2="7.5" y2="58.5" gradientUnits="userSpaceOnUse">
<stop stop-color="#B95F3D"/>
<stop offset="1" stop-color="#ED9F7B"/>
</linearGradient>
</defs>
</svg>
