<svg width="258" height="399" viewBox="0 0 258 399" fill="none" xmlns="http://www.w3.org/2000/svg">
<g filter="url(#filter0_n_326_25)">
<path d="M93.0797 43.5663C92.9252 44.8594 92.709 38.3566 93.0797 2H191.312V48H178.338V36.9157H104.2V48H93.0797V43.5663Z" fill="#834E22" stroke="black" stroke-opacity="0.2"/>
<path d="M84.9062 125.5C78.3869 124.768 76.603 124.538 76.4666 124.505L76.4688 124.5C76.4555 124.5 76.4539 124.501 76.4666 124.505L76 125.5V129.5H79.75V132H82.0938V155.5V156H81.1562V166H78.8125V175H76.4688V183H71.7812V190V205H69.9062V213.5H68.0312V219V220H66.625V228L64.2812 228.5V238H61.9375V246.5H60.5312V254.5L64.2812 256H83.5L83.9688 255H85.375V125.695H84.9062V125.5Z" fill="#18593B" stroke="black" stroke-opacity="0.2"/>
<path d="M187.094 184L188.031 179H190.844H191.781V172H219.438V167V166H217.562V163.5L215.688 164V160H214.281V151.5H210.531V145.5H208.188V142H207.25V139.5H205.375V133H203.031V129.5H199.75V127L196.938 126.5V124.5L179.594 125H175.375H170.688H170.219V133H168.344V135C166.938 134.333 164.125 133.4 164.125 135C164.125 137 162.875 137.167 162.25 137V140H85.8438V255.5H177.719L178.188 128L178.188 205H179.125V193H181.469V192.5V188.5C181.625 188.833 182.312 189.3 183.812 188.5C185.312 187.7 184.438 186.167 183.812 185.5L184.75 184H187.094Z" fill="#4A8D48"/>
<path d="M178.188 128C179.313 128 179.282 128 179.125 128V129H180.062V135H181.938V144.5H183.812V151.5V155V158.5H186.156V161.5H188.031M178.188 128L178.188 205H179.125V193H181.469V192.5V188.5C181.625 188.833 182.312 189.3 183.812 188.5C185.313 187.7 184.438 186.167 183.812 185.5L184.75 184H187.094L188.031 179M178.188 128L177.719 255.5H85.8438V140H162.25V137C162.875 137.167 164.125 137 164.125 135C164.125 133.4 166.938 134.333 168.344 135V133H170.219V125H170.688H175.375H179.594L196.938 124.5V126.5L199.75 127V129.5H203.031V133H205.375V139.5H207.25V142H208.188V145.5H210.531V151.5H214.281V160H215.688V164L217.562 163.5V166H219.438V167C219.438 166.667 219.438 167.2 219.438 172H191.781V179H190.844H188.031M188.031 161.5V174.5V179M188.031 161.5V179" stroke="black" stroke-opacity="0.2"/>
<path d="M75.5312 129.5H79.75V132H82.0938V156H81.1562V166H78.8125V175H76.4688V183H71.7812V186V190H60.5312V187.5L51.1562 187V183.5H45.0625V178H46.4688V168H48.8125V161H51.1562V155H52.5625V153.5V146H54.9062V141H56.3125V138H57.25V134L59.125 131V126H63.3438V125H75.5312V129.5Z" fill="#4A8D48" stroke="black" stroke-opacity="0.2"/>
<path d="M82.0938 131.5C80.2188 131.5 80.375 131.5 80.6875 131.5H79.75V129.5" stroke="black"/>
<path d="M177.25 262.5V255.5H83.9688L84.9062 264H177.25V262.5Z" fill="#1B2A31" stroke="black"/>
<path d="M158.5 209.5V220C158.5 220.167 158.594 220.5 158.969 220.5H158.5H148.188V211H142.094V220.5H130.844V210.5H127.094V197H130.375V189.5H120.531V179.5H116.312V185.5H110.688V158H133.188V167.5H141.156V177H150.531V187H158.969V200H150.062V208H158.5V209.5Z" fill="#DDD4B5" stroke="black"/>
<path d="M132.719 167.5C133.094 167.5 133.188 167.833 133.188 168" stroke="black"/>
<path d="M53.9688 126H58.6562H59.125V131L57.25 134V138H56.3125V141H54.9062V146H52.5625V155H51.1562V161H48.8125V161.5V168H46.4688V177.5L45.0625 178.5V183H40.375V180L33.3438 180.5V177.5H24.4375V175H23.5V172.5V157H26.3125V152H28.6562V144.5H30.5312V142.5V138H32.875V131.5L35.2188 131V123.5H41.7812H48.3438V125H52.5625L53.9688 126Z" fill="#18523A" stroke="black" stroke-opacity="0.2"/>
<path d="M131.312 168V176H123.812V167.5H131.312H131.781" stroke="#DDD4B5"/>
<path d="M132.719 177H139.75V187H132.25V177H132.719Z" fill="#50914D"/>
<path d="M141.156 187.5H149.125V197H141.156V187.5Z" fill="#50914D"/>
<path d="M132.719 177H139.75V187H132.25V177H132.719Z" stroke="black"/>
<path d="M141.156 187.5H149.125V197H141.156V187.5Z" stroke="black"/>
<path d="M177.719 268.5V264.5H84.4375V280.5H85.8438C86 283.667 86.2188 290 85.8438 290H83.5V308H80.6875V318V325.5L76.4688 329V340.5H113.969V338H116.312V335L118.188 332.5V325.5L120.062 324.5V308H121V300.5H123.344V292H124.75V279.5H126.625V276.5H142.562V285H143.5V299H148.188V312.5H150.062V323.5H153.344V337H156.156V370.5H192.719V323.5H188.969V308H187.562V299H184.75V295C184.906 293.333 185.125 290 184.75 290H181V286.5V279.5L178.656 278L177.719 274V268.5Z" fill="#3D3E36" stroke="black" stroke-opacity="0.2"/>
<path d="M193.188 395.5V370.5L156.156 371V397L193.188 396.5V395.5Z" fill="#4B4F40" stroke="black" stroke-opacity="0.2"/>
<path d="M128.031 300H123.812V292H124.75L125.688 280H127.094V277H143.031V285.5V299H148.188V300V313H150.062V324H152.875V337.5H155.688V396H136V346H134.594V332H132.25V321H129.906V310C129.281 310.167 128.031 310.4 128.031 310V300Z" fill="#15282C" stroke="black" stroke-opacity="0.2"/>
<path d="M113.969 347V340.5H76V346H75.0625L74.5938 356.5H71.3125L68.5 362.5C68.6562 365.5 68.875 371.5 68.5 371.5H65.6875V377H105.531V375H107.875V364.5H110.688V348.5H113.969V347Z" fill="#1E2C2C" stroke="black" stroke-opacity="0.2"/>
<path d="M71.7812 197.5V190H60.5312V187.5H51.1562V183.5H44.5938H40.8438V192.5H38.0312L38.9688 204H37.0938V213H34.75V222H31.9375V241.5H29.5938V256H26.7812V270.5H28.6562V274H38.0312V276.5H53.9688V266.5H57.25C57.25 258.1 59.4375 256 60.5312 256V247.5L61.9375 246.5V238H63.8125V228H66.625V227.5V220H68.5V213H69.9062V205H71.7812V197.5Z" fill="#F2B66E"/>
<path d="M51.1562 183.5V187.5H60.5312V190H71.7812V197.5V205H69.9062V213H68.5V220H66.625M51.1562 183.5C43.2813 183.5 43.5 183.5 44.5938 183.5H40.8438M51.1562 183.5H40.8438M57.25 266.5H53.9688V276.5H38.0312V274H28.6562V270.5H26.7812V256H29.5938V241.5H31.9375V222H34.75V213H37.0938V204H38.9688L38.0312 192.5H40.8438V183.5M57.25 266.5V256H60.5312M57.25 266.5C57.25 258.1 59.4375 256 60.5312 256M60.5312 256V247.5M61.9375 246.5H60.5312V247.5M61.9375 246.5V238H63.8125V228M61.9375 246.5L60.5312 247.5M63.8125 228L66.625 227.5V220M63.8125 228H66.625V220" stroke="black" stroke-opacity="0.2"/>
<g opacity="0.75">
<path d="M40.375 183.5V180H33.3438V177.5H26.3125L24.4375 176.5V175H19.2812H18.8125V183.5C18.8125 183.9 16.625 184 15.5312 184V193.5H12.7188V207H10.8438V220.5H8.5V228H5.6875V241H3.8125V254H1V263.5H3.8125V264.5H8.96875V266.5H13.6562V268.5H23.5V271.5H26.3125H26.7812V256H29.125L29.5938 241.5H32.4062L31.9375 222H34.75V213H37.0938V204H39.4375L38.0312 192.5H40.8438L40.375 183.5Z" fill="#B8732F"/>
<path d="M26.3125 177.5H33.3438V180H40.375V183.5L40.8438 192.5H38.0312L39.4375 204H37.0938V213H34.75V222H31.9375L32.4062 241.5H29.5938L29.125 256H26.7812V271.5H26.3125H23.5V268.5H13.6562V266.5H8.96875V264.5H3.8125V263.5H1V254H3.8125V241H5.6875V228H8.5V220.5H10.8438V207H12.7188V193.5H15.5312V184C16.625 184 18.8125 183.9 18.8125 183.5C18.8125 183.1 18.8125 177.667 18.8125 175H19.2812H24.4375M26.3125 177.5L24.4375 176.5V175M26.3125 177.5H24.4375V175" stroke="#1A120B" stroke-opacity="0.2"/>
</g>
<path d="M149.125 133.5V119.5H111.625V135V140H149.125V139.5V135V133.5Z" fill="#F0B46F"/>
<path d="M149.125 135V133.5C149.125 133.833 149.125 131.5 149.125 119.5H111.625V135M149.125 135H111.625M149.125 135V139.5V140H111.625V135" stroke="#F0B46F"/>
<path d="M86.7812 125C86.1562 125.167 90.0625 125.4 110.688 125V140L85.375 139.5V125H86.7812Z" fill="#12533B" stroke="black" stroke-opacity="0.2"/>
<path d="M170.219 132.5V125.5H149.125V140H149.594H162.25V137H164.125V135H167.875L168.344 132.5H170.219Z" fill="#12533B"/>
<path d="M149.125 119.5V125.5M149.125 125.5V140H149.594H162.25V137H164.125V135H167.875L168.344 132.5H170.219C170.219 132.833 170.219 131.9 170.219 125.5H149.125Z" stroke="black" stroke-opacity="0.2"/>
<path d="M92.4062 1H190.844V43H178.656V31.5H104.125V43H92.4062H91.4688M62.875 1H61V10.5H52.5625V89.5H66.1562V55.5H82.0938V70H91.4688" stroke="black" stroke-opacity="0.2"/>
<path d="M92.875 3H63.2477H61.305V11.8977H52.5625V90H66.6476V55.892H83.6468V70.7216H92.875V3Z" fill="#2D1F16" stroke="black" stroke-opacity="0.2"/>
<path d="M94.75 116.984V70.2419L83.4554 69.7339V55H67.5402V89.5484H51.625V91.0726V118H94.75V116.984Z" fill="#A4652F" stroke="black" stroke-opacity="0.2"/>
<path d="M190.844 116V43.5H177.719V33H104.594V43.5H92.4062V118.5H111.156H148.188H190.844V118V116Z" fill="#F7B873" stroke="black" stroke-opacity="0.2"/>
<path d="M160.844 58H173.5V79.5H159.906V58H160.844Z" fill="black" stroke="black"/>
<path d="M113.031 58H125.688V79.5H112.094V58H113.031Z" fill="black" stroke="black"/>
<path d="M128.969 93.5V81H129.906H157.562V93.5H128.969Z" fill="#D37A3E" stroke="black"/>
<path d="M64.2812 397.5C64.2812 397.833 64.5625 394.3 65.6875 377.5H106V375.5H107.875L106.469 390.5C106.156 390.333 105.438 390.1 105.062 390.5C104.688 390.9 104.594 396 104.594 398.5H64.2812V397.5Z" fill="#22353B" stroke="black" stroke-opacity="0.2"/>
<path d="M44.5938 398.5L45.0625 378L64.75 377.5L63.8125 398.5H44.5938Z" fill="#162A30" stroke="black"/>
<g opacity="0.82">
<path d="M221.782 173.5C222.095 173.5 221.97 173.4 218.97 173H192.25V180L191.782 185.5L195.532 185V189.5H198.813V194.5H208.188V188.5H221.313V185.5H225.063V184H226V177H222.25L221.782 173.5Z" fill="#A76A34"/>
<path d="M255.063 219.5C255.532 219.667 250.657 219.9 227.407 219.5V184H241.469V193.5H256.938V219.5H255.063Z" fill="#A76A34"/>
<path d="M180.531 213.5H178.188V206H179.594V194H181.938V190L184.281 189V186L185.219 185H187.562L188.5 180H191.312L190.844 186L194.594 185.5V190H197.406V191V195.5H197.875H198.813H208.656V189.5H221.781V189V186.5H225.531V185.216H226.938V220H255.062L255.063 221V223.5H249.906V228H247.094V230.5H213.344V232.5L209.125 232V236H197.875V235V233H194.594V230.5H192.25V227H188.969V222.5H185.688V221V218C184.75 218.167 182.875 218.4 182.875 218V214.5H180.531V213.5Z" fill="#A76A34"/>
<path d="M221.782 173.5C222.095 173.5 221.97 173.4 218.97 173H192.25V180L191.782 185.5L195.532 185V189.5H198.813V194.5H208.188V188.5H221.313V185.5H225.063V184H226V177H222.25L221.782 173.5Z" stroke="black" stroke-opacity="0.2"/>
<path d="M255.063 219.5C255.532 219.667 250.657 219.9 227.407 219.5V184H241.469V193.5H256.938V219.5H255.063Z" stroke="black" stroke-opacity="0.2"/>
<path d="M180.531 213.5H178.188V206H179.594V194H181.938V190L184.281 189V186L185.219 185H187.562L188.5 180H191.312L190.844 186L194.594 185.5V190H197.406V191V195.5H197.875H198.813H208.656V189.5H221.781V189V186.5H225.531V185.216H226.938V220H255.062L255.063 221V223.5H249.906V228H247.094V230.5H213.344V232.5L209.125 232V236H197.875V235V233H194.594V230.5H192.25V227H188.969V222.5H185.688V221V218C184.75 218.167 182.875 218.4 182.875 218V214.5H180.531V213.5Z" stroke="black" stroke-opacity="0.2"/>
</g>
<path d="M61.4691 255.5C63.4573 259.741 64.1368 261 64.2816 261.144V267C64.7502 272.833 65.6875 284.6 65.6875 285C65.6875 285.4 64.125 286.167 63.3438 286.5V302L61.4691 303V328.5H58.6562V334.5V342L56.3125 344L52.5625 355L49.75 363L46.9375 368.5L45.0625 375V377H65.6875L64.2816 371.5L68.0312 370.5V363L71.7812 356H74.5938V345.5L76 339.5V328.5L80.2188 325V308H83.5V290.5H85.375V281H83.5L83.9688 264.5V263L83.5 255.5H61.4691Z" fill="#10242B" stroke="black" stroke-opacity="0.2"/>
<path d="M241.031 201.119C241.774 201.555 242.712 202.315 242.824 202.533C242.87 202.622 242.715 202.713 242.436 202.714C240.095 202.724 237.706 200.763 237.403 200.561C237.28 200.479 237.993 200.6 239.314 201.252C240.635 201.904 242.818 203.168 244.036 203.838C245.415 204.598 245.74 204.668 245.668 204.728C245.135 205.173 243.582 203.719 242.014 202.405C240.989 201.547 240.546 201.001 240.303 200.743C240.189 200.621 240.171 200.445 240.189 200.304C240.207 200.164 240.281 200.045 240.597 199.905C241.442 199.531 243.187 199.642 245.573 200.217C246.83 200.52 248.108 201.148 249.312 201.768C250.516 202.389 251.589 203.06 251.938 203.425C252.288 203.791 251.881 203.83 249.284 203.041C246.687 202.252 241.912 200.634 239.378 199.76C236.845 198.887 236.697 198.808 236.88 198.767C237.062 198.727 237.581 198.727 239.809 199.674C242.038 200.622 245.961 202.517 247.686 203.434C249.411 204.351 248.819 204.232 247.477 203.678C246.136 203.123 244.063 202.136 242.94 201.569C241.817 201.001 241.706 200.883 241.797 200.841C241.887 200.8 242.184 200.839 243.428 201.353C244.672 201.867 246.856 202.854 248.277 203.54C249.698 204.226 250.29 204.582 250.096 204.686C249.901 204.79 248.902 204.632 246.37 203.662C243.838 202.693 239.804 200.916 238.354 199.981C236.905 199.046 238.164 199.007 240.737 199.5C243.31 199.992 247.159 201.019 247.513 201.133C247.868 201.247 244.611 200.418 242.84 199.952C241.07 199.485 240.885 199.406 241.123 199.287C241.36 199.167 242.026 199.009 243.869 198.849C245.711 198.688 248.709 198.53 250.198 198.429C251.687 198.328 251.576 198.289 250.649 198.19C249.722 198.09 247.982 197.932 246.827 197.792C245.147 197.587 244.472 197.411 244.192 197.391C242.885 197.299 249.141 197.45 249.311 197.51C249.397 197.54 248.778 197.53 247.495 197.333C244.091 196.81 241.817 196.295 242.222 196.333C243.899 196.494 245.586 196.97 245.816 197.19C246.035 197.399 244.418 197.212 243.235 197.113C242.052 197.014 240.831 196.856 240.109 196.774C239.387 196.693 239.202 196.693 240.032 197.028C240.862 197.364 242.713 198.035 243.851 198.42C244.99 198.806 245.36 198.885 245.606 198.945C245.966 199.033 244.264 198.612 241.128 197.697C238.965 197.066 238.116 196.414 237.892 196.295C237.632 196.157 238.997 196.607 241.258 197.584C242.073 197.936 242.224 197.968 241.486 197.337C239.16 195.348 237.33 194.021 237.236 194.001C236.119 193.76 239.496 196.053 239.554 196.234C239.711 196.724 238.343 195.262 237.707 194.821C237.545 194.708 237.59 195.406 238.09 197.25C238.591 199.094 239.516 202.213 240.012 204.135C240.507 206.058 240.544 206.69 240.415 206.877C240.158 207.249 239.24 205.437 237.975 201.848C237.094 199.348 235.97 195.377 235.323 193.264C234.676 191.151 234.602 190.993 234.545 190.853C234.488 190.712 234.451 190.594 234.802 193.257C235.153 195.92 235.894 201.368 236.071 203.701C236.249 206.034 235.842 205.086 235.096 202.052C234.349 199.017 233.276 193.925 232.723 191.222C232.17 188.519 232.17 188.362 232.485 192.445C232.799 196.529 233.428 204.859 233.494 205.4C233.559 205.941 233.04 198.44 232.773 196.411C232.507 194.383 232.507 198.054 232.451 199.551C232.424 200.279 232.207 197.984 232.226 195.928C232.229 195.633 231.947 197.989 231.76 201.138C231.693 202.274 231.647 202.471 231.628 202.711C231.587 203.226 231.609 201.814 231.628 200.604C231.635 200.117 231.683 203.816 231.536 203.344C231.388 202.872 231.055 199.121 230.847 197.347C230.638 195.573 230.564 195.889 230.526 196.782C230.425 199.134 230.414 201.115 230.302 201.971C230.252 202.351 230.263 202.629 230.134 200.877C230.004 199.124 229.745 195.334 229.649 195.533C229.552 195.732 229.626 200.036 229.646 202.391C229.666 204.746 229.629 205.022 229.591 205.243C229.553 205.465 229.516 205.622 229.59 204.046C229.663 202.469 229.848 199.153 229.759 199.023C228.046 196.558 228.917 205.583 228.917 204.58C228.917 200.459 228.88 197.886 228.769 198.661C228.639 199.566 228.469 200.28 228.469 200.461C228.469 201.397 228.581 198.731 228.767 197.062C229.026 194.744 228.842 192.987 228.898 191.542C229.029 188.166 229.066 185.926 229.345 185.906C230.923 185.795 233.7 185.885 234.373 185.945C234.922 185.995 236.087 186.285 237.344 186.503C238.769 186.75 240.057 186.683 240.337 186.782C240.473 186.831 240.58 186.921 240.637 187.139C240.924 188.235 240.582 189.23 240.489 190.01C240.349 191.181 240.284 191.824 240.208 195.086C240.196 195.62 240.097 195.382 239.967 195.102C239.265 193.598 238.043 192.271 237.611 191.472C237.014 190.365 236.585 189.4 236.338 189.094C236.179 188.896 236.578 190.02 237.358 191.964C238.138 193.909 239.507 197.107 240.157 198.813C240.807 200.52 240.696 200.638 240.547 200.64C240.194 200.644 239.207 199.454 237.51 197.268C236.581 196.07 235.703 194.53 235.226 193.895C234.75 193.261 234.75 193.537 235.36 195.101C235.971 196.664 237.192 199.507 237.877 201.07C238.562 202.633 238.673 202.83 238.749 202.991C238.824 203.152 238.861 203.27 238.714 203.035C238.566 202.8 238.233 202.208 237.47 200.265C236.706 198.321 235.521 195.044 234.874 193.179C234.227 191.313 234.153 190.958 234.115 190.854C234.077 190.749 234.077 190.907 234.188 192.41C234.299 193.913 234.521 196.755 234.561 198.062C234.602 199.368 234.454 199.052 233.896 197.073C233.339 195.095 232.376 191.462 231.862 190.677C231.348 189.892 231.311 192.063 231.255 192.787C231.175 193.814 230.899 191.351 230.843 190.953C230.788 190.56 230.935 192.484 230.955 193.681C230.971 194.621 230.568 188.68 230.416 186.723C230.263 184.766 230.263 185.043 230.541 187.08C230.819 189.118 231.374 192.908 231.53 194.071C231.588 194.497 231.161 191.83 231.142 191.61C231.09 190.99 230.9 193.891 230.806 196.208C230.736 197.912 230.302 191.072 230.263 190.73C230.183 190.008 230.115 193.093 230.021 193.603C229.512 196.337 230.6 188.281 230.785 187.863C231.47 186.312 234.332 188.637 235.27 188.876C235.599 188.96 234.76 188.917 233.357 188.877C232.951 188.866 233.175 188.759 233.437 188.698C234.667 188.415 235.941 188.12 236.781 187.98C237.105 187.927 237.215 187.881 236.995 187.762C235.528 186.97 234.826 187.163 234.657 187.023C234.191 186.638 236.576 186.962 237.364 187.241C237.778 187.387 238.113 187.56 238.208 187.699C238.318 187.863 237.705 187.84 237.499 187.899C236.955 188.055 238.45 188.358 238.674 188.378C238.915 188.4 239.123 188.12 239.291 188.079C239.8 187.956 239.162 189.431 238.919 190.091C238.824 190.349 238.787 191.143 238.658 191.449C237.951 193.121 237.965 188.08 237.928 188.493C237.64 191.655 238.227 192.423 238.171 192.763C238.139 192.961 237.446 191.4 236.625 189.469C235.722 187.345 235.424 186.884 235.256 186.862C234.867 186.813 235.642 189.496 236.352 192.446C236.607 193.504 236.692 193.659 236.767 193.839C236.843 194.019 236.917 194.216 236.807 193.805C236.421 192.361 236.096 191.072 236.096 190.793C236.096 190.355 236.356 191.785 236.637 193.079C236.693 193.381 236.73 193.539 236.768 193.68C236.806 193.82 236.843 193.939 236.881 194.061" stroke="#F2B66E" stroke-width="2" stroke-linecap="round"/>
<path d="M248.433 210.331C248.137 210.173 246.985 209.421 245.23 208.285C244.033 207.511 243.35 207.301 243.052 207.182C242.895 207.119 242.753 206.984 243.214 206.923C243.674 206.862 244.748 206.862 245.171 206.724C245.594 206.585 245.335 206.309 244.128 205.673C242.922 205.037 240.775 204.05 239.595 203.483C238.25 202.836 237.967 202.635 237.872 202.615C237.817 202.603 238.184 202.713 240.242 203.74C242.3 204.768 246.15 206.742 248.04 207.759C249.93 208.776 249.745 208.776 248.799 208.598C247.852 208.421 246.15 208.065 244.551 207.606C242.952 207.146 241.508 206.594 240.265 206.033C237.987 205.005 236.882 204.231 236.88 204.19C236.875 204.05 237.323 204.543 239.067 205.712C240.812 206.881 243.958 208.934 245.708 210.11C247.458 211.286 247.718 211.523 246.167 211.092C244.616 210.661 241.248 209.556 240.29 209.322C239.333 209.088 240.887 209.759 243.316 211.151C245.746 212.543 249.003 214.636 250.736 215.733C252.47 216.831 252.581 216.87 252.545 216.891C252.51 216.911 252.325 216.911 249.861 215.904C247.397 214.898 242.659 212.884 240.089 211.768C237.519 210.652 237.26 210.494 238.496 210.847C239.732 211.2 242.471 212.068 243.956 212.516C245.441 212.963 245.589 212.963 245.517 212.963C245.445 212.963 245.149 212.963 243.516 212.489C241.883 212.016 238.922 211.068 237.341 210.541C235.76 210.013 235.649 209.934 235.685 209.913C235.72 209.892 235.905 209.932 237.777 210.781C239.649 211.63 243.202 213.289 242.867 213.057C242.532 212.826 238.202 210.654 234.805 208.647C231.409 206.64 229.077 204.864 227.802 203.87C226.526 202.876 226.378 202.718 226.857 202.597C227.336 202.476 228.447 202.397 232.183 203.166C235.92 203.934 242.249 205.553 245.694 206.466C249.523 207.48 250.039 207.818 250.189 207.958C251.413 209.097 245.968 206.225 245.539 205.986C245.343 205.877 245.147 205.905 245.144 206.142C245.127 207.593 245.89 207.937 245.91 208.196C245.92 208.337 245.818 208.494 245.539 208.555C244.795 208.72 243.765 208.3 242.813 207.842C241.134 207.035 240.247 205.826 240.078 205.785C238.903 205.501 240.769 209.172 240.51 209.591C240.155 210.163 238.868 209.378 237.86 208.642C236.54 207.679 236.769 206.23 236.824 205.332C236.911 203.93 238.376 209.252 238.376 209.69C238.377 209.895 238.229 210.049 238.098 210.11C237.385 210.445 236.176 208.386 235.35 206.133C234.912 204.938 234.974 203.677 235.03 202.958C235.044 202.768 235.385 205.247 235.441 208.257C235.461 209.294 235.313 209.333 235.071 209.156C234.399 208.666 233.781 207.309 233.258 205.322C232.627 202.922 232.731 201.202 232.731 201.75C232.731 204.51 232.768 206.779 232.824 207.356C232.853 207.655 232.843 207.972 232.658 207.266C232.023 204.845 231.685 201.967 231.573 201.517C230.866 198.664 231.236 207.02 231.087 206.647C230.433 205.007 230.6 202.605 230.674 202.136C231.48 197.026 231.161 207.897 231.124 208.038C230.875 208.988 230.563 206.386 230.507 205.849C230.476 205.551 230.488 205.194 230.525 206.551C230.562 207.907 230.636 210.987 230.637 212.494C230.638 214.002 230.564 213.844 230.378 212.973C229.856 210.532 229.591 208.698 229.554 208.518C229.498 208.244 229.144 210.318 228.882 211.641C228.873 211.687 228.989 210.357 229.306 208.877C229.623 207.397 230.104 205.778 230.371 204.885C230.637 203.992 230.674 203.873 230.693 205.253C230.712 206.633 230.712 209.515 230.49 210.309C230.268 211.103 229.824 209.721 229.41 208.121C228.996 206.521 228.626 204.744 228.435 203.592C228.245 202.44 228.245 201.966 228.245 202.097C228.245 202.978 228.541 204.975 229.008 207.007C229.391 208.672 229.366 209.173 229.403 209.254C229.571 209.623 229.591 207.984 229.591 207.403C229.591 206.918 229.887 209.917 230.391 212.328C230.71 213.516 230.861 214.037 230.917 214.475C230.936 214.676 230.936 214.834 231.161 214.997" stroke="#F2B66E" stroke-width="2" stroke-linecap="round"/>
<path d="M240.357 194.898C240.617 194.859 241.362 194.7 242.205 194.54C242.376 194.507 242.486 194.46 244.69 194.44C246.893 194.42 251.187 194.42 253.399 194.656C255.61 194.893 255.61 195.367 255.629 195.67C255.686 196.612 255.76 197.568 255.816 199.446C255.867 201.165 255.835 204.443 255.853 206.19C255.876 208.377 256.021 209.092 256.077 210.108C256.167 211.715 256.097 214.277 255.947 214.775C255.765 215.384 255.722 216.623 255.648 217.979C255.624 218.433 255.426 218.387 255.258 218.288C255.089 218.189 254.904 218.031 253.772 217.949C252.64 217.868 250.568 217.868 249.426 217.829C247.825 217.773 246.943 217.471 245.894 217.35C244.566 217.197 243.688 216.832 242.865 216.772C241.929 216.703 240.66 216.593 239.725 216.532C238.934 216.481 236.49 216.117 234.529 215.895C233.413 215.768 232.808 215.516 232.73 215.377C232.632 215.203 233.54 215.277 236.251 215.335C238.963 215.394 243.737 215.552 246.141 215.594C248.546 215.636 248.434 215.557 247.526 215.2C246.618 214.844 244.915 214.212 243.575 213.65C241.282 212.687 239.765 211.968 239.015 211.728C238.864 211.68 239.682 211.687 240.629 211.944C242.596 212.478 244.278 213.042 244.673 213.063C246.514 213.16 241.409 211.45 240.568 211.111C240.242 210.98 240.135 210.891 241.669 211.541C243.203 212.191 246.386 213.573 245.972 213.337C245.558 213.102 241.449 211.207 239.259 210.211C237.068 209.215 236.92 209.175 236.918 209.175C236.772 209.136 238.586 209.965 240.716 211.081C241.599 211.544 239.371 210.463 236.116 208.866C235.226 208.429 237.776 210.53 237.963 210.709C238.963 211.667 233.257 209.177 233.141 209.134C232.864 209.033 234.282 209.802 235.369 210.54C236.456 211.279 237.714 212.226 238.659 212.872C240.159 213.898 240.954 214.278 241.233 214.477C241.456 214.636 240.702 214.283 238.413 213.192C236.986 212.512 235.124 211.35 234.04 210.741C232.752 210.017 232.358 209.893 232.244 209.853C232.197 209.836 232.501 210.049 233.985 210.821C235.469 211.593 238.208 212.975 240.267 213.884C243.565 215.341 245.066 215.674 245.013 215.734C244.898 215.863 244.404 215.597 243.231 215.102C242.058 214.607 240.171 213.738 239.143 213.271C237.789 212.656 237.257 212.288 236.639 211.411C236.038 210.557 235.76 210.173 235.573 210.033C234.849 209.488 235.274 212.796 234.565 214.671C234.419 215.057 234.229 215.193 234.078 215.136C232.621 214.585 233.663 210.7 233.74 209.851C233.954 207.472 233.627 213.595 233.516 214.277C233.495 214.402 233.441 214.516 233.33 214.399C232.949 214.002 232.62 212.851 232.21 211.379C231.784 209.854 231.721 208.462 231.739 208.493C233.983 212.265 231.647 213.918 231.553 214.217C231.33 214.93 232.019 212.128 232.187 211.73C232.311 211.433 233.209 211.882 235.2 212.935C236.452 213.597 238.338 214.186 239.754 214.63C242.073 215.358 243.234 215.475 243.163 215.475C242.203 215.475 241.145 215.436 240.345 215.376C239.287 215.297 237.453 214.606 235.565 213.39C234.884 212.951 234.825 212.767 234.898 212.607C235.081 212.204 237.199 211.77 240.038 211.173C241.413 210.884 241.888 210.69 242.15 210.631C243.188 210.396 239.797 208.657 239.74 208.458C239.653 208.154 240.356 208.258 240.542 208.139C240.634 208.081 240.655 207.941 240.619 207.801C240.423 207.048 239.574 206.546 239.366 206.223C238.385 204.703 241.889 209.373 241.909 209.552C241.937 209.813 240.701 209.061 238.82 207.532C237.68 206.606 236.31 205.175 235.512 204.404C234.576 203.501 234.338 203.274 234.226 202.976C234.162 202.805 234.188 202.56 234.392 202.655C236.299 203.546 236.879 205.505 237.103 205.684C237.22 205.778 237.326 205.902 237.347 205.647C237.417 204.762 237.216 202.689 237.235 200.476C237.242 199.685 237.29 199.566 237.402 199.663C238.49 200.608 239.155 203.182 239.959 204.718C240.031 204.856 239.093 202.97 238.009 200.419C237.539 199.312 237.59 198.927 237.665 198.629C237.73 198.367 237.888 198.129 238.112 197.93C238.523 197.564 239.343 197.451 242.755 197.391C244.466 197.36 245.96 197.212 246.341 197.171C246.705 197.132 244.976 197.171 244.627 197.132C244.279 197.092 244.612 197.013 246.098 196.933C247.583 196.853 250.211 196.774 251.398 196.674C252.585 196.574 252.252 196.456 251.581 196.316C248.61 195.696 247.762 195.776 247.499 195.597C247.304 195.465 247.87 195.178 247.798 195.058C247.009 193.753 245.444 195.137 245.088 195.177C244.335 195.26 247.008 195.654 247.46 195.855C247.707 195.964 246.123 195.935 244.556 195.816C242.213 195.638 241.032 195.298 240.656 195.257C239.655 195.149 242.934 195.575 243.273 195.616C243.639 195.66 242.082 195.458 241.223 195.199C240.882 195.096 240.734 195.058 242.082 195.334C243.431 195.61 246.281 196.202 248.674 196.586C251.068 196.97 252.919 197.128 253.65 197.17C254.381 197.212 253.937 197.133 252.69 196.757C251.444 196.38 249.408 195.709 248.082 195.304C245.54 194.528 245.144 194.5 245.012 194.44C244.17 194.058 247.64 195.015 249.39 195.512C253.299 196.623 253.624 196.214 254.261 196.214C255.228 196.214 251.649 195.855 251.351 195.835C250.787 195.798 254.112 196.812 254.47 197.031C255.496 197.656 252.063 197.092 251.353 196.953C251.051 196.893 250.866 196.853 251.363 197.05C253.034 197.712 254.45 198.168 254.489 198.228C255.917 200.373 249.181 197.371 249.605 197.528C250.172 197.739 251.472 198.159 251.972 198.403C252.473 198.646 252.14 198.686 251.784 198.667C251.427 198.648 251.057 198.569 251.162 198.646C251.785 199.106 252.618 199.244 252.657 199.344C252.85 199.832 250.909 199.445 249.47 199.266C248.921 199.197 248.735 199.205 250.009 199.639C251.283 200.074 254.022 200.942 255.156 201.409C256.289 201.876 255.734 201.916 253.949 201.561C252.164 201.206 249.166 200.456 247.695 200.07C246.225 199.684 246.373 199.684 247.449 199.999C250.534 200.905 252.693 201.637 252.528 201.677C250.352 202.206 248.883 201.08 248.787 201.04C248.221 200.803 250.223 201.277 250.839 201.536C251.324 201.74 249.574 201.046 246.472 199.97C245.362 199.585 245.22 199.447 245.458 199.366C245.697 199.285 246.326 199.246 247.52 199.383C248.714 199.521 250.453 199.837 251.794 199.999C253.134 200.162 254.022 200.162 254.461 200.103C254.9 200.044 254.863 199.925 254.844 199.785C254.741 199.028 254.639 203.349 254.415 203.988C254.36 204.143 254.377 204.306 254.377 204.309C254.377 204.311 254.377 204.153 254.192 204.032C252.764 203.1 250.828 203.512 250.453 203.512C250.384 203.512 251.786 203.749 253.079 204.108C253.665 204.27 250.167 203.953 247.776 203.495C246.899 203.327 246.716 203.234 246.824 203.194C248.266 202.652 249.924 203.512 250.485 203.433C251.166 203.337 251.795 202.595 252.41 202.455C252.684 202.393 253.134 202.435 253.307 202.475C253.432 202.503 253.181 202.793 253.087 203.051C252.873 203.642 253.367 204.188 253.441 204.191C254.211 204.222 253.89 202.636 254.021 202.476C254.756 201.574 254.004 206.295 253.835 206.981C253.512 208.29 254.152 203.56 254.45 201.982C254.538 201.515 254.675 204.004 254.713 207.399C254.741 209.859 253.928 202.802 253.928 201.645C253.928 200.016 254.601 206.857 254.582 207.456C254.579 207.582 253.897 205.206 252.981 202.196C252.643 201.087 252.62 200.806 252.583 200.604C252.545 200.403 252.508 200.284 252.545 201.802C252.581 203.32 252.692 206.479 252.657 207.77C252.621 209.062 252.436 208.391 252.23 207.354C251.751 204.946 251.573 203.157 251.573 202.796C251.573 202.446 251.869 205.052 252.317 207.661C252.5 208.725 252.47 209.283 252.451 209.627C252.433 209.971 252.396 210.089 252.266 209.973C252.136 209.856 251.914 209.501 251.485 208.094C251.056 206.687 250.426 204.239 250.102 202.88C249.778 201.52 249.778 201.323 249.76 201.28C249.722 201.193 250.332 203.294 251.305 206.105C251.644 207.087 251.537 207.218 251.221 207.102C249.093 206.315 248.062 204.275 247.666 203.87C246.276 202.448 250.033 207.173 251.135 208.448C251.546 208.923 251.609 209.092 250.703 208.837C249.797 208.583 247.91 207.912 246.16 207.171C244.41 206.431 242.856 205.641 244.128 206.024C245.399 206.407 249.545 207.986 251.551 208.741C253.557 209.495 253.298 209.376 252.35 209.059C249.782 208.198 248.022 207.581 248.002 207.401C247.914 206.592 249.553 207.499 249.795 207.559C250.068 207.626 248.561 206.829 246.13 205.673C245.349 205.302 245.55 205.227 245.96 205.247C247.002 205.295 247.943 205.426 248.281 205.387C248.492 205.362 247.649 205.108 247.405 205.067C247.162 205.027 249.314 206.334 251.743 207.73C252.612 208.229 252.766 208.257 252.694 208.316C252.387 208.573 251.281 208.537 250.271 208.615C250.044 208.633 252.302 209.805 255.05 210.962C255.945 211.338 255.837 211.25 255.539 211.091C254.161 210.355 253.817 210.132 253.649 209.934C253.564 209.834 253.591 209.656 253.647 209.535C253.757 209.295 254.113 209.175 254.449 209.075C254.595 209.032 254.711 209.094 254.787 209.233C254.973 209.574 254.937 210.089 254.882 210.468C254.86 210.62 254.715 210.649 254.455 210.512C252.792 209.635 251.687 208.816 251.423 208.617C251.364 208.572 251.754 208.694 251.74 208.735C251.725 208.776 251.429 208.776 251.351 208.894C251.154 209.191 251.795 209.652 252.131 209.97C252.273 210.103 252.246 210.288 251.709 210.369C251.172 210.451 250.099 210.451 249.638 210.47C248.431 210.522 253.401 212.362 253.926 212.604C254.035 212.654 254.15 212.683 254.059 212.703C251.762 213.218 248.691 211.567 249.158 211.646C249.366 211.682 249.513 211.726 249.368 211.746C248.145 211.917 247.648 211.608 247.536 211.528C247.152 211.257 249.469 211.566 250.339 211.687C250.897 211.764 248.996 211.807 248.547 211.727C248.475 211.714 248.953 212.005 249.42 212.243C249.605 212.338 249.628 212.482 249.48 212.543C248.471 212.961 247.686 212.484 247.554 212.484C246.331 212.484 250.038 213.122 250.096 213.202C250.359 213.564 248.922 213.322 248.787 213.46C247.851 214.413 251.197 214.238 251.403 214.378C252.148 214.881 249.07 214.479 248.604 214.399C248.396 214.364 248.248 214.32 248.579 214.339C248.91 214.358 249.724 214.437 250.94 214.714C252.155 214.992 253.746 215.466 254.4 215.69C255.053 215.914 254.72 215.875 254.456 215.815C253.998 215.712 253.631 215.556 253.276 215.496C253.108 215.467 252.959 215.475 252.883 215.653C252.672 216.143 252.843 216.671 252.936 216.909C252.985 217.033 253.067 217.148 253.179 217.09C253.967 216.687 253.816 215.439 253.927 214.84C254.055 214.155 254.152 213.367 254.319 212.843C254.613 211.924 254.861 214.356 255.049 215.193C255.094 215.392 255.124 215.552 255.143 215.377C255.162 215.201 255.162 214.688 255.106 214.404C254.984 213.779 254.267 213.602 253.799 213.382C253.678 213.325 253.52 213.401 253.406 213.5C252.943 213.906 252.732 214.278 252.639 214.536C252.424 215.127 252.993 215.712 253.328 216.39C253.407 216.549 253.441 216.669 253.146 216.73C252.85 216.791 252.221 216.791 251.083 216.633C246.432 215.988 245.966 215.795 245.89 215.774C245.279 215.61 247.084 216.231 247.85 216.333C248.242 216.384 248.913 216.432 249.587 216.492C249.786 216.509 249.668 216.669 249.537 216.75C248.914 217.133 248.062 217.468 247.537 217.727C246.417 218.279 244.211 217.947 242.854 218.087C240.033 218.378 238.003 218.068 237.668 218.008C237.111 217.988 236.657 217.948 235.249 217.888C233.952 217.868 231.472 217.868 228.805 217.988" stroke="#F2B66E" stroke-width="2" stroke-linecap="round"/>
<path d="M229.702 216.193C229.702 215.325 229.702 214.245 229.684 213.348C229.678 213.081 229.628 213.2 229.609 213.419C229.52 214.434 229.478 215.152 229.866 215.75C231.057 217.583 232.355 216.073 232.579 216.093C232.669 216.101 231.543 216.193 230.179 216.035C229.648 215.974 229.518 215.561 229.442 215.26C229.191 214.269 229.253 213.644 229.235 213.324C229.2 212.715 229.029 215.188 228.936 215.972C228.901 216.268 228.88 216.551 228.805 216.809C228.765 216.948 228.731 217.107 228.712 216.734C228.592 214.402 228.991 213.922 229.122 213.127C229.466 211.042 229.253 210.137 229.346 209.377C229.478 208.306 229.478 206.637 229.571 205.428C229.62 204.789 229.702 203.284 229.888 201.98C229.999 201.205 230.113 200.564 230.169 199.826C230.259 198.649 230.449 197.054 230.506 196.356C230.673 195.737 230.972 194.983 231.214 194.146C231.309 193.823 231.346 193.704 231.384 193.462" stroke="#F2B66E" stroke-width="2" stroke-linecap="round"/>
<path d="M239.909 184.969C238.833 184.969 236.994 184.929 235.512 184.869C234.141 184.814 231.513 184.849 230.159 184.928C228.805 185.007 228.805 185.165 228.787 185.305C228.768 185.446 228.731 185.564 228.712 186.158C228.693 186.752 228.693 187.818 228.805 189.036" stroke="#F2B66E" stroke-width="2" stroke-linecap="round"/>
<path d="M240.357 184.969C240.432 184.969 240.581 184.929 240.804 184.889C240.916 184.869 241.028 184.928 241.067 185.008C240.993 185.486 240.918 186.438 240.825 187.89C240.806 188.78 240.806 190.438 240.806 192.147" stroke="#F2B66E" stroke-width="2" stroke-linecap="round"/>
<path d="M217.922 181.163C216.645 181.163 215.367 181.163 212.706 181.163C210.044 181.163 206.038 181.163 204.177 181.102C202.316 181.04 202.722 180.916 203.28 180.79C203.838 180.664 204.535 180.54 206.433 180.538C208.33 180.537 211.408 180.66 213.139 180.755C215.162 180.866 215.807 180.976 215.958 180.976C219.261 180.976 209.07 180.413 208.686 180.32C208.147 180.189 212.091 179.54 215.989 179.071C217.447 178.895 217.855 178.911 218.21 178.88C218.859 178.823 214.683 178.785 209.534 178.879C208.856 178.892 212.108 178.911 212.042 178.849C211.975 178.787 208.491 178.663 208.206 178.6C207.92 178.536 210.94 178.536 212.379 178.505C214.628 178.456 203.959 177.661 204.69 177.473C207.173 176.835 211.098 177.034 212.406 176.972C213.075 176.941 208.371 176.786 206.868 176.599C205.365 176.411 205.83 176.163 207.608 175.943C209.386 175.722 212.464 175.536 212.975 175.41C213.486 175.283 211.338 175.221 210.666 175.189C208.756 175.098 215.505 175.533 216.688 175.719C217.054 175.777 217.393 175.908 217.54 176.032C218.986 177.243 213.242 179.343 212.233 179.786C211.119 180.275 214.049 180.537 214.226 180.755C214.949 181.649 211.239 180.413 211.089 180.413C210.136 180.413 213.226 180.351 213.406 180.009C214.052 178.786 209.147 178.042 205.541 177.01C204.208 176.628 203.852 176.659 204.05 176.659C204.248 176.659 205.003 176.659 207.453 176.937C209.904 177.216 214.026 177.774 216.266 178.061C218.506 178.348 218.739 178.348 217.697 178.286C216.655 178.224 214.333 178.1 213.978 178.005C213.623 177.911 215.307 177.849 215.536 177.817C215.765 177.785 214.487 177.785 214.294 177.785C214.1 177.785 215.029 177.785 215.987 177.785" stroke="#F2B66E" stroke-width="2" stroke-linecap="round"/>
<path d="M220.799 174.764C220.517 174.764 220.121 174.644 219.767 174.493C219.353 174.315 218.877 174.342 218.424 174.296C218.195 174.273 217.466 174.221 216.49 174.236C216.045 174.242 215.204 174.311 214.002 174.296C213.443 174.289 212.068 174.221 210.116 174.206C209.34 174.2 208.89 174.13 208.297 174.115C208.067 174.1 207.983 174.07 205.545 174.055C203.106 174.04 198.316 174.04 193.381 174.04" stroke="#F2B66E" stroke-width="2" stroke-linecap="round"/>
<path d="M193.381 174.04C193.381 174.279 193.381 175.687 193.367 177.678C193.357 179.017 193.24 180.104 193.197 180.843C193.169 181.323 192.985 181.794 192.942 182.563C192.928 182.824 192.872 183.361 192.928 184.025C192.946 184.248 193.096 184.211 193.209 184.166C193.709 183.967 194.228 183.88 194.991 183.803C195.461 183.756 195.953 183.487 196.858 183.411C197.422 183.364 197.932 183.034 198.556 182.883C199.743 182.596 200.477 182.431 201.118 182.325C201.688 182.23 202.71 181.888 203.621 181.721C204.265 181.603 205.371 181.346 205.592 181.014C205.877 180.585 203.431 180.861 201.753 180.696C200.075 180.532 198.45 180.233 197.571 180.064C196.692 179.895 196.608 179.865 196.831 179.775C197.054 179.685 197.586 179.536 198.869 179.324C200.151 179.113 202.168 178.844 203.347 178.705C204.526 178.567 204.806 178.567 204.068 178.492C203.33 178.417 201.565 178.268 200.768 178.176C200.188 178.109 201.911 178.233 204.917 178.744C206.445 179.004 207.951 179.434 208.464 179.634C208.641 179.703 206.972 179.715 204.801 179.369C203.55 179.17 202.014 178.815 202.817 178.87C203.62 178.924 206.813 179.373 208.528 179.603C210.243 179.834 210.383 179.834 210.329 179.834C210.276 179.834 210.023 179.834 208.465 179.476C206.906 179.117 204.049 178.4 202.521 178.001C200.993 177.602 200.881 177.542 200.866 177.481C200.83 177.345 201.497 177.269 203.017 177.119C204.062 177.016 205.657 176.79 206.578 176.683C207.498 176.575 207.694 176.575 206.241 176.56C204.787 176.545 201.678 176.515 201.588 176.5C201.499 176.484 204.525 176.484 204.374 176.469C204.224 176.454 200.807 176.424 199.116 176.394C197.426 176.364 197.566 176.334 199.263 176.244C200.959 176.154 204.209 176.004 204.636 175.898C205.064 175.791 202.571 175.731 201.006 175.655C199.442 175.58 198.881 175.49 198.537 175.444C198.192 175.398 198.08 175.398 199.675 175.293C201.27 175.189 204.576 174.979 204.093 174.812C203.611 174.644 199.241 174.525 197.761 174.702C195.577 174.964 200.284 176.001 200.496 176.106C200.674 176.195 199.645 176.213 198.06 176.213C197.819 176.213 198.274 176.302 197.983 176.393C197.489 176.548 196.208 176.305 195.656 176.259C195.105 176.213 195.301 176.213 197.223 176.87C199.145 177.527 202.786 178.842 204.27 179.445C205.754 180.047 204.969 179.898 203.697 179.537C202.425 179.176 200.688 178.608 199.709 178.301C198.296 177.857 197.881 177.813 197.443 177.677C197.32 177.638 197.175 177.661 197.159 177.766C197.023 178.651 197.71 179.679 197.57 180.15C197.541 180.247 197.345 180.197 197.245 180.137C196.759 179.847 196.523 178.694 196.366 178.01C196.336 177.877 196.352 177.725 196.338 177.722C195.867 177.646 195.956 178.866 195.674 179.23C195.617 179.304 195.505 179.231 195.405 178.947C194.749 177.069 195.135 175.401 195.163 175.125C195.351 173.327 194.994 178.081 194.994 178.384C194.994 178.866 195.276 177 195.587 176.561C195.75 176.331 195.927 176.093 196.348 175.912C196.666 175.776 197.274 175.85 197.269 175.85C197.264 175.85 196.647 175.85 196.33 175.94C195.938 176.051 195.9 177.529 195.731 179.354C195.613 180.615 195.56 181.011 195.489 181.191C195.453 181.285 195.391 181.372 195.32 181.179C195.084 180.536 195.079 179.836 195.065 179.669C195.01 179.021 194.938 181.039 194.697 181.464C194.65 181.548 194.654 181.019 194.626 180.983C194.206 180.454 194.315 181.946 194.287 182.172C194.273 182.281 194.203 182.368 194.594 182.309C194.985 182.251 195.826 182.042 196.889 181.874C197.952 181.707 199.212 181.587 200.282 181.541C201.352 181.494 202.192 181.524 201.7 181.539C199.361 181.613 197.567 181.495 197.919 181.375C198.154 181.294 198.523 181.254 198.781 181.193C199.185 181.098 197.782 180.235 195.518 178.953C194.754 178.521 194.934 178.239 195.245 178.042C195.555 177.844 196.031 177.665 197.481 177.348C198.931 177.032 201.34 176.584 203.799 176.308C206.259 176.032 208.696 175.943 208.943 175.807C209.19 175.671 207.173 175.492 206.022 175.37C204.643 175.223 204.276 175.126 204.274 175.126C204.136 175.126 204.832 175.126 204.978 175.141C205.021 175.145 204.56 175.217 204.262 175.202C204.239 175.201 204.496 175.157 206.825 175.381C209.153 175.604 213.551 176.082 215.397 176.329C217.242 176.575 216.402 176.575 215.703 176.545C214.47 176.492 213.307 176.394 212.639 176.439C212.143 176.472 213.78 176.725 213.992 176.831C214.091 176.88 214.176 176.906 214.037 176.951C213.547 177.111 212.347 177.118 211.27 177.073C211.002 177.062 211.314 176.939 212.957 176.922C214.6 176.906 217.57 176.966 219.043 176.997C220.517 177.028 220.405 177.028 220.137 176.983C218.846 176.767 218.339 176.696 218.182 176.576C217.708 176.211 219.296 176.303 219.778 176.213C220.255 176.124 220.683 175.85 221.023 175.91C221.435 175.983 221.449 176.723 221.506 177.568C221.525 177.854 221.704 178.052 221.69 178.263C221.67 178.584 220.635 178.476 219.8 178.476C219.665 178.476 218.604 178.446 217.353 178.58C217.184 178.599 218.344 179.103 219.438 179.556C221.654 180.474 222.835 181.162 222.71 181.252C222.536 181.379 221.997 181.283 220.127 180.969C218.256 180.656 215.035 180.028 213.516 179.72C211.996 179.412 212.276 179.441 213.317 179.815C214.358 180.189 216.15 180.906 216.934 181.291C217.717 181.675 217.437 181.705 215.85 181.317C214.263 180.929 211.378 180.122 209.85 179.692C208.321 179.261 208.237 179.231 209.539 179.814C210.84 180.396 213.529 181.591 215.041 182.281C216.552 182.972 216.804 183.121 216.836 183.213C216.868 183.305 216.672 183.335 214.792 183.007C212.912 182.678 209.355 181.991 207.34 181.577C205.325 181.164 204.961 181.044 206.412 181.52C207.863 181.997 211.141 183.072 212.689 183.626C214.237 184.18 213.957 184.18 212.412 183.912C210.867 183.643 208.066 183.105 206.679 182.828C205.292 182.551 205.404 182.551 206.4 182.835C207.396 183.118 209.273 183.686 210.198 183.994C211.123 184.301 211.039 184.331 210.267 184.257C208.035 184.042 206.062 183.699 206.251 183.802C206.872 184.139 208.737 184.592 209.226 184.854C209.716 185.117 208.82 185.057 207.462 184.832C206.103 184.607 204.311 184.219 203.247 184.003C202.183 183.788 201.903 183.759 201.815 183.728C201.727 183.698 201.839 183.668 202.933 184.011C204.027 184.354 206.1 185.071 206.3 185.172C206.499 185.272 204.762 184.735 204.022 184.428C203.281 184.121 203.589 184.061 204.322 184.045C206.203 184.004 207.443 184 207.556 183.715C207.741 183.246 207.726 182.734 207.586 182.567C206.886 181.732 205.64 183.965 204.73 184.286C204.593 184.334 204.503 184.182 204.473 184.032C204.31 183.192 205.737 181.984 206.368 181.404C206.409 181.367 206.09 181.522 205.246 181.882C204.402 182.243 202.946 182.84 201.873 183.253C200.801 183.665 200.156 183.874 200.035 184.027C199.146 185.14 203.081 184.662 204.069 184.843C204.522 184.926 204.89 184.905 204.055 184.98C203.22 185.054 201.175 185.204 200.234 185.281C199.292 185.358 199.516 185.358 200.136 185.447C200.756 185.537 201.764 185.716 202.074 185.749C203.011 185.848 200.034 185.238 199.396 185.026C198.785 184.823 198.25 184.785 197.895 184.454C197.604 184.182 197.71 183.579 197.71 183.277C197.71 182.917 197.541 184.209 197.414 184.391C197.384 184.434 197.37 184.095 197.37 184.136C197.37 185.025 197.258 185.357 197.215 185.418C197.197 185.444 197.201 185.24 197.173 185.253C196.99 185.335 197.031 186.287 197.031 187.133C197.031 187.322 197.031 187.024 197.073 186.84C197.115 186.656 197.199 186.596 197.396 186.565C197.897 186.487 199.396 186.714 201.234 187C201.897 187.104 202.009 187.138 201.954 187.138C201.674 187.14 200.885 186.869 200.554 186.836C199.115 186.692 203.056 188.284 203.367 188.48C203.602 188.628 202.364 188.229 200.383 187.715C199.78 187.559 199.97 187.739 200.281 187.935C201.543 188.733 201.869 188.919 201.954 188.979C202.037 189.038 201.224 189.04 200.319 188.98C199.86 188.949 201.064 189.486 203.241 190.511C204.109 190.92 204.465 191.178 204.709 191.331C204.952 191.484 205.064 191.544 204.632 191.425C204.199 191.306 203.219 191.007 202.868 190.898C202.823 190.884 203.871 191.33 204.778 191.828C204.972 191.935 203.741 191.577 203.217 191.275C202.735 190.998 204.497 191.663 205.079 191.966C205.557 192.216 205.942 192.599 206.282 192.872C206.597 193.124 206.905 193.144 207.117 193.159C207.305 193.173 206.126 193.235 204.146 193.22C203.028 193.211 202.635 193.025 201.86 192.888C201.457 192.817 200.779 192.873 200.433 192.813C200.087 192.753 200.087 192.634 200.115 192.453C200.242 191.628 200.341 190.676 200.425 189.815C200.544 188.6 202.293 191.574 202.462 191.68C202.545 191.731 202.632 191.755 202.577 191.517C202.177 189.776 201.756 188.86 201.84 188.709C202.025 188.374 203.136 189.545 204.239 190.737C204.8 191.343 205.066 191.514 205.207 191.53C205.936 191.614 205.688 190.04 205.943 189.614C206.141 189.283 206.255 190.426 206.255 190.698C206.256 190.807 206.032 190.79 205.862 190.715C204.427 190.088 203.823 187.382 203.667 186.975C203.602 186.804 203.54 186.718 203.511 186.925C203.482 187.133 203.482 187.641 203.412 187.843C203.335 188.067 202.582 186.488 201.846 184.436C201.582 183.701 201.559 183.579 201.6 183.488C201.642 183.396 201.754 183.337 201.882 183.321C202.148 183.288 203.33 184.083 204.747 185.199C205.175 185.537 204.818 185.658 204.59 185.689C204.222 185.738 203.88 185.66 203.625 185.54C203.066 185.275 206.048 185.537 207.154 185.823C208.301 186.121 204.728 185.751 204.615 185.645C204.582 185.615 204.725 185.569 205.861 185.644C206.997 185.718 209.154 185.897 210.069 185.975C210.984 186.052 210.592 186.022 210.18 185.962C209.344 185.84 208.831 185.69 208.774 185.63C208.648 185.498 209.589 185.539 211.137 185.673C212.185 185.764 213.75 186.076 214.614 186.215C215.478 186.354 215.59 186.354 215.466 186.354C215.341 186.354 214.977 186.354 214.075 186.144C211.727 185.6 210.161 185.026 210.047 184.906C209.935 184.787 210.973 184.724 212.749 184.873C213.829 184.964 215.252 185.321 215.316 185.147C215.859 183.655 212.566 183.577 212.48 183.472C212.215 183.144 213.833 183.455 215.325 183.815C216.32 184.055 217.77 184.534 218.436 184.69C219.103 184.846 218.935 184.697 218.694 184.545C218.163 184.21 217.632 183.97 217.419 183.759C216.972 183.317 218.731 183.248 219.691 182.553C220.379 182.055 221.024 182.007 221.334 181.978C221.506 181.961 221.7 181.888 221.241 181.708C218.456 180.615 217.97 180.891 217.899 180.861C217.677 180.767 218.813 181.13 219.605 181.447C219.915 181.571 220.06 181.555 219.726 181.301C218.626 180.464 217.631 179.926 217.517 179.745C217.404 179.566 217.967 179.412 219.133 179.247C220.072 179.114 221.727 178.992 222.635 178.9C223.888 178.774 224.193 178.627 224.251 178.567C224.376 178.435 223.575 178.476 223.15 178.446C222.435 178.396 224.448 178.265 224.589 178.295C225.1 178.401 224.647 179.38 224.548 180.101C224.297 181.927 224.393 182.368 224.279 182.73C224.223 182.911 224.194 183.183 224.152 183.484C224.134 183.613 224.026 183.666 223.941 183.712C223.256 184.079 221.989 183.759 221.578 183.533C221.47 183.473 221.395 183.367 221.365 183.247C221.244 182.746 221.59 182.192 221.943 181.587C222.189 181.167 222.524 180.861 222.721 180.815C223.169 180.712 223.091 181.884 223.091 182.172C223.091 182.518 223.176 181.406 223.401 180.862C223.488 180.652 223.543 180.469 223.572 180.468C224.363 180.43 223.459 182.154 223.275 182.82C223.127 183.359 223.091 183.786 222.908 184.134C222.543 184.832 221.481 184.09 220.479 184.015C219.987 183.978 219.174 183.999 218.882 184.029C218.535 184.065 219.44 184.301 219.497 184.376C219.877 184.874 218.31 184.783 218.196 184.934C217.895 185.332 218.874 185.387 219.001 185.463C219.106 185.524 218.51 185.629 218.197 185.629C217.293 185.629 219.439 185.419 219.793 185.238C220.022 185.12 220.204 184.965 220.345 184.98C220.52 184.998 220.459 185.865 220.095 186.77C219.317 188.703 217.689 186.928 217.066 186.882C216.273 186.824 215.538 186.746 214.48 186.686C213.729 186.643 212.993 186.535 212.525 186.505C212.392 186.496 212.478 186.415 212.592 186.354C213.183 186.038 214.117 185.991 215.966 185.766C217.76 185.547 218.138 185.629 218.21 185.659C218.278 185.687 217.862 185.749 216.947 185.794C216.032 185.84 214.492 185.87 213.754 185.915C213.016 185.961 213.129 186.02 213.452 186.141C214.947 186.697 215.42 186.685 216.001 186.731C216.387 186.761 216.554 187.108 216.653 187.198C216.697 187.238 216.612 187.348 216.541 187.409C216.404 187.527 215.123 187.531 213.271 187.516C212.166 187.507 211.494 187.23 210.94 187.078C209.805 186.768 207.9 186.928 207.037 186.867C206.537 186.832 205.779 186.716 205.085 186.716C204.817 186.716 205.913 186.957 206.31 187.077C206.786 187.222 207.131 187.378 207.429 187.739C208.27 188.759 207.302 189.821 207.232 190.38C207.146 191.056 207.076 191.422 206.991 191.74C206.851 192.268 206.567 190.763 206.313 189.963C206.167 189.504 206.142 189.072 205.818 188.408C205.62 188.004 205.576 187.683 205.604 187.532C205.727 186.858 206.876 188.254 207.075 188.435C207.105 188.526 206.993 188.615 206.893 188.676C206.794 188.738 206.71 188.767 206.453 188.889" stroke="#F2B66E" stroke-width="2" stroke-linecap="round"/>
<path d="M200.328 187.293C199.881 187.293 198.88 187.293 197.762 187.293C197.415 187.293 197.517 187.293 197.742 187.337C198.761 187.533 199.279 187.817 199.792 188.025C200.294 188.228 197.749 188.06 197.284 188.015C197.214 188.009 197.193 188.015 196.824 187.853C195.988 187.485 196.637 186.074 196.586 185.578C196.551 185.239 196.514 184.63 196.504 183.941C196.5 183.685 196.474 183.62 196.463 184.356C196.453 185.091 196.453 186.628 196.493 187.431C196.534 188.234 196.615 188.255 196.779 188.267C197.497 188.316 197.784 188.387 198.245 188.463C198.723 188.543 199.034 188.54 199.311 188.789C200.28 189.661 199.467 190.745 199.518 191.294C199.581 191.971 199.59 192.452 199.641 192.837C199.654 192.935 199.651 193.065 199.682 193.132C199.73 193.238 200.039 193.112 200.388 193.002C200.55 192.951 201.366 192.936 202.555 192.958C203.178 192.969 203.423 193.067 203.587 193.078C203.753 193.089 204.666 193.133 205.978 193.111C206.792 193.098 207.195 192.959 207.759 192.904C207.877 192.892 207.914 192.806 207.945 192.719C208.263 191.821 208.058 190.226 208.099 189.451C208.109 189.262 208.16 189.133 208.181 188.958C208.202 188.783 208.202 188.566 208.668 188.455C210.039 188.127 211.092 188.322 211.387 188.289C212.028 188.278 212.527 188.256 212.762 188.223C212.915 188.212 213.139 188.212 213.369 188.212" stroke="#F2B66E" stroke-width="2" stroke-linecap="round"/>
<path d="M212.952 174.103C213.34 174.103 213.756 174.089 214.265 174.062C214.67 174.039 215.377 174.034 215.773 174.034C216.351 174.033 216.558 174.089 216.921 174.11C217.335 174.134 217.895 174.158 218.46 174.179C218.987 174.198 220.002 174.186 220.525 174.501C221.42 175.041 221.06 176.137 221.08 176.26C221.14 176.644 221.125 176.897 221.151 177.118C221.183 177.391 221.449 177.548 221.559 177.7C221.67 177.854 221.864 177.949 222.065 178.046C222.264 178.142 222.936 178.13 223.76 178.123C224.108 178.12 224.546 178.088 225.13 178.307C226.194 178.707 225.212 179.83 225.141 180.121C225.074 180.396 225.03 180.647 225.011 180.903C224.986 181.228 224.952 181.616 224.933 182.829C224.925 183.279 224.861 183.689 224.823 184.017C224.8 184.21 224.719 184.397 224.699 184.736C224.695 184.813 224.68 184.854 224.654 184.889C224.59 184.951 224.499 184.993 224.036 185.014C223.624 185.021 222.853 185.021 222.059 185.021" stroke="#F2B66E" stroke-width="2" stroke-linecap="round"/>
</g>
<defs>
<filter id="filter0_n_326_25" x="0.5" y="0.5" width="256.938" height="398.5" filterUnits="userSpaceOnUse" color-interpolation-filters="sRGB">
<feFlood flood-opacity="0" result="BackgroundImageFix"/>
<feBlend mode="normal" in="SourceGraphic" in2="BackgroundImageFix" result="shape"/>
<feTurbulence type="fractalNoise" baseFrequency="1.25 1.25" stitchTiles="stitch" numOctaves="3" result="noise" seed="5975" />
<feColorMatrix in="noise" type="luminanceToAlpha" result="alphaNoise" />
<feComponentTransfer in="alphaNoise" result="coloredNoise1">
<feFuncA type="discrete" tableValues="0 0 0 0 0 0 1 1 1 1 1 1 1 1 1 1 1 1 1 1 1 1 1 1 1 1 1 1 1 1 1 1 1 1 1 1 1 1 1 1 1 1 1 1 0 0 0 0 0 0 0 0 0 0 0 0 0 0 0 0 0 0 0 0 0 0 0 0 0 0 0 0 0 0 0 0 0 0 0 0 0 0 0 0 0 0 0 0 0 0 0 0 0 0 0 0 0 0 0 0 "/>
</feComponentTransfer>
<feComposite operator="in" in2="shape" in="coloredNoise1" result="noise1Clipped" />
<feFlood flood-color="rgba(0, 0, 0, 0.25)" result="color1Flood" />
<feComposite operator="in" in2="noise1Clipped" in="color1Flood" result="color1" />
<feMerge result="effect1_noise_326_25">
<feMergeNode in="shape" />
<feMergeNode in="color1" />
</feMerge>
</filter>
</defs>
</svg>
