<svg width="356" height="35" viewBox="0 0 356 35" fill="none" xmlns="http://www.w3.org/2000/svg">
<path d="M0.40625 35V0H10.4062V15H25.4062V0H35.4063V35H25.4062V20H10.4062V35H0.40625ZM40.4062 35V10H45.4062V5H50.4062V0H65.4062V5H70.4063V10H75.4063V35H65.4062V25H50.4062V35H40.4062ZM50.4062 20H65.4062V10H60.4062V5H55.4063V10H50.4062V20ZM90.4062 35V30H85.4062V25H80.4062V10H85.4062V5H90.4062V0H110.406V5H115.406V10H105.406V5H95.4063V10H90.4062V25H95.4063V30H105.406V25H115.406V30H110.406V35H90.4062ZM120.406 35V0H130.406V15H135.406V10H140.406V5H145.406V0H155.406V5H150.406V10H145.406V15H140.406V20H145.406V25H150.406V30H155.406V35H140.406V30H135.406V25H130.406V35H120.406ZM160.406 35V10H165.406V5H170.406V0H185.406V5H190.406V10H195.406V35H185.406V25H170.406V35H160.406ZM170.406 20H185.406V10H180.406V5H175.406V10H170.406V20ZM215.406 35V5H205.406V0H235.406V5H225.406V35H215.406ZM240.406 35V0H250.406V15H265.406V0H275.406V35H265.406V20H250.406V35H240.406ZM285.406 35V30H280.406V5H285.406V0H310.406V5H315.406V30H310.406V35H285.406ZM290.406 30H305.406V5H290.406V30ZM320.406 35V0H330.406V5H335.406V10H340.406V15H345.406V0H355.406V35H345.406V25H340.406V20H335.406V15H330.406V35H320.406Z" fill="white"/>
</svg>
