<svg width="270" height="74" viewBox="0 0 270 74" fill="none" xmlns="http://www.w3.org/2000/svg">
<path fill-rule="evenodd" clip-rule="evenodd" d="M39 68C60.5391 68 78 53.6731 78 36C78 18.3269 60.5391 4 39 4C17.4609 4 0 18.3269 0 36C0 53.6731 17.4609 68 39 68ZM33 19.4998V45.9998H45V25.4998C48.1667 25.6665 54.5 27.2998 54.5 32.4998V40.4998C54.5 43.9998 50.3 47.4998 45.5 47.4998H32.5C29.5 47.4998 23.5 44.8998 23.5 40.4998V32.4998C23.5 30.4998 26.2 25.4998 31 25.4998V21.4998C24.8333 22.1665 12.5 25.9998 12.5 35.9998C12.5 48.4998 30.5 50.9998 32.5 50.9998V53.9998C32.5 54.4998 32.2 55.4998 31 55.4998H27C26.3333 55.4998 25 55.8998 25 57.4998C25 59.0181 26.3507 59.0056 26.9159 59.0003C26.9463 59.0001 26.9745 58.9998 27 58.9998H50C50.8333 58.9998 52.5 58.6998 52.5 57.4998C52.5 55.9998 51.5 55.4998 50 55.4998H46.5C46.1667 55.4998 45.5 55.2998 45.5 54.4998V50.9998C52.3333 50.1665 65.9 45.9998 65.5 35.9998C65 23.4998 47.5 21.4998 45 21.4998V11.9998C45 11.1665 44.4 9.69979 42 10.4998C39 11.4998 31 13.5 26 14C24.8288 14.7808 24.8769 14.9519 24.9543 15.2274C24.976 15.3048 25 15.3904 25 15.5C25 16 26 17 26.5 17H31C31.6667 16.9999 33 17.4996 33 19.4998Z" fill="#FAA41A"/>
<path d="M66.7943 68.1943C66.7943 68.9814 66.7943 69.7257 66.7943 70.495C66.5159 70.495 66.2677 70.495 66 70.495C66 68.8462 66 67.2138 66 65.5204C66.2919 65.5204 66.5871 65.4942 66.8744 65.5336C66.9858 65.5488 67.118 65.6916 67.1743 65.8114C67.5723 66.6569 67.9527 67.5118 68.3399 68.3631C68.3793 68.4497 68.4271 68.532 68.509 68.6896C68.8202 68.0267 69.1089 67.417 69.3922 66.8046C69.462 66.6536 69.5057 66.489 69.576 66.3383C69.9966 65.4358 69.998 65.4366 71 65.5544C71 67.1942 71 68.8369 71 70.5C70.7462 70.5 70.5072 70.5 70.2221 70.5C70.2221 69.3522 70.2221 68.203 70.2221 67.0537C70.1955 67.0481 70.1688 67.0424 70.1422 67.0367C69.7394 67.9194 69.3309 68.7992 68.9379 69.6868C68.8445 69.8977 68.7568 70.0173 68.5031 70.0162C68.252 70.015 68.1609 69.9018 68.0673 69.6884C67.6871 68.8218 67.29 67.9635 66.8991 67.1022C66.8642 67.1077 66.8292 67.1132 66.7943 67.1188C66.7943 67.463 66.7943 67.8073 66.7943 68.1943Z" fill="#FAA41A"/>
<path d="M62.5422 70.47C62.5131 69.0679 62.5131 67.6959 62.5131 66.2775C61.9996 66.2775 61.514 66.2775 61 66.2775C61 65.996 61 65.7601 61 65.5C62.3308 65.5 63.6548 65.5 65 65.5C65 65.7441 65 65.9701 65 66.2421C64.5173 66.2421 64.0314 66.2421 63.5 66.2421C63.5 67.6801 63.5 69.0735 63.5 70.5C63.1603 70.5 62.8658 70.5 62.5422 70.47Z" fill="#FAA41A"/>
<path d="M81.3361 74C80.7283 73.3551 81.1041 72.6645 81.2383 72.0083C81.7051 69.7256 82.2131 67.4513 82.6985 65.1724C83.2742 62.4699 83.8372 59.7647 84.4164 57.063C84.8647 54.9715 85.3378 52.8852 85.7848 50.7934C86.2691 48.5271 86.7299 46.2558 87.2121 43.989C87.5804 42.2579 87.9725 40.5318 88.3425 38.801C88.8003 36.6593 89.2424 34.5142 89.6984 32.372C90.0642 30.6532 90.4442 28.9374 90.8113 27.2189C91.2209 25.3014 91.6206 23.3818 92.029 21.464C92.395 19.7451 92.7683 18.0278 93.136 16.3093C93.5195 14.5165 93.8992 12.7229 94.2825 10.9301C94.6019 9.43576 94.9254 7.94232 95.2446 6.44796C95.6515 4.54283 96.0458 2.6349 96.4737 0.734494C96.5296 0.486305 96.753 0.275598 96.9112 0.0237652C97.1079 2.30929e-09 97.2921 0 97.5109 0C98.12 0.323999 98.0313 0.825034 97.9196 1.3445C97.3226 4.12119 96.7361 6.90013 96.1375 9.67649C95.5819 12.2535 95.0074 14.8264 94.4565 17.4044C93.8949 20.0326 93.3561 22.6655 92.7994 25.2947C92.4089 27.1389 92.0019 28.9795 91.608 30.823C91.0705 33.3388 90.5398 35.8561 90.0037 38.3723C89.64 40.0792 89.2712 41.785 88.9061 43.4916C88.5199 45.2971 88.1372 47.1035 87.7496 48.9088C87.3806 50.6274 87.0041 52.3444 86.6365 54.0633C86.2529 55.8566 85.8779 57.6517 85.4957 59.4453C85.1028 61.2891 84.7047 63.1318 84.3107 64.9754C83.9275 66.7687 83.5475 68.5627 83.1647 70.3561C82.9519 71.3527 82.7528 72.3527 82.5092 73.3418C82.4543 73.5645 82.2395 73.7481 82.0882 73.9748C81.8425 74 81.607 74 81.3361 74Z" fill="white"/>
<path d="M127.004 13.204C126.522 13.204 126.084 13.204 125.621 13.204C125.621 14.0833 125.621 14.9448 125.621 15.8121C127.41 15.8121 129.203 15.8121 131 15.8121C130.957 16.5384 130.919 17.2244 130.873 17.9099C130.854 18.179 130.854 18.4588 130.767 18.7095C130.731 18.8118 130.487 18.9071 130.338 18.9083C128.534 18.9218 126.731 18.9073 124.928 18.9206C123.821 18.9288 122.714 18.977 121.607 18.9978C121.022 19.0088 121.017 18.9996 121.022 18.4286C121.05 15.2342 121.089 12.0398 121.104 8.8453C121.109 7.91388 121.065 6.98157 121.018 6.05078C120.965 5.00648 120.953 5.00703 122.094 5.00703C124.777 5.00703 127.46 5.01295 130.143 5.00003C130.505 4.99828 130.641 5.08539 130.617 5.44069C130.566 6.19159 130.541 6.9445 130.528 7.69693C130.523 7.98822 130.346 7.98994 130.123 7.98939C128.775 7.98605 127.426 7.98773 126.077 7.98773C125.933 7.98773 125.788 7.98773 125.62 7.98773C125.62 8.78644 125.62 9.56517 125.62 10.3077C126.793 10.3077 127.968 10.3078 129.142 10.3076C129.376 10.3076 129.613 10.3244 129.845 10.3021C130.236 10.2645 130.275 10.4956 130.256 10.7593C130.205 11.4491 130.123 12.1374 130.092 12.8278C130.079 13.1127 129.998 13.2152 129.687 13.2096C128.807 13.1935 127.927 13.204 127.004 13.204Z" fill="white"/>
<path d="M150.394 18.9895C148.613 18.9895 146.88 18.9895 145.202 18.9895C145.202 17.844 145.202 16.6486 145.202 15.4531C145.202 15.1342 145.203 14.8153 145.203 14.4964C145.204 12.9573 145.216 11.418 145.2 9.87905C145.187 8.69315 145.144 7.5074 145.104 6.32186C145.094 6.02302 145.052 5.72424 145.009 5.4272C144.961 5.09811 145.108 4.99684 145.492 5.00007C147.366 5.01585 149.24 5.00721 151.114 5.00721C152.459 5.00721 153.804 5.01494 155.15 5.00177C155.485 4.99848 155.608 5.08978 155.59 5.38313C155.544 6.13836 155.52 6.89463 155.49 7.65055C155.479 7.92013 155.339 8.01271 155.016 8.00994C153.368 7.99579 151.719 8.00341 150.04 8.00341C150.04 8.79851 150.04 9.58128 150.04 10.417C150.882 10.417 151.739 10.4275 152.597 10.4136C153.262 10.4028 153.926 10.3616 154.591 10.3338C154.997 10.3168 155.207 10.3701 155.126 10.8321C155.01 11.4937 155.021 12.1745 155.018 12.8473C155.016 13.1542 154.913 13.2569 154.552 13.253C153.143 13.2378 151.733 13.2469 150.324 13.2469C150.264 13.2469 150.204 13.2469 150.126 13.2469C150.126 14.1448 150.126 15.0105 150.126 15.8684C152.067 15.8684 153.99 15.8684 156 15.8684C155.942 16.6762 155.888 17.5049 155.817 18.3324C155.799 18.5425 155.796 18.8621 155.655 18.931C155.433 19.0396 155.101 18.9874 154.815 18.988C153.357 18.9912 151.9 18.9895 150.394 18.9895Z" fill="white"/>
<path d="M132.109 16.8373C132.144 14.2765 132.192 11.7567 132.207 9.23681C132.213 8.23029 132.149 7.22335 132.106 6.21693C132.093 5.91773 132.04 5.61957 132.004 5.32106C131.976 5.0908 132.099 4.99962 132.395 5.00001C135.975 5.00464 139.555 5.00462 143.134 5C143.426 4.99962 143.546 5.08213 143.534 5.31647C143.492 6.12855 143.458 6.94091 143.428 7.75334C143.418 8.03269 143.176 8.00214 142.948 8.00213C141.307 8.00211 139.665 8.00212 138.024 8.00212C137.852 8.00212 137.68 8.00212 137.481 8.00212C137.481 8.80707 137.481 9.59056 137.481 10.3364C138.916 10.3364 140.35 10.3364 141.783 10.3363C141.993 10.3363 142.202 10.3346 142.412 10.3349C143.093 10.3358 143.098 10.3778 143.02 10.9285C142.936 11.5282 142.903 12.136 142.915 12.7394C142.923 13.1269 142.81 13.2706 142.282 13.2609C140.731 13.2321 139.177 13.2506 137.591 13.2506C137.591 14.1299 137.591 14.9968 137.591 15.8749C139.685 15.8749 141.794 15.8749 144 15.8749C143.913 16.8459 143.837 17.8262 143.719 18.8032C143.709 18.8798 143.412 18.9891 143.247 18.9905C141.588 19.0044 139.929 18.9989 138.271 18.9989C136.238 18.9989 134.205 18.9989 132.109 18.9989C132.109 18.3379 132.109 17.6081 132.109 16.8373Z" fill="white"/>
<path d="M118 18.0994C118 18.3847 118 18.6304 118 18.917C117.843 18.917 117.713 18.9147 117.582 18.9174C116.289 18.9444 114.997 18.9771 113.704 18.9978C113.01 19.009 113.006 18.9998 113.011 18.3873C113.04 14.6289 113.075 10.8705 113.096 7.11208C113.099 6.56727 113.055 6.02109 113.005 5.47757C112.973 5.1249 113.085 4.96678 113.502 5.00579C114.021 5.0544 114.545 5.09084 115.066 5.08764C115.83 5.08295 116.593 5.03738 117.357 5.01166C117.522 5.0061 117.687 5.01085 117.772 5.01085C117.848 9.37035 117.924 13.7151 118 18.0994Z" fill="white"/>
<path d="M270 43.9667C268.497 43.9945 266.995 43.989 265.492 44C265.248 44.0018 265.123 43.9202 265.005 43.6944C264.138 42.0352 263.255 40.385 262.37 38.7363C262.331 38.6643 262.221 38.5905 262.144 38.59C260.832 38.581 259.52 38.5836 258.175 38.5836C258.175 40.3885 258.175 42.1705 258.175 43.9734C256.769 43.9734 255.395 43.9734 254 43.9734C254 37.6656 254 31.361 254 25.0146C254.132 25.0146 254.261 25.0146 254.391 25.0146C257.235 25.0146 260.08 24.9718 262.923 25.0327C264.334 25.0629 265.682 25.4429 266.912 26.2469C268.24 27.1151 269.037 28.337 269.346 29.8908C269.717 31.7577 269.567 33.5851 268.694 35.297C268.187 36.2889 267.421 37.0327 266.478 37.582C266.378 37.6405 266.271 37.6872 266.118 37.7641C266.561 38.459 266.998 39.1287 267.42 39.8078C268.205 41.0687 268.981 42.3356 269.763 43.5982C269.812 43.678 269.884 43.7431 269.973 43.8215C270 43.865 270 43.902 270 43.9667ZM265.012 29.9666C264.735 29.5241 264.365 29.2164 263.891 28.9998C263.163 28.6676 262.398 28.6166 261.63 28.6004C260.483 28.5762 259.335 28.5941 258.185 28.5941C258.185 30.7229 258.185 32.8083 258.185 34.9208C259.568 34.9208 260.932 34.9239 262.296 34.9199C263.813 34.9155 265.2 34.1816 265.46 32.3984C265.58 31.5712 265.516 30.7481 265.012 29.9666Z" fill="white"/>
<path d="M158.618 39.8497C157.541 37.5255 156.464 35.2344 155.393 32.9402C155.189 32.5017 155.006 32.0511 154.737 31.6303C154.737 35.743 154.737 39.8557 154.737 43.9938C153.478 43.9938 152.251 43.9938 151 43.9938C151 37.6888 151 31.3734 151 25.0301C151.072 25.0227 151.157 25.0064 151.243 25.0063C152.581 25.0046 153.92 25.0105 155.258 25C155.491 24.9982 155.627 25.0634 155.735 25.2996C156.506 26.9876 157.283 28.6731 158.075 30.3503C159.047 32.408 160.035 34.457 161.046 36.5728C162.857 32.7 164.65 28.866 166.449 25.0199C167.952 25.0199 169.468 25.0199 171 25.0199C171 31.35 171 37.6653 171 44C169.79 44 168.589 44 167.361 44C167.361 39.8178 167.361 35.6439 167.361 31.4699C167.342 31.4644 167.323 31.4588 167.303 31.4532C166.722 32.6924 166.135 33.9288 165.56 35.1713C164.542 37.3717 163.527 39.574 162.521 41.7806C162.411 42.0213 162.286 42.116 162.027 42.1089C161.249 42.0876 160.469 42.1012 159.677 42.1012C159.324 41.3602 158.973 40.6209 158.618 39.8497Z" fill="white"/>
<path d="M141.827 42.0482C140.883 42.7668 139.841 43.2219 138.744 43.5506C137.414 43.9489 136.042 44.0593 134.663 43.972C132.915 43.8612 131.256 43.3883 129.777 42.4475C129.019 41.9653 128.285 41.4071 127.659 40.7686C126.352 39.4352 125.471 37.835 125.191 35.9823C125.039 34.9789 124.954 33.9426 125.026 32.934C125.152 31.145 125.81 29.5214 126.883 28.0563C127.824 26.7717 129.022 25.7918 130.43 25.0916C131.653 24.4832 132.959 24.0566 134.356 24.0342C135.255 24.0198 136.163 23.9576 137.053 24.0483C138.534 24.1992 139.943 24.6702 141.2 25.4601C141.984 25.9526 142.733 26.5385 143.38 27.1966C144.679 28.5184 145.552 30.1057 145.81 31.9501C145.955 32.9838 146.051 34.0477 145.972 35.0833C145.838 36.8292 145.181 38.4234 144.13 39.8425C143.496 40.6977 142.77 41.4629 141.827 42.0482ZM136.677 39.9898C136.741 39.9653 136.804 39.9327 136.87 39.9173C138.654 39.5056 139.904 38.423 140.724 36.8424C141.292 35.749 141.504 34.5872 141.384 33.3407C141.254 31.989 140.763 30.7981 139.863 29.8192C138.511 28.3488 136.826 27.6439 134.773 27.9304C133.071 28.1679 131.766 29.0153 130.748 30.3511C129.933 31.4195 129.573 32.6574 129.566 33.9591C129.56 35.0726 129.852 36.156 130.461 37.125C131.148 38.2168 132.053 39.0478 133.256 39.5787C134.34 40.0572 135.444 40.1852 136.677 39.9898Z" fill="white"/>
<path d="M234 39.1781C234 34.4323 234 29.7283 234 25C238.919 25 243.82 25 248.746 25C248.746 26.1679 248.746 27.3435 248.746 28.5524C245.343 28.5524 241.933 28.5524 238.498 28.5524C238.498 29.9278 238.498 31.2704 238.498 32.6464C241.536 32.6464 244.58 32.6464 247.649 32.6464C247.649 33.8547 247.649 35.0303 247.649 36.2392C244.611 36.2392 241.566 36.2392 238.498 36.2392C238.498 37.6425 238.498 39.013 238.498 40.4167C241.987 40.4167 245.481 40.4167 249 40.4167C249 41.625 249 42.8006 249 44C244.02 44 239.034 44 234 44C234 42.4104 234 40.8151 234 39.1781Z" fill="white"/>
<path d="M195.643 39.3557C195.274 38.5263 195.093 37.6855 195.085 36.8145C195.052 32.9257 195.027 29.0367 195 25.1478C195 25.1077 195.005 25.0674 195.01 25.0003C196.459 25.0003 197.908 25.0003 199.412 25.0003C199.412 25.1274 199.412 25.2712 199.412 25.415C199.412 29.0919 199.378 32.7692 199.426 36.4455C199.45 38.2838 200.711 39.8427 202.665 40.1539C203.556 40.2957 204.418 40.2693 205.258 39.9268C206.489 39.4251 207.201 38.494 207.477 37.2392C207.588 36.7325 207.644 36.2042 207.646 35.6855C207.66 32.1326 207.653 28.5796 207.653 25C209.085 25 210.507 25 211.963 25C211.969 25.0999 211.981 25.2169 211.981 25.334C211.982 29.0792 212.034 32.8254 211.962 36.5693C211.92 38.7666 211.122 40.7198 209.37 42.1758C208.251 43.105 206.939 43.6753 205.476 43.8321C204.566 43.9297 203.641 44.041 202.733 43.9849C200.821 43.867 199.042 43.3351 197.551 42.0576C196.686 41.3171 196.053 40.4378 195.643 39.3557Z" fill="white"/>
<path d="M177 37.4382C177 33.288 177 29.1795 177 25.0399C177.117 25.0326 177.223 25.0203 177.329 25.0203C179.92 25.0192 182.513 24.9638 185.102 25.0408C186.601 25.0853 188.014 25.5581 189.207 26.6964C190.235 27.677 190.754 28.9284 190.918 30.3898C190.986 30.9875 191.016 31.5985 190.992 32.1999C190.918 34.0869 190.373 35.7566 189.048 36.9986C188.228 37.7674 187.268 38.2518 186.212 38.4271C185.517 38.5425 184.809 38.5796 184.105 38.598C183.059 38.6253 182.012 38.6051 180.936 38.6051C180.936 40.4102 180.936 42.1939 180.936 44C179.619 44 178.33 44 177 44C177 41.8285 177 39.6542 177 37.4382ZM181.779 34.9378C182.895 34.91 184.017 34.9452 185.126 34.8314C185.823 34.76 186.436 34.3605 186.85 33.6538C187.249 32.9718 187.322 32.2261 187.3 31.4383C187.268 30.2665 186.611 29.2683 185.69 28.9528C185.111 28.7547 184.493 28.651 183.888 28.6178C182.907 28.5642 181.923 28.6034 180.948 28.6034C180.948 30.7415 180.948 32.8311 180.948 34.9378C181.214 34.9378 181.46 34.9378 181.779 34.9378Z" fill="white"/>
<path d="M106.723 37.9728C106.391 37.0442 106.17 36.1298 106.069 35.1656C105.909 33.6378 106.018 32.152 106.484 30.7031C107.237 28.3655 108.638 26.5861 110.67 25.3697C111.947 24.605 113.316 24.211 114.782 24.0532C116.823 23.8337 118.704 24.3041 120.497 25.2669C121.431 25.7685 122.282 26.4111 123 27.2939C122.204 28.3326 121.402 29.3786 120.588 30.4399C120.193 30.0638 119.81 29.6603 119.389 29.3085C118.243 28.3505 116.936 27.7819 115.469 27.9048C113.523 28.068 112.029 29.0545 111.036 30.8866C110.394 32.0716 110.201 33.344 110.344 34.6474C110.62 37.1751 112.185 39.2193 114.643 39.8238C116.142 40.1923 117.592 39.8505 118.895 38.9531C119.46 38.5639 120.002 38.1372 120.612 37.685C121.186 38.354 121.81 39.0823 122.434 39.8103C122.479 39.8625 122.525 39.913 122.571 39.9642C123.054 40.5034 123.071 40.5237 122.561 41.0062C121.039 42.4468 119.303 43.4674 117.272 43.8217C116.497 43.9568 115.696 44.0315 114.914 43.9872C112.99 43.8782 111.233 43.2206 109.669 41.9986C108.333 40.9548 107.421 39.5733 106.723 37.9728Z" fill="white"/>
<path d="M221.134 39.5128C221.134 35.8808 221.134 32.2907 221.134 28.6672C219.086 28.6672 217.056 28.6672 215 28.6672C215 27.4309 215 26.2275 215 25C220.654 25 226.314 25 232 25C232 26.1971 232 27.4005 232 28.6374C229.977 28.6374 227.947 28.6374 225.882 28.6374C225.882 33.7723 225.882 38.8741 225.882 44C224.293 44 222.739 44 221.134 44C221.134 42.5223 221.134 41.0384 221.134 39.5128Z" fill="white"/>
<path d="M129.649 49.3918C130.775 49.756 131.819 50.1901 132.785 50.8122C133.926 51.5474 134.822 52.4781 135.559 53.5605C136.306 54.6571 136.753 55.8729 136.913 57.1507C137.237 59.7364 136.674 62.1372 134.961 64.2334C133.434 66.1015 131.424 67.2313 128.981 67.7533C127.763 68.0135 126.541 68.0436 125.331 67.9552C123.275 67.8052 121.388 67.1212 119.759 65.9132C117.875 64.5153 116.667 62.6824 116.195 60.4711C116.011 59.6103 115.969 58.701 116.02 57.8219C116.131 55.9411 116.802 54.2286 118.047 52.7341C118.973 51.6225 120.096 50.7301 121.44 50.1022C122.492 49.6112 123.595 49.2614 124.773 49.1485C125.299 49.098 125.827 48.9917 126.352 49.0005C127.077 49.0126 127.802 49.096 128.523 49.1761C128.89 49.2169 129.25 49.3172 129.649 49.3918ZM121.381 55.6285C120.595 56.9833 120.411 58.4119 120.784 59.911C121.339 62.1383 123.354 63.9883 125.806 64.2565C127.847 64.4799 129.614 63.8699 130.944 62.3131C132.098 60.9621 132.553 59.445 132.326 57.7175C132.168 56.5139 131.686 55.4502 130.836 54.5726C129.355 53.0428 127.508 52.4017 125.321 52.8558C123.601 53.2132 122.283 54.1158 121.381 55.6285Z" fill="white"/>
<path d="M180.705 60.6939C178.679 60.6939 176.697 60.6939 174.689 60.6939C174.689 61.9772 174.689 63.2436 174.689 64.5414C178.447 64.5414 182.211 64.5414 186 64.5414C186 65.7074 186 66.8425 186 68C180.679 68 175.352 68 170 68C170 62.011 170 56.017 170 50C175.199 50 180.406 50 185.639 50C185.639 51.128 185.639 52.2631 185.639 53.4295C182.003 53.4295 178.359 53.4295 174.69 53.4295C174.69 54.7006 174.69 55.9407 174.69 57.2123C177.965 57.2123 181.248 57.2123 184.557 57.2123C184.557 58.3783 184.557 59.5134 184.557 60.6939C183.293 60.6939 182.022 60.6939 180.705 60.6939Z" fill="white"/>
<path d="M99.6787 61.8143C99.7279 61.7351 99.7553 61.6771 99.7646 61.6572C100.613 62.1873 101.421 62.7698 102.301 63.2229C103.429 63.8034 104.625 64.2146 105.925 64.3436C106.718 64.4221 107.456 64.3789 108.192 64.0941C108.787 63.864 109.208 63.495 109.312 62.8707C109.434 62.1375 109.103 61.5921 108.486 61.1869C107.718 60.6827 106.82 60.497 105.958 60.2169C104.59 59.7719 103.177 59.4113 101.877 58.8223C100.435 58.1689 99.5001 57.0486 99.273 55.4283C99.0204 53.6259 99.4501 52.0666 100.833 50.8178C101.733 50.0054 102.845 49.5487 104.043 49.266C105.237 48.9844 106.452 48.9545 107.653 49.0469C109.825 49.2138 111.868 49.8427 113.747 50.9261C113.805 50.9592 113.844 51.0208 113.892 51.0688C113.389 52.1271 112.881 53.1774 112.393 54.2359C112.253 54.5377 112.084 54.5379 111.826 54.3899C110.345 53.54 108.762 52.9695 107.048 52.7229C106.302 52.6155 105.598 52.6535 104.884 52.8862C103.886 53.211 103.551 54.3238 104.266 55.1551C104.664 55.618 105.225 55.8367 105.782 56.0272C107.333 56.5575 108.908 57.0248 110.452 57.5723C111.91 58.0894 113.073 58.9759 113.656 60.4096C114.007 61.2728 114.069 62.1779 113.934 63.1136C113.846 63.7178 113.692 64.28 113.409 64.8156C112.915 65.7518 112.168 66.459 111.216 66.9524C110.024 67.5706 108.748 67.867 107.387 67.9649C104.896 68.1442 102.57 67.6296 100.37 66.5651C99.5333 66.1602 98.7791 65.5967 98 65.1135C98.5882 63.9498 99.1225 62.8926 99.6787 61.8143Z" fill="white"/>
<path d="M143.554 58.8271C143.697 60.8272 144.661 62.3124 146.396 63.3699C147.531 64.0622 148.793 64.2305 150.08 64.0895C151.252 63.961 152.316 63.4753 153.268 62.7981C153.576 62.5786 153.856 62.3208 154.175 62.1176C154.262 62.0621 154.498 62.0918 154.573 62.1666C155.189 62.7788 155.785 63.4095 156.383 64.038C156.569 64.2331 156.743 64.4386 157 64.7266C156.34 65.2185 155.703 65.7325 155.024 66.1896C153.731 67.0599 152.29 67.6583 150.731 67.8727C148.453 68.1859 146.23 67.9452 144.165 66.8815C142.685 66.1189 141.444 65.0881 140.547 63.7282C139.776 62.5592 139.256 61.2936 139.092 59.8979C138.848 57.8299 139.057 55.8452 140.112 53.988C141.019 52.3921 142.307 51.1518 143.969 50.2677C145.009 49.7148 146.123 49.3236 147.292 49.1517C148.921 48.9123 150.557 48.9297 152.154 49.3964C153.693 49.846 155.116 50.5045 156.306 51.5641C156.406 51.6525 156.526 51.7191 156.633 51.8C156.743 51.883 156.849 51.9711 156.974 52.071C156.081 53.1118 155.221 54.1149 154.366 55.1116C153.881 54.7056 153.452 54.3041 152.977 53.9583C152.055 53.2856 151.028 52.8543 149.849 52.7529C147.6 52.5597 145.866 53.4278 144.563 55.1008C143.96 55.8747 143.615 56.7888 143.576 57.7789C143.563 58.1176 143.548 58.4563 143.554 58.8271Z" fill="white"/>
<path d="M207.698 50.0284C208.211 49.9123 208.46 50.1667 208.669 50.5275C209.467 51.9055 210.275 53.2779 211.079 54.6527C211.67 55.6646 212.261 56.6772 212.853 57.6888C212.905 57.7787 212.967 57.8638 213.056 57.9994C213.677 56.9172 214.235 55.9365 214.801 54.9597C215.721 53.3713 216.644 51.7844 217.574 50.2016C217.621 50.1214 217.748 50.0365 217.839 50.0358C219.208 50.0252 220.577 50.0285 222 50.0285C221.463 50.9838 220.944 51.8984 220.434 52.8179C219.204 55.0341 217.983 57.2543 216.751 59.4693C216.312 60.2596 215.837 61.0317 215.412 61.8287C215.285 62.067 215.217 62.3612 215.214 62.6306C215.197 64.411 215.206 66.1917 215.206 68C213.781 68 212.362 68 210.886 68C210.886 67.8976 210.886 67.7735 210.886 67.6494C210.886 65.9601 210.89 64.2708 210.88 62.5816C210.879 62.3991 210.829 62.1979 210.74 62.0378C209.573 59.9469 208.391 57.8639 207.221 55.7745C206.586 54.6414 205.972 53.4973 205.339 52.3634C204.913 51.599 204.468 50.8437 204 50.0284C205.257 50.0284 206.458 50.0284 207.698 50.0284Z" fill="white"/>
<path d="M193.134 58.4879C193.134 56.822 193.134 55.1954 193.134 53.5375C191.085 53.5375 189.055 53.5375 187 53.5375C187 52.3451 187 51.1838 187 50C192.655 50 198.314 50 204 50C204 51.156 204 52.3174 204 53.5102C201.976 53.5102 199.946 53.5102 197.881 53.5102C197.881 58.3535 197.881 63.1655 197.881 68C196.293 68 194.739 68 193.134 68C193.134 64.8457 193.134 61.6865 193.134 58.4879Z" fill="white"/>
<path d="M161 50.4546C161 50.2858 161 50.1555 161 50C162.333 50 163.654 50 165 50C165 55.9832 165 61.9791 165 68C163.691 68 162.37 68 161 68C161 62.1722 161 56.3327 161 50.4546Z" fill="white"/>
</svg>
