<svg width="631" height="35" viewBox="0 0 631 35" fill="none" xmlns="http://www.w3.org/2000/svg">
<path d="M5.20624 35V30H0.206238V25H10.2062V30H25.2062V0H35.2062V30H30.2062V35H5.20624ZM42.4062 35V30H37.4062V5H42.4062V0H67.4062V5H72.4062V30H67.4062V35H42.4062ZM47.4062 30H62.4062V5H47.4062V30ZM79.6062 35V30H89.6062V5H79.6062V0H109.606V5H99.6062V30H109.606V35H79.6062ZM111.806 35V0H121.806V5H126.806V10H131.806V15H136.806V0H146.806V35H136.806V25H131.806V20H126.806V15H121.806V35H111.806ZM201.206 35V5H191.206V0H221.206V5H211.206V35H201.206ZM223.406 35V0H233.406V15H248.406V0H258.406V35H248.406V20H233.406V35H223.406ZM260.606 35V0H295.606V5H270.606V15H290.606V20H270.606V30H295.606V35H260.606ZM340.006 35V30H335.006V0H345.006V30H360.006V0H370.006V30H365.006V35H340.006ZM377.206 35V0H387.206V30H407.206V35H377.206ZM424.406 35V5H414.406V0H444.406V5H434.406V35H424.406ZM451.606 35V30H461.606V5H451.606V0H481.606V5H471.606V30H481.606V35H451.606ZM483.806 35V0H493.806V5H498.806V10H503.806V5H508.806V0H518.806V35H508.806V15H503.806V25H498.806V15H493.806V35H483.806ZM521.006 35V10H526.006V5H531.006V0H546.006V5H551.006V10H556.006V35H546.006V25H531.006V35H521.006ZM531.006 20H546.006V10H541.006V5H536.006V10H531.006V20ZM573.206 35V5H563.206V0H593.206V5H583.206V35H573.206ZM595.406 35V0H630.406V5H605.406V15H625.406V20H605.406V30H630.406V35H595.406Z" fill="white"/>
</svg>
