<svg width="215" height="295" viewBox="0 0 215 295" fill="none" xmlns="http://www.w3.org/2000/svg">
<g style="mix-blend-mode:multiply" filter="url(#filter0_n_814_20409)">
<path d="M105.61 56.8491C105.68 56.9759 105.749 57.1026 105.82 57.2332C106.026 57.231 106.232 57.2288 106.444 57.2265C108.417 57.2121 110.363 57.2806 112.329 57.4253C112.398 57.2985 112.468 57.1718 112.539 57.0412C112.539 57.1679 112.539 57.2947 112.539 57.4253C112.71 57.4117 112.881 57.3981 113.057 57.3841C114.901 57.2492 116.728 57.2033 118.577 57.2082C119.034 57.2092 119.49 57.2082 119.946 57.207C121.895 57.2062 123.824 57.2832 125.767 57.4253C125.836 57.2985 125.905 57.1718 125.977 57.0412C126.046 57.1046 126.115 57.1679 126.187 57.2332C126.826 57.243 127.463 57.2409 128.102 57.2332C130.54 57.217 132.975 57.2689 135.412 57.3293C135.599 57.3339 135.786 57.3385 135.979 57.3432C137.054 57.3698 138.129 57.3972 139.204 57.4253C139.273 57.2985 139.343 57.1718 139.414 57.0412C139.414 57.1679 139.414 57.2947 139.414 57.4253C140.731 57.4253 142.047 57.4253 143.403 57.4253C143.628 60.7008 143.638 63.9675 143.628 67.2477C143.626 68.0149 143.625 68.7821 143.624 69.5493C143.622 71.4898 143.618 73.4302 143.613 75.3706C143.609 77.4766 143.604 79.5826 143.602 81.6885C143.601 82.5989 143.599 83.5094 143.596 84.4198C143.595 84.9843 143.594 85.5488 143.593 86.1133C143.593 86.4991 143.591 86.8849 143.589 87.2706C143.589 87.5007 143.589 87.7308 143.589 87.9679C143.589 88.1674 143.589 88.3669 143.588 88.5724C143.612 89.0941 143.704 89.5657 143.823 90.075C143.798 90.5027 143.798 90.5027 143.732 90.9633C143.547 92.5843 143.591 94.2091 143.6 95.8368C143.601 96.1646 143.602 96.4924 143.603 96.8203C143.605 97.4167 143.607 98.0132 143.61 98.6096C143.612 99.0297 143.613 99.4498 143.613 99.87C143.614 100.205 143.615 100.539 143.616 100.874C143.62 102.492 143.622 104.11 143.624 105.728C143.625 106.623 143.627 107.517 143.629 108.412C143.631 109.281 143.633 110.149 143.633 111.018C143.634 111.345 143.634 111.673 143.635 112.001C143.643 114.365 143.554 116.715 143.403 119.076C142.219 119.08 141.034 119.084 139.85 119.086C139.447 119.087 139.044 119.089 138.641 119.09C138.062 119.093 137.483 119.094 136.904 119.094C136.633 119.096 136.633 119.096 136.357 119.097C136.189 119.097 136.021 119.097 135.847 119.097C135.7 119.098 135.552 119.098 135.399 119.099C135.005 119.076 135.005 119.076 134.375 118.884C134.408 118.987 134.442 119.091 134.476 119.197C134.604 119.73 134.63 120.232 134.651 120.777C134.66 120.991 134.669 121.205 134.678 121.426C134.686 121.649 134.695 121.871 134.703 122.101C134.712 122.326 134.721 122.552 134.731 122.784C134.753 123.34 134.774 123.897 134.795 124.453C137.007 124.367 139.2 124.233 141.401 124.005C142.565 123.887 143.7 123.842 144.873 123.877C144.942 123.75 145.012 123.624 145.083 123.493C145.396 123.479 145.396 123.479 145.716 123.465C148.29 123.344 150.842 123.101 153.402 122.836C153.932 122.781 154.461 122.728 154.991 122.675C155.153 122.658 155.315 122.641 155.482 122.623C155.864 122.585 156.248 122.558 156.631 122.533C157.041 122.908 156.994 123.592 157.069 124.107C157.091 124.252 157.113 124.398 157.136 124.548C157.209 125.036 157.281 125.525 157.353 126.014C157.405 126.359 157.457 126.703 157.508 127.048C157.619 127.785 157.728 128.521 157.838 129.257C158.008 130.404 158.18 131.551 158.352 132.698C158.553 134.037 158.753 135.377 158.953 136.716C159.378 139.554 159.805 142.39 160.238 145.227C160.309 145.693 160.38 146.16 160.45 146.626C160.546 147.263 160.643 147.9 160.741 148.536C160.768 148.721 160.796 148.905 160.824 149.095C160.85 149.261 160.876 149.427 160.902 149.598C160.924 149.741 160.946 149.884 160.968 150.032C161.026 150.398 161.026 150.398 161.25 150.765C161.29 151.101 161.319 151.438 161.344 151.775C161.456 153.103 161.643 154.415 161.844 155.734C161.883 155.996 161.923 156.258 161.962 156.521C162.047 157.086 162.132 157.651 162.217 158.217C162.331 158.968 162.444 159.719 162.557 160.47C163.1 164.087 163.653 167.702 164.211 171.317C164.306 171.932 164.4 172.547 164.495 173.162C164.526 173.364 164.557 173.566 164.589 173.774C164.652 174.18 164.714 174.586 164.777 174.992C164.961 176.192 165.147 177.392 165.334 178.592C165.451 179.346 165.567 180.1 165.683 180.853C165.738 181.205 165.792 181.556 165.848 181.908C165.923 182.392 165.998 182.876 166.072 183.36C166.094 183.499 166.116 183.639 166.139 183.783C166.276 184.692 166.308 185.569 166.289 186.488C163.652 186.938 161.012 187.377 158.371 187.808C157.512 187.948 156.653 188.091 155.795 188.235C145.536 189.955 145.536 189.955 141.724 188.792C141.262 187.332 141.094 185.807 140.871 184.303C140.799 183.821 140.726 183.34 140.653 182.858C140.622 182.647 140.59 182.436 140.558 182.218C140.477 181.672 140.477 181.672 140.254 181.11C140.221 180.801 140.196 180.491 140.175 180.181C140.034 178.513 139.763 176.862 139.501 175.206C139.413 174.647 139.327 174.087 139.24 173.528C139.185 173.172 139.129 172.816 139.073 172.46C139.047 172.293 139.021 172.126 138.995 171.953C138.88 171.129 138.88 171.129 138.574 170.355C138.535 170.016 138.505 169.675 138.48 169.335C138.373 168.064 138.187 166.812 137.982 165.551C137.926 165.198 137.926 165.198 137.868 164.837C137.766 164.202 137.664 163.568 137.562 162.934C137.39 161.869 137.22 160.805 137.05 159.74C136.985 159.335 136.92 158.93 136.855 158.524C136.575 156.779 136.3 155.033 136.03 153.286C135.996 153.066 135.962 152.847 135.927 152.62C135.798 151.786 135.669 150.952 135.541 150.118C135.455 149.555 135.368 148.991 135.28 148.428C135.255 148.263 135.23 148.098 135.204 147.928C135.109 147.315 135.009 146.744 134.795 146.156C134.759 152.71 134.725 159.264 134.694 165.818C134.691 166.344 134.689 166.87 134.686 167.396C134.62 180.901 134.576 194.405 134.578 207.91C134.578 208.368 134.578 208.825 134.579 209.283C134.58 215.212 134.583 221.14 134.59 227.068C134.592 229.287 134.594 231.505 134.596 233.723C134.597 235.259 134.599 236.794 134.602 238.329C134.604 239.259 134.604 240.19 134.605 241.12C134.605 241.549 134.606 241.978 134.607 242.407C134.609 242.987 134.609 243.567 134.609 244.146C134.61 244.402 134.61 244.402 134.611 244.663C134.609 245.812 134.609 245.812 134.375 246.026C134.024 246.055 133.671 246.072 133.319 246.084C133.088 246.091 132.858 246.099 132.62 246.107C132.364 246.114 132.108 246.122 131.844 246.129C131.575 246.137 131.306 246.145 131.029 246.153C127.671 246.247 124.313 246.274 120.954 246.285C120.216 246.287 119.478 246.293 118.739 246.301C117.833 246.31 116.926 246.315 116.019 246.316C115.677 246.317 115.335 246.32 114.994 246.325C114.522 246.331 114.05 246.331 113.578 246.33C113.311 246.331 113.043 246.333 112.768 246.334C112.119 246.218 112.119 246.218 111.713 245.73C111.602 245.496 111.602 245.496 111.489 245.257C111.628 245.257 111.766 245.257 111.909 245.257C111.836 245.02 111.762 244.782 111.686 244.537C111.494 243.915 111.523 243.571 111.699 242.953C111.672 242.51 111.672 242.51 111.594 242.064C111.467 241.266 111.467 241.266 111.699 240.84C111.561 240.777 111.422 240.713 111.279 240.648C111.418 240.521 111.556 240.394 111.699 240.264C111.639 239.942 111.566 239.622 111.489 239.304C111.472 238.808 111.465 238.318 111.469 237.823C111.469 237.614 111.469 237.614 111.47 237.401C111.471 236.959 111.473 236.517 111.476 236.075C111.477 235.774 111.478 235.473 111.479 235.172C111.481 234.436 111.485 233.701 111.489 232.966C111.628 232.966 111.766 232.966 111.909 232.966C111.841 232.829 111.772 232.693 111.702 232.552C111.477 231.973 111.44 231.549 111.45 230.937C111.451 230.759 111.453 230.58 111.454 230.396C111.489 229.893 111.489 229.893 111.61 229.491C111.719 229.042 111.613 228.803 111.489 228.356C111.469 227.838 111.46 227.326 111.463 226.808C111.462 226.67 111.461 226.531 111.461 226.389C111.462 225.778 111.486 225.291 111.699 224.707C111.561 224.644 111.422 224.58 111.279 224.515C111.31 224.408 111.34 224.301 111.371 224.191C111.41 224.044 111.449 223.898 111.489 223.747C111.529 223.6 111.568 223.452 111.608 223.301C111.704 222.761 111.672 222.342 111.594 221.802C111.465 220.699 111.548 219.66 111.699 218.561C111.561 218.498 111.422 218.435 111.279 218.369C111.418 218.369 111.556 218.369 111.699 218.369C111.665 218.271 111.63 218.172 111.594 218.071C111.456 217.451 111.478 216.865 111.489 216.233C111.545 215.349 111.545 215.349 111.279 214.528C111.418 214.528 111.556 214.528 111.699 214.528C111.665 214.417 111.63 214.306 111.594 214.192C111.489 213.76 111.489 213.76 111.489 212.992C111.483 212.629 111.483 212.629 111.476 212.259C111.475 211.525 111.567 210.834 111.699 210.111C111.561 210.047 111.422 209.984 111.279 209.919C111.418 209.919 111.556 209.919 111.699 209.919C111.63 209.729 111.561 209.539 111.489 209.343C111.581 208.922 111.581 208.922 111.699 208.574C111.561 208.511 111.422 208.448 111.279 208.382C111.418 208.382 111.556 208.382 111.699 208.382C111.699 208.192 111.699 208.002 111.699 207.806C111.561 207.806 111.422 207.806 111.279 207.806C111.349 207.679 111.418 207.553 111.489 207.422C111.499 206.865 111.498 206.311 111.489 205.754C111.474 204.123 111.551 202.517 111.699 200.892C111.491 200.829 111.283 200.765 111.069 200.7C111.277 200.7 111.485 200.7 111.699 200.7C111.66 200.458 111.621 200.217 111.581 199.968C111.488 199.389 111.49 199.163 111.699 198.587C111.491 198.524 111.283 198.461 111.069 198.395C111.208 198.332 111.346 198.269 111.489 198.203C111.489 198.074 111.489 197.944 111.489 197.81C111.489 193.018 111.489 193.018 111.607 192.64C111.721 192.157 111.63 191.848 111.489 191.373C111.306 190.751 111.259 190.578 111.489 189.945C111.625 189.147 111.71 188.387 111.699 187.58C111.699 186.574 111.81 185.569 111.909 184.567C109.068 184.631 106.228 184.694 103.301 184.759C103.325 186.074 103.325 186.074 103.35 187.415C103.548 198.955 103.5 210.494 103.432 222.035C103.422 223.869 103.412 225.702 103.402 227.536C103.401 227.667 103.401 227.798 103.4 227.934C103.397 228.593 103.393 229.251 103.39 229.91C103.362 235.282 103.332 240.654 103.301 246.026C102.731 246.286 102.289 246.243 101.65 246.243C101.375 246.243 101.1 246.244 100.816 246.244C100.503 246.243 100.189 246.243 99.8758 246.242C99.7163 246.241 99.5567 246.241 99.3923 246.241C96.7188 246.238 94.0456 246.207 91.3724 246.174C91.2245 246.172 91.0767 246.17 90.9244 246.169C88.5721 246.139 86.2198 246.105 83.8676 246.072C83.552 246.067 83.2363 246.063 82.9207 246.058C82.1555 246.047 81.3902 246.036 80.625 246.026C80.4241 234.806 80.3859 223.59 80.3933 212.369C80.3948 209.973 80.3951 207.577 80.3954 205.181C80.3958 200.912 80.3972 196.642 80.3992 192.373C80.4011 188.238 80.4026 184.104 80.4035 179.969C80.4035 179.84 80.4036 179.712 80.4036 179.579C80.4039 178.288 80.4041 176.996 80.4044 175.704C80.4066 164.958 80.4103 154.213 80.415 143.467C80.2445 144.555 80.0741 145.644 79.9038 146.732C79.8461 147.101 79.7884 147.47 79.7306 147.838C79.2456 150.933 78.7803 154.03 78.325 157.129C77.2601 164.37 77.2601 164.37 76.662 167.834C76.0602 171.321 75.5006 174.812 74.9453 178.305C74.8397 178.97 74.7336 179.634 74.627 180.299C74.5002 181.09 74.3742 181.882 74.249 182.673C74.2023 182.968 74.1552 183.262 74.1079 183.557C73.828 185.299 73.6037 187.034 73.4863 188.792C68.8006 189.901 64.2371 189.172 59.6289 188.216C59.6289 188.343 59.6289 188.47 59.6289 188.6C59.421 188.664 59.2132 188.727 58.999 188.792C59.0683 188.539 59.1376 188.285 59.209 188.024C58.9042 188.033 58.9042 188.033 58.5932 188.042C57.6528 188.041 56.757 187.898 55.834 187.744C55.6563 187.715 55.4787 187.686 55.2956 187.656C54.9223 187.595 54.5491 187.533 54.176 187.471C53.6055 187.376 53.0346 187.284 52.4636 187.192C52.0998 187.132 51.7361 187.072 51.3724 187.011C51.1171 186.97 51.1171 186.97 50.8567 186.928C50.0802 186.797 49.3948 186.679 48.7109 186.296C48.9975 184.141 49.2932 181.989 49.6164 179.839C49.652 179.601 49.652 179.601 49.6884 179.358C49.8076 178.564 49.9277 177.769 50.0492 176.975C50.0939 176.679 50.1385 176.382 50.1831 176.085C50.2041 175.95 50.2251 175.815 50.2467 175.676C50.3294 175.122 50.3909 174.59 50.3773 174.03C50.3928 173.33 50.5387 172.695 50.6974 172.012C50.8755 171.218 51.0008 170.418 51.1271 169.616C51.1545 169.444 51.1819 169.272 51.2101 169.094C51.2672 168.733 51.324 168.372 51.3805 168.011C51.4666 167.463 51.5548 166.915 51.643 166.366C51.6986 166.013 51.7541 165.66 51.8095 165.307C51.8357 165.145 51.862 164.984 51.889 164.817C52.0498 163.772 52.0933 162.768 52.0703 161.712C52.2089 161.712 52.3475 161.712 52.4902 161.712C52.3863 160.952 52.3863 160.952 52.2803 160.176C52.3496 160.176 52.4188 160.176 52.4902 160.176C52.6717 159.011 52.851 157.847 53.0285 156.682C53.089 156.286 53.1501 155.891 53.2118 155.495C53.3008 154.924 53.3878 154.352 53.4744 153.78C53.502 153.606 53.5295 153.432 53.5579 153.253C53.7399 152.034 53.7806 150.843 53.75 149.613C53.8193 149.613 53.8886 149.613 53.96 149.613C54.1022 148.763 54.244 147.913 54.3854 147.063C54.4334 146.775 54.4814 146.488 54.5296 146.2C54.6927 145.225 54.8529 144.25 55.0098 143.275C55.0311 143.143 55.0525 143.011 55.0745 142.874C55.2995 141.466 55.4835 140.101 55.4559 138.678C55.454 138.544 55.4521 138.41 55.4502 138.273C55.4454 137.956 55.4379 137.638 55.4297 137.321C55.5683 137.448 55.7068 137.575 55.8496 137.705C55.875 137.529 55.9004 137.353 55.9265 137.172C56.166 135.513 56.4068 133.854 56.6491 132.196C56.7736 131.343 56.8976 130.49 57.0205 129.638C57.1391 128.814 57.259 127.991 57.3799 127.168C57.4257 126.854 57.4711 126.541 57.516 126.227C57.579 125.786 57.6437 125.347 57.7088 124.907C57.7452 124.656 57.7815 124.406 57.819 124.148C57.9359 123.56 58.0994 123.075 58.3691 122.533C59.0234 122.594 59.6777 122.656 60.332 122.718C60.8893 122.771 61.4466 122.823 62.0039 122.876C63.2311 122.991 64.4581 123.108 65.6841 123.233C65.8612 123.251 66.0383 123.268 66.2207 123.287C66.5377 123.319 66.8546 123.352 67.1714 123.386C68.2314 123.492 69.2704 123.505 70.3369 123.493C70.3369 123.62 70.3369 123.747 70.3369 123.877C70.4545 123.874 70.5721 123.87 70.6933 123.867C72.5232 123.839 74.3111 124.05 76.1252 124.248C76.3735 124.274 76.6218 124.3 76.8777 124.327C77.2089 124.363 77.2089 124.363 77.5469 124.4C78.5702 124.471 79.5988 124.453 80.625 124.453C80.5557 122.615 80.4864 120.777 80.415 118.884C79.3757 118.884 78.3364 118.884 77.2656 118.884C77.1963 119.01 77.1271 119.137 77.0557 119.268C76.9171 119.204 76.7785 119.141 76.6357 119.076C76.255 119.059 75.8736 119.055 75.4924 119.057C75.2664 119.058 75.0404 119.058 74.8076 119.059C74.5708 119.06 74.334 119.062 74.09 119.064C73.8515 119.065 73.6131 119.065 73.3674 119.066C72.7772 119.069 72.1869 119.072 71.5967 119.076C71.3555 118.635 71.3613 118.389 71.3629 117.899C71.3629 117.654 71.3629 117.654 71.3629 117.404C71.364 117.227 71.3651 117.05 71.3662 116.868C71.3665 116.686 71.3668 116.505 71.3671 116.318C71.3683 115.737 71.3709 115.156 71.3736 114.574C71.3746 114.183 71.3756 113.792 71.3765 113.401C71.3785 112.538 71.3815 111.676 71.3853 110.813C71.3865 110.495 71.3867 110.176 71.3867 109.857C71.456 109.73 71.5253 109.603 71.5967 109.473C71.4581 109.409 71.3195 109.346 71.1768 109.281C71.2352 109.061 71.2352 109.061 71.2949 108.837C71.4346 108.303 71.4346 108.303 71.1768 107.744C71.2436 107.424 71.3141 107.104 71.3867 106.784C71.4007 106.36 71.4046 105.936 71.3998 105.512C71.3979 105.295 71.3961 105.079 71.3941 104.856C71.3917 104.668 71.3892 104.481 71.3867 104.287C71.3867 103.915 71.389 103.543 71.3941 103.171C71.396 102.969 71.3979 102.767 71.3998 102.559C71.4023 102.357 71.4047 102.155 71.4072 101.947C71.414 101.391 71.414 101.391 71.1768 100.83C71.2114 100.723 71.246 100.616 71.2817 100.506C71.4432 99.8232 71.2897 99.2143 71.1768 98.5256C71.3153 98.5256 71.4539 98.5256 71.5967 98.5256C71.4998 97.6939 71.3989 96.8671 71.2555 96.0408C71.1768 95.4526 71.1768 95.4526 71.3867 95.0685C71.395 94.7485 71.3959 94.4282 71.3867 94.1082C71.2481 94.1082 71.1096 94.1082 70.9668 94.1082C71.0361 93.9815 71.1054 93.8547 71.1768 93.7241C71.3153 93.7875 71.4539 93.8509 71.5967 93.9162C71.5669 93.64 71.5361 93.364 71.5048 93.0879C71.4878 92.9342 71.4707 92.7804 71.4532 92.622C71.3967 92.1568 71.3967 92.1568 71.1768 91.6115C71.2114 91.4689 71.246 91.3263 71.2817 91.1794C71.4218 90.6409 71.4218 90.6409 71.2826 90.057C71.1608 89.1935 71.2012 88.3955 71.2686 87.5303C71.3545 86.4029 71.3545 86.4029 71.3867 85.2736C71.3892 85.0953 71.3916 84.9171 71.3941 84.7334C71.396 84.5314 71.3979 84.3294 71.3998 84.1213C71.4023 83.9192 71.4047 83.7172 71.4072 83.5091C71.414 82.9532 71.414 82.9532 71.1768 82.3927C71.1569 82.017 71.1495 81.6406 71.1505 81.2644C71.15 81.0668 71.1494 80.8693 71.1489 80.6657C71.1748 80.1295 71.2672 79.6516 71.3867 79.1278C71.4051 78.8441 71.4141 78.5597 71.413 78.2755C71.4135 78.1371 71.414 77.9987 71.4146 77.8561C71.3962 77.3851 71.3962 77.3851 71.2817 76.8721C71.1755 76.2393 71.1496 75.6452 71.1489 75.0053C71.1486 74.7724 71.1483 74.5396 71.1481 74.2997C71.1489 74.0589 71.1497 73.8182 71.1505 73.5701C71.1497 73.3301 71.1489 73.0901 71.1481 72.8428C71.1503 70.8827 71.1503 70.8827 71.2899 70.0988C71.3917 69.4955 71.3589 69.0014 71.2817 68.3966C71.1639 67.2274 71.2208 66.1167 71.3162 64.9506C71.3899 63.9747 71.3444 63.0532 71.2169 62.0804C71.1653 61.5285 71.2543 61.0365 71.3867 60.4982C71.3867 60.3081 71.3867 60.1179 71.3867 59.922C71.3892 59.7831 71.3916 59.6443 71.3941 59.5012C71.396 59.3509 71.3979 59.2006 71.3998 59.0458C71.4023 58.895 71.4047 58.7442 71.4072 58.5889C71.4153 58.181 71.4153 58.181 71.1768 57.8094C71.246 57.6826 71.3153 57.5559 71.3867 57.4253C72.9937 57.393 74.6007 57.3623 76.2077 57.3327C76.7548 57.3224 77.3018 57.3118 77.8489 57.3008C78.6337 57.2851 79.4186 57.2707 80.2034 57.2565C80.4493 57.2513 80.6951 57.2461 80.9484 57.2408C81.2888 57.235 81.2888 57.235 81.6362 57.2291C81.8366 57.2252 82.0371 57.2214 82.2437 57.2174C82.7246 57.2332 82.7246 57.2332 83.1445 57.4253C83.2138 57.2985 83.2831 57.1718 83.3545 57.0412C83.5976 57.0725 83.8407 57.1038 84.0911 57.136C85.5817 57.2865 87.0782 57.257 88.5756 57.252C88.8962 57.2516 89.2168 57.2514 89.5374 57.2512C90.3759 57.2504 91.2144 57.2486 92.0529 57.2464C92.9081 57.2445 93.7634 57.2436 94.6186 57.2426C96.1185 57.2408 97.6185 57.238 99.1184 57.2345C99.5327 57.2337 99.947 57.2332 100.361 57.2332C100.775 57.2299 100.775 57.2299 101.198 57.2265C101.531 57.2247 101.865 57.2229 102.198 57.2212C102.446 57.2188 102.446 57.2188 102.699 57.2164C103.693 57.2126 104.63 57.273 105.61 57.4253C105.61 57.2352 105.61 57.045 105.61 56.8491ZM134.375 142.507C134.585 143.083 134.585 143.083 134.585 143.083L134.375 142.507Z" fill="#3B1137"/>
<path d="M80.835 127.142C89.6301 127.138 98.4252 127.134 107.487 127.13C111.66 127.127 111.66 127.127 115.918 127.125C119.302 127.124 119.302 127.124 120.884 127.124C121.994 127.123 123.105 127.123 124.215 127.122C125.628 127.12 127.042 127.12 128.455 127.12C128.976 127.12 129.496 127.12 130.017 127.119C130.716 127.118 131.416 127.118 132.115 127.119C132.322 127.118 132.529 127.118 132.742 127.117C132.928 127.118 133.114 127.118 133.306 127.118C133.468 127.118 133.63 127.118 133.797 127.118C134.165 127.142 134.165 127.142 134.375 127.334C134.395 127.617 134.4 127.901 134.399 128.185C134.399 128.368 134.399 128.552 134.399 128.742C134.398 128.945 134.397 129.148 134.396 129.357C134.396 129.57 134.396 129.782 134.395 130.001C134.394 130.709 134.392 131.418 134.389 132.126C134.388 132.626 134.387 133.125 134.387 133.624C134.385 134.664 134.382 135.704 134.379 136.743C134.375 138.164 134.373 139.585 134.371 141.006C134.367 143.546 134.362 146.087 134.357 148.628C134.355 149.802 134.353 150.976 134.35 152.15C134.346 154.54 134.341 156.931 134.336 159.321C134.331 161.679 134.327 164.037 134.322 166.394C134.322 166.542 134.321 166.69 134.321 166.843C134.32 167.595 134.318 168.348 134.317 169.1C134.306 174.392 134.296 179.684 134.285 184.976C134.275 190.109 134.265 195.241 134.255 200.374C134.254 200.612 134.254 200.612 134.254 200.855C134.251 202.452 134.247 204.049 134.244 205.646C134.238 208.897 134.232 212.148 134.225 215.399C134.225 215.548 134.224 215.698 134.224 215.851C134.215 220.419 134.206 224.986 134.197 229.553C134.197 229.683 134.197 229.812 134.196 229.945C134.186 235.177 134.175 240.409 134.165 245.641C126.89 245.641 119.615 245.641 112.119 245.641C112.119 244.881 112.119 244.12 112.119 243.337C111.981 243.273 111.842 243.21 111.699 243.145C111.605 242.719 111.605 242.719 111.555 242.196C111.537 242.024 111.519 241.852 111.5 241.675C111.489 241.224 111.489 241.224 111.699 240.84C111.561 240.777 111.422 240.713 111.279 240.648C111.418 240.521 111.556 240.394 111.699 240.264C111.639 239.942 111.566 239.622 111.489 239.303C111.472 238.808 111.465 238.318 111.469 237.823C111.469 237.614 111.469 237.614 111.47 237.401C111.471 236.959 111.473 236.517 111.476 236.074C111.477 235.774 111.478 235.473 111.479 235.172C111.481 234.436 111.485 233.701 111.489 232.966C111.628 232.966 111.766 232.966 111.909 232.966C111.841 232.829 111.772 232.693 111.702 232.552C111.477 231.973 111.44 231.549 111.45 230.937C111.452 230.669 111.452 230.669 111.454 230.396C111.489 229.893 111.489 229.893 111.61 229.491C111.719 229.042 111.613 228.803 111.489 228.356C111.469 227.838 111.46 227.326 111.463 226.808C111.462 226.669 111.461 226.531 111.461 226.389C111.462 225.777 111.486 225.291 111.699 224.707C111.561 224.644 111.422 224.58 111.279 224.515C111.31 224.408 111.34 224.301 111.371 224.191C111.41 224.044 111.449 223.898 111.489 223.747C111.529 223.599 111.568 223.452 111.608 223.3C111.704 222.761 111.672 222.342 111.594 221.802C111.465 220.699 111.548 219.66 111.699 218.561C111.561 218.498 111.422 218.434 111.279 218.369C111.418 218.369 111.556 218.369 111.699 218.369C111.665 218.271 111.63 218.172 111.594 218.071C111.456 217.451 111.478 216.865 111.489 216.233C111.545 215.349 111.545 215.349 111.279 214.528C111.418 214.528 111.556 214.528 111.699 214.528C111.665 214.417 111.63 214.306 111.594 214.192C111.489 213.76 111.489 213.76 111.489 212.992C111.483 212.629 111.483 212.629 111.476 212.259C111.475 211.525 111.567 210.834 111.699 210.111C111.561 210.047 111.422 209.984 111.279 209.919C111.418 209.919 111.556 209.919 111.699 209.919C111.63 209.729 111.561 209.538 111.489 209.342C111.581 208.922 111.581 208.922 111.699 208.574C111.561 208.511 111.422 208.448 111.279 208.382C111.418 208.382 111.556 208.382 111.699 208.382C111.699 208.192 111.699 208.002 111.699 207.806C111.561 207.806 111.422 207.806 111.279 207.806C111.349 207.679 111.418 207.553 111.489 207.422C111.499 206.864 111.498 206.311 111.489 205.753C111.474 204.123 111.551 202.517 111.699 200.892C111.491 200.829 111.283 200.765 111.069 200.7C111.277 200.7 111.485 200.7 111.699 200.7C111.66 200.458 111.621 200.217 111.581 199.968C111.488 199.389 111.49 199.163 111.699 198.587C111.491 198.524 111.283 198.461 111.069 198.395C111.208 198.332 111.346 198.268 111.489 198.203C111.489 198.073 111.489 197.944 111.489 197.81C111.489 193.018 111.489 193.018 111.607 192.64C111.721 192.157 111.63 191.848 111.489 191.373C111.306 190.751 111.259 190.577 111.489 189.945C111.675 188.847 111.724 187.789 111.699 186.68C111.838 186.68 111.976 186.68 112.119 186.68C112.05 185.919 111.981 185.159 111.909 184.375C108.999 184.375 106.089 184.375 103.091 184.375C102.952 184.692 102.814 185.009 102.671 185.335C102.567 185.05 102.567 185.05 102.461 184.759C95.3244 184.759 88.1878 184.759 80.835 184.759C80.835 165.745 80.835 146.732 80.835 127.142Z" fill="#491241"/>
<path d="M105.61 56.8491C105.68 56.9759 105.749 57.1026 105.82 57.2332C106.026 57.231 106.232 57.2288 106.444 57.2265C108.417 57.2121 110.363 57.2806 112.329 57.4253C112.398 57.2985 112.468 57.1718 112.539 57.0412C112.539 57.1679 112.539 57.2947 112.539 57.4253C112.795 57.4049 112.795 57.4049 113.057 57.3841C114.901 57.2492 116.728 57.2033 118.577 57.2082C119.034 57.2092 119.49 57.2082 119.946 57.207C121.895 57.2062 123.824 57.2832 125.767 57.4253C125.836 57.2985 125.905 57.1718 125.977 57.0412C126.046 57.1046 126.115 57.1679 126.187 57.2332C126.826 57.243 127.463 57.2409 128.102 57.2332C130.54 57.217 132.975 57.2689 135.412 57.3293C135.599 57.3339 135.786 57.3385 135.979 57.3432C137.054 57.3698 138.129 57.3972 139.204 57.4253C139.273 57.2985 139.343 57.1718 139.414 57.0412C139.414 57.1679 139.414 57.2947 139.414 57.4253C140.731 57.4253 142.047 57.4253 143.403 57.4253C143.628 60.7008 143.638 63.9675 143.628 67.2477C143.626 68.0149 143.625 68.7821 143.624 69.5493C143.622 71.4898 143.618 73.4302 143.613 75.3706C143.609 77.4766 143.604 79.5826 143.602 81.6885C143.601 82.5989 143.599 83.5094 143.596 84.4198C143.595 84.9843 143.594 85.5488 143.593 86.1133C143.593 86.4991 143.591 86.8849 143.589 87.2706C143.589 87.5007 143.589 87.7308 143.589 87.9679C143.589 88.1674 143.589 88.3669 143.588 88.5724C143.612 89.0941 143.704 89.5657 143.823 90.075C143.798 90.5027 143.798 90.5027 143.732 90.9633C143.547 92.5843 143.591 94.2091 143.6 95.8368C143.601 96.1646 143.602 96.4924 143.603 96.8203C143.605 97.4167 143.607 98.0132 143.61 98.6096C143.612 99.0297 143.613 99.4498 143.613 99.87C143.614 100.205 143.615 100.539 143.616 100.874C143.62 102.492 143.622 104.11 143.624 105.728C143.625 106.623 143.627 107.517 143.629 108.412C143.631 109.281 143.633 110.149 143.633 111.018C143.634 111.345 143.634 111.673 143.635 112.001C143.643 114.365 143.554 116.715 143.403 119.076C136.613 119.082 129.823 119.064 123.032 119.042C122.596 119.04 122.16 119.039 121.724 119.038C118.983 119.029 116.242 119.02 113.501 119.011C112.875 119.008 112.248 119.006 111.622 119.004C111.467 119.004 111.311 119.003 111.151 119.003C108.631 118.994 106.112 118.986 103.592 118.979C100.976 118.971 98.3594 118.962 95.7431 118.953C94.2859 118.948 92.8288 118.944 91.3716 118.94C84.8474 118.921 78.3282 118.869 71.8066 118.692C71.7374 118.818 71.6681 118.945 71.5967 119.076C71.3555 118.635 71.3613 118.389 71.3629 117.899C71.3629 117.736 71.3629 117.572 71.3629 117.404C71.364 117.227 71.3651 117.05 71.3662 116.868C71.3665 116.686 71.3668 116.505 71.3671 116.318C71.3683 115.737 71.3709 115.156 71.3736 114.574C71.3746 114.183 71.3756 113.792 71.3765 113.401C71.3785 112.538 71.3815 111.676 71.3853 110.813C71.3865 110.495 71.3867 110.176 71.3867 109.857C71.456 109.73 71.5253 109.603 71.5967 109.473C71.4581 109.409 71.3195 109.346 71.1768 109.281C71.2157 109.134 71.2547 108.988 71.2949 108.837C71.4346 108.303 71.4346 108.303 71.1768 107.744C71.2436 107.424 71.3141 107.104 71.3867 106.784C71.4007 106.36 71.4046 105.936 71.3998 105.512C71.3979 105.295 71.3961 105.079 71.3941 104.856C71.3917 104.668 71.3892 104.481 71.3867 104.287C71.3867 103.915 71.389 103.543 71.3941 103.171C71.396 102.969 71.3979 102.767 71.3998 102.559C71.4023 102.357 71.4047 102.155 71.4072 101.947C71.414 101.391 71.414 101.391 71.1768 100.83C71.2114 100.723 71.246 100.616 71.2817 100.506C71.4432 99.8232 71.2897 99.2143 71.1768 98.5256C71.3153 98.5256 71.4539 98.5256 71.5967 98.5256C71.4998 97.6939 71.3989 96.8671 71.2555 96.0408C71.1768 95.4526 71.1768 95.4526 71.3867 95.0685C71.395 94.7485 71.3959 94.4282 71.3867 94.1082C71.2481 94.1082 71.1096 94.1082 70.9668 94.1082C71.0707 93.9181 71.0707 93.9181 71.1768 93.7241C71.3153 93.7875 71.4539 93.8509 71.5967 93.9162C71.5669 93.64 71.5361 93.364 71.5048 93.0879C71.4878 92.9342 71.4707 92.7804 71.4532 92.622C71.3967 92.1568 71.3967 92.1568 71.1768 91.6115C71.2114 91.4689 71.246 91.3263 71.2817 91.1794C71.4218 90.6409 71.4218 90.6409 71.2826 90.057C71.1608 89.1935 71.2012 88.3955 71.2686 87.5303C71.3545 86.4029 71.3545 86.4029 71.3867 85.2736C71.3892 85.0953 71.3916 84.9171 71.3941 84.7334C71.396 84.5314 71.3979 84.3294 71.3998 84.1213C71.4023 83.9192 71.4047 83.7172 71.4072 83.5091C71.414 82.9532 71.414 82.9532 71.1768 82.3927C71.1569 82.017 71.1495 81.6406 71.1505 81.2644C71.15 81.0668 71.1494 80.8693 71.1489 80.6657C71.1748 80.1295 71.2672 79.6516 71.3867 79.1278C71.4051 78.8441 71.4141 78.5597 71.413 78.2755C71.4135 78.1371 71.414 77.9987 71.4146 77.8561C71.3962 77.3851 71.3962 77.3851 71.2817 76.8721C71.1755 76.2393 71.1496 75.6452 71.1489 75.0053C71.1486 74.7724 71.1483 74.5396 71.1481 74.2997C71.1493 73.9386 71.1493 73.9386 71.1505 73.5701C71.1497 73.3301 71.1489 73.0901 71.1481 72.8428C71.1503 70.8827 71.1503 70.8827 71.2899 70.0988C71.3917 69.4955 71.3589 69.0014 71.2817 68.3966C71.1639 67.2274 71.2208 66.1167 71.3162 64.9506C71.3899 63.9747 71.3444 63.0532 71.2169 62.0804C71.1653 61.5285 71.2543 61.0365 71.3867 60.4982C71.3867 60.3081 71.3867 60.1179 71.3867 59.922C71.3892 59.7831 71.3916 59.6443 71.3941 59.5012C71.396 59.3509 71.3979 59.2006 71.3998 59.0458C71.4023 58.895 71.4047 58.7442 71.4072 58.5889C71.4153 58.181 71.4153 58.181 71.1768 57.8094C71.246 57.6826 71.3153 57.5559 71.3867 57.4253C72.9937 57.393 74.6007 57.3623 76.2077 57.3327C76.7548 57.3224 77.3018 57.3118 77.8489 57.3008C78.6337 57.2851 79.4186 57.2707 80.2034 57.2565C80.4493 57.2513 80.6951 57.2461 80.9484 57.2408C81.2888 57.235 81.2888 57.235 81.6362 57.2291C81.8366 57.2252 82.0371 57.2214 82.2437 57.2174C82.7246 57.2332 82.7246 57.2332 83.1445 57.4253C83.2138 57.2985 83.2831 57.1718 83.3545 57.0412C83.5976 57.0725 83.8407 57.1038 84.0911 57.136C85.5817 57.2865 87.0782 57.257 88.5756 57.252C88.8962 57.2516 89.2168 57.2514 89.5374 57.2512C90.3759 57.2504 91.2144 57.2486 92.0529 57.2464C92.9081 57.2445 93.7634 57.2436 94.6186 57.2426C96.1185 57.2408 97.6185 57.238 99.1184 57.2345C99.5327 57.2337 99.947 57.2332 100.361 57.2332C100.775 57.2299 100.775 57.2299 101.198 57.2265C101.531 57.2247 101.865 57.2229 102.198 57.2212C102.446 57.2188 102.446 57.2188 102.699 57.2164C103.693 57.2126 104.63 57.273 105.61 57.4253C105.61 57.2352 105.61 57.045 105.61 56.8491Z" fill="#59174E"/>
<path d="M58.3691 122.533C59.0234 122.594 59.6777 122.656 60.332 122.718C60.8893 122.771 61.4466 122.823 62.0039 122.876C63.2311 122.991 64.4581 123.108 65.6841 123.233C65.9497 123.259 65.9497 123.259 66.2207 123.287C66.5377 123.319 66.8546 123.352 67.1714 123.386C68.2314 123.492 69.2704 123.505 70.3369 123.493C70.3369 123.62 70.3369 123.747 70.3369 123.877C70.7396 123.865 70.7396 123.865 71.1505 123.853C72.8486 123.849 74.5329 124.073 76.2158 124.261C76.1465 124.388 76.0772 124.515 76.0059 124.645C75.9659 125.105 75.9357 125.561 75.9121 126.021C75.8184 127.581 75.6287 129.122 75.4063 130.67C75.3676 130.946 75.329 131.222 75.2904 131.497C75.2091 132.078 75.127 132.659 75.0445 133.24C74.849 134.616 74.6566 135.992 74.4638 137.367C74.3993 137.828 74.3346 138.288 74.2699 138.748C73.9352 141.133 73.6141 143.519 73.2995 145.906C72.9104 148.858 72.4998 151.806 72.0433 154.75C71.7044 156.936 71.3932 159.125 71.098 161.316C70.706 164.223 70.2999 167.127 69.8824 170.031C69.819 170.472 69.7558 170.913 69.6927 171.354C69.3776 173.559 69.0482 175.759 68.6589 177.953C68.4353 179.226 68.2672 180.501 68.1192 181.782C67.9608 183.146 67.7683 184.489 67.4878 185.837C67.3822 186.373 67.3209 186.905 67.2794 187.448C67.235 188.018 67.1766 188.438 66.9775 188.985C66.855 188.967 66.7324 188.95 66.6061 188.932C66.039 188.852 65.4716 188.774 64.9042 188.696C64.7115 188.669 64.5188 188.641 64.3202 188.613C63.1774 188.459 62.0833 188.383 60.9279 188.417C60.463 188.408 60.0739 188.335 59.6289 188.216C59.6289 188.343 59.6289 188.47 59.6289 188.6C59.421 188.664 59.2132 188.727 58.999 188.792C59.0683 188.539 59.1376 188.285 59.209 188.024C59.0058 188.03 58.8026 188.036 58.5932 188.042C57.6528 188.041 56.757 187.898 55.834 187.744C55.6563 187.715 55.4787 187.686 55.2956 187.656C54.9223 187.595 54.5491 187.533 54.176 187.471C53.6055 187.376 53.0346 187.284 52.4636 187.191C52.0998 187.132 51.7361 187.072 51.3724 187.011C51.1171 186.97 51.1171 186.97 50.8567 186.928C50.0802 186.797 49.3948 186.679 48.7109 186.296C48.9975 184.141 49.2932 181.989 49.6164 179.839C49.652 179.601 49.652 179.601 49.6884 179.358C49.8076 178.564 49.9277 177.769 50.0492 176.975C50.0939 176.679 50.1385 176.382 50.1831 176.085C50.2041 175.95 50.2251 175.815 50.2467 175.676C50.3294 175.122 50.3909 174.59 50.3773 174.03C50.3928 173.33 50.5387 172.695 50.6974 172.012C50.8755 171.218 51.0008 170.418 51.1271 169.616C51.1545 169.444 51.1819 169.272 51.2101 169.094C51.2672 168.733 51.324 168.372 51.3805 168.011C51.4666 167.463 51.5548 166.915 51.643 166.366C51.6986 166.013 51.7541 165.66 51.8095 165.307C51.8489 165.064 51.8489 165.064 51.889 164.817C52.0498 163.772 52.0933 162.768 52.0703 161.712C52.2089 161.712 52.3475 161.712 52.4902 161.712C52.4209 161.205 52.3517 160.698 52.2803 160.176C52.3496 160.176 52.4188 160.176 52.4902 160.176C52.6717 159.011 52.851 157.847 53.0285 156.682C53.089 156.286 53.1501 155.891 53.2118 155.495C53.3008 154.924 53.3878 154.352 53.4744 153.78C53.502 153.606 53.5295 153.432 53.5579 153.253C53.7399 152.034 53.7806 150.843 53.75 149.613C53.8193 149.613 53.8886 149.613 53.96 149.613C54.1022 148.763 54.244 147.913 54.3854 147.063C54.4334 146.775 54.4814 146.488 54.5296 146.2C54.6927 145.225 54.8529 144.25 55.0098 143.275C55.0311 143.143 55.0525 143.011 55.0745 142.874C55.2995 141.466 55.4835 140.101 55.4559 138.678C55.454 138.544 55.4521 138.41 55.4502 138.273C55.4454 137.956 55.4379 137.638 55.4297 137.321C55.6375 137.511 55.6375 137.511 55.8496 137.705C55.875 137.529 55.9004 137.353 55.9265 137.172C56.166 135.513 56.4068 133.854 56.6491 132.196C56.7736 131.343 56.8976 130.49 57.0205 129.638C57.1391 128.814 57.259 127.991 57.3799 127.168C57.4257 126.854 57.4711 126.541 57.516 126.227C57.579 125.786 57.6437 125.347 57.7088 124.907C57.7452 124.656 57.7815 124.406 57.819 124.148C57.9359 123.56 58.0994 123.075 58.3691 122.533Z" fill="#56164C"/>
<path d="M156.841 122.724C156.869 122.909 156.896 123.095 156.925 123.285C157.709 128.496 158.495 133.706 159.282 138.917C159.357 139.409 159.431 139.901 159.505 140.393C159.749 142.005 159.993 143.616 160.238 145.226C160.309 145.693 160.38 146.16 160.45 146.626C160.546 147.263 160.643 147.899 160.741 148.536C160.768 148.72 160.796 148.905 160.825 149.095C160.85 149.261 160.876 149.426 160.902 149.597C160.924 149.741 160.946 149.884 160.968 150.031C161.026 150.398 161.026 150.398 161.25 150.765C161.29 151.101 161.319 151.438 161.344 151.775C161.456 153.102 161.643 154.415 161.844 155.734C161.883 155.996 161.923 156.258 161.962 156.52C162.047 157.086 162.132 157.651 162.217 158.216C162.331 158.967 162.444 159.718 162.557 160.469C163.1 164.086 163.653 167.702 164.211 171.317C164.306 171.932 164.4 172.547 164.495 173.162C164.526 173.364 164.557 173.566 164.589 173.774C164.652 174.18 164.714 174.586 164.777 174.991C164.961 176.192 165.147 177.392 165.334 178.592C165.451 179.346 165.567 180.099 165.683 180.853C165.738 181.205 165.792 181.556 165.848 181.908C165.923 182.391 165.998 182.875 166.072 183.359C166.105 183.569 166.105 183.569 166.139 183.782C166.276 184.692 166.308 185.569 166.289 186.487C165.345 186.654 164.401 186.818 163.456 186.98C163.135 187.035 162.815 187.091 162.495 187.148C160.851 187.438 159.273 187.687 157.59 187.639C156.581 187.641 155.6 187.823 154.61 187.988C154.392 188.023 154.175 188.057 153.951 188.093C153.304 188.196 152.658 188.302 152.012 188.408C151.48 188.495 150.948 188.582 150.417 188.668C150.115 188.718 149.813 188.768 149.511 188.818C148.933 188.914 148.401 188.984 147.813 188.984C147.797 188.866 147.782 188.748 147.767 188.627C147.35 185.393 146.901 182.165 146.435 178.937C146.362 178.435 146.29 177.933 146.218 177.43C146.083 176.491 145.947 175.551 145.812 174.612C145.554 172.819 145.296 171.027 145.038 169.234C144.835 167.815 144.631 166.396 144.427 164.977C144.404 164.82 144.382 164.663 144.359 164.502C143.705 159.951 143.705 159.951 143.042 155.401C143.002 155.131 143.002 155.131 142.961 154.855C142.936 154.681 142.91 154.506 142.884 154.326C142.315 150.463 141.777 146.596 141.253 142.727C140.931 140.344 140.603 137.962 140.267 135.581C140.207 135.162 140.148 134.742 140.089 134.323C140.07 134.186 140.051 134.048 140.031 133.907C139.992 133.631 139.953 133.356 139.914 133.08C139.801 132.276 139.687 131.472 139.572 130.668C139.484 130.049 139.397 129.43 139.31 128.811C139.278 128.589 139.246 128.368 139.213 128.14C139.049 126.963 138.961 125.831 138.994 124.645C139.208 124.624 139.422 124.603 139.643 124.581C140.436 124.501 141.228 124.42 142.021 124.338C142.364 124.303 142.708 124.268 143.051 124.234C143.544 124.185 144.037 124.134 144.53 124.082C144.684 124.068 144.838 124.053 144.997 124.037C145.868 123.96 145.868 123.96 146.553 123.493C146.956 123.409 146.956 123.409 147.454 123.358C147.641 123.338 147.827 123.318 148.019 123.298C148.322 123.268 148.322 123.268 148.631 123.238C148.942 123.207 148.942 123.207 149.259 123.174C149.697 123.13 150.136 123.086 150.575 123.043C151.247 122.977 151.918 122.908 152.589 122.838C153.015 122.795 153.441 122.753 153.867 122.71C154.068 122.689 154.269 122.669 154.476 122.647C154.758 122.62 154.758 122.62 155.045 122.593C155.21 122.576 155.374 122.56 155.544 122.543C156.017 122.532 156.39 122.599 156.841 122.724Z" fill="#57164D"/>
<path d="M102.671 191.865C102.74 191.865 102.809 191.865 102.881 191.865C102.881 209.611 102.881 227.357 102.881 245.641C95.6057 245.641 88.3306 245.641 80.835 245.641C80.835 240.824 80.835 236.008 80.835 231.045C80.6964 230.982 80.5578 230.918 80.415 230.853C80.415 225.276 80.415 219.698 80.415 213.952C80.5536 213.952 80.6922 213.952 80.835 213.952C80.835 207.36 80.835 200.769 80.835 193.978C87.9715 193.978 95.1081 193.978 102.461 193.978C102.461 193.534 102.461 193.091 102.461 192.633C102.566 192.165 102.566 192.165 102.671 191.865Z" fill="#46123E"/>
<path d="M134.165 141.354C134.234 141.354 134.304 141.354 134.375 141.354C134.452 157.182 134.525 173.009 134.611 220.35C134.611 222.245 134.612 224.14 134.613 226.034C134.614 228.664 134.614 231.293 134.613 233.922C134.613 235.191 134.613 236.46 134.614 237.729C134.614 238.888 134.614 240.048 134.613 241.207C134.612 241.629 134.612 242.05 134.613 242.472C134.613 243.041 134.613 243.609 134.612 244.178C134.612 244.345 134.613 244.513 134.613 244.685C134.609 245.811 134.609 245.811 134.375 246.025C134.024 246.055 133.671 246.072 133.319 246.083C133.088 246.091 132.858 246.099 132.62 246.107C132.364 246.114 132.108 246.121 131.844 246.129C131.575 246.137 131.306 246.145 131.029 246.153C127.671 246.246 124.313 246.274 120.954 246.285C120.216 246.287 119.478 246.293 118.739 246.3C117.833 246.31 116.926 246.314 116.019 246.316C115.677 246.317 115.335 246.32 114.994 246.325C114.522 246.331 114.05 246.331 113.578 246.329C113.311 246.331 113.043 246.332 112.768 246.334C112.119 246.217 112.119 246.217 111.713 245.73C111.639 245.574 111.565 245.418 111.489 245.257C111.628 245.257 111.766 245.257 111.909 245.257C111.771 244.75 111.632 244.243 111.489 243.721C111.697 243.594 111.905 243.467 112.119 243.336C112.119 244.097 112.119 244.858 112.119 245.641C119.394 245.641 126.669 245.641 134.165 245.641C134.165 211.226 134.165 176.812 134.165 141.354Z" fill="#1B0A19"/>
<path d="M104.454 184.156C104.74 184.157 104.74 184.157 105.033 184.158C105.228 184.157 105.423 184.157 105.624 184.157C106.037 184.157 106.45 184.157 106.863 184.158C107.497 184.159 108.132 184.158 108.766 184.157C109.167 184.157 109.567 184.157 109.967 184.158C110.158 184.157 110.349 184.157 110.546 184.156C111.885 184.161 111.885 184.161 112.119 184.375C112.134 184.763 112.137 185.151 112.132 185.539C112.13 185.752 112.128 185.964 112.127 186.182C112.123 186.429 112.123 186.429 112.119 186.68C112.05 186.68 111.981 186.68 111.909 186.68C111.909 185.983 111.909 185.285 111.909 184.567C109.068 184.631 106.228 184.694 103.301 184.759C103.317 185.635 103.333 186.512 103.35 187.414C103.548 198.955 103.5 210.493 103.432 222.035C103.422 223.869 103.412 225.702 103.402 227.536C103.401 227.667 103.401 227.798 103.4 227.934C103.397 228.592 103.393 229.251 103.39 229.91C103.362 235.282 103.332 240.654 103.301 246.025C102.731 246.286 102.289 246.242 101.65 246.243C101.237 246.244 101.237 246.244 100.816 246.244C100.503 246.243 100.189 246.242 99.8758 246.242C99.7163 246.241 99.5567 246.241 99.3923 246.241C96.7188 246.238 94.0456 246.207 91.3724 246.174C91.2245 246.172 91.0767 246.17 90.9244 246.168C87.4912 246.125 84.0581 246.074 80.625 246.025C80.625 241.082 80.625 236.138 80.625 231.045C80.6943 231.045 80.7636 231.045 80.835 231.045C80.835 235.862 80.835 240.679 80.835 245.641C88.1101 245.641 95.3853 245.641 102.881 245.641C102.88 243.786 102.879 241.931 102.878 240.02C102.874 234.092 102.872 228.164 102.87 222.236C102.87 221.316 102.87 220.396 102.869 219.476C102.869 219.293 102.869 219.11 102.869 218.921C102.868 215.951 102.867 212.981 102.865 210.011C102.863 206.966 102.862 203.921 102.861 200.876C102.861 198.995 102.86 197.115 102.858 195.234C102.857 193.946 102.857 192.659 102.857 191.371C102.857 190.627 102.857 189.883 102.856 189.138C102.855 188.334 102.855 187.529 102.856 186.724C102.855 186.486 102.854 186.248 102.854 186.003C102.854 185.79 102.855 185.576 102.855 185.356C102.855 185.169 102.855 184.983 102.855 184.792C102.911 183.897 103.64 184.159 104.454 184.156Z" fill="#2C0E26"/>
<path d="M111.909 186.872C111.978 186.872 112.048 186.872 112.119 186.872C112.119 204.364 112.119 221.857 112.119 239.879C111.489 239.303 111.489 239.303 111.418 238.656C111.418 238.391 111.421 238.126 111.428 237.861C111.429 237.721 111.43 237.581 111.43 237.437C111.434 236.991 111.442 236.544 111.45 236.098C111.453 235.796 111.456 235.493 111.459 235.19C111.465 234.448 111.476 233.707 111.489 232.965C111.628 232.965 111.766 232.965 111.909 232.965C111.806 232.761 111.806 232.761 111.702 232.552C111.477 231.973 111.44 231.548 111.45 230.937C111.451 230.758 111.453 230.58 111.454 230.396C111.489 229.892 111.489 229.892 111.61 229.491C111.719 229.042 111.613 228.803 111.489 228.356C111.469 227.838 111.46 227.326 111.463 226.807C111.462 226.669 111.461 226.531 111.461 226.388C111.462 225.777 111.486 225.291 111.699 224.707C111.561 224.643 111.422 224.58 111.279 224.515C111.31 224.408 111.34 224.301 111.371 224.191C111.41 224.044 111.449 223.898 111.489 223.747C111.548 223.526 111.548 223.526 111.608 223.3C111.704 222.761 111.672 222.342 111.594 221.802C111.465 220.698 111.548 219.659 111.699 218.561C111.561 218.498 111.422 218.434 111.279 218.369C111.418 218.369 111.556 218.369 111.699 218.369C111.665 218.27 111.63 218.172 111.594 218.07C111.456 217.45 111.478 216.865 111.489 216.232C111.545 215.348 111.545 215.348 111.279 214.528C111.418 214.528 111.556 214.528 111.699 214.528C111.665 214.417 111.63 214.306 111.594 214.192C111.489 213.76 111.489 213.76 111.489 212.991C111.485 212.75 111.481 212.508 111.476 212.259C111.475 211.525 111.567 210.834 111.699 210.111C111.561 210.047 111.422 209.984 111.279 209.918C111.418 209.918 111.556 209.918 111.699 209.918C111.63 209.728 111.561 209.538 111.489 209.342C111.581 208.922 111.581 208.922 111.699 208.574C111.561 208.511 111.422 208.447 111.279 208.382C111.418 208.382 111.556 208.382 111.699 208.382C111.699 208.192 111.699 208.002 111.699 207.806C111.561 207.806 111.422 207.806 111.279 207.806C111.383 207.616 111.383 207.616 111.489 207.422C111.499 206.864 111.498 206.31 111.489 205.753C111.474 204.123 111.551 202.517 111.699 200.892C111.491 200.828 111.283 200.765 111.069 200.7C111.277 200.7 111.485 200.7 111.699 200.7C111.66 200.458 111.621 200.216 111.581 199.967C111.488 199.388 111.49 199.162 111.699 198.587C111.491 198.524 111.283 198.46 111.069 198.395C111.277 198.3 111.277 198.3 111.489 198.203C111.489 198.073 111.489 197.943 111.489 197.81C111.489 193.017 111.489 193.017 111.607 192.64C111.721 192.156 111.63 191.848 111.489 191.373C111.306 190.751 111.259 190.577 111.489 189.944C111.565 189.432 111.635 188.921 111.699 188.408C111.738 188.12 111.778 187.832 111.817 187.544C111.848 187.322 111.878 187.1 111.909 186.872Z" fill="#35122C"/>
<path d="M143.193 61.2661C143.263 61.2661 143.332 61.2661 143.403 61.2661C143.547 65.7051 143.633 70.1415 143.626 74.5826C143.626 74.795 143.626 75.0074 143.625 75.2263C143.623 76.7427 143.618 78.2592 143.613 79.7756C143.608 81.3186 143.604 82.8617 143.602 84.4047C143.6 85.0133 143.598 85.622 143.595 86.2307C143.594 86.5998 143.593 86.969 143.593 87.3382C143.591 87.5883 143.591 87.5883 143.589 87.8435C143.589 88.617 143.628 89.3178 143.823 90.0747C143.798 90.5023 143.798 90.5023 143.732 90.963C143.547 92.5839 143.591 94.2087 143.6 95.8364C143.601 96.1643 143.602 96.4921 143.603 96.82C143.605 97.4164 143.607 98.0128 143.61 98.6092C143.612 99.0294 143.613 99.4495 143.613 99.8696C143.614 100.204 143.615 100.539 143.616 100.874C143.62 102.492 143.622 104.11 143.624 105.728C143.625 106.622 143.627 107.517 143.629 108.412C143.631 109.28 143.633 110.149 143.633 111.018C143.634 111.345 143.634 111.673 143.635 112C143.643 114.364 143.554 116.715 143.403 119.075C142.219 119.084 141.034 119.092 139.85 119.096C139.447 119.098 139.044 119.101 138.641 119.104C138.062 119.109 137.483 119.111 136.904 119.113C136.723 119.115 136.543 119.117 136.357 119.119C136.189 119.119 136.021 119.119 135.847 119.119C135.7 119.12 135.552 119.121 135.399 119.122C135.005 119.075 135.005 119.075 134.375 118.691C137.285 118.691 140.195 118.691 143.193 118.691C143.193 99.7409 143.193 80.7907 143.193 61.2661Z" fill="#280D23"/>
<path d="M71.5967 63.5708C71.666 63.5708 71.7353 63.5708 71.8066 63.5708C71.9934 64.3029 72.043 64.9805 72.0433 65.7316C72.0439 65.9735 72.0444 66.2155 72.0451 66.4648C72.0446 66.7315 72.0442 66.9983 72.0438 67.265C72.0441 67.5472 72.0444 67.8293 72.0449 68.1115C72.0458 68.8775 72.0455 69.6435 72.0448 70.4095C72.0443 71.2142 72.0448 72.019 72.0451 72.8238C72.0455 74.1779 72.045 75.532 72.044 76.8861C72.0428 78.4434 72.0432 80.0007 72.0444 81.558C72.0453 82.8999 72.0454 84.2418 72.0449 85.5838C72.0446 86.3829 72.0445 87.1821 72.0452 87.9813C72.0501 94.359 72.0501 94.359 71.8066 97.1808C71.2216 96.6456 71.2489 96.1909 71.1768 95.4523C71.2807 95.2622 71.2807 95.2622 71.3867 95.0682C71.395 94.7482 71.3959 94.4279 71.3867 94.1079C71.2481 94.1079 71.1096 94.1079 70.9668 94.1079C71.0707 93.9178 71.0707 93.9178 71.1768 93.7238C71.3153 93.7872 71.4539 93.8506 71.5967 93.9159C71.5669 93.6397 71.5361 93.3636 71.5048 93.0876C71.4878 92.9339 71.4707 92.7801 71.4532 92.6217C71.3967 92.1564 71.3967 92.1564 71.1768 91.6112C71.2114 91.4686 71.246 91.326 71.2817 91.179C71.4218 90.6405 71.4218 90.6405 71.2826 90.0567C71.1608 89.1932 71.2012 88.3951 71.2686 87.5299C71.3545 86.4026 71.3545 86.4026 71.3867 85.2733C71.3892 85.095 71.3916 84.9168 71.3941 84.7331C71.396 84.5311 71.3979 84.3291 71.3998 84.1209C71.4023 83.9189 71.4047 83.7169 71.4072 83.5087C71.414 82.9529 71.414 82.9529 71.1768 82.3924C71.1569 82.0167 71.1495 81.6403 71.1505 81.2641C71.15 81.0665 71.1494 80.869 71.1489 80.6654C71.1748 80.1292 71.2672 79.6512 71.3867 79.1274C71.4051 78.8437 71.4141 78.5594 71.413 78.2752C71.4135 78.1368 71.414 77.9984 71.4146 77.8558C71.3962 77.3848 71.3962 77.3848 71.2817 76.8718C71.1755 76.2389 71.1496 75.6449 71.1489 75.005C71.1486 74.7721 71.1483 74.5393 71.1481 74.2994C71.1493 73.9382 71.1493 73.9382 71.1505 73.5698C71.1497 73.3298 71.1489 73.0897 71.1481 72.8424C71.1503 70.8824 71.1503 70.8824 71.2899 70.0985C71.3917 69.4951 71.3589 69.0011 71.2817 68.3962C71.1763 67.3355 71.1862 66.312 71.2555 65.2513C71.2646 65.107 71.2736 64.9627 71.283 64.814C71.3586 63.7886 71.3586 63.7886 71.5967 63.5708Z" fill="#3D1333"/>
<path d="M71.8066 57.6172C75.1324 57.6172 78.4582 57.6172 81.8848 57.6172C79.0025 58.9354 75.449 58.0013 72.2266 58.0013C72.2266 69.8532 72.2266 81.705 72.2266 93.916C72.1573 93.916 72.088 93.916 72.0166 93.916C71.82 86.8056 71.7877 79.698 71.7935 72.5857C71.7937 72.3631 71.7939 72.1405 71.7941 71.9112C71.7965 69.1311 71.8007 66.351 71.8066 63.571C71.6681 63.5076 71.5295 63.4442 71.3867 63.3789C71.5253 63.3789 71.6639 63.3789 71.8066 63.3789C71.8066 61.4775 71.8066 59.5762 71.8066 57.6172Z" fill="#671A59"/>
<path d="M80.625 231.045C80.6943 231.045 80.7636 231.045 80.835 231.045C80.835 235.862 80.835 240.679 80.835 245.641C88.1101 245.641 95.3853 245.641 102.881 245.641C102.881 245.831 102.881 246.022 102.881 246.217C95.4609 246.264 88.0439 246.131 80.625 246.025C80.625 241.082 80.625 236.138 80.625 231.045Z" fill="#150416"/>
<path d="M111.909 243.336C111.978 243.336 112.048 243.336 112.119 243.336C112.119 244.097 112.119 244.858 112.119 245.641C119.394 245.641 126.669 245.641 134.165 245.641C134.165 245.704 134.165 245.768 134.165 245.833C134.017 245.838 133.869 245.843 133.716 245.848C133.043 245.87 132.371 245.894 131.698 245.917C131.348 245.929 131.348 245.929 130.991 245.94C130.654 245.952 130.654 245.952 130.31 245.964C130.104 245.972 129.897 245.979 129.684 245.986C129.154 246.005 129.154 246.005 128.769 246.121C128.087 246.257 127.411 246.25 126.717 246.254C126.56 246.256 126.403 246.257 126.242 246.259C125.724 246.264 125.207 246.267 124.69 246.27C124.513 246.271 124.336 246.272 124.154 246.273C123.219 246.278 122.285 246.282 121.35 246.285C120.576 246.287 119.802 246.292 119.028 246.3C118.093 246.31 117.158 246.315 116.223 246.316C115.867 246.317 115.51 246.32 115.154 246.325C114.656 246.331 114.159 246.331 113.661 246.329C113.514 246.333 113.366 246.336 113.214 246.339C112.803 246.334 112.803 246.334 112.119 246.217C111.708 245.73 111.708 245.73 111.489 245.257C111.628 245.257 111.766 245.257 111.909 245.257C111.874 245.151 111.839 245.044 111.803 244.934C111.76 244.795 111.717 244.656 111.673 244.513C111.607 244.306 111.607 244.306 111.54 244.094C111.523 243.971 111.507 243.848 111.489 243.721C111.628 243.594 111.766 243.467 111.909 243.336Z" fill="#1D061C"/>
<path d="M71.5967 97.373C71.666 97.373 71.7353 97.373 71.8066 97.373C71.8066 104.345 71.8066 111.316 71.8066 118.499C71.7374 118.499 71.6681 118.499 71.5967 118.499C71.5667 117.361 71.5368 116.223 71.507 115.085C71.4968 114.697 71.4866 114.31 71.4764 113.923C71.4618 113.366 71.4472 112.81 71.4326 112.254C71.4281 112.08 71.4235 111.907 71.4187 111.728C71.4145 111.567 71.4103 111.405 71.406 111.239C71.4023 111.097 71.3985 110.955 71.3947 110.808C71.3749 109.878 71.3749 109.878 71.5967 109.473C71.4581 109.409 71.3195 109.346 71.1768 109.281C71.2157 109.134 71.2547 108.987 71.2949 108.836C71.4346 108.303 71.4346 108.303 71.1768 107.744C71.2436 107.423 71.3141 107.103 71.3867 106.784C71.4007 106.36 71.4046 105.936 71.3998 105.511C71.3979 105.295 71.3961 105.079 71.3941 104.856C71.3917 104.668 71.3892 104.48 71.3867 104.287C71.3867 103.915 71.389 103.543 71.3941 103.171C71.396 102.969 71.3979 102.767 71.3998 102.559C71.4023 102.357 71.4047 102.155 71.4072 101.946C71.414 101.391 71.414 101.391 71.1768 100.83C71.2114 100.723 71.246 100.616 71.2817 100.506C71.4432 99.823 71.2897 99.2141 71.1768 98.5254C71.3153 98.5254 71.4539 98.5254 71.5967 98.5254C71.5382 98.3471 71.5382 98.3471 71.4786 98.1653C71.3867 97.7572 71.3867 97.7572 71.5967 97.373Z" fill="#2D0E25"/>
<path d="M130.806 57.2329C130.875 57.3597 130.944 57.4864 131.016 57.617C135.034 57.617 139.053 57.617 143.193 57.617C143.193 60.2098 143.193 60.2098 143.088 61.5062C143.069 61.7528 143.049 61.9994 143.029 62.2534C143.014 62.4346 142.999 62.6159 142.983 62.8026C142.914 62.8026 142.845 62.8026 142.773 62.8026C142.67 60.4259 142.67 60.4259 142.563 58.0011C142.172 58.0021 141.78 58.0032 141.376 58.0042C140.076 58.0073 138.776 58.0095 137.477 58.0111C136.689 58.0121 135.902 58.0134 135.114 58.0156C134.353 58.0177 133.592 58.0189 132.831 58.0194C132.542 58.0197 132.252 58.0204 131.963 58.0214C130.509 58.0265 129.094 58.0193 127.656 57.8091C127.656 57.7457 127.656 57.6823 127.656 57.617C128.696 57.617 129.735 57.617 130.806 57.617C130.806 57.4903 130.806 57.3635 130.806 57.2329Z" fill="#691D5A"/>
<path d="M49.1309 183.991C49.2001 183.991 49.2694 183.991 49.3408 183.991C49.3558 184.812 49.3606 185.501 49.1309 186.295C49.2711 186.305 49.4113 186.315 49.5558 186.324C50.9655 186.43 52.3356 186.615 53.7238 186.86C54.1291 186.929 54.5346 186.998 54.9401 187.067C55.1329 187.1 55.3257 187.133 55.5243 187.167C56.4102 187.314 57.2998 187.435 58.1903 187.556C59.1636 187.692 60.1311 187.857 61.0986 188.024C61.0986 188.087 61.0986 188.151 61.0986 188.216C60.6136 188.216 60.1286 188.216 59.6289 188.216C59.6289 188.343 59.6289 188.469 59.6289 188.6C59.421 188.663 59.2132 188.727 58.999 188.792C59.0683 188.539 59.1376 188.285 59.209 188.024C59.0058 188.03 58.8026 188.035 58.5932 188.041C57.6528 188.041 56.757 187.897 55.834 187.743C55.6563 187.714 55.4787 187.685 55.2956 187.656C54.9223 187.595 54.5491 187.533 54.176 187.471C53.6055 187.376 53.0346 187.283 52.4636 187.191C52.0998 187.131 51.7361 187.071 51.3724 187.011C51.2022 186.984 51.032 186.956 50.8567 186.928C50.0802 186.797 49.3948 186.678 48.7109 186.295C48.7405 185.983 48.7714 185.671 48.8028 185.359C48.8198 185.185 48.8369 185.012 48.8545 184.832C48.9209 184.375 48.9209 184.375 49.1309 183.991Z" fill="#280D24"/>
<path d="M160.2 147.116C160.693 147.792 160.735 148.246 160.843 149.048C160.937 149.936 160.937 149.936 161.25 150.765C161.284 151.068 161.309 151.373 161.329 151.677C161.438 153.036 161.651 154.377 161.876 155.723C162.073 156.959 162.124 158.159 162.09 159.407C161.73 158.823 161.585 158.322 161.487 157.66C161.458 157.465 161.429 157.27 161.398 157.069C161.368 156.859 161.338 156.65 161.307 156.434C161.275 156.217 161.243 156 161.21 155.776C161.143 155.317 161.076 154.858 161.01 154.399C160.91 153.699 160.806 152.999 160.702 152.3C160.637 151.853 160.572 151.407 160.507 150.96C160.476 150.752 160.445 150.544 160.413 150.329C160.26 149.247 160.167 148.207 160.2 147.116Z" fill="#240B21"/>
<path d="M71.3862 57.4253C74.8506 57.4253 78.3149 57.4253 81.8843 57.4253C81.8843 57.4887 81.8843 57.5521 81.8843 57.6174C78.5585 57.6174 75.2327 57.6174 71.8062 57.6174C71.8062 59.5187 71.8062 61.4201 71.8062 63.3791C71.1268 62.5505 71.1024 62.4899 71.2419 61.5425C71.2671 61.3601 71.2922 61.1776 71.3182 60.9896C71.3519 60.7464 71.3519 60.7464 71.3862 60.4982C71.3862 60.3081 71.3862 60.1179 71.3862 59.922C71.3887 59.7831 71.3911 59.6443 71.3936 59.5012C71.3955 59.3509 71.3974 59.2006 71.3994 59.0458C71.4018 58.895 71.4042 58.7442 71.4067 58.5889C71.4148 58.181 71.4148 58.181 71.1763 57.8094C71.2456 57.6826 71.3148 57.5559 71.3862 57.4253Z" fill="#1F0B1E"/>
<path d="M53.75 152.686C53.8193 152.686 53.8886 152.686 53.96 152.686C53.8885 154.73 53.6287 156.745 53.3301 158.771C53.3113 158.9 53.2924 159.028 53.2731 159.16C52.9316 161.476 52.9316 161.476 52.7002 162.48C52.6309 162.48 52.5616 162.48 52.4902 162.48C52.4209 161.72 52.3517 160.959 52.2803 160.176C52.3496 160.176 52.4188 160.176 52.4902 160.176C52.5209 159.976 52.5516 159.777 52.5833 159.571C52.6975 158.829 52.8123 158.088 52.9272 157.346C52.9769 157.025 53.0264 156.704 53.0757 156.384C53.1467 155.922 53.2182 155.461 53.2899 154.999C53.3118 154.856 53.3336 154.713 53.3562 154.566C53.4555 153.93 53.5577 153.304 53.75 152.686Z" fill="#230B20"/>
<path d="M139.414 172.66C139.483 172.66 139.552 172.66 139.624 172.66C139.77 173.507 139.915 174.354 140.061 175.201C140.11 175.489 140.16 175.776 140.209 176.064C140.281 176.48 140.352 176.895 140.423 177.311C140.488 177.685 140.488 177.685 140.553 178.067C140.914 180.283 140.914 180.283 140.897 181.302C140.895 181.449 140.893 181.595 140.891 181.746C140.887 181.907 140.887 181.907 140.884 182.07C140.297 181.463 140.177 181.073 140.149 180.27C140.068 178.874 139.857 177.506 139.627 176.125C139.442 174.961 139.378 173.835 139.414 172.66Z" fill="#1C091B"/>
<path d="M58.3689 122.533C58.7886 122.552 59.2075 122.586 59.6254 122.626C59.8871 122.651 60.1488 122.676 60.4185 122.702C60.5563 122.716 60.6942 122.729 60.8362 122.743C61.2453 122.784 61.6545 122.822 62.0637 122.861C63.7804 123.027 65.4838 123.238 67.1873 123.493C67.1873 123.556 67.1873 123.62 67.1873 123.685C65.6118 123.72 64.0917 123.583 62.5287 123.409C62.1668 123.37 62.1668 123.37 61.7976 123.331C60.7195 123.214 59.6489 123.086 58.5789 122.917C58.5096 123.36 58.4403 123.804 58.3689 124.261C58.2996 124.261 58.2303 124.261 58.1589 124.261C58.1384 123.08 58.1384 123.08 58.1589 122.725C58.2282 122.661 58.2975 122.598 58.3689 122.533Z" fill="#260C23"/>
<path d="M79.1553 148.076C79.2246 148.076 79.2938 148.076 79.3652 148.076C79.4151 149.631 79.2502 151.136 79.0295 152.675C78.9708 153.087 78.9158 153.499 78.8608 153.911C78.8241 154.173 78.7872 154.435 78.7501 154.697C78.7171 154.933 78.6841 155.169 78.6502 155.413C78.5884 155.679 78.5884 155.679 78.5254 155.951C78.3175 156.046 78.3175 156.046 78.1055 156.143C78.1895 154.317 78.3719 152.517 78.6304 150.705C78.6715 150.415 78.6715 150.415 78.7135 150.118C78.9174 148.729 78.9174 148.729 79.1553 148.076Z" fill="#1B071B"/>
<path d="M71.8071 82.9688C71.8764 82.9688 71.9456 82.9688 72.017 82.9688C72.017 85.8842 72.017 88.7996 72.017 91.8034C71.9477 91.8034 71.8785 91.8034 71.8071 91.8034C71.8071 90.0922 71.8071 88.3809 71.8071 86.6178C71.6685 86.5545 71.5299 86.4911 71.3871 86.4258C71.1491 85.7131 71.2152 85.2215 71.3871 84.5052C71.3951 84.1212 71.3969 83.7369 71.3871 83.3529C71.5257 83.3529 71.6643 83.3529 71.8071 83.3529C71.8071 83.2261 71.8071 83.0993 71.8071 82.9688Z" fill="#5C1850"/>
<path d="M76.2156 167.09C76.2849 167.09 76.3542 167.09 76.4256 167.09C76.4783 168.543 76.3028 169.952 76.0898 171.389C76.0314 171.787 75.9762 172.185 75.9212 172.583C75.8847 172.834 75.8481 173.084 75.8105 173.343C75.7775 173.571 75.7445 173.8 75.7105 174.035C75.5858 174.58 75.5858 174.58 75.1658 174.964C75.1117 173.474 75.321 172.065 75.5726 170.595C75.6109 170.363 75.6492 170.132 75.6887 169.893C75.8453 168.955 76.005 168.02 76.2156 167.09Z" fill="#190819"/>
<path d="M165.239 180.534C165.645 181.09 165.734 181.318 165.838 181.952C165.865 182.117 165.892 182.281 165.92 182.451C165.947 182.622 165.973 182.794 166 182.97C166.029 183.138 166.057 183.306 166.086 183.479C166.248 184.493 166.318 185.463 166.289 186.487C165.453 186.742 164.641 186.693 163.77 186.68C163.77 186.616 163.77 186.553 163.77 186.487C164.462 186.424 165.155 186.361 165.869 186.295C165.824 185.992 165.778 185.689 165.731 185.376C165.672 184.975 165.613 184.573 165.554 184.171C165.524 183.971 165.494 183.772 165.463 183.566C165.314 182.546 165.201 181.563 165.239 180.534Z" fill="#240C22"/>
<path d="M111.909 186.872C111.978 186.872 112.048 186.872 112.119 186.872C112.119 189.217 112.119 191.562 112.119 193.978C111.911 193.724 111.703 193.471 111.489 193.209C111.559 192.889 111.629 192.569 111.699 192.249C111.61 191.799 111.49 191.363 111.358 190.921C111.279 190.521 111.279 190.521 111.489 189.944C111.565 189.432 111.635 188.921 111.699 188.408C111.738 188.12 111.778 187.832 111.817 187.544C111.848 187.322 111.878 187.1 111.909 186.872Z" fill="#2A0E24"/>
<path d="M73.2764 185.527C73.3457 185.527 73.4149 185.527 73.4863 185.527C73.4863 186.605 73.4863 187.682 73.4863 188.792C72.7861 188.952 72.3054 189.007 71.6 189.003C71.4037 189.003 71.2075 189.002 71.0053 189.001C70.7005 188.999 70.7005 188.999 70.3894 188.996C70.1829 188.996 69.9764 188.995 69.7636 188.994C69.2548 188.991 68.7461 188.988 68.2373 188.984C68.2373 188.921 68.2373 188.858 68.2373 188.792C69.6923 188.666 71.1474 188.539 72.6465 188.408C72.8543 187.458 73.0622 186.507 73.2764 185.527Z" fill="#1A0819"/>
<path d="M138.365 165.938C138.715 166.511 138.867 167.001 138.963 167.651C138.99 167.832 139.018 168.013 139.045 168.2C139.072 168.388 139.098 168.576 139.126 168.77C139.154 168.956 139.182 169.141 139.211 169.332C139.365 170.387 139.445 171.403 139.414 172.467C138.834 171.936 138.884 171.469 138.785 170.739C138.715 170.612 138.646 170.485 138.575 170.355C138.366 168.887 138.336 167.415 138.365 165.938Z" fill="#1C091C"/>
<path d="M71.807 76.8228C71.8762 76.8228 71.9455 76.8228 72.0169 76.8228C72.0567 79.0043 71.9339 81.175 71.807 83.3527C71.1396 82.6957 71.1023 82.2303 71.1246 81.3481C71.1278 81.1344 71.1311 80.9208 71.1344 80.7007C71.1723 80.1564 71.26 79.6588 71.387 79.1274C71.387 79.0007 71.387 78.8739 71.387 78.7433C71.5256 78.7433 71.6642 78.7433 71.807 78.7433C71.807 78.1095 71.807 77.4757 71.807 76.8228Z" fill="#44153A"/>
<path d="M77.8955 156.334C77.9648 156.334 78.0341 156.334 78.1055 156.334C78.2043 157.764 78.0324 159.147 77.8168 160.56C77.7903 160.739 77.7638 160.918 77.7366 161.102C77.7094 161.272 77.6823 161.441 77.6544 161.616C77.6181 161.845 77.6181 161.845 77.5811 162.078C77.4756 162.48 77.4756 162.48 77.0557 163.056C77.1405 160.769 77.4017 158.579 77.8955 156.334Z" fill="#1A0819"/>
<path d="M71.3867 109.857C71.5253 109.857 71.6639 109.857 71.8066 109.857C71.8066 112.709 71.8066 115.561 71.8066 118.5C71.7374 118.5 71.6681 118.5 71.5967 118.5C71.5667 117.361 71.5368 116.223 71.507 115.085C71.4968 114.698 71.4866 114.31 71.4764 113.923C71.4618 113.367 71.4472 112.81 71.4326 112.254C71.4258 111.994 71.4258 111.994 71.4187 111.728C71.4145 111.567 71.4103 111.405 71.406 111.239C71.4023 111.097 71.3985 110.955 71.3947 110.809C71.388 110.491 71.3867 110.174 71.3867 109.857Z" fill="#020003"/>
<path d="M135.635 148.268C135.705 148.268 135.774 148.268 135.845 148.268C136.183 149.694 136.321 151.035 136.265 152.493C135.42 151.721 135.623 150.464 135.622 149.432C135.625 149.044 135.629 148.656 135.635 148.268Z" fill="#1D091D"/>
<path d="M148.232 123.877C147.178 124.359 146.452 124.477 145.267 124.465C145.108 124.464 144.95 124.464 144.787 124.463C144.396 124.46 144.004 124.457 143.613 124.453C143.613 124.39 143.613 124.326 143.613 124.261C145.169 123.987 146.647 123.819 148.232 123.877Z" fill="#671C59"/>
<path d="M135.005 144.619C135.509 145.311 135.517 145.869 135.556 146.672C135.564 146.807 135.572 146.941 135.581 147.08C135.601 147.412 135.618 147.744 135.635 148.076C135.215 147.884 135.215 147.884 135.075 147.541C134.813 146.492 134.795 145.678 135.005 144.619Z" fill="#20091E"/>
<path d="M52.7002 159.023C53.0816 159.613 53.1608 159.968 53.0545 160.644C53.0318 160.794 53.009 160.944 52.9856 161.099C52.9027 161.562 52.8133 162.022 52.7002 162.48C52.6309 162.48 52.5616 162.48 52.4902 162.48C52.4209 161.72 52.3517 160.959 52.2803 160.176C52.3496 160.176 52.4188 160.176 52.4902 160.176C52.5595 159.796 52.6288 159.415 52.7002 159.023Z" fill="#2D0D28"/>
<path d="M71.3867 91.2271C71.5253 91.2271 71.6639 91.2271 71.8066 91.2271C72.0176 91.8061 72.0383 92.1954 72.0297 92.7995C72.0278 92.9726 72.0259 93.1456 72.024 93.3239C72.0215 93.4559 72.0191 93.5878 72.0166 93.7238C71.9473 93.597 71.878 93.4703 71.8066 93.3397C71.6681 93.3397 71.5295 93.3397 71.3867 93.3397C71.391 93.1614 71.3954 92.9832 71.3998 92.7995C71.4198 92.1829 71.4198 92.1829 71.1768 91.6112C71.246 91.4844 71.3153 91.3576 71.3867 91.2271Z" fill="#421439"/>
<path d="M71.5963 83.5449C71.6656 83.5449 71.7349 83.5449 71.8063 83.5449C71.8063 84.4956 71.8063 85.4463 71.8063 86.4258C71.1764 85.6576 71.1764 85.6576 71.2289 85.0934C71.2809 84.8993 71.3328 84.7052 71.3864 84.5052C71.4253 84.323 71.4643 84.1408 71.5045 83.953C71.5348 83.8184 71.5651 83.6837 71.5963 83.5449Z" fill="#2E0F26"/>
<path d="M97.002 57.2329C97.1405 57.2329 97.2791 57.2329 97.4219 57.2329C97.4219 57.3597 97.4219 57.4864 97.4219 57.617C98.1147 57.617 98.8076 57.617 99.5215 57.617C99.5215 57.6804 99.5215 57.7438 99.5215 57.8091C98.5515 57.8725 97.5814 57.9358 96.582 58.0011C96.5127 57.8744 96.4435 57.7476 96.3721 57.617C96.5799 57.617 96.7878 57.617 97.002 57.617C97.002 57.4903 97.002 57.3635 97.002 57.2329Z" fill="#621A54"/>
<path d="M156.841 122.725C156.841 123.359 156.841 123.992 156.841 124.645C156.772 124.645 156.702 124.645 156.631 124.645C156.562 124.075 156.492 123.505 156.421 122.917C156.005 122.917 155.589 122.917 155.161 122.917C155.876 122.52 155.961 122.524 156.841 122.725Z" fill="#260E21"/>
<path d="M71.3867 109.857C71.5253 109.857 71.6639 109.857 71.8066 109.857C71.8066 110.871 71.8066 111.885 71.8066 112.93C71.7374 112.93 71.6681 112.93 71.5967 112.93C71.5614 112.526 71.5265 112.122 71.4917 111.717C71.4722 111.492 71.4527 111.267 71.4326 111.036C71.4027 110.643 71.3867 110.25 71.3867 109.857Z" fill="#1A0816"/>
<path d="M70.5469 61.6504C70.7547 61.8405 70.9626 62.0307 71.1768 62.2266C71.0382 62.3533 70.8996 62.4801 70.7568 62.6107C70.6875 62.2938 70.6183 61.9769 70.5469 61.6504Z" fill="#652555"/>
<path d="M57.1094 126.566C57.1787 126.566 57.2479 126.566 57.3193 126.566C57.3193 127.01 57.3193 127.453 57.3193 127.91C57.25 127.91 57.1808 127.91 57.1094 127.91C57.1094 127.467 57.1094 127.023 57.1094 126.566Z" fill="#642154"/>
<path d="M148.862 122.917C149.347 122.917 149.832 122.917 150.332 122.917C150.332 122.98 150.332 123.044 150.332 123.109C149.847 123.109 149.362 123.109 148.862 123.109C148.862 123.046 148.862 122.982 148.862 122.917Z" fill="#6B2559"/>
<path d="M70.5469 118.691C70.7547 118.755 70.9626 118.818 71.1768 118.883C71.1075 119.01 71.0382 119.137 70.9668 119.268C70.8282 119.204 70.6896 119.141 70.5469 119.076C70.5469 118.949 70.5469 118.822 70.5469 118.691Z" fill="#632454"/>
<path d="M48.9209 186.68C49.0595 186.806 49.198 186.933 49.3408 187.064C49.133 187.064 48.9251 187.064 48.7109 187.064C48.7802 186.937 48.8495 186.81 48.9209 186.68Z" fill="#542449"/>
<path d="M139.624 178.998C139.763 178.998 139.901 178.998 140.044 178.998C139.975 179.251 139.905 179.505 139.834 179.766C139.765 179.512 139.695 179.259 139.624 178.998Z" fill="#4C1B42"/>
<path d="M50.6006 170.547C50.6699 170.8 50.7392 171.054 50.8105 171.315C50.672 171.125 50.5334 170.935 50.3906 170.739C50.4599 170.676 50.5292 170.612 50.6006 170.547Z" fill="#632254"/>
<path d="M137.734 165.361C137.804 165.361 137.873 165.361 137.944 165.361C137.944 165.678 137.944 165.995 137.944 166.322C137.875 166.322 137.806 166.322 137.734 166.322C137.734 166.005 137.734 165.688 137.734 165.361Z" fill="#4E1A42"/>
<path d="M136.685 159.215C136.754 159.215 136.823 159.215 136.895 159.215C136.895 159.532 136.895 159.849 136.895 160.176C136.825 160.176 136.756 160.176 136.685 160.176C136.685 159.859 136.685 159.542 136.685 159.215Z" fill="#4C1A42"/>
<path d="M103.511 232.197C103.721 232.965 103.721 232.965 103.721 232.965L103.511 232.197Z" fill="#561D4A"/>
<path d="M103.511 207.614C103.721 208.382 103.721 208.382 103.721 208.382L103.511 207.614Z" fill="#591D4B"/>
<path d="M103.511 204.541C103.649 204.668 103.788 204.795 103.931 204.925C103.723 205.02 103.723 205.02 103.511 205.117C103.511 204.927 103.511 204.737 103.511 204.541Z" fill="#5B1E4A"/>
<path d="M141.304 188.408C141.373 188.598 141.442 188.788 141.514 188.984C141.375 188.921 141.237 188.858 141.094 188.792C141.163 188.666 141.232 188.539 141.304 188.408Z" fill="#4C1C42"/>
<path d="M48.9209 181.686C49.1309 182.454 49.1309 182.454 49.1309 182.454L48.9209 181.686Z" fill="#5C244F"/>
<path d="M139.414 176.117C139.624 176.885 139.624 176.885 139.624 176.885L139.414 176.117Z" fill="#4F1B42"/>
<path d="M50.3906 171.891C50.6006 172.659 50.6006 172.659 50.6006 172.659L50.3906 171.891Z" fill="#622252"/>
<path d="M76.8457 166.898C77.0536 167.183 77.0536 167.183 77.2656 167.474C77.1271 167.474 76.9885 167.474 76.8457 167.474C76.8457 167.284 76.8457 167.094 76.8457 166.898Z" fill="#4C1A42"/>
<path d="M136.055 154.798C136.265 155.567 136.265 155.567 136.265 155.567L136.055 154.798Z" fill="#4F1942"/>
<path d="M111.909 246.41C112.048 246.41 112.186 246.41 112.329 246.41C112.26 246.536 112.191 246.663 112.119 246.794C112.05 246.667 111.981 246.54 111.909 246.41Z" fill="#4E1E42"/>
<path d="M103.511 214.912C104.141 215.105 104.141 215.105 104.141 215.105L103.511 214.912Z" fill="#5C1E4D"/>
<path d="M66.5576 189.561C67.1875 189.753 67.1875 189.753 67.1875 189.753L66.5576 189.561Z" fill="#57204A"/>
<path d="M154.741 188.408C155.371 188.601 155.371 188.601 155.371 188.601L154.741 188.408Z" fill="#612150"/>
<path d="M162.3 187.256C162.93 187.449 162.93 187.449 162.93 187.449L162.3 187.256Z" fill="#622451"/>
<path d="M57.1094 125.99C57.3172 126.085 57.3172 126.085 57.5293 126.182C57.3214 126.277 57.3214 126.277 57.1094 126.374C57.1094 126.247 57.1094 126.12 57.1094 125.99Z" fill="#652256"/>
<path d="M141.304 123.685C141.934 123.878 141.934 123.878 141.934 123.878L141.304 123.685Z" fill="#662357"/>
<path d="M70.5469 123.493C71.1768 123.685 71.1768 123.685 71.1768 123.685L70.5469 123.493Z" fill="#6B245C"/>
<path d="M64.8779 122.917C65.5078 123.109 65.5078 123.109 65.5078 123.109L64.8779 122.917Z" fill="#6A2457"/>
<path d="M70.7568 118.307C70.8954 118.307 71.034 118.307 71.1768 118.307C71.1075 118.434 71.0382 118.561 70.9668 118.691C70.8975 118.564 70.8282 118.438 70.7568 118.307Z" fill="#642252"/>
<path d="M70.5469 76.0547C70.6854 76.1814 70.824 76.3082 70.9668 76.4388C70.8282 76.4388 70.6896 76.4388 70.5469 76.4388C70.5469 76.312 70.5469 76.1853 70.5469 76.0547Z" fill="#682357"/>
<path d="M142.773 56.8491C142.981 56.9442 142.981 56.9442 143.193 57.0412C142.985 57.1362 142.985 57.1362 142.773 57.2332C142.773 57.1065 142.773 56.9797 142.773 56.8491Z" fill="#612654"/>
<path d="M111.279 244.489C111.699 244.681 111.699 244.681 111.699 244.681L111.279 244.489Z" fill="#511D44"/>
<path d="M103.511 242.568C103.931 242.761 103.931 242.761 103.931 242.761L103.511 242.568Z" fill="#521D46"/>
<path d="M110.859 217.217C111.279 217.41 111.279 217.41 111.279 217.41L110.859 217.217Z" fill="#5C1F4D"/>
<path d="M110.649 214.912C111.069 215.105 111.069 215.105 111.069 215.105L110.649 214.912Z" fill="#5A204B"/>
<path d="M210.801 209.342C211.221 209.535 211.221 209.535 211.221 209.535L210.801 209.342Z" fill="#6B6D6D"/>
<path d="M200.723 209.342C201.143 209.535 201.143 209.535 201.143 209.535L200.723 209.342Z" fill="#595B5A"/>
<path d="M194.004 209.342C194.424 209.535 194.424 209.535 194.424 209.535L194.004 209.342Z" fill="#4D4E4D"/>
<path d="M183.926 209.342C184.346 209.535 184.346 209.535 184.346 209.535L183.926 209.342Z" fill="#3F3F40"/>
<path d="M64.668 209.342C65.0879 209.535 65.0879 209.535 65.0879 209.535L64.668 209.342Z" fill="#44223C"/>
<path d="M110.859 193.978C111.279 194.171 111.279 194.171 111.279 194.171L110.859 193.978Z" fill="#581E4A"/>
<path d="M110.859 190.905C111.279 191.097 111.279 191.097 111.279 191.097L110.859 190.905Z" fill="#561E49"/>
<path d="M65.7178 189.369C66.1377 189.561 66.1377 189.561 66.1377 189.561L65.7178 189.369Z" fill="#59204E"/>
<path d="M152.432 188.792C152.852 188.985 152.852 188.985 152.852 188.985L152.432 188.792Z" fill="#642251"/>
<path d="M58.1592 188.216C58.5791 188.409 58.5791 188.409 58.5791 188.409L58.1592 188.216Z" fill="#5E204C"/>
<path d="M163.77 187.064C164.189 187.257 164.189 187.257 164.189 187.257L163.77 187.064Z" fill="#602350"/>
<path d="M165.869 186.68C166.289 186.872 166.289 186.872 166.289 186.872L165.869 186.68Z" fill="#5A264D"/>
<path d="M50.8105 168.242C51.2305 168.435 51.2305 168.435 51.2305 168.435L50.8105 168.242Z" fill="#612453"/>
<path d="M135.005 149.805C135.425 149.997 135.425 149.997 135.425 149.997L135.005 149.805Z" fill="#521E48"/>
<path d="M69.0771 123.301C69.4971 123.493 69.4971 123.493 69.4971 123.493L69.0771 123.301Z" fill="#682459"/>
<path d="M148.022 123.109C148.442 123.302 148.442 123.302 148.442 123.302L148.022 123.109Z" fill="#6D265A"/>
<path d="M146.763 123.109C147.183 123.302 147.183 123.302 147.183 123.302L146.763 123.109Z" fill="#6A2459"/>
<path d="M67.6074 123.109C68.0273 123.302 68.0273 123.302 68.0273 123.302L67.6074 123.109Z" fill="#6B245A"/>
<path d="M154.951 122.34C155.371 122.533 155.371 122.533 155.371 122.533L154.951 122.34Z" fill="#652954"/>
<path d="M70.9668 117.731C71.3867 117.924 71.3867 117.924 71.3867 117.924L70.9668 117.731Z" fill="#662254"/>
<path d="M70.5469 108.128C70.9668 108.321 70.9668 108.321 70.9668 108.321L70.5469 108.128Z" fill="#672255"/>
<path d="M126.396 57.041C126.816 57.2337 126.816 57.2337 126.816 57.2337L126.396 57.041Z" fill="#6C2559"/>
<path d="M107.71 56.8491C108.13 57.0418 108.13 57.0418 108.13 57.0418L107.71 56.8491Z" fill="#662355"/>
<path d="M100.571 56.8491C100.991 57.0418 100.991 57.0418 100.991 57.0418L100.571 56.8491Z" fill="#672556"/>
<path d="M98.8916 56.8491C99.3115 57.0418 99.3115 57.0418 99.3115 57.0418L98.8916 56.8491Z" fill="#682457"/>
</g>
<defs>
<filter id="filter0_n_814_20409" x="0" y="0" width="215" height="295" filterUnits="userSpaceOnUse" color-interpolation-filters="sRGB">
<feFlood flood-opacity="0" result="BackgroundImageFix"/>
<feBlend mode="normal" in="SourceGraphic" in2="BackgroundImageFix" result="shape"/>
<feTurbulence type="fractalNoise" baseFrequency="1.25 1.25" stitchTiles="stitch" numOctaves="3" result="noise" seed="2395" />
<feColorMatrix in="noise" type="luminanceToAlpha" result="alphaNoise" />
<feComponentTransfer in="alphaNoise" result="coloredNoise1">
<feFuncA type="discrete" tableValues="1 1 1 1 1 1 1 1 1 1 1 1 1 1 1 1 1 1 1 1 1 1 1 1 1 1 1 1 1 1 1 1 1 1 1 1 1 1 1 1 1 1 1 1 1 1 1 1 1 1 1 0 0 0 0 0 0 0 0 0 0 0 0 0 0 0 0 0 0 0 0 0 0 0 0 0 0 0 0 0 0 0 0 0 0 0 0 0 0 0 0 0 0 0 0 0 0 0 0 0 "/>
</feComponentTransfer>
<feComposite operator="in" in2="shape" in="coloredNoise1" result="noise1Clipped" />
<feFlood flood-color="rgba(0, 0, 0, 0.25)" result="color1Flood" />
<feComposite operator="in" in2="noise1Clipped" in="color1Flood" result="color1" />
<feMerge result="effect1_noise_814_20409">
<feMergeNode in="shape" />
<feMergeNode in="color1" />
</feMerge>
</filter>
</defs>
</svg>
