<svg width="298" height="337" viewBox="0 0 298 337" fill="none" xmlns="http://www.w3.org/2000/svg">
<g filter="url(#filter0_n_390_135)">
<path d="M216.148 300.136C216.292 299.054 216.403 304.505 215.705 334.963L133.328 333.915L133.819 295.372L144.699 295.511L144.58 304.798L206.752 305.589L206.87 296.302L216.195 296.421L216.148 300.136Z" fill="#834E22" stroke="black" stroke-opacity="0.2"/>
<path d="M223.875 231.573C229.335 232.256 230.828 232.468 230.942 232.497L230.94 232.501C230.951 232.501 230.953 232.5 230.942 232.497L231.344 231.668L231.387 228.317L228.242 228.277L228.269 226.182L226.303 226.157L226.554 206.467L226.559 206.048L227.345 206.058L227.452 197.679L229.418 197.704L229.514 190.163L231.479 190.188L231.564 183.485L235.495 183.535L235.57 177.67L235.73 165.102L237.302 165.122L237.393 158L238.965 158.02L239.024 153.412L239.034 152.574L240.214 152.589L240.299 145.886L242.27 145.492L242.371 137.532L244.337 137.557L244.427 130.435L245.607 130.45L245.692 123.747L242.563 122.451L226.447 122.245L226.043 123.078L224.864 123.063L223.484 231.405L223.878 231.41L223.875 231.573Z" fill="#18593B" stroke="black" stroke-opacity="0.2"/>
<path d="M138.807 181.467L137.968 185.646L135.609 185.616L134.823 185.606L134.749 191.471L111.556 191.176L111.503 195.365L111.492 196.203L113.065 196.223L113.038 198.318L114.616 197.919L114.573 201.27L115.752 201.285L115.662 208.407L118.806 208.447L118.742 213.475L120.708 213.5L120.671 216.432L121.457 216.442L121.43 218.537L123.002 218.557L122.933 224.003L124.899 224.028L124.861 226.961L127.613 226.996L127.586 229.09L129.939 229.539L129.918 231.215L144.468 230.981L148.005 231.026L151.936 231.076L152.329 231.081L152.415 224.378L153.987 224.398L154.008 222.723C155.18 223.296 157.529 224.108 157.546 222.768C157.567 221.092 158.617 220.966 159.14 221.112L159.172 218.598L223.245 219.414L224.477 122.639L147.432 121.658L145.679 228.483L146.5 163.966L145.714 163.956L145.586 174.011L143.62 173.986L143.615 174.405L143.572 177.756C143.445 177.475 142.873 177.077 141.607 177.731C140.341 178.385 141.058 179.679 141.575 180.245L140.773 181.492L138.807 181.467Z" fill="#4A8D48"/>
<path d="M145.679 228.483C144.735 228.471 144.761 228.471 144.892 228.473L144.903 227.635L144.117 227.625L144.181 222.597L142.609 222.577L142.71 214.618L141.138 214.598L141.212 208.732L141.25 205.8L141.287 202.867L139.322 202.842L139.354 200.329L137.781 200.309M145.679 228.483L146.5 163.966L145.714 163.956L145.586 174.011L143.62 173.986L143.615 174.405L143.572 177.756C143.445 177.475 142.873 177.077 141.607 177.731C140.341 178.385 141.058 179.679 141.575 180.245L140.773 181.492L138.807 181.467L137.968 185.646M145.679 228.483L147.432 121.658L224.477 122.639L223.245 219.414L159.172 218.598L159.14 221.112C158.617 220.966 157.567 221.092 157.546 222.768C157.529 224.108 155.18 223.296 154.008 222.723L153.987 224.398L152.415 224.378L152.329 231.081L151.936 231.076L148.005 231.026L144.468 230.981L129.918 231.215L129.939 229.539L127.586 229.09L127.613 226.996L124.861 226.961L124.899 224.028L122.933 224.003L123.002 218.557L121.43 218.537L121.457 216.442L120.671 216.432L120.708 213.5L118.742 213.475L118.806 208.447L115.662 208.407L115.752 201.285L114.573 201.27L114.616 197.919L113.038 198.318L113.065 196.223L111.492 196.203L111.503 195.365C111.5 195.644 111.505 195.198 111.556 191.176L134.749 191.471L134.823 185.606L135.609 185.616L137.968 185.646M137.781 200.309L137.92 189.416L137.968 185.646M137.781 200.309L137.968 185.646" stroke="black" stroke-opacity="0.2"/>
<path d="M231.781 228.322L228.243 228.277L228.27 226.182L226.304 226.157L226.56 206.048L227.346 206.058L227.453 197.679L229.418 197.704L229.514 190.163L231.48 190.188L231.565 183.485L235.496 183.535L235.528 181.022L235.571 177.67L245.005 177.79L244.978 179.885L252.835 180.404L252.797 183.336L257.907 183.402L257.849 188.01L256.669 187.995L256.563 196.374L254.597 196.349L254.523 202.214L252.557 202.189L252.493 207.216L251.314 207.201L251.298 208.458L251.218 214.742L249.253 214.717L249.199 218.906L248.02 218.891L247.988 221.405L247.202 221.395L247.159 224.746L245.555 227.24L245.501 231.429L241.964 231.384L241.953 232.222L231.733 232.092L231.781 228.322Z" fill="#4A8D48" stroke="black" stroke-opacity="0.2"/>
<path d="M226.299 226.576C227.871 226.596 227.74 226.594 227.478 226.591L228.264 226.601L228.243 228.276" stroke="black"/>
<path d="M147.899 115.798L147.824 121.664L226.049 122.659L225.353 115.527L147.915 114.542L147.899 115.798Z" fill="#1B2A31" stroke="black"/>
<path d="M163.058 160.406L163.17 151.608C163.171 151.469 163.096 151.188 162.782 151.184L163.175 151.189L171.823 151.299L171.722 159.259L176.832 159.324L176.933 151.364L186.367 151.485L186.26 159.863L189.405 159.903L189.261 171.215L186.51 171.18L186.43 177.464L194.684 177.569L194.578 185.947L198.116 185.993L198.18 180.965L202.897 181.025L202.603 204.067L183.735 203.827L183.836 195.867L177.154 195.782L177.255 187.822L169.393 187.722L169.5 179.343L162.425 179.253L162.563 168.361L170.032 168.456L170.117 161.753L163.042 161.663L163.058 160.406Z" fill="#DDD4B5" stroke="black"/>
<path d="M184.229 195.872C183.915 195.868 183.839 195.588 183.841 195.448" stroke="black"/>
<path d="M249.825 231.485L245.894 231.434L245.501 231.429L245.555 227.24L247.159 224.746L247.202 221.395L247.988 221.405L248.02 218.891L249.199 218.906L249.252 214.717L251.218 214.742L251.314 207.201L252.493 207.216L252.557 202.189L254.522 202.214L254.528 201.795L254.597 196.349L256.563 196.374L256.664 188.414L257.854 187.591L257.902 183.821L261.833 183.871L261.801 186.384L267.702 186.04L267.67 188.554L275.139 188.649L275.112 190.744L275.899 190.754L275.872 192.849L275.707 205.836L273.348 205.806L273.295 209.995L271.329 209.97L271.249 216.254L269.677 216.234L269.656 217.91L269.608 221.68L267.642 221.655L267.573 227.101L265.602 227.495L265.522 233.779L260.019 233.709L254.516 233.639L254.532 232.382L250.994 232.337L249.825 231.485Z" fill="#18523A" stroke="black" stroke-opacity="0.2"/>
<path d="M185.414 195.468L185.499 188.765L191.789 188.845L191.698 195.967L185.409 195.887L185.016 195.882" stroke="#DDD4B5"/>
<path d="M184.33 187.912L178.434 187.837L178.541 179.458L184.83 179.538L184.723 187.917L184.33 187.912Z" fill="#50914D"/>
<path d="M177.367 179.024L170.684 178.939L170.786 170.979L177.468 171.064L177.367 179.024Z" fill="#50914D"/>
<path d="M184.33 187.912L178.434 187.837L178.541 179.458L184.83 179.538L184.723 187.917L184.33 187.912Z" stroke="black"/>
<path d="M177.367 179.024L170.684 178.939L170.786 170.979L177.468 171.064L177.367 179.024Z" stroke="black"/>
<path d="M147.57 110.766L147.527 114.118L225.751 115.113L225.922 101.707L224.743 101.692C224.646 99.0374 224.53 93.7285 224.844 93.7325L226.81 93.7576L227.002 78.6758L229.36 78.7058L229.467 70.3271L229.547 64.043L233.122 61.1555L233.245 51.5199L201.798 51.1196L201.771 53.2143L199.805 53.1893L199.773 55.7029L198.174 57.7776L198.1 63.6427L196.517 64.4606L196.341 78.2855L195.555 78.2755L195.475 84.5596L193.509 84.5345L193.419 91.6565L192.239 91.6415L192.106 102.115L190.534 102.095L190.502 104.609L177.137 104.438L177.227 97.3165L176.441 97.3065L176.59 85.5762L172.66 85.5262L172.804 74.2148L171.231 74.1948L171.348 64.9782L168.597 64.9432L168.741 53.6319L166.382 53.6018L166.74 25.533L136.079 25.1427L135.578 64.5229L138.722 64.5629L138.557 77.55L139.736 77.565L139.64 85.1059L141.999 85.1359L141.956 88.4874C141.807 89.8822 141.588 92.6728 141.903 92.6768L145.048 92.7168L145.01 95.6494L144.936 101.514L146.885 102.796L147.628 106.158L147.57 110.766Z" fill="#3D3E36" stroke="black" stroke-opacity="0.2"/>
<path d="M135.952 4.19105L135.686 25.1379L166.745 25.1143L167.022 3.32953L135.963 3.35317L135.952 4.19105Z" fill="#4B4F40" stroke="black" stroke-opacity="0.2"/>
<path d="M189.573 84.9035L193.111 84.9485L193.026 91.6515L192.24 91.6415L191.325 101.686L190.146 101.671L190.114 104.185L176.749 104.014L176.84 96.8926L176.984 85.5812L172.66 85.5262L172.67 84.6883L172.809 73.7959L171.237 73.7759L171.354 64.5593L168.996 64.5293L169.14 53.2179L166.781 53.1879L167.405 4.1722L183.915 4.38236L183.381 46.2761L184.561 46.2911L184.411 58.0214L186.377 58.0464L186.259 67.2631L188.225 67.2881L188.108 76.5047C188.633 76.3717 189.684 76.1896 189.68 76.5247L189.573 84.9035Z" fill="#15282C" stroke="black" stroke-opacity="0.2"/>
<path d="M201.867 45.6732L201.798 51.1194L233.638 51.5247L233.697 46.9164L234.483 46.9264L234.988 38.1337L237.739 38.1687L240.162 33.1715C240.063 30.6562 239.944 25.6266 240.258 25.6306L242.617 25.6606L242.675 21.0523L209.263 20.627L209.241 22.3027L207.276 22.2777L207.164 31.0754L204.805 31.0454L204.635 44.4514L201.883 44.4164L201.867 45.6732Z" fill="#1E2C2C" stroke="black" stroke-opacity="0.2"/>
<path d="M235.65 171.386L235.57 177.67L245.004 177.79L244.978 179.885L252.839 179.985L252.797 183.336L258.3 183.406L261.445 183.446L261.541 175.906L263.899 175.936L263.236 166.29L264.808 166.31L264.904 158.769L266.87 158.794L266.966 151.253L269.324 151.283L269.532 134.945L271.497 134.97L271.652 122.821L274.011 122.851L274.165 110.701L272.593 110.681L272.63 107.749L264.769 107.649L264.795 105.554L251.43 105.384L251.324 113.763L248.572 113.728C248.482 120.766 246.626 122.502 245.708 122.49L245.618 129.612L244.428 130.435L244.337 137.557L242.765 137.537L242.658 145.916L240.3 145.886L240.294 146.305L240.214 152.589L238.642 152.569L238.567 158.434L237.388 158.419L237.303 165.122L235.73 165.102L235.65 171.386Z" fill="#F2B66E"/>
<path d="M252.797 183.336L252.839 179.985L244.978 179.885L245.004 177.79L235.57 177.67L235.65 171.386L235.73 165.102L237.303 165.122L237.388 158.419L238.567 158.434L238.642 152.569L240.214 152.589M252.797 183.336C259.401 183.42 259.217 183.418 258.3 183.406L261.445 183.446M252.797 183.336L261.445 183.446M248.572 113.728L251.324 113.763L251.43 105.384L264.795 105.554L264.769 107.649L272.63 107.749L272.593 110.681L274.165 110.701L274.011 122.851L271.652 122.821L271.497 134.97L269.532 134.945L269.324 151.283L266.966 151.253L266.87 158.794L264.904 158.769L264.808 166.31L263.236 166.29L263.899 175.936L261.541 175.906L261.445 183.446M248.572 113.728L248.46 122.525L245.708 122.49M248.572 113.728C248.482 120.766 246.626 122.502 245.708 122.49M245.708 122.49L245.618 129.612M244.428 130.435L245.607 130.45L245.618 129.612M244.428 130.435L244.337 137.557L242.765 137.537L242.658 145.916M244.428 130.435L245.618 129.612M242.658 145.916L240.294 146.305L240.214 152.589M242.658 145.916L240.3 145.886L240.214 152.589" stroke="black" stroke-opacity="0.2"/>
<g opacity="0.75">
<path d="M261.838 183.452L261.801 186.384L267.697 186.459L267.671 188.554L273.567 188.629L275.129 189.487L275.113 190.744L279.437 190.799L279.83 190.804L279.92 183.682C279.925 183.347 281.76 183.286 282.677 183.298L282.779 175.338L285.137 175.368L285.281 164.057L286.853 164.077L286.997 152.766L288.963 152.791L289.043 146.506L291.401 146.536L291.54 135.644L293.112 135.664L293.251 124.772L295.61 124.802L295.711 116.842L293.352 116.812L293.363 115.974L289.039 115.919L289.06 114.243L285.129 114.193L285.151 112.517L276.896 112.412L276.928 109.899L274.569 109.869L274.176 109.864L274.011 122.851L272.046 122.826L271.498 134.97L269.139 134.94L269.324 151.284L266.966 151.253L266.87 158.794L264.904 158.769L264.808 166.31L262.843 166.285L263.9 175.936L261.541 175.906L261.838 183.452Z" fill="#B8732F"/>
<path d="M273.567 188.629L267.671 188.554L267.697 186.459L261.801 186.384L261.838 183.452L261.541 175.906L263.9 175.936L262.843 166.285L264.808 166.31L264.904 158.769L266.87 158.794L266.966 151.254L269.324 151.284L269.139 134.94L271.498 134.97L272.046 122.826L274.011 122.851L274.176 109.864L274.569 109.869L276.928 109.899L276.896 112.412L285.151 112.517L285.129 114.193L289.06 114.243L289.039 115.919L293.363 115.974L293.352 116.812L295.711 116.842L295.61 124.802L293.251 124.772L293.112 135.664L291.54 135.644L291.401 146.536L289.043 146.506L288.963 152.791L286.997 152.766L286.853 164.077L285.281 164.057L285.137 175.368L282.779 175.338L282.677 183.298C281.76 183.286 279.925 183.347 279.92 183.682C279.916 184.017 279.858 188.569 279.83 190.804L279.437 190.799L275.113 190.744M273.567 188.629L275.129 189.487L275.113 190.744M273.567 188.629L275.139 188.649L275.113 190.744" stroke="#1A120B" stroke-opacity="0.2"/>
</g>
<path d="M170.108 224.185L169.959 235.915L201.406 236.315L201.571 223.328L201.625 219.139L170.178 218.739L170.172 219.158L170.124 222.928L170.108 224.185Z" fill="#F0B46F"/>
<path d="M170.124 222.928L170.108 224.185C170.112 223.905 170.087 225.861 169.959 235.915L201.406 236.315L201.571 223.328M170.124 222.928L201.571 223.328M170.124 222.928L170.172 219.158L170.178 218.739L201.625 219.139L201.571 223.328" stroke="#F0B46F"/>
<path d="M222.298 231.972C222.824 231.839 219.551 231.602 202.251 231.717L202.411 219.149L223.632 219.838L223.478 231.987L222.298 231.972Z" fill="#12533B" stroke="black" stroke-opacity="0.2"/>
<path d="M152.409 224.798L152.335 230.663L170.023 230.888L170.178 218.739L169.785 218.734L159.172 218.599L159.14 221.112L157.567 221.092L157.546 222.768L154.401 222.728L153.982 224.818L152.409 224.798Z" fill="#12533B"/>
<path d="M169.959 235.915L170.023 230.888M170.023 230.888L170.178 218.739L169.785 218.734L159.172 218.599L159.14 221.112L157.567 221.092L157.546 222.768L154.401 222.728L153.982 224.818L152.409 224.798C152.413 224.518 152.403 225.3 152.335 230.663L170.023 230.888Z" stroke="black" stroke-opacity="0.2"/>
<path d="M216.258 335.809L133.71 334.758L134.158 299.567L144.378 299.697L144.256 309.333L206.756 310.128L206.879 300.493L216.706 300.618L217.492 300.628M241.023 336.124L242.595 336.144L242.697 328.184L249.772 328.274L250.615 262.082L239.215 261.937L238.853 290.425L225.488 290.254L225.642 278.105L217.78 278.005" stroke="black" stroke-opacity="0.2"/>
<path d="M215.887 334.128L240.732 334.444L242.361 334.465L242.456 327.009L249.787 327.103L250.62 261.663L238.809 261.512L238.445 290.091L224.189 289.909L224.348 277.484L216.609 277.385L215.887 334.128Z" fill="#2D1F16" stroke="black" stroke-opacity="0.2"/>
<path d="M215.53 238.604L215.032 277.767L224.498 278.314L224.341 290.659L237.687 290.829L238.055 261.882L251.402 262.051L251.418 260.774L251.705 238.213L215.541 237.752L215.53 238.604Z" fill="#A4652F" stroke="black" stroke-opacity="0.2"/>
<path d="M134.937 238.402L134.164 299.148L145.17 299.288L145.058 308.086L206.38 308.866L206.492 300.069L216.712 300.199L217.512 237.358L201.789 237.158L170.735 236.763L134.964 236.307L134.958 236.726L134.937 238.402Z" fill="#F7B873" stroke="black" stroke-opacity="0.2"/>
<path d="M159.476 287.319L148.862 287.184L149.092 269.17L160.491 269.315L160.262 287.329L159.476 287.319Z" fill="black" stroke="black"/>
<path d="M199.571 287.829L188.958 287.694L189.187 269.68L200.587 269.825L200.358 287.839L199.571 287.829Z" fill="black" stroke="black"/>
<path d="M186.584 257.915L186.451 268.388L185.665 268.378L162.473 268.083L162.606 257.609L186.584 257.915Z" fill="#D37A3E" stroke="black"/>
<path d="M244.073 3.89121C244.077 3.61192 243.803 6.56941 242.68 20.6337L208.875 20.2034L208.854 21.8791L207.281 21.8591L208.62 9.30601C208.881 9.44899 209.481 9.65217 209.8 9.32102C210.118 8.98987 210.252 4.71771 210.278 2.62302L244.084 3.05334L244.073 3.89121Z" fill="#22353B" stroke="black" stroke-opacity="0.2"/>
<path d="M260.594 3.26333L259.982 20.4348L243.467 20.6436L244.477 3.05818L260.594 3.26333Z" fill="#162A30" stroke="black"/>
<g opacity="0.82">
<path d="M109.605 189.894C109.343 189.89 109.447 189.976 111.959 190.343L134.365 190.628L134.44 184.763L134.891 180.16L131.741 180.538L131.789 176.768L129.038 176.733L129.091 172.544L121.229 172.444L121.165 177.471L110.159 177.331L110.127 179.844L106.982 179.804L106.966 181.061L106.18 181.051L106.105 186.916L109.25 186.956L109.605 189.894Z" fill="#A76A34"/>
<path d="M82.1871 150.996C81.7958 150.852 85.8864 150.708 105.379 151.292L105.001 181.036L93.2084 180.886L93.3097 172.926L80.3378 172.761L80.6151 150.976L82.1871 150.996Z" fill="#A76A34"/>
<path d="M144.624 156.819L146.59 156.844L146.51 163.128L145.331 163.113L145.203 173.168L143.237 173.143L143.194 176.494L141.218 177.307L141.186 179.821L140.39 180.649L138.424 180.624L137.585 184.803L135.226 184.773L135.683 179.751L132.533 180.13L132.581 176.359L130.223 176.329L130.233 175.491L130.281 171.721L129.888 171.716L129.102 171.706L120.847 171.601L120.783 176.628L109.777 176.488L109.771 176.907L109.745 179.001L106.6 178.961L106.586 180.037L105.407 180.022L105.778 150.878L82.1928 150.577L82.2031 149.739L82.2298 147.645L86.5541 147.7L86.6021 143.929L88.9606 143.959L88.9872 141.865L117.29 142.225L117.311 140.549L120.843 141.013L120.886 137.662L130.32 137.782L130.309 138.62L130.288 140.295L133.04 140.33L133.013 142.425L134.978 142.45L134.941 145.383L137.693 145.418L137.645 149.188L140.396 149.223L140.38 150.48L140.348 152.994C141.136 152.864 142.711 152.689 142.707 153.024L142.67 155.956L144.635 155.981L144.624 156.819Z" fill="#A76A34"/>
<path d="M109.605 189.894C109.343 189.89 109.447 189.976 111.959 190.343L134.365 190.628L134.44 184.763L134.891 180.16L131.741 180.538L131.789 176.768L129.038 176.733L129.091 172.544L121.229 172.444L121.165 177.471L110.159 177.331L110.127 179.844L106.982 179.804L106.966 181.061L106.18 181.051L106.105 186.916L109.25 186.956L109.605 189.894Z" stroke="black" stroke-opacity="0.2"/>
<path d="M82.1871 150.996C81.7958 150.852 85.8864 150.708 105.379 151.292L105.001 181.036L93.2084 180.886L93.3097 172.926L80.3378 172.761L80.6151 150.976L82.1871 150.996Z" stroke="black" stroke-opacity="0.2"/>
<path d="M144.624 156.819L146.59 156.844L146.51 163.128L145.331 163.113L145.203 173.168L143.237 173.143L143.194 176.494L141.218 177.307L141.186 179.821L140.39 180.649L138.424 180.624L137.585 184.803L135.226 184.773L135.683 179.751L132.533 180.13L132.581 176.359L130.223 176.329L130.233 175.491L130.281 171.721L129.888 171.716L129.102 171.706L120.847 171.601L120.783 176.628L109.777 176.488L109.771 176.907L109.745 179.001L106.6 178.961L106.586 180.037L105.407 180.022L105.778 150.878L82.1928 150.577L82.2031 149.739L82.2298 147.645L86.5541 147.7L86.6021 143.929L88.9606 143.959L88.9872 141.865L117.29 142.225L117.311 140.549L120.843 141.013L120.886 137.662L130.32 137.782L130.309 138.62L130.288 140.295L133.04 140.33L133.013 142.425L134.978 142.45L134.941 145.383L137.693 145.418L137.645 149.188L140.396 149.223L140.38 150.48L140.348 152.994C141.136 152.864 142.711 152.689 142.707 153.024L142.67 155.956L144.635 155.981L144.624 156.819Z" stroke="black" stroke-opacity="0.2"/>
</g>
<path d="M244.916 122.9C243.294 119.325 242.738 118.263 242.618 118.141L242.68 113.234C242.35 108.342 241.689 98.4725 241.693 98.1374C241.698 97.8022 243.016 97.1765 243.675 96.9056L243.84 83.9185L245.423 83.1006L245.695 61.7348L248.054 61.7648L248.118 56.7376L248.198 50.4535L250.184 48.8028L253.446 39.6262L255.89 32.9532L258.308 28.3749L259.949 22.9487L259.971 21.273L242.675 21.0528L243.795 25.6761L240.64 26.474L240.56 32.758L237.341 38.5831L234.982 38.5531L234.87 47.3508L233.627 52.3631L233.509 61.5797L229.934 64.4672L229.753 78.7111L227.001 78.6761L226.815 93.3389L225.242 93.3189L225.141 101.279L226.713 101.299L226.144 115.119L226.128 116.375L226.441 122.665L244.916 122.9Z" fill="#10242B" stroke="black" stroke-opacity="0.2"/>
<path d="M93.7586 166.547C93.1396 166.174 92.3614 165.528 92.2693 165.343C92.2322 165.269 92.3629 165.194 92.5971 165.196C94.5602 165.212 96.5425 166.881 96.7943 167.053C96.8972 167.123 96.3 167.014 95.1995 166.454C94.099 165.893 92.2812 164.812 91.2674 164.237C90.1187 163.586 89.8471 163.523 89.9084 163.474C90.36 163.106 91.6466 164.341 92.9479 165.459C93.7976 166.189 94.1636 166.651 94.3645 166.87C94.4593 166.974 94.4718 167.121 94.4553 167.239C94.4387 167.357 94.3754 167.455 94.1091 167.569C93.3969 167.874 91.9342 167.762 89.9393 167.254C88.8886 166.987 87.8241 166.447 86.821 165.915C85.818 165.382 84.925 164.808 84.6359 164.498C84.3469 164.188 84.6887 164.16 86.8581 164.848C89.0275 165.537 93.0141 166.944 95.1295 167.703C97.2449 168.462 97.3682 168.53 97.2144 168.562C97.0607 168.594 96.6262 168.588 94.7674 167.771C92.9087 166.953 89.6389 165.323 88.2021 164.537C86.7653 163.75 87.2607 163.855 88.3796 164.334C89.4986 164.813 91.2262 165.662 92.1621 166.15C93.098 166.638 93.1898 166.738 93.1132 166.772C93.0366 166.805 92.7887 166.769 91.7507 166.325C90.7126 165.881 88.8919 165.031 87.7076 164.441C86.5232 163.851 86.0304 163.547 86.1947 163.462C86.359 163.377 87.1953 163.52 89.3082 164.359C91.4212 165.199 94.7854 166.73 95.9906 167.529C97.1958 168.328 96.1401 168.348 93.9877 167.907C91.8354 167.467 88.6184 166.566 88.3224 166.466C88.0264 166.367 90.7489 167.096 92.2286 167.506C93.7082 167.916 93.8626 167.984 93.6619 168.082C93.4612 168.179 92.9009 168.304 91.3543 168.419C89.8078 168.534 87.292 168.634 86.0424 168.703C84.7927 168.772 84.8854 168.806 85.6617 168.899C86.438 168.992 87.8951 169.143 88.8624 169.273C90.269 169.462 90.8334 169.618 91.0679 169.637C92.1627 169.728 86.9184 169.535 86.7761 169.483C86.7042 169.456 87.223 169.471 88.2974 169.65C91.1457 170.125 93.0478 170.581 92.7082 170.544C91.3036 170.392 89.8938 169.975 89.7034 169.788C89.5219 169.611 90.8765 169.784 91.8672 169.88C92.8579 169.976 93.8805 170.121 94.4849 170.197C95.0893 170.273 95.2444 170.275 94.552 169.985C93.8596 169.695 92.3149 169.113 91.3643 168.778C90.4138 168.443 90.1042 168.373 89.8984 168.32C89.5976 168.242 91.0202 168.613 93.6407 169.414C95.4472 169.965 96.1529 170.52 96.3392 170.622C96.5559 170.741 95.4156 170.35 93.5299 169.507C92.8502 169.203 92.7242 169.174 93.3364 169.711C95.2657 171.402 96.7857 172.534 96.8645 172.552C97.7985 172.766 94.9912 170.808 94.9447 170.656C94.8185 170.244 95.9496 171.483 96.4782 171.86C96.6135 171.956 96.5832 171.371 96.1829 169.82C95.7826 168.27 95.04 165.647 94.6452 164.031C94.2505 162.415 94.2262 161.885 94.3363 161.729C94.5554 161.42 95.3057 162.948 96.3284 165.969C97.0407 168.073 97.941 171.412 98.4612 173.189C98.9814 174.967 99.0418 175.1 99.0878 175.218C99.1337 175.336 99.1635 175.436 98.8975 173.201C98.6316 170.966 98.0689 166.393 97.9447 164.437C97.8205 162.48 98.1518 163.278 98.7454 165.829C99.339 168.379 100.185 172.658 100.62 174.928C101.054 177.199 101.053 177.331 100.833 173.906C100.612 170.481 100.173 163.495 100.125 163.041C100.076 162.587 100.43 168.877 100.633 170.58C100.835 172.282 100.874 169.206 100.937 167.953C100.967 167.342 101.124 169.268 101.086 170.99C101.081 171.238 101.343 169.267 101.533 166.63C101.601 165.679 101.642 165.514 101.66 165.314C101.7 164.883 101.667 166.065 101.638 167.079C101.627 167.487 101.626 164.387 101.744 164.784C101.863 165.181 102.102 168.327 102.258 169.816C102.414 171.305 102.48 171.041 102.521 170.293C102.631 168.324 102.662 166.664 102.765 165.948C102.811 165.63 102.804 165.397 102.894 166.867C102.984 168.337 103.161 171.515 103.244 171.349C103.327 171.183 103.31 167.577 103.319 165.603C103.328 163.63 103.362 163.399 103.396 163.214C103.429 163.029 103.462 162.897 103.384 164.217C103.305 165.537 103.115 168.314 103.189 168.423C104.598 170.508 103.964 162.936 103.953 163.776C103.909 167.229 103.913 169.386 104.015 168.738C104.134 167.981 104.284 167.385 104.286 167.233C104.296 166.449 104.173 168.681 103.999 170.077C103.758 172.016 103.893 173.491 103.83 174.701C103.684 177.528 103.63 179.405 103.395 179.418C102.071 179.495 99.7435 179.39 99.1793 179.332C98.7198 179.285 97.7463 179.029 96.6942 178.833C95.5018 178.61 94.421 178.653 94.1874 178.567C94.0739 178.525 93.9852 178.448 93.9396 178.264C93.7106 177.344 94.008 176.513 94.0944 175.861C94.224 174.882 94.2858 174.343 94.3836 171.611C94.3996 171.164 94.4799 171.364 94.5865 171.6C95.1589 172.867 96.1698 173.992 96.5229 174.667C97.0121 175.601 97.3619 176.414 97.5651 176.672C97.6965 176.84 97.3741 175.895 96.7407 174.257C96.1073 172.619 94.993 169.925 94.4662 168.488C93.9393 167.051 94.0337 166.953 94.1593 166.953C94.4547 166.954 95.2701 167.962 96.6694 169.811C97.4363 170.825 98.1559 172.125 98.5488 172.662C98.9418 173.199 98.9447 172.967 98.4493 171.65C97.9538 170.334 96.9599 167.939 96.4024 166.622C95.8448 165.305 95.7538 165.139 95.6921 165.003C95.6303 164.867 95.6005 164.768 95.7217 164.966C95.8429 165.165 96.1159 165.665 96.7357 167.301C97.3555 168.938 98.3137 171.696 98.8365 173.266C99.3593 174.836 99.4176 175.135 99.4485 175.222C99.4793 175.31 99.481 175.177 99.4039 173.917C99.3268 172.657 99.1709 170.273 99.151 169.178C99.1311 168.083 99.2519 168.349 99.6982 170.013C100.145 171.677 100.913 174.731 101.336 175.394C101.759 176.058 101.813 174.239 101.867 173.633C101.945 172.773 102.15 174.84 102.193 175.173C102.235 175.504 102.132 173.89 102.128 172.887C102.125 172.099 102.399 177.081 102.506 178.722C102.613 180.363 102.616 180.132 102.405 178.422C102.194 176.712 101.769 173.53 101.65 172.554C101.607 172.197 101.936 174.436 101.949 174.62C101.986 175.14 102.176 172.711 102.281 170.771C102.357 169.344 102.649 175.079 102.677 175.367C102.737 175.973 102.826 173.388 102.911 172.962C103.367 170.677 102.369 177.415 102.209 177.764C101.618 179.056 99.2423 177.077 98.4586 176.867C98.1833 176.793 98.887 176.838 100.063 176.886C100.403 176.9 100.214 176.987 99.9936 177.035C98.9598 177.259 97.8881 177.493 97.1817 177.601C96.9098 177.642 96.8171 177.68 97.0006 177.782C98.2218 178.461 98.8128 178.307 98.9529 178.426C99.3398 178.753 97.3434 178.457 96.6852 178.215C96.3399 178.088 96.0603 177.939 95.9828 177.821C95.8915 177.683 96.4056 177.709 96.5793 177.661C97.0367 177.537 95.7866 177.267 95.5992 177.247C95.3973 177.227 95.2198 177.459 95.0783 177.491C94.6501 177.589 95.2008 176.36 95.4115 175.81C95.494 175.594 95.5332 174.93 95.6451 174.675C96.2558 173.282 96.19 177.505 96.2259 177.159C96.501 174.513 96.0172 173.863 96.0674 173.579C96.0966 173.413 96.6609 174.729 97.3288 176.356C98.0632 178.145 98.3085 178.534 98.4494 178.554C98.7745 178.6 98.153 176.344 97.5891 173.864C97.3868 172.975 97.317 172.844 97.2559 172.692C97.1948 172.541 97.1349 172.375 97.2226 172.721C97.5307 173.935 97.7898 175.018 97.7868 175.252C97.7821 175.619 97.5792 174.417 97.3574 173.331C97.3131 173.077 97.2838 172.944 97.2537 172.826C97.2237 172.708 97.194 172.608 97.1633 172.505" stroke="#F2B66E" stroke-width="2" stroke-linecap="round"/>
<path d="M87.6493 158.75C87.8959 158.885 88.8539 159.528 90.3132 160.498C91.309 161.16 91.8795 161.343 92.1284 161.446C92.2596 161.5 92.3765 161.615 91.9898 161.661C91.603 161.707 90.7029 161.696 90.3464 161.807C89.9899 161.918 90.2042 162.153 91.2094 162.698C92.2147 163.244 94.0043 164.094 94.9877 164.582C96.1088 165.139 96.3444 165.31 96.4236 165.328C96.4697 165.338 96.1627 165.242 94.4478 164.359C92.7329 163.476 89.526 161.781 87.9515 160.909C86.3771 160.037 86.5323 160.039 87.3242 160.198C88.1161 160.357 89.5401 160.673 90.8759 161.075C92.2118 161.476 93.4164 161.955 94.453 162.438C96.3525 163.324 97.2709 163.984 97.2719 164.019C97.2751 164.136 96.9046 163.718 95.454 162.72C94.0035 161.722 91.3872 159.968 89.932 158.964C88.4768 157.96 88.2621 157.759 89.5578 158.136C90.8535 158.514 93.6662 159.476 94.4669 159.682C95.2676 159.888 93.9712 159.309 91.9488 158.117C89.9265 156.925 87.2174 155.137 85.7755 154.199C84.3336 153.261 84.2409 153.226 84.2708 153.21C84.3006 153.193 84.4558 153.195 86.5115 154.065C88.5671 154.935 92.5185 156.672 94.6618 157.635C96.8051 158.597 97.0207 158.733 95.988 158.424C94.9553 158.115 92.6678 157.358 91.4273 156.967C90.1868 156.576 90.0626 156.575 90.1228 156.575C90.183 156.576 90.4313 156.579 91.7957 156.994C93.16 157.408 95.633 158.234 96.953 158.693C98.2731 159.152 98.3654 159.219 98.3355 159.236C98.3057 159.253 98.1509 159.218 96.5902 158.486C95.0295 157.755 92.0675 156.328 92.3458 156.525C92.6241 156.723 96.2324 158.588 99.0594 160.306C101.886 162.024 103.823 163.537 104.882 164.384C105.94 165.23 106.063 165.364 105.66 165.46C105.257 165.557 104.325 165.611 101.2 164.927C98.0747 164.243 92.7845 162.819 89.9049 162.018C86.7047 161.127 86.2757 160.838 86.1511 160.72C85.137 159.752 89.6728 162.216 90.03 162.421C90.1928 162.515 90.3579 162.494 90.3628 162.295C90.3927 161.079 89.756 160.783 89.7428 160.566C89.7356 160.448 89.8231 160.317 90.0574 160.269C90.6834 160.139 91.5422 160.501 92.3354 160.895C93.7353 161.59 94.4663 162.612 94.6069 162.648C95.5892 162.898 94.0637 159.803 94.2859 159.455C94.5898 158.979 95.6601 159.651 96.4978 160.278C97.5944 161.099 97.3872 162.31 97.3311 163.062C97.2434 164.236 96.0716 159.761 96.0758 159.394C96.0778 159.223 96.2034 159.095 96.3141 159.045C96.9152 158.772 97.9068 160.51 98.5755 162.407C98.9303 163.413 98.8648 164.469 98.8106 165.07C98.7962 165.23 98.5373 163.149 98.522 160.626C98.5167 159.757 98.6411 159.726 98.8424 159.877C99.4002 160.295 99.9043 161.438 100.321 163.109C100.825 165.127 100.72 166.566 100.725 166.107C100.755 163.795 100.748 161.893 100.707 161.409C100.686 161.158 100.698 160.893 100.845 161.486C101.352 163.521 101.605 165.936 101.694 166.315C102.256 168.713 102.035 161.708 102.156 162.022C102.687 163.403 102.522 165.413 102.454 165.806C101.724 170.079 102.108 160.974 102.14 160.856C102.359 160.062 102.593 162.246 102.634 162.696C102.657 162.947 102.643 163.245 102.627 162.108C102.61 160.971 102.581 158.39 102.596 157.127C102.611 155.864 102.671 155.997 102.818 156.729C103.23 158.78 103.433 160.319 103.462 160.471C103.506 160.7 103.825 158.967 104.059 157.861C104.067 157.822 103.955 158.935 103.673 160.172C103.392 161.409 102.971 162.76 102.738 163.506C102.505 164.251 102.473 164.35 102.472 163.194C102.47 162.037 102.501 159.622 102.696 158.96C102.891 158.297 103.248 159.459 103.578 160.805C103.908 162.15 104.2 163.642 104.347 164.61C104.495 165.577 104.49 165.974 104.491 165.864C104.501 165.126 104.274 163.45 103.904 161.742C103.6 160.343 103.626 159.923 103.596 159.855C103.459 159.544 103.425 160.917 103.419 161.404C103.414 161.811 103.198 159.294 102.801 157.269C102.546 156.27 102.424 155.832 102.382 155.464C102.368 155.296 102.37 155.163 102.183 155.025" stroke="#F2B66E" stroke-width="2" stroke-linecap="round"/>
<path d="M94.2574 171.767C94.0387 171.797 93.4125 171.922 92.704 172.047C92.56 172.072 92.4676 172.111 90.6192 172.104C88.7708 172.098 85.1704 172.052 83.3182 171.83C81.466 171.608 81.471 171.211 81.4587 170.957C81.4206 170.167 81.3694 169.365 81.3424 167.791C81.3177 166.35 81.3797 163.604 81.3828 162.14C81.3867 160.307 81.2732 159.707 81.2365 158.855C81.1785 157.507 81.2645 155.362 81.3954 154.945C81.555 154.438 81.6037 153.4 81.6802 152.265C81.7058 151.884 81.8708 151.925 82.0113 152.01C82.1518 152.095 82.3053 152.229 83.2534 152.309C84.2016 152.39 85.9397 152.412 86.8967 152.457C88.2383 152.52 88.9753 152.783 89.8534 152.896C90.9655 153.038 91.6979 153.353 92.3876 153.413C93.1715 153.48 94.2348 153.586 95.0181 153.647C95.6808 153.698 97.7267 154.029 99.3684 154.236C100.303 154.354 100.808 154.572 100.872 154.69C100.952 154.836 100.191 154.765 97.9182 154.687C95.6451 154.608 91.6429 154.425 89.6273 154.364C87.6117 154.304 87.7039 154.371 88.462 154.679C89.22 154.988 90.641 155.535 91.7585 156.021C93.6714 156.852 94.936 157.471 95.5618 157.679C95.6887 157.722 95.0026 157.707 94.2111 157.482C92.5675 157.013 91.1628 156.522 90.8314 156.501C89.2887 156.399 93.5517 157.887 94.253 158.18C94.525 158.293 94.6142 158.369 93.3344 157.808C92.0547 157.247 89.4002 156.055 89.7452 156.257C90.0902 156.459 93.5152 158.09 95.3415 158.948C97.1677 159.806 97.2915 159.841 97.2933 159.841C97.4152 159.875 95.9032 159.161 94.1285 158.203C93.3934 157.807 95.2501 158.736 97.963 160.109C98.7045 160.484 96.5883 158.697 96.4336 158.545C95.6049 157.732 100.363 159.879 100.461 159.916C100.691 160.003 99.5103 159.344 98.6068 158.714C97.7033 158.083 96.6581 157.276 95.8731 156.725C94.6264 155.849 93.9637 155.522 93.7312 155.353C93.5461 155.217 94.1744 155.521 96.0829 156.46C97.2716 157.044 98.8214 158.038 99.7235 158.559C100.796 159.18 101.125 159.288 101.22 159.323C101.259 159.338 101.007 159.156 99.7704 158.493C98.5343 157.83 96.2522 156.643 94.5356 155.86C91.7851 154.604 90.5296 154.309 90.5754 154.259C90.6726 154.153 91.0847 154.38 92.0627 154.808C93.0408 155.235 94.6144 155.983 95.4715 156.385C96.5998 156.915 97.0425 157.229 97.5509 157.97C98.046 158.692 98.2756 159.017 98.4307 159.137C99.032 159.601 98.7108 156.825 99.3252 155.261C99.4515 154.94 99.6129 154.827 99.7384 154.877C100.955 155.354 100.039 158.598 99.966 159.308C99.7612 161.3 100.1 156.173 100.201 155.602C100.219 155.498 100.266 155.403 100.358 155.502C100.673 155.839 100.937 156.807 101.265 158.045C101.606 159.327 101.644 160.494 101.629 160.467C99.7878 157.284 101.764 155.924 101.846 155.673C102.041 155.078 101.433 157.419 101.288 157.751C101.181 157.998 100.433 157.613 98.7743 156.709C97.7315 156.141 96.1561 155.628 94.9734 155.24C93.0364 154.605 92.0643 154.495 92.1241 154.495C92.9287 154.506 93.8152 154.55 94.4861 154.609C95.3721 154.686 96.9026 155.285 98.4726 156.324C99.0396 156.699 99.0867 156.854 99.0239 156.987C98.866 157.323 97.0859 157.664 94.6981 158.134C93.5425 158.362 93.142 158.519 92.9217 158.565C92.0486 158.751 94.8734 160.244 94.9193 160.412C94.9893 160.667 94.4008 160.573 94.2429 160.671C94.1658 160.718 94.1463 160.835 94.1754 160.953C94.3317 161.586 95.0381 162.016 95.2091 162.288C96.0156 163.572 93.127 159.622 93.1124 159.472C93.0913 159.253 94.1197 159.897 95.6807 161.197C96.627 161.986 97.7604 163.199 98.4219 163.854C99.1966 164.62 99.3936 164.813 99.4845 165.064C99.5366 165.208 99.5121 165.413 99.3424 165.331C97.7521 164.564 97.2871 162.917 97.1014 162.764C97.004 162.684 96.9161 162.579 96.8964 162.792C96.8282 163.533 96.974 165.273 96.9349 167.126C96.9209 167.789 96.8786 167.888 96.786 167.806C95.8838 167.002 95.354 164.839 94.6955 163.543C94.6365 163.427 95.4034 165.017 96.2853 167.166C96.6677 168.098 96.6207 168.42 96.5549 168.669C96.4973 168.888 96.362 169.085 96.1722 169.25C95.8234 169.552 95.1348 169.638 92.2731 169.653C90.8374 169.66 89.5831 169.768 89.2634 169.798C88.9574 169.827 90.4085 169.813 90.7001 169.85C90.9917 169.886 90.7115 169.949 89.4649 170C88.2183 170.052 86.0138 170.09 85.0172 170.161C84.0205 170.232 84.2986 170.334 84.86 170.459C87.3449 171.01 88.0573 170.952 88.2755 171.104C88.4375 171.218 87.9597 171.452 88.0191 171.553C88.6671 172.655 89.9936 171.512 90.2927 171.483C90.9249 171.421 88.688 171.062 88.3111 170.889C88.1052 170.795 89.4331 170.836 90.7462 170.952C92.709 171.127 93.6954 171.425 94.0101 171.463C94.8487 171.564 92.1032 171.172 91.8196 171.134C91.5135 171.093 92.8168 171.279 93.5345 171.505C93.819 171.595 93.9431 171.628 92.815 171.383C91.6869 171.137 89.3033 170.611 87.3003 170.263C85.2973 169.916 83.7471 169.764 83.1343 169.721C82.5215 169.678 82.8931 169.749 83.9345 170.078C84.9759 170.406 86.6759 170.99 87.7837 171.344C89.9068 172.021 90.2389 172.049 90.3488 172.101C91.0506 172.43 88.1508 171.591 86.6888 171.155C83.4227 170.183 83.1458 170.522 82.612 170.516C81.8011 170.505 84.7982 170.844 85.0482 170.864C85.5205 170.901 82.743 170.016 82.4448 169.829C81.5914 169.295 84.4643 169.803 85.0578 169.928C85.3107 169.981 85.4654 170.016 85.0508 169.846C83.6567 169.274 82.4743 168.877 82.4416 168.826C81.2672 167.014 86.8836 169.6 86.5302 169.464C86.0569 169.282 84.9714 168.915 84.554 168.706C84.1367 168.497 84.4164 168.467 84.7153 168.487C85.0142 168.507 85.3238 168.577 85.2362 168.511C84.7187 168.119 84.0217 167.994 83.9899 167.91C83.8334 167.5 85.4573 167.844 86.6616 168.01C87.1215 168.073 87.2775 168.069 86.2136 167.691C85.1498 167.314 82.8623 166.557 81.9169 166.153C80.9714 165.75 81.4374 165.722 82.9305 166.039C84.4236 166.355 86.9296 167.015 88.1586 167.355C89.3875 167.694 89.2633 167.693 88.3647 167.417C85.7872 166.625 83.9842 165.988 84.1229 165.957C85.9534 165.537 87.1733 166.496 87.2533 166.531C87.7258 166.735 86.0515 166.317 85.5379 166.093C85.1331 165.917 86.5936 166.517 89.1836 167.452C90.1103 167.786 90.2277 167.904 90.027 167.969C89.8262 168.034 89.2982 168.06 88.2984 167.932C87.2987 167.804 85.8433 167.521 84.7211 167.37C83.5989 167.22 82.854 167.21 82.4851 167.255C82.1163 167.3 82.146 167.4 82.1605 167.517C82.239 168.153 82.3707 164.533 82.5656 164C82.6128 163.871 82.601 163.734 82.601 163.732C82.601 163.73 82.5993 163.862 82.7532 163.966C83.9407 164.762 85.5684 164.438 85.8825 164.442C85.9408 164.442 84.7677 164.229 83.6866 163.914C83.1975 163.772 86.127 164.075 88.1279 164.484C88.8613 164.634 89.0134 164.714 88.9222 164.747C87.7073 165.186 86.3264 164.447 85.8553 164.507C85.2826 164.581 84.7478 165.195 84.23 165.306C83.9997 165.355 83.6231 165.315 83.4782 165.28C83.3741 165.255 83.5874 165.015 83.6687 164.799C83.8547 164.306 83.4462 163.844 83.3841 163.841C82.7391 163.807 82.9913 165.139 82.8801 165.272C82.254 166.019 82.9344 162.072 83.0838 161.499C83.3683 160.406 82.7811 164.362 82.5146 165.681C82.4357 166.071 82.3475 163.985 82.3518 161.139C82.3549 159.077 82.9611 164.999 82.9488 165.969C82.9314 167.334 82.4401 161.595 82.462 161.093C82.4666 160.987 83.0131 162.985 83.749 165.517C84.0203 166.45 84.0365 166.686 84.0659 166.855C84.0952 167.024 84.125 167.124 84.1106 165.852C84.0962 164.579 84.0368 161.932 84.0802 160.85C84.1236 159.768 84.2717 160.333 84.4337 161.203C84.8099 163.226 84.94 164.727 84.9362 165.03C84.9325 165.323 84.712 163.136 84.3636 160.945C84.2215 160.052 84.253 159.585 84.2721 159.297C84.2913 159.009 84.3236 158.91 84.4315 159.009C84.5393 159.108 84.7218 159.408 85.0665 160.591C85.4113 161.775 85.9128 163.832 86.1701 164.975C86.4275 166.118 86.4253 166.283 86.4404 166.319C86.4714 166.393 85.9817 164.625 85.1963 162.26C84.9218 161.433 85.0135 161.325 85.277 161.426C87.0534 162.107 87.8959 163.828 88.224 164.172C89.3739 165.377 86.2742 161.379 85.3633 160.298C85.0241 159.896 84.9732 159.754 85.73 159.977C86.4868 160.199 88.0626 160.782 89.5219 161.421C90.9813 162.06 92.2764 162.738 91.2139 162.404C90.1514 162.07 86.6921 160.702 85.0179 160.049C83.3438 159.395 83.5598 159.497 84.3512 159.774C86.4952 160.522 87.965 161.058 87.9795 161.209C88.0451 161.888 86.6803 161.11 86.4778 161.058C86.2498 160.998 87.5046 161.682 89.5309 162.677C90.1817 162.996 90.0128 163.056 89.6693 163.036C88.7958 162.984 88.0078 162.865 87.7243 162.894C87.5473 162.912 88.2509 163.134 88.455 163.171C88.6583 163.208 86.8682 162.089 84.8459 160.894C84.1224 160.466 83.9937 160.441 84.0545 160.392C84.3151 160.181 85.242 160.223 86.0902 160.167C86.2805 160.155 84.3996 159.149 82.1071 158.151C81.3611 157.826 81.4504 157.901 81.6984 158.037C82.846 158.669 83.1324 158.858 83.2714 159.027C83.3411 159.111 83.3164 159.26 83.2685 159.36C83.1735 159.56 82.8739 159.657 82.5912 159.737C82.4678 159.772 82.3717 159.719 82.3097 159.602C82.1574 159.314 82.1924 158.883 82.243 158.566C82.2632 158.439 82.3846 158.416 82.6018 158.534C83.9863 159.286 84.9045 159.984 85.1238 160.154C85.1729 160.192 84.8467 160.085 84.8594 160.051C84.8721 160.017 85.1204 160.021 85.1875 159.922C85.3554 159.676 84.8231 159.283 84.5443 159.013C84.4272 158.899 84.4518 158.745 84.9027 158.682C85.3536 158.62 86.2537 158.631 86.64 158.62C87.6529 158.589 83.5051 156.994 83.0671 156.787C82.9761 156.744 82.8803 156.718 82.9567 156.702C84.8883 156.295 87.446 157.711 87.0556 157.64C86.8813 157.608 86.7583 157.569 86.8808 157.554C87.9076 157.424 88.3211 157.688 88.4148 157.756C88.7335 157.987 86.7942 157.704 86.0656 157.593C85.5984 157.523 87.1927 157.507 87.5686 157.579C87.6289 157.59 87.2315 157.342 86.8423 157.137C86.6884 157.056 86.6704 156.934 86.7947 156.885C87.646 156.546 88.2985 156.953 88.4095 156.955C89.4352 156.968 86.333 156.394 86.2854 156.327C86.0685 156.02 87.271 156.238 87.3862 156.124C88.181 155.336 85.3733 155.446 85.2017 155.327C84.5826 154.898 87.1591 155.267 87.5496 155.339C87.7238 155.371 87.8469 155.41 87.5696 155.39C87.2924 155.37 86.6104 155.296 85.5943 155.05C84.5781 154.804 83.2486 154.391 82.7031 154.196C82.1576 154.001 82.4365 154.037 82.6574 154.09C83.0399 154.182 83.3464 154.317 83.643 154.37C83.7838 154.396 83.9089 154.391 83.9748 154.243C84.1565 153.834 84.0185 153.391 83.943 153.19C83.9038 153.085 83.8365 152.988 83.7418 153.035C83.0762 153.365 83.19 154.412 83.09 154.913C82.976 155.485 82.8857 156.144 82.74 156.582C82.4843 157.349 82.3018 155.309 82.1532 154.605C82.1178 154.438 82.0945 154.304 82.0766 154.45C82.0588 154.597 82.0533 155.027 82.0968 155.266C82.1926 155.791 82.7923 155.947 83.1821 156.136C83.2834 156.185 83.4165 156.123 83.5126 156.041C83.9051 155.706 84.0861 155.397 84.1674 155.181C84.3534 154.688 83.8832 154.192 83.6088 153.621C83.5443 153.486 83.5172 153.385 83.7657 153.337C84.0142 153.289 84.5418 153.296 85.4948 153.441C89.3881 154.031 89.7766 154.198 89.8399 154.216C90.3508 154.36 88.8435 153.82 88.2027 153.727C87.8738 153.68 87.3117 153.632 86.7475 153.575C86.5804 153.559 86.6812 153.426 86.7921 153.359C87.3184 153.045 88.0366 152.773 88.48 152.562C89.4249 152.111 91.2715 152.413 92.411 152.311C94.779 152.097 96.4787 152.378 96.7588 152.432C97.2256 152.455 97.6061 152.493 98.7863 152.558C99.8738 152.589 101.953 152.615 104.191 152.544" stroke="#F2B66E" stroke-width="2" stroke-linecap="round"/>
<path d="M103.419 154.038C103.41 154.766 103.399 155.67 103.405 156.422C103.406 156.646 103.45 156.547 103.468 156.363C103.553 155.513 103.596 154.912 103.277 154.407C102.298 152.859 101.194 154.11 101.005 154.091C100.93 154.083 101.876 154.018 103.018 154.165C103.462 154.222 103.567 154.569 103.628 154.822C103.828 155.655 103.768 156.179 103.781 156.447C103.804 156.958 103.973 154.887 104.059 154.231C104.092 153.984 104.113 153.747 104.178 153.531C104.213 153.415 104.244 153.282 104.256 153.595C104.331 155.55 103.991 155.948 103.873 156.613C103.562 158.357 103.731 159.117 103.645 159.753C103.523 160.649 103.506 162.047 103.415 163.059C103.366 163.594 103.282 164.854 103.112 165.945C103.011 166.593 102.908 167.129 102.853 167.747C102.765 168.732 102.589 170.066 102.534 170.65C102.387 171.167 102.128 171.796 101.916 172.494C101.833 172.764 101.801 172.863 101.766 173.065" stroke="#F2B66E" stroke-width="2" stroke-linecap="round"/>
<path d="M94.5277 180.091C95.4297 180.103 96.9718 180.155 98.214 180.221C99.3626 180.282 101.567 180.281 102.703 180.229C103.839 180.178 103.841 180.045 103.858 179.928C103.875 179.81 103.907 179.711 103.93 179.214C103.952 178.716 103.964 177.823 103.882 176.802" stroke="#F2B66E" stroke-width="2" stroke-linecap="round"/>
<path d="M94.1514 180.086C94.0894 180.086 93.9639 180.117 93.7758 180.148C93.6824 180.164 93.5886 180.113 93.557 180.046C93.6237 179.647 93.6968 178.849 93.7904 177.633C93.8159 176.888 93.8336 175.499 93.8518 174.067" stroke="#F2B66E" stroke-width="2" stroke-linecap="round"/>
<path d="M112.924 183.514C113.996 183.528 115.067 183.541 117.299 183.57C119.531 183.598 122.891 183.641 124.451 183.713C126.01 183.784 125.668 183.884 125.199 183.983C124.73 184.083 124.144 184.179 122.553 184.16C120.961 184.142 118.382 184.005 116.932 183.907C115.236 183.793 114.696 183.694 114.57 183.692C111.8 183.657 120.34 184.238 120.661 184.319C121.112 184.435 117.797 184.937 114.523 185.288C113.299 185.42 112.957 185.402 112.659 185.424C112.114 185.465 115.616 185.541 119.934 185.517C120.503 185.514 117.776 185.463 117.831 185.516C117.887 185.568 120.807 185.709 121.046 185.766C121.284 185.822 118.752 185.79 117.544 185.801C115.658 185.817 124.596 186.598 123.982 186.747C121.893 187.255 118.603 187.047 117.506 187.085C116.945 187.104 120.887 187.283 122.146 187.457C123.404 187.63 123.012 187.833 121.518 187.998C120.025 188.164 117.442 188.287 117.012 188.388C116.582 188.488 118.383 188.563 118.945 188.597C120.546 188.694 114.892 188.258 113.902 188.089C113.595 188.036 113.313 187.923 113.19 187.818C111.991 186.787 116.83 185.089 117.68 184.729C118.62 184.331 116.166 184.081 116.02 183.895C115.423 183.139 118.521 184.214 118.647 184.216C119.446 184.226 116.854 184.245 116.699 184.529C116.145 185.547 120.25 186.223 123.263 187.126C124.377 187.461 124.675 187.439 124.509 187.436C124.343 187.434 123.71 187.426 121.659 187.167C119.607 186.907 116.155 186.396 114.28 186.131C112.405 185.867 112.21 185.864 113.083 185.927C113.956 185.99 115.902 186.119 116.198 186.202C116.495 186.285 115.082 186.319 114.89 186.344C114.698 186.368 115.769 186.381 115.931 186.383C116.094 186.386 115.314 186.376 114.512 186.365" stroke="#F2B66E" stroke-width="2" stroke-linecap="round"/>
<path d="M110.444 188.845C110.681 188.848 111.011 188.953 111.306 189.084C111.652 189.237 112.051 189.22 112.431 189.263C112.622 189.284 113.233 189.336 114.052 189.334C114.425 189.333 115.131 189.285 116.139 189.31C116.608 189.322 117.76 189.394 119.396 189.427C120.048 189.44 120.424 189.504 120.922 189.523C121.114 189.537 121.184 189.563 123.229 189.602C125.273 189.641 129.29 189.692 133.429 189.745" stroke="#F2B66E" stroke-width="2" stroke-linecap="round"/>
<path d="M133.429 189.745C133.431 189.545 133.446 188.365 133.479 186.697C133.502 185.575 133.612 184.665 133.656 184.047C133.684 183.645 133.843 183.252 133.887 182.608C133.902 182.39 133.955 181.94 133.915 181.383C133.902 181.196 133.777 181.226 133.681 181.262C133.26 181.423 132.823 181.491 132.183 181.547C131.788 181.582 131.373 181.802 130.613 181.856C130.14 181.889 129.708 182.16 129.183 182.28C128.185 182.508 127.567 182.638 127.029 182.721C126.55 182.794 125.69 183.07 124.924 183.199C124.383 183.291 123.452 183.496 123.264 183.771C123.02 184.128 125.073 183.922 126.479 184.078C127.885 184.234 129.244 184.502 129.979 184.653C130.714 184.804 130.785 184.83 130.597 184.903C130.409 184.976 129.961 185.095 128.883 185.259C127.805 185.422 126.111 185.626 125.121 185.729C124.131 185.833 123.896 185.83 124.514 185.9C125.132 185.971 126.61 186.115 127.278 186.2C127.764 186.263 126.32 186.141 123.805 185.68C122.527 185.446 121.268 185.07 120.84 184.896C120.693 184.837 122.092 184.845 123.909 185.157C124.956 185.338 126.24 185.652 125.568 185.597C124.895 185.543 122.222 185.133 120.786 184.922C119.35 184.71 119.233 184.708 119.278 184.709C119.323 184.709 119.534 184.712 120.838 185.029C122.141 185.346 124.529 185.978 125.806 186.328C127.083 186.679 127.176 186.731 127.189 186.782C127.217 186.896 126.657 186.952 125.381 187.062C124.504 187.137 123.164 187.309 122.391 187.39C121.617 187.47 121.453 187.468 122.672 187.496C123.891 187.524 126.498 187.582 126.572 187.596C126.647 187.61 124.11 187.578 124.236 187.592C124.362 187.606 127.227 187.668 128.644 187.711C130.062 187.754 129.944 187.778 128.52 187.835C127.096 187.893 124.37 187.983 124.01 188.068C123.651 188.153 125.741 188.23 127.052 188.31C128.363 188.39 128.832 188.471 129.12 188.513C129.409 188.556 129.503 188.557 128.164 188.628C126.825 188.698 124.051 188.838 124.454 188.984C124.856 189.129 128.52 189.276 129.763 189.143C131.597 188.947 127.661 188.028 127.485 187.938C127.336 187.861 128.199 187.857 129.528 187.874C129.731 187.877 129.35 187.797 129.595 187.724C130.011 187.6 131.083 187.817 131.544 187.861C132.006 187.906 131.842 187.904 130.237 187.333C128.633 186.761 125.593 185.621 124.355 185.1C123.117 184.579 123.773 184.713 124.837 185.029C125.9 185.345 127.35 185.839 128.168 186.107C129.348 186.494 129.695 186.535 130.061 186.654C130.164 186.688 130.286 186.67 130.3 186.583C130.424 185.842 129.859 184.974 129.981 184.58C130.007 184.5 130.17 184.544 130.254 184.595C130.658 184.843 130.843 185.812 130.968 186.386C130.992 186.498 130.977 186.626 130.988 186.628C131.382 186.697 131.321 185.674 131.561 185.372C131.61 185.31 131.703 185.372 131.783 185.612C132.314 187.192 131.973 188.585 131.946 188.817C131.769 190.321 132.119 186.341 132.123 186.088C132.128 185.684 131.872 187.244 131.606 187.609C131.467 187.8 131.316 187.997 130.961 188.145C130.693 188.255 130.184 188.186 130.188 188.186C130.192 188.186 130.709 188.193 130.976 188.121C131.306 188.033 131.353 186.794 131.515 185.267C131.627 184.212 131.676 183.881 131.737 183.73C131.769 183.652 131.821 183.58 131.879 183.742C132.07 184.284 132.067 184.87 132.077 185.01C132.116 185.554 132.198 183.864 132.404 183.51C132.445 183.44 132.436 183.884 132.459 183.914C132.805 184.362 132.73 183.111 132.756 182.922C132.769 182.83 132.829 182.758 132.5 182.803C132.171 182.848 131.464 183.014 130.571 183.143C129.677 183.272 128.619 183.359 127.722 183.386C126.824 183.414 126.12 183.38 126.532 183.372C128.495 183.336 129.998 183.454 129.701 183.551C129.504 183.616 129.194 183.645 128.977 183.693C128.637 183.769 129.804 184.507 131.689 185.606C132.325 185.976 132.171 186.21 131.909 186.372C131.646 186.534 131.245 186.679 130.026 186.929C128.807 187.179 126.782 187.528 124.716 187.733C122.651 187.938 120.606 187.987 120.398 188.098C120.189 188.209 121.878 188.381 122.842 188.496C123.997 188.633 124.304 188.718 124.306 188.718C124.422 188.72 123.838 188.712 123.715 188.698C123.68 188.694 124.067 188.64 124.317 188.655C124.336 188.656 124.12 188.69 122.169 188.478C120.219 188.266 116.536 187.818 114.991 187.592C113.446 187.366 114.151 187.375 114.737 187.408C115.77 187.465 116.744 187.56 117.305 187.53C117.721 187.507 116.351 187.277 116.174 187.187C116.092 187.144 116.021 187.121 116.138 187.085C116.55 186.956 117.557 186.963 118.46 187.012C118.684 187.024 118.422 187.125 117.043 187.121C115.665 187.117 113.176 187.035 111.94 186.993C110.705 186.952 110.799 186.953 111.023 186.994C112.103 187.188 112.528 187.253 112.658 187.355C113.052 187.666 111.721 187.572 111.315 187.642C110.915 187.712 110.553 187.936 110.269 187.883C109.923 187.817 109.92 187.197 109.881 186.489C109.868 186.248 109.721 186.08 109.734 185.904C109.754 185.636 110.621 185.737 111.322 185.746C111.435 185.747 112.324 185.784 113.374 185.685C113.517 185.671 112.549 185.236 111.636 184.845C109.788 184.052 108.805 183.463 108.91 183.389C109.058 183.285 109.509 183.37 111.074 183.653C112.639 183.936 115.334 184.496 116.605 184.771C117.876 185.045 117.641 185.017 116.772 184.693C115.904 184.368 114.408 183.748 113.755 183.418C113.102 183.088 113.337 183.066 114.664 183.408C115.991 183.75 118.401 184.456 119.678 184.833C120.956 185.211 121.026 185.236 119.941 184.735C118.856 184.233 116.613 183.203 115.353 182.608C114.093 182.014 113.883 181.886 113.858 181.809C113.832 181.731 113.997 181.708 115.57 182.003C117.142 182.298 120.118 182.912 121.803 183.28C123.489 183.649 123.793 183.753 122.581 183.338C121.369 182.924 118.632 181.987 117.34 181.506C116.047 181.026 116.282 181.029 117.575 181.27C118.867 181.512 121.211 181.993 122.371 182.24C123.531 182.487 123.437 182.485 122.605 182.237C121.773 181.989 120.205 181.493 119.433 181.225C118.66 180.958 118.731 180.934 119.377 181.004C121.247 181.208 122.898 181.517 122.74 181.428C122.223 181.139 120.664 180.74 120.256 180.515C119.848 180.289 120.6 180.349 121.736 180.552C122.873 180.755 124.372 181.1 125.261 181.291C126.151 181.483 126.386 181.511 126.459 181.537C126.533 181.564 126.439 181.587 125.525 181.288C124.611 180.989 122.88 180.366 122.714 180.28C122.548 180.193 123.999 180.662 124.616 180.928C125.234 181.193 124.975 181.239 124.36 181.245C122.782 181.259 121.743 181.249 121.645 181.487C121.485 181.878 121.492 182.307 121.607 182.449C122.185 183.156 123.254 181.298 124.021 181.039C124.136 181 124.211 181.128 124.234 181.255C124.361 181.96 123.152 182.957 122.616 183.436C122.581 183.467 122.851 183.34 123.562 183.047C124.274 182.754 125.502 182.269 126.406 181.935C127.309 181.601 127.852 181.432 127.956 181.306C128.713 180.383 125.408 180.741 124.581 180.579C124.202 180.504 123.894 180.519 124.595 180.465C125.295 180.411 127.012 180.308 127.802 180.253C128.592 180.199 128.404 180.197 127.886 180.115C127.367 180.033 126.523 179.872 126.264 179.842C125.479 179.749 127.969 180.291 128.502 180.475C129.012 180.652 129.46 180.69 129.754 180.971C129.995 181.202 129.9 181.706 129.897 181.959C129.893 182.261 130.049 181.18 130.157 181.029C130.183 180.993 130.19 181.277 130.191 181.243C130.2 180.498 130.299 180.221 130.335 180.171C130.35 180.149 130.345 180.32 130.369 180.31C130.523 180.242 130.499 179.445 130.508 178.735C130.51 178.577 130.506 178.827 130.469 178.981C130.432 179.134 130.361 179.183 130.195 179.207C129.774 179.267 128.52 179.061 126.981 178.802C126.427 178.708 126.333 178.678 126.379 178.679C126.614 178.68 127.273 178.916 127.55 178.947C128.755 179.083 125.467 177.707 125.209 177.539C125.013 177.412 126.047 177.76 127.703 178.212C128.207 178.35 128.05 178.196 127.791 178.029C126.741 177.347 126.47 177.188 126.399 177.136C126.33 177.086 127.011 177.093 127.77 177.153C128.154 177.184 127.151 176.721 125.336 175.839C124.613 175.487 124.317 175.267 124.114 175.136C123.911 175.006 123.818 174.954 124.179 175.058C124.541 175.162 125.36 175.423 125.653 175.518C125.69 175.53 124.816 175.146 124.061 174.719C123.899 174.627 124.928 174.94 125.365 175.199C125.766 175.436 124.295 174.86 123.81 174.6C123.412 174.386 123.093 174.06 122.811 173.828C122.55 173.614 122.292 173.593 122.114 173.579C121.957 173.565 122.945 173.526 124.606 173.559C125.543 173.578 125.871 173.739 126.519 173.862C126.857 173.926 127.425 173.886 127.715 173.94C128.005 173.994 128.004 174.094 127.978 174.245C127.863 174.935 127.769 175.731 127.69 176.452C127.577 177.469 126.142 174.958 126.001 174.868C125.933 174.824 125.86 174.803 125.904 175.003C126.22 176.466 126.563 177.238 126.492 177.364C126.333 177.643 125.414 176.649 124.502 175.639C124.038 175.125 123.816 174.979 123.698 174.964C123.087 174.886 123.279 176.207 123.061 176.562C122.891 176.837 122.808 175.878 122.81 175.65C122.811 175.558 122.998 175.575 123.141 175.64C124.337 176.181 124.815 178.454 124.941 178.797C124.994 178.941 125.045 179.014 125.071 178.84C125.098 178.667 125.103 178.241 125.164 178.072C125.231 177.886 125.846 179.217 126.441 180.944C126.654 181.563 126.673 181.665 126.637 181.741C126.601 181.817 126.506 181.866 126.399 181.878C126.175 181.903 125.193 181.224 124.017 180.273C123.661 179.986 123.962 179.888 124.154 179.865C124.462 179.827 124.748 179.897 124.961 180C125.427 180.228 122.929 179.977 122.005 179.725C121.046 179.463 124.038 179.812 124.132 179.901C124.159 179.927 124.039 179.963 123.087 179.889C122.135 179.815 120.328 179.642 119.561 179.567C118.795 179.492 119.124 179.521 119.468 179.576C120.168 179.688 120.597 179.819 120.644 179.87C120.748 179.982 119.96 179.937 118.663 179.808C117.785 179.721 116.476 179.442 115.753 179.317C115.03 179.192 114.936 179.19 115.04 179.192C115.144 179.193 115.45 179.197 116.204 179.382C118.168 179.863 119.474 180.361 119.569 180.463C119.661 180.563 118.79 180.605 117.303 180.461C116.397 180.373 115.208 180.059 115.153 180.205C114.681 181.448 117.442 181.549 117.513 181.638C117.732 181.916 116.378 181.638 115.131 181.32C114.299 181.108 113.088 180.692 112.531 180.554C111.974 180.416 112.113 180.543 112.314 180.673C112.756 180.959 113.198 181.165 113.375 181.344C113.745 181.72 112.269 181.759 111.457 182.331C110.874 182.741 110.333 182.774 110.072 182.796C109.928 182.808 109.764 182.867 110.148 183.023C112.471 183.968 112.882 183.742 112.941 183.768C113.126 183.849 112.177 183.533 111.517 183.259C111.258 183.151 111.136 183.164 111.413 183.38C112.327 184.092 113.156 184.554 113.249 184.707C113.342 184.858 112.869 184.981 111.889 185.107C111.101 185.208 109.711 185.293 108.949 185.36C107.897 185.453 107.639 185.572 107.59 185.622C107.484 185.731 108.156 185.705 108.512 185.735C109.111 185.785 107.422 185.873 107.303 185.847C106.876 185.752 107.266 184.937 107.357 184.333C107.587 182.807 107.512 182.436 107.61 182.133C107.66 181.983 107.687 181.755 107.725 181.503C107.742 181.395 107.833 181.352 107.905 181.315C108.483 181.014 109.542 181.296 109.884 181.49C109.975 181.541 110.036 181.631 110.06 181.732C110.156 182.153 109.86 182.613 109.557 183.117C109.347 183.466 109.063 183.718 108.897 183.755C108.52 183.836 108.598 182.855 108.601 182.614C108.605 182.324 108.522 183.255 108.327 183.708C108.252 183.883 108.204 184.036 108.18 184.037C107.515 184.06 108.292 182.625 108.453 182.069C108.584 181.619 108.619 181.262 108.775 180.972C109.089 180.391 109.971 181.024 110.811 181.098C111.223 181.134 111.905 181.125 112.151 181.103C112.441 181.077 111.686 180.869 111.638 180.806C111.325 180.384 112.638 180.477 112.735 180.352C112.992 180.022 112.172 179.965 112.066 179.901C111.978 179.848 112.479 179.766 112.742 179.77C113.5 179.779 111.698 179.932 111.4 180.081C111.207 180.176 111.052 180.304 110.934 180.291C110.787 180.274 110.847 179.548 111.162 178.793C111.835 177.182 113.182 178.687 113.704 178.732C114.368 178.789 114.984 178.862 115.87 178.924C116.499 178.968 117.116 179.066 117.507 179.096C117.62 179.105 117.546 179.172 117.45 179.222C116.951 179.481 116.168 179.51 114.614 179.679C113.108 179.843 112.792 179.77 112.732 179.744C112.675 179.72 113.024 179.673 113.792 179.644C114.559 179.616 115.852 179.607 116.471 179.577C117.09 179.547 116.997 179.496 116.726 179.392C115.479 178.91 115.082 178.915 114.596 178.87C114.272 178.84 114.136 178.548 114.054 178.472C114.017 178.437 114.089 178.347 114.149 178.296C114.266 178.198 115.34 178.209 116.893 178.241C117.82 178.261 118.38 178.5 118.843 178.633C119.792 178.905 121.391 178.792 122.114 178.852C122.533 178.886 123.167 178.992 123.749 178.999C123.974 179.002 123.057 178.788 122.726 178.683C122.328 178.556 122.041 178.422 121.795 178.116C121.1 177.253 121.923 176.373 121.988 175.906C122.067 175.34 122.13 175.034 122.204 174.769C122.328 174.328 122.55 175.592 122.754 176.265C122.872 176.652 122.887 177.014 123.153 177.573C123.314 177.914 123.347 178.184 123.323 178.31C123.212 178.873 122.264 177.691 122.099 177.538C122.074 177.461 122.169 177.387 122.254 177.337C122.338 177.287 122.409 177.263 122.625 177.164" stroke="#F2B66E" stroke-width="2" stroke-linecap="round"/>
<path d="M127.745 178.566C128.119 178.571 128.959 178.581 129.897 178.593C130.187 178.597 130.102 178.596 129.914 178.557C129.061 178.382 128.631 178.139 128.203 177.959C127.784 177.783 129.915 177.951 130.305 177.994C130.363 178 130.381 177.995 130.689 178.135C131.386 178.452 130.827 179.627 130.864 180.044C130.89 180.328 130.915 180.839 130.916 181.416C130.916 181.63 130.938 181.685 130.955 181.069C130.971 180.453 130.988 179.165 130.962 178.492C130.937 177.819 130.869 177.8 130.732 177.789C130.13 177.74 129.89 177.677 129.504 177.608C129.104 177.536 128.843 177.535 128.614 177.324C127.81 176.583 128.504 175.683 128.467 175.223C128.421 174.655 128.419 174.252 128.38 173.929C128.37 173.847 128.374 173.738 128.349 173.681C128.31 173.592 128.049 173.694 127.755 173.782C127.619 173.823 126.934 173.827 125.938 173.796C125.416 173.78 125.211 173.695 125.074 173.684C124.935 173.673 124.169 173.627 123.069 173.631C122.386 173.634 122.046 173.746 121.573 173.786C121.474 173.794 121.442 173.866 121.415 173.939C121.139 174.688 121.294 176.026 121.251 176.675C121.241 176.833 121.197 176.941 121.177 177.087C121.158 177.234 121.156 177.415 120.763 177.504C119.61 177.764 118.729 177.59 118.481 177.614C117.944 177.616 117.525 177.629 117.328 177.654C117.199 177.662 117.012 177.66 116.819 177.657" stroke="#F2B66E" stroke-width="2" stroke-linecap="round"/>
<path d="M117.017 189.483C116.692 189.479 116.343 189.486 115.916 189.504C115.576 189.518 114.983 189.515 114.651 189.511C114.166 189.505 113.993 189.457 113.689 189.435C113.342 189.411 112.873 189.384 112.399 189.361C111.957 189.339 111.106 189.339 110.671 189.069C109.926 188.607 110.24 187.693 110.225 187.589C110.178 187.267 110.193 187.055 110.174 186.87C110.15 186.64 109.929 186.506 109.838 186.377C109.746 186.248 109.585 186.165 109.418 186.082C109.251 186 108.688 186.003 107.997 186C107.704 185.999 107.337 186.02 106.85 185.831C105.962 185.484 106.798 184.554 106.86 184.311C106.919 184.081 106.958 183.871 106.978 183.657C107.002 183.385 107.034 183.06 107.063 182.044C107.074 181.667 107.132 181.324 107.168 181.05C107.19 180.888 107.259 180.732 107.28 180.449C107.284 180.384 107.297 180.35 107.319 180.321C107.374 180.27 107.451 180.236 107.839 180.223C108.185 180.222 108.831 180.23 109.497 180.238" stroke="#F2B66E" stroke-width="2" stroke-linecap="round"/>
</g>
<path d="M95.0846 181.603C97.3634 183.336 98.7686 185.733 99.2266 188.251C98.5056 186.668 97.3752 185.218 95.8569 184.063C91.2757 180.58 84.58 181.157 81.1869 185.612C79.4605 187.879 78.963 190.726 79.4776 193.422C77.9993 190.1 78.1491 186.127 80.415 183.151C83.8079 178.696 90.5032 178.12 95.0846 181.603ZM71.9841 204.49L80.2799 210.798C81.1526 211.461 81.4507 212.407 81.1315 213.321C81.1057 213.3 81.0793 213.278 81.0523 213.258L72.7563 206.95C71.6421 206.103 70.3335 206.281 69.4851 207.395L65.715 212.345C56.8556 223.978 35.1524 208.063 19.4124 228.73C13.8002 236.099 12.1398 244.296 14.1743 252.073C11.0602 243.585 12.4325 234.42 18.64 226.269C34.38 205.602 56.0832 221.517 64.9429 209.884L68.7128 204.934C69.5611 203.82 70.8699 203.643 71.9841 204.49ZM63.0227 252.197L71.0065 258.658C71.8367 259.289 72.0945 260.245 71.8212 261.152C71.8071 261.141 71.7929 261.13 71.7785 261.119L63.795 254.658C62.6807 253.811 61.4666 253.864 60.6181 254.978L58.6389 257.577C53.0783 264.879 43.8897 265.904 35.7176 259.691C31.8878 256.779 29.502 253.231 28.6971 249.504C29.8652 252.321 31.9692 254.968 34.9452 257.231C43.1174 263.444 52.3059 262.418 57.8668 255.116L59.846 252.518C60.6942 251.404 61.9083 251.35 63.0227 252.197Z" fill="#EBEBEA"/>
<path d="M97.9284 198.323C94.5275 202.788 87.96 203.475 83.3911 200.001C78.9457 196.622 77.6106 189.926 81.0115 185.461C84.4125 180.995 91.1038 180.402 95.6724 183.876C100.365 187.443 101.329 193.857 97.9284 198.323ZM81.2441 216.39L76.993 221.972C64.4284 238.469 42.6884 222.724 31.4465 237.485C25.778 244.928 27.4978 253.678 35.4005 259.687C43.5502 265.883 52.7332 264.834 58.3069 257.516L60.2908 254.911C61.1412 253.794 62.3543 253.738 63.4656 254.582L71.4263 261.027C72.5377 261.872 72.6175 263.303 71.7671 264.42L70.1611 266.529C59.5803 280.421 42.1226 281.838 26.8111 270.197C11.8698 258.837 8.79353 242.395 19.1853 228.75C34.9621 208.035 56.6074 223.905 65.4876 212.245L69.2665 207.283C70.1169 206.166 71.4248 205.985 72.536 206.83L80.8092 213.12C81.9205 213.965 82.0946 215.273 81.2441 216.39Z" fill="#F3E6AF"/>
<path d="M95.7393 186.968L98.2794 189.641C84.785 182.245 79.3526 193.972 79.3526 193.972L80.381 188.364L84.2941 185.251L90.3759 184.762L95.7393 186.968Z" fill="#F3E6AF"/>
<path d="M81.5895 216.353C81.5895 216.353 82.6874 218.404 82.5352 218.288C82.4838 218.249 82.2906 217.964 81.8656 217.271C81.7349 217.058 81.5641 216.852 81.3602 216.654L81.5895 216.353Z" fill="#211D1D"/>
<path d="M73.3466 210.087L81.5882 216.353L81.3805 216.626C81.227 216.481 81.0574 216.339 80.8741 216.2C77.9557 213.981 71.5717 212.417 71.5717 212.417C71.5717 212.417 67.8847 218.266 63.364 221.368C56.5064 224.705 49.2031 219.709 49.2031 219.709L51.7698 219.746L54.1063 219.963L62.3202 217.859L68.1833 212.004L69.0476 210.397L71.0416 209.138L73.3466 210.087Z" fill="#F3E6AF"/>
<path d="M97.7476 201.403L97.2243 201.006C96.4337 202.043 95.4609 202.859 94.3751 203.45C92.7469 204.338 90.8621 204.721 88.9804 204.573C87.0989 204.425 85.2237 203.747 83.6096 202.52C82.5663 201.727 81.7016 200.738 81.0423 199.633C80.5479 198.805 80.1694 197.912 79.9174 196.991C79.5395 195.61 79.4479 194.166 79.6716 192.782C79.8959 191.398 80.4328 190.073 81.3174 188.911C82.106 187.876 83.0838 187.068 84.1801 186.485C85.0022 186.047 85.8903 185.737 86.8123 185.557C88.1945 185.286 89.6512 185.309 91.064 185.63C92.477 185.951 93.845 186.571 95.0557 187.491C96.1647 188.334 97.0505 189.341 97.7082 190.443C98.6943 192.095 99.1657 193.959 99.0945 195.797C99.0588 196.717 98.8878 197.629 98.5777 198.506C98.2676 199.383 97.8184 200.225 97.2243 201.006L98.271 201.801C99.1739 200.616 99.788 199.296 100.12 197.928C100.618 195.874 100.484 193.712 99.7587 191.71C99.0338 189.707 97.7159 187.862 95.8523 186.445C94.6391 185.523 93.2862 184.869 91.884 184.482C89.7804 183.9 87.5645 183.915 85.5274 184.521C84.5091 184.824 83.5354 185.275 82.6456 185.875C81.7561 186.474 80.9507 187.223 80.2708 188.116C79.3617 189.309 78.7708 190.653 78.4719 192.048C78.2475 193.094 78.1864 194.168 78.2751 195.233C78.408 196.829 78.8777 198.404 79.6455 199.835C80.4134 201.266 81.4809 202.553 82.8129 203.566C84.0261 204.489 85.3724 205.137 86.7646 205.516C88.8531 206.084 91.0453 206.048 93.0605 205.424C94.0678 205.112 95.0307 204.653 95.9117 204.048C96.7932 203.443 97.5924 202.693 98.271 201.801L97.7476 201.403ZM81.1058 219.406L80.5824 219.008L76.3445 224.573C74.8218 226.572 73.1708 228.068 71.4193 229.197C69.8863 230.186 68.2749 230.894 66.5996 231.402C65.1341 231.846 63.6199 232.137 62.0723 232.326C59.3647 232.655 56.5561 232.669 53.7421 232.653C51.6314 232.641 49.518 232.612 47.4392 232.693C45.88 232.754 44.3406 232.876 42.8364 233.116C40.5802 233.475 38.4006 234.1 36.3701 235.181C34.34 236.261 32.4649 237.8 30.8275 239.951C29.3672 241.868 28.3744 243.886 27.8433 245.934C27.4449 247.47 27.3067 249.023 27.4218 250.558C27.5947 252.861 28.3381 255.122 29.6094 257.236C30.881 259.351 32.679 261.32 34.9645 263.057C37.0605 264.651 39.2324 265.789 41.4074 266.477C43.0385 266.993 44.6715 267.256 46.2713 267.269C48.6712 267.288 50.9965 266.742 53.1228 265.656C55.2495 264.57 57.1755 262.946 58.7923 260.823L60.7699 258.226C60.9379 258.006 61.1103 257.855 61.2788 257.755C61.4057 257.68 61.5309 257.632 61.6593 257.607C61.756 257.587 61.8549 257.58 61.9586 257.586C62.1141 257.594 62.2814 257.63 62.4603 257.703C62.639 257.775 62.8289 257.883 63.0228 258.031L63.4211 257.508L63.0071 258.019L70.9941 264.482L71.0019 264.488C71.2124 264.649 71.3637 264.827 71.4697 265.016C71.5488 265.158 71.6028 265.307 71.633 265.462C71.6784 265.694 71.6706 265.942 71.605 266.196C71.5391 266.45 71.4147 266.71 71.2264 266.957L69.6254 269.059C67.0381 272.456 64.0375 275.076 60.7603 276.923C58.302 278.309 55.6876 279.26 52.9697 279.776C48.8934 280.551 44.5823 280.346 40.2219 279.139C35.8618 277.933 31.4533 275.724 27.1967 272.487C23.505 269.68 20.5549 266.571 18.3636 263.284C16.7201 260.82 15.5032 258.255 14.7183 255.641C13.542 251.72 13.3356 247.688 14.1315 243.695C14.928 239.702 16.7289 235.746 19.588 231.992C21.5198 229.455 23.5335 227.492 25.5962 225.966C27.4014 224.632 29.2445 223.633 31.1089 222.883C32.7402 222.226 34.3882 221.761 36.0398 221.433C38.9292 220.859 41.8306 220.705 44.6588 220.683C46.7802 220.665 48.8597 220.722 50.8635 220.725C52.3663 220.727 53.8263 220.699 55.2304 220.586C56.2839 220.501 57.3056 220.367 58.2903 220.16C59.7664 219.849 61.1609 219.372 62.4375 218.64C63.714 217.91 64.8692 216.924 65.8588 215.624L69.6256 210.678C69.7934 210.457 69.975 210.295 70.1596 210.181C70.2983 210.095 70.439 210.037 70.5817 210.002C70.7959 209.949 71.0157 209.947 71.2481 210.002C71.4799 210.057 71.7248 210.171 71.9729 210.359L80.2641 216.663C80.4844 216.831 80.6471 217.012 80.7611 217.196C80.8466 217.335 80.9052 217.475 80.9404 217.618C80.9929 217.832 80.9946 218.052 80.9398 218.284C80.8846 218.516 80.7712 218.76 80.5824 219.008L81.6291 219.804C81.8855 219.468 82.0726 219.105 82.1822 218.729C82.2645 218.447 82.3026 218.158 82.2948 217.871C82.283 217.44 82.1658 217.016 81.9543 216.632C81.7426 216.248 81.4391 215.905 81.0608 215.617L72.7696 209.313C72.4331 209.057 72.0702 208.87 71.6935 208.761C71.4113 208.679 71.1219 208.64 70.8343 208.649C70.4034 208.66 69.979 208.777 69.595 208.989C69.2107 209.2 68.8667 209.504 68.5787 209.882L64.8119 214.828C64.2891 215.514 63.723 216.094 63.1147 216.589C61.9746 217.514 60.6836 218.141 59.2423 218.567C57.9821 218.939 56.6083 219.155 55.1417 219.274C52.5749 219.484 49.7274 219.396 46.7208 219.37C44.4659 219.352 42.1213 219.371 39.7341 219.586C37.9435 219.748 36.1287 220.02 34.311 220.473C31.5851 221.152 28.8519 222.237 26.1959 223.953C23.5397 225.669 20.9636 228.014 18.5411 231.196C15.9033 234.659 14.1136 238.317 13.1598 242.039C12.4444 244.831 12.1997 247.658 12.4161 250.461C12.7401 254.667 14.1018 258.816 16.4496 262.721C18.798 266.626 22.1305 270.287 26.4 273.533C30.2889 276.49 34.3216 278.628 38.3574 279.949C41.3841 280.94 44.4126 281.47 47.3804 281.541C51.8321 281.646 56.1468 280.714 60.1017 278.758C64.0571 276.802 67.65 273.824 70.6722 269.855L72.2731 267.753C72.5292 267.417 72.7196 267.05 72.8377 266.669C72.9261 266.383 72.9735 266.089 72.9767 265.795C72.9823 265.354 72.887 264.913 72.6881 264.509C72.4897 264.104 72.1884 263.738 71.7984 263.442L71.4003 263.965L71.8143 263.454L63.8274 256.991L63.8194 256.985C63.4927 256.737 63.1471 256.545 62.7868 256.422C62.5168 256.33 62.2383 256.277 61.9581 256.27C61.7482 256.265 61.5374 256.285 61.3318 256.333C61.023 256.404 60.7257 256.536 60.4551 256.722C60.184 256.908 59.9391 257.146 59.7231 257.43L57.7455 260.027C56.4045 261.787 54.8542 263.158 53.1644 264.137C51.8968 264.871 50.5502 265.384 49.1493 265.675C47.048 266.11 44.8231 266.043 42.5602 265.444C40.2978 264.844 37.9973 263.712 35.761 262.012C33.8327 260.545 32.2913 258.922 31.1475 257.207C30.2895 255.92 29.6551 254.583 29.2469 253.219C28.6354 251.172 28.5302 249.065 28.9552 246.964C29.3807 244.863 30.3384 242.764 31.8743 240.747C33.2272 238.971 34.7256 237.67 36.3473 236.702C37.7664 235.857 39.2828 235.267 40.8818 234.857C42.2808 234.499 43.7427 234.278 45.25 234.145C47.8887 233.912 50.6672 233.948 53.4876 233.966C55.603 233.978 57.7423 233.981 59.8669 233.846C61.4603 233.744 63.0459 233.565 64.6063 233.252C66.9466 232.784 69.2327 232.014 71.3907 230.757C73.5484 229.5 75.5732 227.757 77.3913 225.369L81.6291 219.804L81.1058 219.406Z" fill="#211D1D"/>
<path d="M45.5986 275.782C45.6115 275.784 45.8003 275.808 46.1327 275.838C46.6529 275.884 47.0429 275.519 47.0041 275.023C46.9652 274.528 46.5118 274.089 45.9914 274.043C45.8407 274.03 45.7253 274.017 45.6488 274.009C45.6107 274.005 45.5824 274.002 45.5644 273.999C45.5555 273.998 45.549 273.997 45.5453 273.997L45.5416 273.997L45.5412 273.997L45.5521 274.321L45.5416 273.997L45.5412 273.997L45.5521 274.321L45.5416 273.997L45.5642 274.7L45.5419 273.997L45.5416 273.997L45.5642 274.7L45.5419 273.997C45.0206 273.929 44.6107 274.273 44.6263 274.766C44.642 275.259 45.0773 275.714 45.5986 275.782Z" fill="white"/>
<path d="M49.2751 275.976C50.423 275.842 51.7637 275.626 53.2063 275.281C54.6487 274.936 56.1932 274.46 57.7481 273.803C58.275 273.58 58.5367 272.974 58.3324 272.449C58.1279 271.925 57.5351 271.68 57.008 271.903C55.5791 272.508 54.1429 272.951 52.794 273.274C51.4452 273.597 50.1835 273.8 49.1042 273.926C48.5409 273.991 48.1226 274.504 48.1698 275.07C48.2168 275.636 48.7119 276.041 49.2751 275.976Z" fill="white"/>
<path d="M57.9056 273.763C58.1881 273.652 58.471 273.535 58.7534 273.411C59.2587 273.191 59.4769 272.6 59.2408 272.093C59.0046 271.585 58.4032 271.353 57.8978 271.574C57.6395 271.687 57.3802 271.795 57.1204 271.896C56.6063 272.098 56.3655 272.679 56.5822 273.194C56.7992 273.71 57.3916 273.964 57.9056 273.763ZM61.6005 271.908C63.2834 270.844 64.8681 269.482 66.1895 267.747C66.6669 267.12 67.1099 266.444 67.5105 265.718C67.7753 265.238 67.5917 264.626 67.1008 264.35C66.6096 264.075 65.9971 264.241 65.7322 264.721C65.3777 265.363 64.987 265.959 64.5657 266.512C63.4 268.042 61.9987 269.251 60.4827 270.21C60.018 270.504 59.8915 271.122 60.2001 271.591C60.5087 272.06 61.1358 272.201 61.6005 271.908ZM67.5105 265.718L67.5113 265.716C67.7762 265.236 67.5928 264.624 67.1016 264.349C66.6104 264.073 65.9977 264.239 65.7331 264.719L65.7322 264.721C65.4674 265.201 65.651 265.813 66.1419 266.088C66.6331 266.364 67.2457 266.198 67.5105 265.718Z" fill="white"/>
<path d="M67.6517 265.806C67.7336 265.649 67.8127 265.489 67.8895 265.326C68.1178 264.842 67.8494 264.199 67.2901 263.89C66.7308 263.581 66.0925 263.722 65.864 264.206C65.7959 264.351 65.7257 264.492 65.6536 264.631C65.4076 265.105 65.6554 265.752 66.2074 266.077C66.759 266.401 67.4059 266.28 67.6517 265.806Z" fill="white"/>
<defs>
<filter id="filter0_n_390_135" x="79.8311" y="2.1167" width="216.386" height="334.533" filterUnits="userSpaceOnUse" color-interpolation-filters="sRGB">
<feFlood flood-opacity="0" result="BackgroundImageFix"/>
<feBlend mode="normal" in="SourceGraphic" in2="BackgroundImageFix" result="shape"/>
<feTurbulence type="fractalNoise" baseFrequency="1.25 1.25" stitchTiles="stitch" numOctaves="3" result="noise" seed="5975" />
<feColorMatrix in="noise" type="luminanceToAlpha" result="alphaNoise" />
<feComponentTransfer in="alphaNoise" result="coloredNoise1">
<feFuncA type="discrete" tableValues="0 0 0 0 0 0 1 1 1 1 1 1 1 1 1 1 1 1 1 1 1 1 1 1 1 1 1 1 1 1 1 1 1 1 1 1 1 1 1 1 1 1 1 1 0 0 0 0 0 0 0 0 0 0 0 0 0 0 0 0 0 0 0 0 0 0 0 0 0 0 0 0 0 0 0 0 0 0 0 0 0 0 0 0 0 0 0 0 0 0 0 0 0 0 0 0 0 0 0 0 "/>
</feComponentTransfer>
<feComposite operator="in" in2="shape" in="coloredNoise1" result="noise1Clipped" />
<feFlood flood-color="rgba(0, 0, 0, 0.25)" result="color1Flood" />
<feComposite operator="in" in2="noise1Clipped" in="color1Flood" result="color1" />
<feMerge result="effect1_noise_390_135">
<feMergeNode in="shape" />
<feMergeNode in="color1" />
</feMerge>
</filter>
</defs>
</svg>
