<svg width="142" height="159" viewBox="0 0 142 159" fill="none" xmlns="http://www.w3.org/2000/svg">
<path d="M30.2215 134.173C27.4781 132.14 25.7664 129.3 25.182 126.302C26.0658 128.181 27.4355 129.894 29.2633 131.248C34.7782 135.335 42.7528 134.546 46.7306 129.178C48.7546 126.447 49.3046 123.042 48.6501 119.832C50.4631 123.773 50.3448 128.518 47.6883 132.102C43.7106 137.47 35.7366 138.26 30.2215 134.173ZM57.4165 106.51L47.4298 99.1099C46.3793 98.3314 46.0095 97.2077 46.3761 96.1121C46.4073 96.1369 46.4391 96.1616 46.4716 96.1857L56.4585 103.586C57.7999 104.58 59.3573 104.349 60.352 103.006L64.7719 97.042C75.1583 83.026 101.276 101.688 119.729 76.7868C126.309 67.9081 128.164 58.1014 125.62 48.8522C129.462 58.9331 127.965 69.8908 120.688 79.7113C102.235 104.613 76.1166 85.9504 65.7298 99.9668L61.3102 105.931C60.3156 107.273 58.7579 107.505 57.4165 106.51ZM67.3771 49.4453L57.7601 41.857C56.7606 41.1163 56.4388 39.98 56.7509 38.8938C56.7678 38.9068 56.785 38.9195 56.8023 38.9324L66.4189 46.5209C67.7604 47.515 69.2071 47.4324 70.2018 46.0901L72.5222 42.9589C79.0413 34.1618 89.9811 32.7981 99.8189 40.0883C104.429 43.5048 107.328 47.7023 108.344 52.1385C106.909 48.7945 104.36 45.6675 100.777 43.0126C90.9393 35.7223 79.9995 37.0862 73.4801 45.8837L71.1598 49.0149C70.1654 50.3567 68.7186 50.4395 67.3771 49.4453Z" fill="#EBEBEA"/>
<path d="M26.577 114.264C30.564 108.884 38.384 107.964 43.8842 112.04C49.2357 116.006 50.9291 123.975 46.942 129.355C42.9548 134.736 34.9858 135.545 29.486 131.469C23.8372 127.283 22.5898 119.644 26.577 114.264ZM46.1952 92.4514L51.1791 85.7259C65.9094 65.8483 92.0687 84.3071 105.248 66.522C111.894 57.5543 109.71 47.1384 100.197 40.0885C90.3862 32.8182 79.4532 34.2092 72.9188 43.027L70.5931 46.1655C69.596 47.5109 68.1505 47.5971 66.8127 46.6057L57.2234 39.0364C55.8856 38.045 55.7687 36.3382 56.7657 34.9928L58.6485 32.452C71.053 15.7129 91.8461 13.7571 110.278 27.4164C128.265 40.7454 132.183 60.3185 120 76.7585C101.504 101.718 75.4553 83.1095 65.0444 97.1583L60.6142 103.137C59.6172 104.482 58.0606 104.718 56.7229 103.726L46.7634 96.3459C45.4256 95.3545 45.1982 93.7968 46.1952 92.4514Z" fill="#F3E6AF"/>
<path d="M29.3584 127.78L26.2893 124.629C42.4907 133.249 48.7897 119.173 48.7897 119.173L47.6488 125.881L43.0304 129.655L35.7865 130.331L29.3584 127.78Z" fill="#F3E6AF"/>
<path d="M45.7838 92.5012C45.7838 92.5012 44.4437 90.0701 44.6269 90.2059C44.6888 90.2518 44.9235 90.589 45.4408 91.4097C45.5998 91.6621 45.8066 91.9046 46.0527 92.1384L45.7838 92.5012Z" fill="#211D1D"/>
<path d="M55.7066 99.8534L45.7851 92.5011L46.0286 92.1725C46.2138 92.3424 46.4181 92.5092 46.6388 92.6727C50.1521 95.2762 57.7874 97.0454 57.7874 97.0454C57.7874 97.0454 62.0946 90.0102 67.4375 86.2399C75.5631 82.1533 84.3465 88.0045 84.3465 88.0045L81.2858 87.9994L78.4967 87.7758L68.7353 90.4115L61.8337 97.4871L60.8275 99.4175L58.4692 100.95L55.7066 99.8534Z" fill="#F3E6AF"/>
<path d="M26.7455 110.585L27.3755 111.052C28.3024 109.802 29.4498 108.814 30.7354 108.092C32.6633 107.008 34.9047 106.522 37.1504 106.67C39.3961 106.818 41.6421 107.598 43.5851 109.038C44.8411 109.969 45.8871 111.136 46.69 112.444C47.292 113.425 47.7569 114.485 48.0712 115.58C48.5428 117.222 48.6739 118.943 48.4282 120.598C48.1818 122.254 47.5617 123.843 46.5247 125.243C45.6001 126.49 44.4466 127.469 43.1484 128.182C42.1748 128.716 41.1206 129.1 40.0241 129.329C38.3802 129.673 36.6431 129.668 34.9537 129.306C33.2642 128.944 31.6236 128.226 30.1662 127.146C28.8311 126.157 27.7597 124.969 26.9589 123.664C25.7581 121.708 25.1677 119.49 25.2248 117.296C25.2533 116.198 25.4434 115.107 25.7997 114.056C26.1562 113.004 26.679 111.992 27.3755 111.052L26.1154 110.119C25.057 111.547 24.3448 113.131 23.97 114.769C23.4069 117.227 23.5999 119.805 24.4949 122.184C25.3895 124.563 26.9888 126.744 29.2323 128.406C30.6927 129.489 32.3157 130.248 33.9935 130.689C36.5104 131.351 39.1522 131.3 41.5718 130.546C42.7813 130.169 43.9354 129.615 44.9871 128.886C46.0386 128.157 46.9875 127.252 47.7846 126.176C48.8504 124.739 49.5345 123.125 49.8697 121.457C50.1214 120.205 50.178 118.922 50.0561 117.653C49.8734 115.75 49.2895 113.878 48.3523 112.182C47.415 110.486 46.1227 108.967 44.5192 107.778C43.0587 106.695 41.4437 105.942 39.778 105.511C37.2793 104.865 34.6661 104.941 32.2729 105.716C31.0766 106.104 29.9355 106.667 28.8943 107.402C27.8525 108.137 26.911 109.045 26.1154 110.119L26.7455 110.585ZM46.3142 88.8499L46.9443 89.3169L51.9126 82.6125C53.6978 80.204 55.6436 78.3937 57.7147 77.019C59.5274 75.8162 61.4379 74.9472 63.4277 74.315C65.1683 73.7625 66.9691 73.3925 68.8115 73.1442C72.0347 72.7099 75.3832 72.6507 78.7385 72.6275C81.2552 72.6095 83.7755 72.6119 86.2528 72.4837C88.1109 72.3873 89.9445 72.2182 91.7343 71.9091C94.4189 71.4458 97.0081 70.6676 99.4126 69.3463C101.817 68.0268 104.029 66.1621 105.949 63.5699C107.661 61.2604 108.814 58.8378 109.416 56.3854C109.868 54.546 110.009 52.6912 109.848 50.861C109.607 48.115 108.686 45.4285 107.139 42.9252C105.59 40.4211 103.417 38.0991 100.665 36.0601C98.1422 34.1903 95.5354 32.8655 92.9317 32.077C90.9791 31.4861 89.0282 31.1971 87.1205 31.2062C84.2589 31.2196 81.4947 31.9065 78.9761 33.2353C76.457 34.5633 74.1852 36.5305 72.2897 39.0889L69.9712 42.2176C69.7743 42.483 69.571 42.6658 69.3717 42.7874C69.2215 42.8791 69.073 42.9374 68.9202 42.9701C68.8053 42.9945 68.6874 43.0048 68.5637 42.9997C68.3782 42.9923 68.1781 42.9511 67.9637 42.8674C67.7495 42.7836 67.5216 42.6575 67.2881 42.4841L66.8212 43.1142L67.307 42.4985L57.6861 34.9072L57.6767 34.9002C57.4233 34.7118 57.2402 34.5015 57.111 34.2776C57.0145 34.109 56.9479 33.9325 56.9095 33.7476C56.8518 33.4712 56.8574 33.1753 56.9317 32.8712C57.0065 32.5672 57.1508 32.2557 57.3716 31.9576L59.2486 29.4248C62.2818 25.332 65.8196 22.1602 69.699 19.9058C72.6089 18.2152 75.7116 17.04 78.9442 16.3828C83.7927 15.3971 88.9359 15.576 94.1531 16.9494C99.3698 18.3225 104.66 20.8923 109.784 24.6896C114.228 27.9829 117.793 31.6484 120.455 35.5372C122.452 38.4533 123.942 41.4952 124.917 44.6023C126.379 49.2637 126.687 54.0721 125.798 58.8491C124.909 63.6256 122.822 68.3735 119.47 72.8973C117.205 75.9534 114.834 78.3273 112.398 80.1785C110.266 81.7982 108.084 83.0188 105.872 83.9423C103.937 84.7499 101.979 85.33 100.015 85.7464C96.5788 86.4753 93.1218 86.7031 89.7501 86.7729C87.221 86.8261 84.7408 86.7902 82.3517 86.8171C80.5599 86.8375 78.8195 86.8926 77.1471 87.0491C75.8924 87.1668 74.6763 87.3418 73.5054 87.6039C71.7502 87.9973 70.0948 88.5883 68.5838 89.4803C67.0729 90.3713 65.7105 91.5654 64.5504 93.1321L60.1343 99.0913C59.9376 99.3567 59.7236 99.5537 59.5052 99.6923C59.3412 99.7963 59.1743 99.8684 59.0046 99.9127C58.7501 99.9785 58.488 99.9839 58.2101 99.9223C57.9329 99.86 57.6391 99.7284 57.3406 99.5071L47.3594 92.1106C47.0941 91.914 46.8974 91.7004 46.7587 91.4818C46.6546 91.318 46.5826 91.151 46.5384 90.9812C46.4727 90.7268 46.4673 90.4645 46.5291 90.1867C46.5914 89.9093 46.7229 89.6156 46.9443 89.3169L45.6841 88.383C45.3836 88.7883 45.1661 89.2238 45.0411 89.6741C44.9472 90.0121 44.9061 90.358 44.9199 90.7006C44.9404 91.2142 45.0866 91.7185 45.3446 92.1731C45.6028 92.6281 45.9699 93.0335 46.4253 93.3711L56.4065 100.768C56.8115 101.068 57.2472 101.286 57.6979 101.41C58.0356 101.504 58.3812 101.545 58.724 101.531C59.2376 101.511 59.7419 101.365 60.1965 101.106C60.6514 100.848 61.057 100.481 61.3946 100.025L65.8107 94.066C66.4236 93.239 67.0898 92.5382 67.8075 91.939C69.1528 90.8178 70.6826 90.05 72.3945 89.5197C73.8914 89.0559 75.5261 88.7771 77.2729 88.6128C80.3301 88.3234 83.7265 88.3861 87.3115 88.3705C90.0003 88.3579 92.7955 88.3002 95.6385 88.007C97.7709 87.7871 99.9306 87.434 102.091 86.8661C105.331 86.0147 108.573 84.678 111.714 82.5897C114.855 80.5017 117.89 77.6643 120.73 73.8313C123.823 69.6581 125.901 65.2663 126.982 60.81C127.793 57.4678 128.041 54.0905 127.741 50.7483C127.291 45.7353 125.604 40.804 122.746 36.1805C119.886 31.5563 115.858 27.2379 110.718 23.4291C106.036 19.9598 101.196 17.4697 96.3638 15.9546C92.74 14.8186 89.1211 14.2314 85.5815 14.1926C80.2723 14.1344 75.142 15.3119 70.4563 17.7065C65.77 20.1006 61.5315 23.7092 57.9884 28.491L56.1115 31.0238C55.8113 31.4289 55.5898 31.8691 55.4548 32.3257C55.3537 32.6682 55.3017 33.0196 55.3023 33.3705C55.3024 33.8966 55.4227 34.4218 55.666 34.9015C55.9087 35.3814 56.2735 35.8135 56.7429 36.1602L57.2097 35.5304L56.7238 36.1461L66.3445 43.7372L66.3542 43.7444C66.7475 44.0358 67.1624 44.259 67.594 44.4003C67.9172 44.5062 68.2501 44.5653 68.5843 44.5694C68.8346 44.5729 69.0856 44.5449 69.33 44.4853C69.6972 44.3959 70.0496 44.2336 70.3694 44.0078C70.6898 43.7817 70.9782 43.493 71.2314 43.1514L73.5499 40.0227C75.122 37.9015 76.9496 36.2419 78.9495 35.0485C80.4497 34.1534 82.0474 33.5199 83.7133 33.1524C86.2121 32.6013 88.8658 32.6476 91.5729 33.3281C94.2795 34.0087 97.0395 35.3252 99.7316 37.3202C102.053 39.0404 103.915 40.9547 105.305 42.984C106.348 44.506 107.124 46.0925 107.632 47.7139C108.392 50.147 108.549 52.6594 108.075 55.1732C107.599 57.6872 106.489 60.2063 104.688 62.6361C103.102 64.7757 101.336 66.3518 99.4167 67.5306C97.7376 68.5614 95.9386 69.2875 94.0383 69.8013C92.3758 70.2502 90.6361 70.5359 88.8409 70.7176C85.6984 71.0363 82.3851 71.0352 79.0221 71.0568C76.4997 71.0736 73.949 71.103 71.4179 71.2967C69.5196 71.4422 67.6319 71.6804 65.7762 72.0769C62.9929 72.6716 60.2789 73.6248 57.7251 75.158C55.1716 76.6897 52.7839 78.8012 50.6524 81.6786L45.6841 88.383L46.3142 88.8499Z" fill="#211D1D"/>
<path d="M87.793 21.0367C87.7775 21.0348 87.5521 21.0086 87.1554 20.9786C86.5344 20.9318 86.0749 21.3727 86.1288 21.9637C86.1827 22.5546 86.7299 23.0716 87.351 23.1183C87.531 23.1319 87.6687 23.1446 87.76 23.1532C87.8055 23.1577 87.8393 23.1613 87.8609 23.1635C87.8715 23.165 87.8792 23.1657 87.8836 23.1663L87.888 23.1667L87.8885 23.1667L87.8706 22.7793L87.888 23.1667L87.8885 23.1667L87.8706 22.7793L87.888 23.1667L87.8504 22.3274L87.8877 23.1665L87.888 23.1667L87.8504 22.3274L87.8877 23.1665C88.5103 23.24 88.9938 22.8225 88.9677 22.2344C88.9415 21.6462 88.4155 21.1101 87.793 21.0367Z" fill="white"/>
<path d="M83.4072 20.8622C82.0406 21.0398 80.4453 21.3171 78.7306 21.7509C77.0161 22.1849 75.1817 22.7759 73.3379 23.5842C72.7131 23.8582 72.4102 24.5852 72.6617 25.2081C72.9135 25.8307 73.624 26.1135 74.2491 25.8394C75.9435 25.0963 77.6492 24.5454 79.2526 24.1395C80.8559 23.7337 82.3571 23.4726 83.642 23.3058C84.3126 23.219 84.8036 22.6013 84.7387 21.9264C84.6741 21.2515 84.0777 20.7754 83.4072 20.8622Z" fill="white"/>
<path d="M73.1503 23.6334C72.8152 23.77 72.4796 23.9138 72.1449 24.0656C71.5457 24.3367 71.2946 25.0446 71.5838 25.6465C71.8731 26.2483 72.5936 26.5162 73.1929 26.2445C73.499 26.1061 73.8067 25.9741 74.1149 25.8488C74.7248 25.6001 75.0031 24.9033 74.7368 24.2914C74.4703 23.6799 73.7601 23.3853 73.1503 23.6334ZM68.7731 25.9029C66.7827 27.1981 64.9139 28.8475 63.3648 30.9382C62.8051 31.6936 62.2872 32.5066 61.8206 33.3791C61.5122 33.9558 61.7404 34.6836 62.3298 35.005C62.9197 35.326 63.6475 35.1189 63.956 34.5421C64.3689 33.7701 64.8257 33.0533 65.3196 32.3868C66.6862 30.543 68.3386 29.0794 70.1316 27.9122C70.6811 27.5545 70.8227 26.8146 70.4476 26.2598C70.0725 25.7049 69.3226 25.5455 68.7731 25.9029ZM61.8206 33.3791L61.8197 33.381C61.5112 33.9577 61.7391 34.6859 62.3289 35.007C62.9187 35.328 63.6467 35.1208 63.955 34.5441L63.956 34.5421C64.2645 33.9653 64.0362 33.2376 63.4468 32.9163C62.857 32.5951 62.1291 32.8023 61.8206 33.3791Z" fill="white"/>
<path d="M61.6505 33.2762C61.5552 33.4655 61.4633 33.6575 61.3743 33.8529C61.1094 34.4337 61.4391 35.1971 62.1107 35.5575C62.7823 35.918 63.5411 35.7394 63.8062 35.1585C63.8852 34.9851 63.9668 34.8151 64.0506 34.648C64.3367 34.0786 64.0314 33.3102 63.3684 32.9316C62.7058 32.5526 61.9363 32.7072 61.6505 33.2762Z" fill="white"/>
</svg>
