<svg width="422" height="123" viewBox="0 0 422 123" fill="none" xmlns="http://www.w3.org/2000/svg">
<path d="M359.131 18.8691H60.1199V37.9639H39.7988V84.3369H60.1199V103.432H359.131V84.3369H376.549V37.9639H359.131V18.8691Z" fill="#F5A623"/>
<path d="M353.787 24.4604H65.3606V40.5569H45.7588V79.6481H65.3606V95.7445H353.787V79.6481H370.588V40.5569H353.787V24.4604Z" fill="#623E17"/>
<path d="M90.7811 72.5796V46.3296H113.281V50.0796H117.031V61.3296H109.531V65.0796H113.281V68.8296H117.031V72.5796H105.781V68.8296H102.031V65.0796H98.2811V72.5796H90.7811ZM98.2811 61.3296H105.781V57.5796H109.531V50.0796H98.2811V61.3296ZM120.781 72.5796V46.3296H147.031V50.0796H128.281V57.5796H143.281V61.3296H128.281V68.8296H147.031V72.5796H120.781ZM158.281 72.5796V68.8296H154.531V65.0796H150.781V53.8296H154.531V50.0796H158.281V46.3296H177.031V50.0796H162.031V53.8296H158.281V65.0796H162.031V68.8296H169.531V61.3296H165.781V57.5796H177.031V72.5796H158.281ZM184.531 72.5796V68.8296H192.031V50.0796H184.531V46.3296H207.031V50.0796H199.531V68.8296H207.031V72.5796H184.531ZM214.531 72.5796V68.8296H210.781V65.0796H218.281V68.8296H229.531V61.3296H214.531V57.5796H210.781V50.0796H214.531V46.3296H233.281V50.0796H237.031V53.8296H229.531V50.0796H218.281V57.5796H233.281V61.3296H237.031V68.8296H233.281V72.5796H214.531ZM252.031 72.5796V50.0796H244.531V46.3296H267.031V50.0796H259.531V72.5796H252.031ZM270.781 72.5796V46.3296H297.031V50.0796H278.281V57.5796H293.281V61.3296H278.281V68.8296H297.031V72.5796H270.781ZM300.781 72.5796V46.3296H323.281V50.0796H327.031V61.3296H319.531V65.0796H323.281V68.8296H327.031V72.5796H315.781V68.8296H312.031V65.0796H308.281V72.5796H300.781ZM308.281 61.3296H315.781V57.5796H319.531V50.0796H308.281V61.3296Z" fill="#F3EDCB"/>
</svg>
