<svg width="148" height="251" viewBox="0 0 148 251" fill="none" xmlns="http://www.w3.org/2000/svg">
<g filter="url(#filter0_n_1087_4271)">
<path d="M0 4.0332C48.84 4.0332 97.68 4.0332 148 4.0332C148 41.5653 148 79.0981 148 117.768C99.16 117.768 50.32 117.768 0 117.768C0 80.2354 0 42.7027 0 4.0332Z" fill="#705A36"/>
<g clip-path="url(#clip0_1087_4271)">
<path d="M125.957 0.490234C133.231 0.490234 140.505 0.490234 148 0.490234C148 10.5204 148 20.5506 148 30.8848C146.025 30.8848 144.051 30.8848 142.017 30.8848C142.017 30.5612 142.017 30.2377 142.017 29.9043C133.184 29.9043 124.351 29.9043 115.251 29.9043C115.251 30.0661 115.251 30.2279 115.251 30.3945C107.561 30.3945 99.8712 30.3945 91.9485 30.3945C91.9485 27.159 91.9485 23.9234 91.9485 20.5898C89.9741 20.5898 87.9997 20.5898 85.9655 20.5898C85.9655 23.8254 85.9655 27.0609 85.9655 30.3945C81.6011 30.3945 77.2367 30.3945 72.74 30.3945C72.74 30.5563 72.74 30.7181 72.74 30.8848C58.6076 30.8848 44.4751 30.8848 29.9145 30.8848C29.9145 31.0465 29.9145 31.2083 29.9145 31.375C22.1208 31.375 14.3272 31.375 6.29743 31.375C6.29743 31.2132 6.29743 31.0514 6.29743 30.8848C4.32305 30.8848 2.34867 30.8848 0.314453 30.8848C0.314453 21.5017 0.314453 12.1186 0.314453 2.45117C2.08101 2.45117 3.84756 2.45117 5.66764 2.45117C5.66764 2.28939 5.66764 2.12762 5.66764 1.96094C15.5396 1.96094 25.4115 1.96094 35.5825 1.96094C35.5825 1.79916 35.5825 1.63738 35.5825 1.4707C45.5584 1.4707 55.5342 1.4707 65.8123 1.4707C65.8123 1.30893 65.8123 1.14715 65.8123 0.980469C85.6601 0.980469 105.508 0.980469 125.957 0.980469C125.957 0.818691 125.957 0.656914 125.957 0.490234Z" fill="#AD8D57"/>
<path d="M124.068 39.2188C127.913 39.2188 131.758 39.2188 135.719 39.2188C135.719 42.4543 135.719 45.6898 135.719 49.0234C137.694 49.0234 139.668 49.0234 141.702 49.0234C141.702 52.259 141.702 55.4945 141.702 58.8281C143.78 58.8281 145.859 58.8281 148 58.8281C148 62.0637 148 65.2992 148 68.6328C124.931 68.6328 101.862 68.6328 78.0936 68.6328C78.0936 68.7946 78.0936 68.9564 78.0936 69.123C54.5049 69.123 30.9162 69.123 6.61275 69.123C6.61275 65.8875 6.61275 62.652 6.61275 59.3184C10.5615 59.3184 14.5103 59.3184 18.5787 59.3184C18.5787 56.2446 18.5787 53.1708 18.5787 50.0039C17.8513 50.0039 17.1239 50.0039 16.3744 50.0039C16.3744 50.1657 16.3744 50.3275 16.3744 50.4941C13.0492 50.4941 9.72389 50.4941 6.29785 50.4941C6.29785 47.2586 6.29785 44.023 6.29785 40.6895C12.221 40.6895 18.1442 40.6895 24.2468 40.6895C24.2468 40.5277 24.2468 40.3659 24.2468 40.1992C34.3265 40.1992 44.4063 40.1992 54.7915 40.1992C54.7915 43.273 54.7915 46.3468 54.7915 49.5137C54.9993 49.5137 55.2071 49.5137 55.4213 49.5137C55.4213 49.6754 55.4213 49.8372 55.4213 50.0039C57.2917 50.0039 59.1622 50.0039 61.0893 50.0039C61.0893 46.7684 61.0893 43.5328 61.0893 40.1992C65.4538 40.1992 69.8182 40.1992 74.3149 40.1992C74.3149 40.0374 74.3149 39.8757 74.3149 39.709C90.7334 39.709 107.152 39.709 124.068 39.709C124.068 39.5472 124.068 39.3854 124.068 39.2188Z" fill="#AA8C55"/>
<path d="M78.0932 78.4375C86.822 78.4375 95.5509 78.4375 104.544 78.4375C104.544 81.673 104.544 84.9086 104.544 88.2422C106.519 88.2422 108.493 88.2422 110.527 88.2422C110.527 85.0066 110.527 81.7711 110.527 78.4375C120.815 78.4375 131.102 78.4375 141.702 78.4375C141.702 81.673 141.702 84.9086 141.702 88.2422C139.727 88.2422 137.753 88.2422 135.719 88.2422C135.719 90.6688 135.719 93.0955 135.719 95.5957C135.615 95.5957 135.511 95.5957 135.404 95.5957C135.404 96.2428 135.404 96.8899 135.404 97.5566C139.56 97.5566 143.717 97.5566 148 97.5566C148 100.954 148 104.351 148 107.852C133.867 107.852 119.735 107.852 105.174 107.852C105.174 107.69 105.174 107.528 105.174 107.361C104.862 107.361 104.551 107.361 104.229 107.361C104.229 104.207 104.229 101.052 104.229 97.8018C102.255 97.7209 100.281 97.64 98.2463 97.5566C98.2463 100.792 98.2463 104.028 98.2463 107.361C85.9844 107.361 73.7224 107.361 61.0889 107.361C61.0889 104.288 61.0889 101.214 61.0889 98.0469C60.5794 97.8486 60.2261 97.7692 59.7139 97.763C59.5647 97.7606 59.4154 97.7582 59.2617 97.7557C59.0177 97.7536 59.0177 97.7536 58.7689 97.7514C58.5968 97.749 58.4247 97.7466 58.2474 97.7441C57.6783 97.7363 57.1092 97.7303 56.5402 97.7242C56.1457 97.7192 55.7512 97.714 55.3568 97.7088C54.4245 97.6966 53.4922 97.6855 52.5599 97.6749C51.3941 97.6616 50.2284 97.6467 49.0627 97.6318C46.9835 97.6054 44.9043 97.5807 42.8251 97.5566C42.8251 94.6446 42.8251 91.7327 42.8251 88.7324C38.8763 88.7324 34.9275 88.7324 30.8591 88.7324C30.8591 90.8355 30.8591 92.9386 30.8591 95.1055C30.7552 95.1055 30.6513 95.1055 30.5442 95.1055C30.5442 95.7526 30.5442 96.3997 30.5442 97.0664C30.4403 97.0664 30.3364 97.0664 30.2293 97.0664C30.2293 97.2282 30.2293 97.39 30.2293 97.5566C32.4115 97.5566 34.5938 97.5566 36.8421 97.5566C36.8421 100.792 36.8421 104.028 36.8421 107.361C26.8663 107.361 16.8904 107.361 6.6123 107.361C6.6123 104.126 6.6123 100.89 6.6123 97.5566C10.5091 97.4758 14.4059 97.3949 18.4208 97.3115C18.4728 94.4804 18.5247 91.6493 18.5783 88.7324C16.6039 88.7324 14.6295 88.7324 12.5953 88.7324C12.5953 85.4969 12.5953 82.2613 12.5953 78.9277C34.2096 78.9277 55.8239 78.9277 78.0932 78.9277C78.0932 78.766 78.0932 78.6042 78.0932 78.4375Z" fill="#B89560"/>
<path d="M78.0934 78.4375C86.8222 78.4375 95.5511 78.4375 104.544 78.4375C104.544 81.673 104.544 84.9086 104.544 88.2422C106.519 88.2422 108.493 88.2422 110.527 88.2422C110.527 85.0066 110.527 81.7711 110.527 78.4375C120.815 78.4375 131.103 78.4375 141.702 78.4375C141.702 81.673 141.702 84.9086 141.702 88.2422C139.728 88.2422 137.753 88.2422 135.719 88.2422C135.719 90.6688 135.719 93.0955 135.719 95.5957C135.615 95.5957 135.511 95.5957 135.404 95.5957C135.404 96.2428 135.404 96.8899 135.404 97.5566C139.561 97.5566 143.717 97.5566 148 97.5566C148 100.954 148 104.351 148 107.852C133.867 107.852 119.735 107.852 105.174 107.852C105.174 107.69 105.174 107.528 105.174 107.361C104.862 107.361 104.551 107.361 104.23 107.361C104.23 104.207 104.23 101.052 104.23 97.8018C100.177 97.8018 96.1242 97.8018 91.9487 97.8018C91.9487 94.4853 91.9487 91.1689 91.9487 87.752C89.8533 87.7674 87.7579 87.7859 85.6625 87.8097C84.6895 87.8207 83.7165 87.8303 82.7435 87.8369C81.8043 87.8433 80.8651 87.8532 79.9259 87.8655C79.5678 87.8696 79.2096 87.8724 78.8515 87.8739C78.3495 87.8763 77.8475 87.8832 77.3455 87.8911C77.1239 87.8906 77.1239 87.8906 76.898 87.89C76.0146 87.9097 75.4231 88.1334 74.6295 88.7324C74.0982 88.7937 74.0982 88.7937 73.6849 88.7324C73.6329 88.6515 73.581 88.5706 73.5274 88.4873C73.4755 91.642 73.4235 94.7966 73.37 98.0469C73.2661 98.0469 73.1621 98.0469 73.0551 98.0469C73.0551 97.8851 73.0551 97.7233 73.0551 97.5566C71.1846 97.6375 69.3141 97.7184 67.387 97.8018C67.0494 96.7507 67.0337 96.2661 67.0364 95.1124C67.0363 94.9425 67.0363 94.7726 67.0362 94.5976C67.0364 94.0379 67.0389 93.4783 67.0413 92.9186C67.0419 92.5298 67.0424 92.141 67.0427 91.7522C67.0439 90.7303 67.047 89.7084 67.0505 88.6864C67.0537 87.6431 67.0551 86.5998 67.0567 85.5564C67.0601 83.5103 67.0655 81.4641 67.0721 79.418C67.176 79.418 67.2799 79.418 67.387 79.418C67.387 79.2562 67.387 79.0944 67.387 78.9277C70.9201 78.9277 74.4532 78.9277 78.0934 78.9277C78.0934 78.766 78.0934 78.6042 78.0934 78.4375Z" fill="#AB8C57"/>
<path d="M74.1386 116.648C74.4109 116.648 74.6833 116.65 74.9556 116.652C75.0987 116.653 75.2417 116.653 75.3891 116.653C75.848 116.655 76.3068 116.658 76.7656 116.661C77.0759 116.662 77.3862 116.663 77.6965 116.664C78.4588 116.667 79.2211 116.671 79.9834 116.676C79.9834 117 79.9834 117.323 79.9834 117.657C80.0874 117.657 80.1913 117.657 80.2983 117.657C80.2983 151.63 80.2983 185.603 80.2983 220.606C80.1944 220.606 80.0905 220.606 79.9834 220.606C79.9834 229.504 79.9834 238.401 79.9834 247.569C79.6685 247.079 79.6685 247.079 79.6298 246.635C79.6302 246.365 79.6302 246.365 79.6307 246.089C79.6302 245.882 79.6298 245.675 79.6294 245.462C79.6305 245.235 79.6316 245.007 79.6328 244.773C79.6328 244.534 79.6327 244.295 79.6327 244.048C79.6329 243.255 79.6353 242.462 79.6378 241.669C79.6384 241.12 79.6388 240.571 79.6391 240.022C79.6404 238.576 79.6434 237.129 79.6469 235.682C79.6501 234.207 79.6516 232.731 79.6532 231.256C79.6566 228.36 79.6621 225.463 79.6685 222.567C77.5902 222.567 75.512 222.567 73.3707 222.567C73.3707 231.95 73.3707 241.333 73.3707 251C71.3963 251 69.4219 251 67.3877 251C67.3877 232.073 67.3877 213.145 67.3877 193.643C69.3621 193.643 71.3365 193.643 73.3707 193.643C73.3707 190.569 73.3707 187.496 73.3707 184.329C73.2668 184.329 73.1628 184.329 73.0558 184.329C73.0558 184.167 73.0558 184.005 73.0558 183.838C71.1853 183.838 69.3148 183.838 67.3877 183.838C67.3877 164.91 67.3877 145.982 67.3877 126.481C69.3621 126.481 71.3365 126.481 73.3707 126.481C73.3688 125.794 73.367 125.106 73.3651 124.398C73.3639 123.736 73.363 123.073 73.362 122.41C73.3612 121.948 73.3602 121.486 73.3588 121.024C73.3569 120.362 73.356 119.699 73.3553 119.036C73.3545 118.829 73.3537 118.621 73.3528 118.407C73.3528 117.911 73.3609 117.416 73.3707 116.921C73.5281 116.676 73.5281 116.676 74.1386 116.648Z" fill="#675333"/>
<path d="M5.66764 1.96094C21.8784 1.96094 38.0891 1.96094 54.791 1.96094C54.791 5.19648 54.791 8.43203 54.791 11.7656C54.6871 11.7656 54.5832 11.7656 54.4762 11.7656C54.4762 11.6038 54.4762 11.4421 54.4762 11.2754C54.304 11.3158 54.1319 11.3563 53.9546 11.3979C53.2711 11.5422 52.6115 11.5149 51.9231 11.498C51.7214 11.4931 51.5196 11.4882 51.3118 11.4831C51.0917 11.4777 50.8715 11.4723 50.6513 11.4669C50.4261 11.4614 50.2008 11.4559 49.9756 11.4504C49.3831 11.4359 48.7906 11.4214 48.1981 11.4069C47.4871 11.3894 46.776 11.3721 46.0649 11.3547C44.985 11.3284 43.905 11.3019 42.8251 11.2754C42.8251 14.5109 42.8251 17.7465 42.8251 21.0801C39.4998 21.0801 36.1745 21.0801 32.7485 21.0801C32.7485 21.2419 32.7485 21.4036 32.7485 21.5703C24.0196 21.5703 15.2908 21.5703 6.29743 21.5703C6.29743 24.6441 6.29743 27.7179 6.29743 30.8848C4.32305 30.8848 2.34867 30.8848 0.314453 30.8848C0.314453 21.5017 0.314453 12.1186 0.314453 2.45117C2.08101 2.45117 3.84756 2.45117 5.66764 2.45117C5.66764 2.28939 5.66764 2.12762 5.66764 1.96094Z" fill="#9F844E"/>
<path d="M35.583 1.4707C45.5588 1.4707 55.5346 1.4707 65.8127 1.4707C65.8127 1.63248 65.8127 1.79426 65.8127 1.96094C66.2284 1.96094 66.6441 1.96094 67.0723 1.96094C67.0723 2.28449 67.0723 2.60805 67.0723 2.94141C67.1762 2.94141 67.2802 2.94141 67.3872 2.94141C67.3872 12.0009 67.3872 21.0605 67.3872 30.3945C55.0213 30.3945 42.6555 30.3945 29.9149 30.3945C29.9149 30.7181 29.9149 31.0416 29.9149 31.375C22.1213 31.375 14.3276 31.375 6.29785 31.375C6.29785 28.1395 6.29785 24.9039 6.29785 21.5703C15.0267 21.5703 23.7556 21.5703 32.7489 21.5703C32.7489 21.4085 32.7489 21.2468 32.7489 21.0801C36.0742 21.0801 39.3995 21.0801 42.8255 21.0801C42.8255 17.8445 42.8255 14.609 42.8255 11.2754C46.7092 11.2754 50.5929 11.2754 54.4766 11.2754C54.4766 11.4372 54.4766 11.5989 54.4766 11.7656C54.5805 11.7656 54.6844 11.7656 54.7915 11.7656C54.7915 8.53008 54.7915 5.29453 54.7915 1.96094C48.4527 1.96094 42.1139 1.96094 35.583 1.96094C35.583 1.79916 35.583 1.63738 35.583 1.4707Z" fill="#B99762"/>
<path d="M0.314453 30.8848C2.28884 30.8848 4.26322 30.8848 6.29743 30.8848C6.29743 31.0465 6.29743 31.2083 6.29743 31.375C14.091 31.375 21.8847 31.375 29.9145 31.375C29.9145 31.2132 29.9145 31.0514 29.9145 30.8848C42.3842 30.8848 54.854 30.8848 67.7017 30.8848C67.7017 31.0465 67.7017 31.2083 67.7017 31.375C67.5978 31.375 67.4939 31.375 67.3868 31.375C67.3868 34.287 67.3868 37.199 67.3868 40.1992C65.3085 40.1992 63.2302 40.1992 61.0889 40.1992C61.0889 43.4348 61.0889 46.6703 61.0889 50.0039C59.2185 50.0039 57.348 50.0039 55.4208 50.0039C55.4208 49.8421 55.4208 49.6804 55.4208 49.5137C55.213 49.5137 55.0052 49.5137 54.791 49.5137C54.791 46.4399 54.791 43.3661 54.791 40.1992C44.7113 40.1992 34.6316 40.1992 24.2464 40.1992C24.2464 40.361 24.2464 40.5228 24.2464 40.6895C16.3488 40.6895 8.4513 40.6895 0.314453 40.6895C0.314453 37.4539 0.314453 34.2184 0.314453 30.8848Z" fill="#6D5734"/>
<path d="M0.314453 40.6895C2.28884 40.6895 4.26322 40.6895 6.29743 40.6895C6.29743 43.925 6.29743 47.1605 6.29743 50.4941C9.62271 50.4941 12.948 50.4941 16.374 50.4941C16.374 50.3324 16.374 50.1706 16.374 50.0039C17.1014 50.0039 17.8288 50.0039 18.5783 50.0039C18.5783 53.0777 18.5783 56.1514 18.5783 59.3184C14.6295 59.3184 10.6808 59.3184 6.61233 59.3184C6.61856 62.523 6.61856 62.523 6.62651 65.7277C6.62697 66.1286 6.62737 66.5295 6.6277 66.9304C6.62851 67.1396 6.62931 67.3488 6.63014 67.5643C6.63029 69.0671 6.63029 69.0671 6.45488 69.6133C6.43015 70.3099 6.41418 71.0015 6.40506 71.6987C6.40179 71.9047 6.39852 72.1108 6.39515 72.3231C6.38484 72.9824 6.37557 73.6418 6.36632 74.3011C6.35952 74.7477 6.35265 75.1942 6.34571 75.6407C6.32884 76.7363 6.31289 77.832 6.29743 78.9277C6.40135 78.9277 6.50526 78.9277 6.61233 78.9277C6.61233 82.1633 6.61233 85.3988 6.61233 88.7324C8.48279 88.7324 10.3533 88.7324 12.2804 88.7324C12.2804 85.4969 12.2804 82.2613 12.2804 78.9277C12.3843 78.9277 12.4882 78.9277 12.5953 78.9277C12.5953 82.1633 12.5953 85.3988 12.5953 88.7324C14.5697 88.7324 16.5441 88.7324 18.5783 88.7324C18.5815 90.1429 18.5848 91.5534 18.5881 93.0067C18.5896 93.4523 18.591 93.898 18.5925 94.3571C18.5929 94.7084 18.5933 95.0597 18.5937 95.4109C18.5945 95.5949 18.5953 95.7789 18.5961 95.9684C18.5962 96.4162 18.5881 96.864 18.5783 97.3115C18.3167 97.7188 18.0012 97.586 17.6519 97.5871C17.542 97.5863 17.4322 97.5854 17.319 97.5845C17.1462 97.5845 17.1462 97.5845 16.9699 97.5846C16.5874 97.5844 16.2049 97.5825 15.8224 97.5806C15.5578 97.5801 15.2933 97.5798 15.0288 97.5795C14.3312 97.5786 13.6336 97.5762 12.9361 97.5735C12.0998 97.5705 11.2635 97.5694 10.4273 97.568C9.15563 97.5656 7.88398 97.5609 6.61233 97.5566C6.61233 100.792 6.61233 104.028 6.61233 107.361C4.63794 107.361 2.66356 107.361 0.629347 107.361C0.629347 97.8165 0.629347 88.2716 0.629347 78.4375C0.525432 78.4375 0.421517 78.4375 0.314453 78.4375C0.314453 65.9806 0.314453 53.5238 0.314453 40.6895Z" fill="#897143"/>
<path d="M73.3707 175.014C75.449 175.014 77.5273 175.014 79.6685 175.014C79.6685 184.397 79.6685 193.78 79.6685 203.447C77.6942 203.447 75.7198 203.447 73.6856 203.447C73.6856 203.609 73.6856 203.771 73.6856 203.938C73.5817 203.938 73.4777 203.938 73.3707 203.938C73.3707 219.468 73.3707 234.999 73.3707 251C71.3963 251 69.4219 251 67.3877 251C67.3877 232.072 67.3877 213.144 67.3877 193.643C69.3621 193.643 71.3365 193.643 73.3707 193.643C73.3707 187.495 73.3707 181.347 73.3707 175.014Z" fill="#40331E"/>
<path d="M35.5828 1.96094C41.9216 1.96094 48.2604 1.96094 54.7913 1.96094C54.7913 5.19648 54.7913 8.43203 54.7913 11.7656C54.6874 11.7656 54.5835 11.7656 54.4764 11.7656C54.4764 11.6038 54.4764 11.4421 54.4764 11.2754C54.3043 11.3158 54.1322 11.3563 53.9549 11.3979C53.2713 11.5422 52.6118 11.5149 51.9233 11.498C51.7216 11.4931 51.5199 11.4882 51.3121 11.4831C51.0919 11.4777 50.8717 11.4723 50.6516 11.4669C50.4263 11.4614 50.2011 11.4559 49.9758 11.4504C49.3834 11.4359 48.7909 11.4214 48.1984 11.4069C47.4873 11.3894 46.7762 11.3721 46.0652 11.3547C44.9852 11.3284 43.9053 11.3019 42.8254 11.2754C42.8254 14.5109 42.8254 17.7465 42.8254 21.0801C39.5001 21.0801 36.1748 21.0801 32.7488 21.0801C32.7488 21.2419 32.7488 21.4036 32.7488 21.5703C32.0214 21.5703 31.2939 21.5703 30.5445 21.5703C30.5445 18.3348 30.5445 15.0992 30.5445 11.7656C28.5701 11.7656 26.5957 11.7656 24.5615 11.7656C24.5615 8.69186 24.5615 5.61809 24.5615 2.45117C28.1985 2.45117 31.8356 2.45117 35.5828 2.45117C35.5828 2.28939 35.5828 2.12762 35.5828 1.96094Z" fill="#887143"/>
<path d="M0.629883 107.361C14.5545 107.361 28.4791 107.361 42.8256 107.361C42.8256 110.435 42.8256 113.509 42.8256 116.676C28.901 116.676 14.9764 116.676 0.629883 116.676C0.629883 113.602 0.629883 110.528 0.629883 107.361Z" fill="#6C5634"/>
<path d="M95.7276 0.980469C96.5589 0.980469 97.3902 0.980469 98.2467 0.980469C98.2467 4.21602 98.2467 7.45156 98.2467 10.7852C94.0901 10.7852 89.9335 10.7852 85.651 10.7852C85.651 14.0207 85.651 17.2563 85.651 20.5898C81.5983 20.5898 77.5456 20.5898 73.3701 20.5898C73.3701 14.2805 73.3701 7.97121 73.3701 1.4707C80.7481 1.4707 88.126 1.4707 95.7276 1.4707C95.7276 1.30893 95.7276 1.14715 95.7276 0.980469Z" fill="#897142"/>
<path d="M30.8593 88.7324C34.808 88.7324 38.7568 88.7324 42.8252 88.7324C42.8252 91.6444 42.8252 94.5564 42.8252 97.5566C43.63 97.5528 43.63 97.5528 44.4509 97.5489C46.2206 97.5407 47.9903 97.5353 49.7599 97.5312C50.8332 97.5287 51.9065 97.5253 52.9797 97.5197C54.0149 97.5143 55.0501 97.5114 56.0852 97.5101C56.4808 97.5092 56.8763 97.5074 57.2719 97.5048C57.8246 97.5013 58.3772 97.5008 58.9299 97.501C59.0946 97.4992 59.2592 97.4975 59.4289 97.4956C59.5792 97.4963 59.7296 97.497 59.8845 97.4977C60.0153 97.4972 60.146 97.4968 60.2807 97.4963C60.6167 97.5566 60.6167 97.5566 61.0891 98.0469C61.0891 101.121 61.0891 104.194 61.0891 107.361C53.0876 107.361 45.0862 107.361 36.8423 107.361C36.8423 104.126 36.8423 100.89 36.8423 97.5566C34.66 97.5566 32.4778 97.5566 30.2295 97.5566C30.2295 97.3949 30.2295 97.2331 30.2295 97.0664C30.3334 97.0664 30.4373 97.0664 30.5444 97.0664C30.5444 96.4193 30.5444 95.7722 30.5444 95.1055C30.6483 95.1055 30.7522 95.1055 30.8593 95.1055C30.8593 93.0024 30.8593 90.8993 30.8593 88.7324Z" fill="#9F834E"/>
<path d="M65.8129 0.980469C75.6848 0.980469 85.5567 0.980469 95.7278 0.980469C95.7278 1.14225 95.7278 1.30402 95.7278 1.4707C88.3498 1.4707 80.9719 1.4707 73.3704 1.4707C73.3704 7.78002 73.3704 14.0893 73.3704 20.5898C77.527 20.5898 81.6836 20.5898 85.9661 20.5898C85.9661 23.8254 85.9661 27.0609 85.9661 30.3945C81.6017 30.3945 77.2373 30.3945 72.7406 30.3945C72.7406 30.5563 72.7406 30.7181 72.7406 30.8848C58.6081 30.8848 44.4757 30.8848 29.915 30.8848C29.915 30.723 29.915 30.5612 29.915 30.3945C42.2809 30.3945 54.6468 30.3945 67.3874 30.3945C67.3874 21.335 67.3874 12.2755 67.3874 2.94141C67.2835 2.94141 67.1796 2.94141 67.0725 2.94141C67.0725 2.61785 67.0725 2.2943 67.0725 1.96094C66.6568 1.96094 66.2412 1.96094 65.8129 1.96094C65.8129 1.63738 65.8129 1.31383 65.8129 0.980469Z" fill="#A18752"/>
<path d="M125.958 0.490234C127.101 0.490234 128.244 0.490234 129.422 0.490234C129.422 3.88756 129.422 7.28488 129.422 10.7852C119.134 10.7852 108.846 10.7852 98.2471 10.7852C98.2471 7.54961 98.2471 4.31406 98.2471 0.980469C107.392 0.980469 116.536 0.980469 125.958 0.980469C125.958 0.818691 125.958 0.656914 125.958 0.490234Z" fill="#B6935D"/>
<path d="M24.719 40.1992C34.6428 40.1992 44.5667 40.1992 54.7913 40.1992C54.7913 43.4348 54.7913 46.6703 54.7913 50.0039C44.8155 50.0039 34.8397 50.0039 24.5615 50.0039C24.5615 40.6895 24.5615 40.6895 24.719 40.1992Z" fill="#BC9862"/>
<path d="M0.629883 78.9277C2.60427 78.9277 4.57865 78.9277 6.61286 78.9277C6.61286 82.1633 6.61286 85.3988 6.61286 88.7324C8.48333 88.7324 10.3538 88.7324 12.2809 88.7324C12.2809 85.4969 12.2809 82.2613 12.2809 78.9277C12.3849 78.9277 12.4888 78.9277 12.5958 78.9277C12.5958 82.1633 12.5958 85.3988 12.5958 88.7324C14.5702 88.7324 16.5446 88.7324 18.5788 88.7324C18.5821 90.1429 18.5853 91.5534 18.5887 93.0067C18.5901 93.4523 18.5915 93.898 18.593 94.3571C18.5935 94.7084 18.5939 95.0596 18.5942 95.4109C18.595 95.5949 18.5958 95.7789 18.5966 95.9684C18.5967 96.4162 18.5886 96.864 18.5788 97.3115C18.3172 97.7188 18.0018 97.586 17.6524 97.5871C17.5425 97.5863 17.4327 97.5854 17.3195 97.5845C17.1467 97.5845 17.1467 97.5845 16.9704 97.5846C16.5879 97.5844 16.2054 97.5825 15.8229 97.5806C15.5584 97.5801 15.2938 97.5798 15.0293 97.5795C14.3317 97.5786 13.6342 97.5762 12.9366 97.5735C12.1003 97.5705 11.2641 97.5694 10.4278 97.568C9.15616 97.5656 7.88452 97.5609 6.61286 97.5566C6.61286 100.792 6.61286 104.028 6.61286 107.361C4.63848 107.361 2.6641 107.361 0.629883 107.361C0.629883 97.9782 0.629883 88.5952 0.629883 78.9277Z" fill="#9F834E"/>
<path d="M5.66764 1.96094C15.5396 1.96094 25.4115 1.96094 35.5825 1.96094C35.5825 2.12271 35.5825 2.28449 35.5825 2.45117C31.8416 2.45117 28.1007 2.45117 24.2464 2.45117C24.2464 5.52494 24.2464 8.59871 24.2464 11.7656C23.2245 11.7748 23.2245 11.7748 22.1821 11.7842C19.9373 11.8047 17.6925 11.8264 15.4478 11.8488C14.0861 11.8624 12.7244 11.8755 11.3628 11.8875C10.1763 11.898 8.98994 11.9094 7.80354 11.9217C7.17496 11.9283 6.54637 11.9344 5.91779 11.9394C5.32682 11.9442 4.73586 11.9501 4.1449 11.9569C3.92738 11.9592 3.70986 11.9611 3.49234 11.9626C3.19661 11.9646 2.90088 11.9682 2.60516 11.972C2.35633 11.9743 2.35633 11.9743 2.10247 11.9768C1.73823 11.946 1.73823 11.946 1.57403 12.2559C1.15837 12.2559 0.742708 12.2559 0.314453 12.2559C0.314453 9.02031 0.314453 5.78477 0.314453 2.45117C2.08101 2.45117 3.84756 2.45117 5.66764 2.45117C5.66764 2.28939 5.66764 2.12762 5.66764 1.96094Z" fill="#B59460"/>
<path d="M123.775 58.8008C123.994 58.8008 124.213 58.8022 124.432 58.8047C124.548 58.805 124.663 58.8054 124.781 58.8057C125.15 58.8071 125.519 58.8102 125.888 58.8133C126.138 58.8145 126.387 58.8156 126.637 58.8166C127.25 58.8193 127.863 58.8236 128.476 58.8286C128.476 58.9904 128.476 59.1522 128.476 59.3188C134.919 59.3188 141.362 59.3188 148 59.3188C148 62.3926 148 65.4664 148 68.6333C139.79 68.6333 131.581 68.6333 123.123 68.6333C123.123 58.8375 123.123 58.8375 123.775 58.8008Z" fill="#B5925C"/>
<path d="M141.702 29.9043C141.806 29.9043 141.91 29.9043 142.017 29.9043C142.017 30.2279 142.017 30.5514 142.017 30.8848C143.991 30.8848 145.965 30.8848 148 30.8848C148 40.1061 148 49.3274 148 58.8281C145.921 58.8281 143.843 58.8281 141.702 58.8281C141.702 55.5926 141.702 52.357 141.702 49.0234C139.727 49.0234 137.753 49.0234 135.719 49.0234C135.719 45.9497 135.719 42.8759 135.719 39.709C137.485 39.709 139.252 39.709 141.072 39.709C141.072 39.5472 141.072 39.3854 141.072 39.2188C141.28 39.2188 141.488 39.2188 141.702 39.2188C141.702 36.145 141.702 33.0712 141.702 29.9043Z" fill="#897042"/>
<path d="M141.702 78.4375C143.729 78.4375 145.755 78.4375 147.843 78.4375C148.076 79.163 148.021 79.8984 148.018 80.6935C148.018 80.8782 148.018 81.0629 148.018 81.2532C148.018 81.8524 148.017 82.4515 148.015 83.0507C148.015 83.4201 148.015 83.7895 148.015 84.1589C148.014 85.5302 148.012 86.9015 148.01 88.2728C148.007 91.3365 148.003 94.4001 148 97.5566C143.843 97.5566 139.687 97.5566 135.404 97.5566C135.404 96.9095 135.404 96.2624 135.404 95.5957C135.508 95.5957 135.612 95.5957 135.719 95.5957C135.719 93.169 135.719 90.7424 135.719 88.2422C137.694 88.2422 139.668 88.2422 141.702 88.2422C141.702 85.0066 141.702 81.7711 141.702 78.4375Z" fill="#897143"/>
<path d="M73.3701 175.014C75.4484 175.014 77.5267 175.014 79.668 175.014C79.668 184.316 79.668 193.618 79.668 203.202C77.6936 203.121 75.7192 203.04 73.685 202.957C73.685 200.692 73.685 198.427 73.685 196.094C73.5811 196.094 73.4772 196.094 73.3701 196.094C73.3701 189.137 73.3701 182.181 73.3701 175.014Z" fill="#40321D"/>
<path d="M67.3877 126.971C69.3621 126.971 71.3365 126.971 73.3707 126.971C73.3707 136.354 73.3707 145.737 73.3707 155.404C71.3963 155.404 69.4219 155.404 67.3877 155.404C67.3877 146.021 67.3877 136.638 67.3877 126.971Z" fill="#3F321E"/>
<path d="M0.629883 116.676C22.6598 116.676 44.6898 116.676 67.3873 116.676C67.3873 138.839 67.3873 161.003 67.3873 183.838C69.2578 183.838 71.1283 183.838 73.0554 183.838C73.0554 184 73.0554 184.161 73.0554 184.328C73.1593 184.328 73.2632 184.328 73.3703 184.328C73.3703 187.402 73.3703 190.476 73.3703 193.643C71.3959 193.643 69.4215 193.643 67.3873 193.643C67.3873 212.571 67.3873 231.498 67.3873 251C67.2834 251 67.1795 251 67.0724 251C67.0724 206.835 67.0724 162.67 67.0724 117.166C45.1464 117.166 23.2203 117.166 0.629883 117.166C0.629883 117.004 0.629883 116.842 0.629883 116.676Z" fill="#978E7E"/>
<path d="M135.404 97.5566C139.561 97.5566 143.717 97.5566 148 97.5566C148 100.954 148 104.351 148 107.852C143.843 107.852 139.687 107.852 135.404 107.852C135.404 107.69 135.404 107.528 135.404 107.361C135.508 107.361 135.612 107.361 135.719 107.361C135.719 106.876 135.719 106.391 135.719 105.891C135.615 105.891 135.511 105.891 135.404 105.891C135.404 103.14 135.404 100.39 135.404 97.5566Z" fill="#9E834D"/>
<path d="M104.86 97.5566C105.068 97.5566 105.275 97.5566 105.49 97.5566C105.49 97.7184 105.49 97.8802 105.49 98.0469C105.594 98.0469 105.697 98.0469 105.804 98.0469C105.804 97.8851 105.804 97.7233 105.804 97.5566C109.234 97.5566 112.663 97.5566 116.196 97.5566C116.196 97.7184 116.196 97.8802 116.196 98.0469C116.404 98.0469 116.612 98.0469 116.826 98.0469C116.83 99.1595 116.833 100.272 116.834 101.385C116.835 101.763 116.836 102.142 116.838 102.521C116.84 103.064 116.84 103.608 116.841 104.151C116.842 104.321 116.843 104.491 116.844 104.667C116.844 105.075 116.836 105.483 116.826 105.891C116.774 105.972 116.722 106.052 116.668 106.136C116.616 106.702 116.564 107.268 116.511 107.852C112.77 107.852 109.029 107.852 105.175 107.852C105.175 107.69 105.175 107.528 105.175 107.361C104.967 107.361 104.759 107.361 104.545 107.361C104.545 104.288 104.545 101.214 104.545 98.0469C104.649 98.0469 104.753 98.0469 104.86 98.0469C104.86 97.8851 104.86 97.7233 104.86 97.5566Z" fill="#BA9862"/>
<path d="M124.068 39.709C127.809 39.709 131.55 39.709 135.404 39.709C135.404 42.9445 135.404 46.1801 135.404 49.5137C131.455 49.5137 127.506 49.5137 123.438 49.5137C123.438 49.3519 123.438 49.1901 123.438 49.0234C123.334 49.0234 123.23 49.0234 123.123 49.0234C123.123 46.1114 123.123 43.1995 123.123 40.1992C123.435 40.1992 123.747 40.1992 124.068 40.1992C124.068 40.0374 124.068 39.8757 124.068 39.709Z" fill="#BB9963"/>
<path d="M6.29785 40.6895C10.3505 40.6895 14.4032 40.6895 18.5787 40.6895C18.5787 43.6014 18.5787 46.5134 18.5787 49.5137C18.2638 50.0039 18.2638 50.0039 17.8198 50.0518C17.6481 50.0461 17.4764 50.0404 17.2994 50.0345C17.1269 50.0301 16.9544 50.0257 16.7767 50.0211C16.6439 50.0155 16.5112 50.0098 16.3744 50.0039C16.3744 50.1657 16.3744 50.3275 16.3744 50.4941C13.0492 50.4941 9.72389 50.4941 6.29785 50.4941C6.29785 47.2586 6.29785 44.023 6.29785 40.6895Z" fill="#BA9863"/>
<path d="M85.9663 11.2754C90.0189 11.2754 94.0716 11.2754 98.2471 11.2754C98.2471 14.3492 98.2471 17.4229 98.2471 20.5898C95.8264 20.6818 95.8264 20.6818 95.0629 20.707C94.7668 20.7201 94.7668 20.7201 94.4647 20.7335C94.2619 20.7412 94.059 20.7489 93.8501 20.7568C93.3498 20.7576 93.3498 20.7576 93.0514 21.3252C93.1033 21.4061 93.1553 21.487 93.2088 21.5703C93.2152 22.0604 93.2155 22.5509 93.2088 23.041C92.7932 23.1219 92.3775 23.2028 91.9492 23.2861C91.9492 22.3964 91.9492 21.5066 91.9492 20.5898C89.8709 20.5898 87.7926 20.5898 85.6514 20.5898C85.6514 20.4281 85.6514 20.2663 85.6514 20.0996C85.7553 20.0996 85.8592 20.0996 85.9663 20.0996C85.9663 17.1876 85.9663 14.2756 85.9663 11.2754Z" fill="#B3905B"/>
<path d="M42.8252 1.96094C46.774 1.96094 50.7227 1.96094 54.7912 1.96094C54.7912 5.19648 54.7912 8.43203 54.7912 11.7656C54.6872 11.7656 54.5833 11.7656 54.4763 11.7656C54.4763 11.6038 54.4763 11.4421 54.4763 11.2754C54.2181 11.3361 54.2181 11.3361 53.9547 11.3979C53.2712 11.5422 52.6116 11.5149 51.9232 11.498C51.7215 11.4931 51.5198 11.4882 51.3119 11.4831C51.0918 11.4777 50.8716 11.4723 50.6514 11.4669C50.4262 11.4614 50.2009 11.4559 49.9757 11.4504C49.3832 11.4359 48.7907 11.4214 48.1982 11.4069C47.4872 11.3894 46.7761 11.3721 46.065 11.3547C44.9851 11.3284 43.9051 11.3019 42.8252 11.2754C42.8252 8.20162 42.8252 5.12785 42.8252 1.96094Z" fill="#9F844E"/>
<path d="M6.6123 59.8088C9.55299 59.799 9.55299 59.799 10.8022 59.7968C11.656 59.7954 12.5099 59.7936 13.3638 59.7903C14.0519 59.7877 14.7399 59.7862 15.428 59.7856C15.6911 59.7851 15.9542 59.7842 16.2173 59.7829C16.5845 59.7811 16.9517 59.7809 17.319 59.781C17.4288 59.7801 17.5387 59.7792 17.6518 59.7783C18.4029 59.7809 18.4029 59.7809 18.5783 60.0539C18.5783 63.0468 18.5783 66.0397 18.5783 69.1233C14.6295 69.1233 10.6807 69.1233 6.6123 69.1233C6.6123 66.0495 6.6123 62.9757 6.6123 59.8088Z" fill="#B2915C"/>
<path d="M30.8593 88.7324C34.808 88.7324 38.7568 88.7324 42.8252 88.7324C42.8252 91.6444 42.8252 94.5564 42.8252 97.5566C38.6686 97.5566 34.512 97.5566 30.2295 97.5566C30.2295 97.3949 30.2295 97.2331 30.2295 97.0664C30.3334 97.0664 30.4373 97.0664 30.5444 97.0664C30.5444 96.4193 30.5444 95.7722 30.5444 95.1055C30.6483 95.1055 30.7522 95.1055 30.8593 95.1055C30.8593 93.0024 30.8593 90.8993 30.8593 88.7324Z" fill="#9F834D"/>
<path d="M73.6855 117.166C75.7638 117.166 77.8421 117.166 79.9834 117.166C79.9834 117.328 79.9834 117.49 79.9834 117.656C80.0873 117.656 80.1912 117.656 80.2983 117.656C80.2983 126.878 80.2983 136.099 80.2983 145.6C80.0905 145.6 79.8827 145.6 79.6685 145.6C79.6685 139.29 79.6685 132.981 79.6685 126.48C77.6941 126.48 75.7198 126.48 73.6855 126.48C73.6855 123.407 73.6855 120.333 73.6855 117.166Z" fill="#42341F"/>
<path d="M135.719 9.80469C137.694 9.80469 139.668 9.80469 141.702 9.80469C141.702 13.202 141.702 16.5993 141.702 20.0996C139.624 20.0996 137.546 20.0996 135.404 20.0996C135.404 16.8641 135.404 13.6285 135.404 10.2949C135.508 10.2949 135.612 10.2949 135.719 10.2949C135.719 10.1331 135.719 9.97137 135.719 9.80469Z" fill="#735D35"/>
<path d="M91.9492 49.5137C94.0275 49.5137 96.1058 49.5137 98.2471 49.5137C98.2471 52.7492 98.2471 55.9848 98.2471 59.3184C96.1688 59.3184 94.0905 59.3184 91.9492 59.3184C91.9492 56.0828 91.9492 52.8473 91.9492 49.5137Z" fill="#765E37"/>
<path d="M36.5279 11.2754C38.6062 11.2754 40.6845 11.2754 42.8258 11.2754C42.8258 14.5109 42.8258 17.7465 42.8258 21.0801C41.8451 21.0902 40.8644 21.1003 39.854 21.1107C39.3898 21.1174 39.3898 21.1174 38.9162 21.1242C38.6716 21.1257 38.427 21.1269 38.1824 21.128C38.0548 21.1305 37.9272 21.133 37.7958 21.1356C37.4779 21.1357 37.1601 21.1103 36.8428 21.0801C36.5279 20.5898 36.5279 20.5898 36.4922 19.6792C36.4923 19.2876 36.494 18.896 36.4972 18.5044C36.4975 18.3218 36.4978 18.1392 36.4981 17.9511C36.4998 17.268 36.5042 16.585 36.5083 15.902C36.5147 14.3752 36.5212 12.8484 36.5279 11.2754Z" fill="#755E37"/>
<path d="M73.3701 222.566C75.4484 222.566 77.5267 222.566 79.668 222.566C79.668 225.721 79.668 228.876 79.668 232.126C79.1684 232.515 78.6307 232.401 78.0825 232.395C77.8944 232.395 77.8944 232.395 77.7026 232.394C77.3015 232.393 76.9004 232.39 76.4994 232.386C76.2277 232.385 75.9561 232.384 75.6845 232.383C75.018 232.38 74.3515 232.376 73.685 232.371C73.685 232.209 73.685 232.048 73.685 231.881C73.5811 231.881 73.4772 231.881 73.3701 231.881C73.3701 228.807 73.3701 225.733 73.3701 222.566Z" fill="#97794C"/>
<path d="M54.791 40.1992C56.8693 40.1992 58.9476 40.1992 61.0889 40.1992C61.0889 43.4348 61.0889 46.6703 61.0889 50.0039C59.2184 50.0039 57.348 50.0039 55.4208 50.0039C55.4208 49.8421 55.4208 49.6804 55.4208 49.5137C55.213 49.5137 55.0051 49.5137 54.791 49.5137C54.791 46.4399 54.791 43.3661 54.791 40.1992Z" fill="#755D37"/>
<path d="M129.875 88.2148C130.147 88.2149 130.419 88.2163 130.692 88.2187C130.835 88.2191 130.978 88.2194 131.125 88.2198C131.584 88.2212 132.043 88.2242 132.502 88.2274C132.812 88.2286 133.122 88.2297 133.432 88.2307C134.195 88.2332 134.957 88.238 135.719 88.2427C135.719 90.6693 135.719 93.096 135.719 95.5962C135.616 95.5962 135.512 95.5962 135.405 95.5962C135.405 96.2433 135.405 96.8904 135.405 97.5571C133.326 97.5571 131.248 97.5571 129.107 97.5571C129.103 96.0657 129.1 94.5744 129.097 93.0378C129.095 92.5665 129.094 92.0953 129.092 91.6097C129.092 91.2384 129.092 90.867 129.091 90.4956C129.091 90.3011 129.09 90.1065 129.089 89.906C129.089 89.4332 129.097 88.9604 129.107 88.4878C129.264 88.2427 129.264 88.2427 129.875 88.2148Z" fill="#9E834D"/>
<path d="M61.0898 40.1992C63.0642 40.1992 65.0386 40.1992 67.0728 40.1992C67.0728 43.4348 67.0728 46.6703 67.0728 50.0039C66.5716 50.394 66.0358 50.2491 65.4873 50.2193C65.3762 50.2143 65.2651 50.2092 65.1506 50.204C64.7351 50.1847 64.3197 50.1631 63.9042 50.1418C62.5111 50.0735 62.5111 50.0735 61.0898 50.0039C61.0898 46.7684 61.0898 43.5328 61.0898 40.1992Z" fill="#9D844D"/>
<path d="M67.3877 183.838C69.2582 183.838 71.1286 183.838 73.0558 183.838C73.0558 184 73.0558 184.161 73.0558 184.328C73.1597 184.328 73.2636 184.328 73.3707 184.328C73.3707 187.402 73.3707 190.476 73.3707 193.643C71.3963 193.643 69.4219 193.643 67.3877 193.643C67.3877 190.407 67.3877 187.171 67.3877 183.838Z" fill="#98794D"/>
<path d="M67.7026 116.676C69.5731 116.676 71.4435 116.676 73.3707 116.676C73.3707 119.911 73.3707 123.147 73.3707 126.48C71.3963 126.48 69.4219 126.48 67.3877 126.48C67.3877 123.407 67.3877 120.333 67.3877 117.166C67.4916 117.166 67.5955 117.166 67.7026 117.166C67.7026 117.004 67.7026 116.842 67.7026 116.676Z" fill="#937446"/>
<path d="M135.719 88.2422C137.694 88.2422 139.668 88.2422 141.702 88.2422C141.702 91.316 141.702 94.3897 141.702 97.5566C139.624 97.5566 137.546 97.5566 135.404 97.5566C135.404 96.9095 135.404 96.2624 135.404 95.5957C135.508 95.5957 135.612 95.5957 135.719 95.5957C135.719 93.169 135.719 90.7424 135.719 88.2422Z" fill="#735D38"/>
<path d="M67.3877 193.643C69.3621 193.643 71.3365 193.643 73.3707 193.643C73.3707 196.716 73.3707 199.79 73.3707 202.957C71.3963 202.957 69.4219 202.957 67.3877 202.957C67.3877 199.883 67.3877 196.809 67.3877 193.643Z" fill="#695434"/>
<path d="M0.629883 97.5566C2.50035 97.5566 4.37082 97.5566 6.29797 97.5566C6.29797 100.792 6.29797 104.028 6.29797 107.361C4.4275 107.361 2.55703 107.361 0.629883 107.361C0.629883 104.126 0.629883 100.89 0.629883 97.5566Z" fill="#8A7042"/>
<path d="M55.4213 78.9277C57.2918 78.9277 59.1623 78.9277 61.0894 78.9277C61.0894 81.3544 61.0894 83.7811 61.0894 86.2812C60.9855 86.2812 60.8816 86.2812 60.7745 86.2812C60.7745 86.9284 60.7745 87.5755 60.7745 88.2422C58.9041 88.2422 57.0336 88.2422 55.1064 88.2422C55.1064 85.3302 55.1064 82.4182 55.1064 79.418C55.2104 79.418 55.3143 79.418 55.4213 79.418C55.4213 79.2562 55.4213 79.0944 55.4213 78.9277Z" fill="#9F844D"/>
<path d="M80.2979 116.676C89.0267 116.676 97.7556 116.676 106.749 116.676C106.749 116.838 106.749 116.999 106.749 117.166C98.124 117.166 89.499 117.166 80.6127 117.166C80.6127 160.684 80.6127 204.202 80.6127 249.039C80.5088 249.039 80.4049 249.039 80.2979 249.039C80.2979 205.359 80.2979 161.679 80.2979 116.676Z" fill="#998D7A"/>
<path d="M0.629883 78.9277C2.50035 78.9277 4.37082 78.9277 6.29797 78.9277C6.29797 82.0015 6.29797 85.0753 6.29797 88.2422C5.87934 88.5681 5.56492 88.5108 5.09682 88.5026C4.92096 88.5007 4.74509 88.4988 4.5639 88.4969C4.28732 88.4921 4.28732 88.4921 4.00515 88.4873C3.64086 88.4811 3.27655 88.4759 2.91225 88.472C2.75017 88.4691 2.5881 88.4663 2.42111 88.4634C2.05396 88.421 2.05396 88.421 1.88946 88.7324C1.50568 88.7784 1.50568 88.7784 1.10222 88.7324C0.998308 88.5706 0.894393 88.4089 0.78733 88.2422C0.735372 88.404 0.683415 88.5657 0.629883 88.7324C0.629883 85.4969 0.629883 82.2613 0.629883 78.9277Z" fill="#B2915A"/>
<path d="M0.629643 21.5703C2.3962 21.5703 4.16275 21.5703 5.98283 21.5703C5.98283 23.8352 5.98283 26.1001 5.98283 28.4336C6.08675 28.4336 6.19066 28.4336 6.29773 28.4336C6.29773 29.2425 6.29773 30.0514 6.29773 30.8848C4.32335 30.8848 2.34896 30.8848 0.314749 30.8848C0.311502 29.7169 0.308255 28.5491 0.304909 27.3459C0.303475 26.977 0.302042 26.6081 0.300565 26.2281C0.300172 25.9401 0.299779 25.652 0.299374 25.3553C0.298549 25.0587 0.297725 24.7622 0.296875 24.4567C0.314749 23.7764 0.314749 23.7764 0.472196 23.5312C0.524153 22.8841 0.576111 22.237 0.629643 21.5703Z" fill="#887144"/>
<path d="M36.8428 88.7324C38.8172 88.7324 40.7915 88.7324 42.8258 88.7324C42.8258 91.6444 42.8258 94.5564 42.8258 97.5566C40.8514 97.5566 38.877 97.5566 36.8428 97.5566C36.8428 94.6446 36.8428 91.7327 36.8428 88.7324Z" fill="#755D37"/>
<path d="M98.1159 -0.0300531C98.3447 -0.0299135 98.3447 -0.0299135 98.5781 -0.0297711C98.841 -0.0305032 98.841 -0.0305032 99.1092 -0.03125C99.3042 -0.030536 99.4992 -0.029822 99.7 -0.0290864C99.9053 -0.0292958 100.111 -0.0295053 100.322 -0.0297211C100.894 -0.0302719 101.467 -0.0292848 102.039 -0.0280596C102.655 -0.0270054 103.271 -0.027359 103.887 -0.0275454C104.956 -0.0276742 106.024 -0.0269023 107.093 -0.0255262C108.637 -0.0235378 110.182 -0.0228961 111.727 -0.0225877C114.233 -0.0220507 116.739 -0.0204179 119.245 -0.0181015C121.68 -0.015853 124.115 -0.0141173 126.55 -0.0130746C126.7 -0.0130102 126.85 -0.0129458 127.004 -0.0128795C127.757 -0.0125596 128.509 -0.0122499 129.262 -0.0119451C135.508 -0.00940225 141.754 -0.00508338 148 0.000390045C148 0.162167 148 0.323945 148 0.490624C140.726 0.490624 133.452 0.490624 125.957 0.490624C125.957 0.652402 125.957 0.814179 125.957 0.980859C115.981 0.980859 106.006 0.980859 95.7275 0.980859C95.7275 0.819081 95.7275 0.657304 95.7275 0.490624C95.8621 0.475774 95.9967 0.460923 96.1353 0.445622C96.3962 0.414815 96.3962 0.414815 96.6624 0.383386C96.8359 0.363479 97.0094 0.343573 97.1882 0.323064C97.6323 0.242724 97.6947 0.00748428 98.1159 -0.0300531Z" fill="#F5E9D8"/>
<path d="M85.6512 20.5898C85.7551 20.5898 85.859 20.5898 85.9661 20.5898C85.9661 23.8254 85.9661 27.0609 85.9661 30.3945C81.6017 30.3945 77.2373 30.3945 72.7406 30.3945C72.7406 30.5563 72.7406 30.7181 72.7406 30.8848C58.6081 30.8848 44.4757 30.8848 29.915 30.8848C29.915 30.723 29.915 30.5612 29.915 30.3945C43.9436 30.3945 57.9721 30.3945 72.4257 30.3945C72.4257 30.2328 72.4257 30.071 72.4257 29.9043C76.7901 29.9043 81.1545 29.9043 85.6512 29.9043C85.6512 26.8305 85.6512 23.7568 85.6512 20.5898Z" fill="#9A7D53"/>
<path d="M85.8081 115.695C92.4067 115.695 99.0052 115.695 105.804 115.695C105.804 116.019 105.804 116.342 105.804 116.676C99.1013 116.676 92.3988 116.676 85.4932 116.676C85.5971 116.352 85.701 116.029 85.8081 115.695Z" fill="#65553D"/>
<path d="M24.7188 40.1992C34.6426 40.1992 44.5665 40.1992 54.7911 40.1992C54.7911 40.5228 54.7911 40.8463 54.7911 41.1797C54.6872 41.1797 54.5833 41.1797 54.4762 41.1797C54.4762 41.0179 54.4762 40.8561 54.4762 40.6895C54.2505 40.6901 54.2505 40.6901 54.0202 40.6908C50.362 40.7017 46.7039 40.7098 43.0458 40.7149C41.2767 40.7174 39.5077 40.7208 37.7387 40.7264C36.1972 40.7313 34.6557 40.7345 33.1142 40.7356C32.2976 40.7362 31.4811 40.7377 30.6645 40.7413C29.8965 40.7446 29.1285 40.7456 28.3605 40.7449C28.0781 40.745 27.7957 40.746 27.5133 40.7479C27.1288 40.7503 26.7442 40.7497 26.3597 40.7484C26.2471 40.7498 26.1345 40.7513 26.0185 40.7527C25.4435 40.7473 25.2116 40.7107 24.7188 40.1992Z" fill="#AC8F63"/>
<path d="M98.2471 0.980469C107.651 0.980469 117.056 0.980469 126.745 0.980469C126.745 1.14225 126.745 1.30402 126.745 1.4707C126.547 1.47226 126.547 1.47226 126.345 1.47385C123.126 1.49922 119.908 1.52585 116.689 1.55388C115.133 1.5674 113.576 1.58051 112.02 1.5926C110.663 1.60315 109.305 1.61451 107.948 1.62681C107.23 1.63329 106.512 1.63939 105.794 1.64451C105.116 1.64936 104.439 1.65529 103.762 1.66201C103.515 1.66429 103.268 1.66618 103.02 1.66763C100.598 1.55709 100.598 1.55709 98.2471 2.20605C98.2471 1.80161 98.2471 1.39717 98.2471 0.980469Z" fill="#B19C6F"/>
<path d="M74.1386 116.648C74.4109 116.648 74.6833 116.65 74.9556 116.652C75.0987 116.653 75.2417 116.653 75.3891 116.653C75.848 116.655 76.3068 116.658 76.7656 116.661C77.0759 116.662 77.3862 116.663 77.6965 116.664C78.4588 116.667 79.2211 116.671 79.9834 116.676C79.9834 116.838 79.9834 117 79.9834 117.166C77.9051 117.166 75.8268 117.166 73.6856 117.166C73.6856 120.24 73.6856 123.314 73.6856 126.481C75.66 126.481 77.6343 126.481 79.6685 126.481C79.6685 126.966 79.6685 127.452 79.6685 127.952C79.5646 127.952 79.4607 127.952 79.3537 127.952C79.3537 127.628 79.3537 127.305 79.3537 126.971C77.4832 126.971 75.6127 126.971 73.6856 126.971C73.6856 127.133 73.6856 127.295 73.6856 127.461C73.5817 127.461 73.4777 127.461 73.3707 127.461C73.3707 127.3 73.3707 127.138 73.3707 126.971C71.3963 126.971 69.4219 126.971 67.3877 126.971C67.3877 126.809 67.3877 126.648 67.3877 126.481C69.3621 126.481 71.3365 126.481 73.3707 126.481C73.3688 125.794 73.367 125.106 73.3651 124.398C73.3639 123.736 73.363 123.073 73.362 122.41C73.3612 121.948 73.3602 121.486 73.3588 121.024C73.3569 120.362 73.356 119.699 73.3553 119.036C73.3545 118.829 73.3537 118.621 73.3528 118.407C73.3528 117.911 73.3609 117.416 73.3707 116.921C73.5281 116.676 73.5281 116.676 74.1386 116.648Z" fill="#574426"/>
<path d="M85.6515 20.5898C85.7554 20.5898 85.8594 20.5898 85.9664 20.5898C85.9664 23.8254 85.9664 27.0609 85.9664 30.3945C81.602 30.3945 77.2376 30.3945 72.7409 30.3945C72.7409 30.5563 72.7409 30.7181 72.7409 30.8848C70.9743 30.8848 69.2078 30.8848 67.3877 30.8848C67.3877 30.723 67.3877 30.5612 67.3877 30.3945C69.0503 30.3945 70.713 30.3945 72.426 30.3945C72.426 30.2328 72.426 30.071 72.426 29.9043C76.7904 29.9043 81.1548 29.9043 85.6515 29.9043C85.6515 26.8305 85.6515 23.7568 85.6515 20.5898Z" fill="#8D7548"/>
<path d="M80.1403 174.523C80.1923 174.523 80.2442 174.523 80.2978 174.523C80.2978 186.819 80.2978 199.114 80.2978 211.781C80.1938 211.781 80.0899 211.781 79.9829 211.781C79.9829 209.193 79.9829 206.604 79.9829 203.938C79.8789 203.938 79.775 203.938 79.668 203.938C79.668 203.776 79.668 203.614 79.668 203.447C79.7719 203.447 79.8758 203.447 79.9829 203.447C79.9827 203.3 79.9826 203.152 79.9824 203C79.9789 199.414 79.9763 195.828 79.9747 192.242C79.9739 190.508 79.9728 188.774 79.971 187.04C79.9693 185.368 79.9683 183.696 79.9679 182.024C79.9676 181.385 79.9671 180.745 79.9662 180.106C79.9651 179.213 79.9649 178.321 79.965 177.429C79.9644 177.162 79.9639 176.894 79.9633 176.619C79.9635 176.377 79.9637 176.136 79.9639 175.887C79.9638 175.676 79.9636 175.464 79.9635 175.247C79.9829 174.769 79.9829 174.769 80.1403 174.523Z" fill="#766346"/>
<path d="M65.8124 115.695C65.9163 115.695 66.0203 115.695 66.1273 115.695C66.1273 116.019 66.1273 116.342 66.1273 116.676C58.4376 116.676 50.7479 116.676 42.8252 116.676C42.8252 116.514 42.8252 116.352 42.8252 116.186C50.411 116.186 57.9968 116.186 65.8124 116.186C65.8124 116.024 65.8124 115.862 65.8124 115.695Z" fill="#6A5C44"/>
<path d="M95.7276 0.980469C95.8315 0.980469 95.9354 0.980469 96.0425 0.980469C96.0425 1.30402 96.0425 1.62758 96.0425 1.96094C88.5606 1.96094 81.0787 1.96094 73.3701 1.96094C73.3701 1.79916 73.3701 1.63738 73.3701 1.4707C80.7481 1.4707 88.126 1.4707 95.7276 1.4707C95.7276 1.30893 95.7276 1.14715 95.7276 0.980469Z" fill="#887B52"/>
<path d="M79.6681 212.271C79.772 212.271 79.8759 212.271 79.983 212.271C79.983 214.86 79.983 217.448 79.983 220.115C80.0869 220.115 80.1908 220.115 80.2979 220.115C80.2979 220.277 80.2979 220.439 80.2979 220.605C80.194 220.605 80.09 220.605 79.983 220.605C79.983 229.503 79.983 238.401 79.983 247.568C79.6681 247.078 79.6681 247.078 79.6293 246.474C79.6296 246.218 79.6299 245.962 79.6302 245.698C79.6298 245.404 79.6294 245.111 79.6289 244.808C79.63 244.481 79.6312 244.154 79.6323 243.827C79.6324 243.484 79.6324 243.141 79.6322 242.798C79.6321 241.866 79.634 240.933 79.6362 240C79.6381 239.026 79.6383 238.052 79.6387 237.077C79.6397 235.232 79.6422 233.386 79.6454 231.541C79.6489 229.44 79.6507 227.339 79.6522 225.238C79.6555 220.916 79.6611 216.594 79.6681 212.271Z" fill="#3B290A"/>
<path d="M79.9829 220.605C80.0868 220.605 80.1907 220.605 80.2978 220.605C80.2978 230.15 80.2978 239.695 80.2978 249.529C80.1938 249.529 80.0899 249.529 79.9829 249.529C79.9829 249.691 79.9829 249.853 79.9829 250.02C79.8789 250.02 79.775 250.02 79.668 250.02C79.668 249.049 79.668 248.078 79.668 247.078C79.7199 247.078 79.7719 247.078 79.8254 247.078C79.8774 238.342 79.9293 229.606 79.9829 220.605Z" fill="#5C4B30"/>
<path d="M7.40013 0.980469C7.48333 1.06013 7.56653 1.13979 7.65226 1.22186C8.13393 1.53923 8.51126 1.53127 9.03426 1.53025C9.34047 1.53138 9.34047 1.53138 9.65286 1.53253C9.87615 1.53084 10.0994 1.52906 10.3227 1.52719C10.5543 1.5269 10.7859 1.52679 11.0175 1.52685C11.5046 1.52647 11.9917 1.52444 12.4787 1.52115C13.0934 1.51704 13.7081 1.51607 14.3228 1.51621C16.6351 1.51607 18.9432 1.50745 21.2518 1.27759C21.9358 1.21194 22.6171 1.2174 23.3023 1.22559C23.3023 1.38736 23.3023 1.54914 23.3023 1.71582C23.4581 1.63493 23.614 1.55404 23.7746 1.4707C23.7746 1.63248 23.7746 1.79426 23.7746 1.96094C17.7995 1.96094 11.8244 1.96094 5.66822 1.96094C5.66822 2.12271 5.66822 2.28449 5.66822 2.45117C5.14864 2.45117 4.62907 2.45117 4.09375 2.45117C4.40864 1.71582 4.40864 1.71582 4.94003 1.5473C5.50972 1.47084 6.06152 1.46578 6.63258 1.50134C7.10599 1.54881 7.10599 1.54881 7.40013 0.980469Z" fill="#FEFAE6"/>
<path d="M73.3707 196.094C73.4746 196.094 73.5785 196.094 73.6856 196.094C73.6856 198.359 73.6856 200.624 73.6856 202.957C75.608 202.957 77.5304 202.957 79.5111 202.957C79.589 203.2 79.589 203.2 79.6685 203.447C77.6942 203.447 75.7198 203.447 73.6856 203.447C73.6856 203.609 73.6856 203.771 73.6856 203.938C73.5817 203.938 73.4777 203.938 73.3707 203.938C73.3707 203.776 73.3707 203.614 73.3707 203.447C71.3963 203.447 69.4219 203.447 67.3877 203.447C67.3877 203.285 67.3877 203.124 67.3877 202.957C69.3621 202.957 71.3365 202.957 73.3707 202.957C73.3707 200.692 73.3707 198.427 73.3707 196.094Z" fill="#524227"/>
<path d="M15.2725 115.695C17.7145 115.695 20.1565 115.695 22.6725 115.695C22.6725 115.857 22.6725 116.019 22.6725 116.186C23.0362 116.186 23.3999 116.186 23.7746 116.186C23.7746 116.347 23.7746 116.509 23.7746 116.676C20.9689 116.676 18.1632 116.676 15.2725 116.676C15.2725 116.352 15.2725 116.029 15.2725 115.695Z" fill="#6F5D43"/>
<path d="M6.29785 40.6895C6.40177 40.6895 6.50568 40.6895 6.61275 40.6895C6.61275 43.7632 6.61275 46.837 6.61275 50.0039C9.83411 50.0039 13.0555 50.0039 16.3744 50.0039C16.3744 50.1657 16.3744 50.3275 16.3744 50.4941C13.0492 50.4941 9.72389 50.4941 6.29785 50.4941C6.29785 47.2586 6.29785 44.023 6.29785 40.6895Z" fill="#A98B59"/>
<path d="M67.3877 117.166C67.6475 117.166 67.9073 117.166 68.1749 117.166C68.123 117.328 68.071 117.49 68.0175 117.656C67.9136 117.656 67.8097 117.656 67.7026 117.656C67.7026 120.245 67.7026 122.833 67.7026 125.5C67.8065 125.5 67.9104 125.5 68.0175 125.5C68.0175 125.662 68.0175 125.824 68.0175 125.99C69.6801 125.99 71.3428 125.99 73.0558 125.99C73.1077 125.748 73.1597 125.505 73.2132 125.255C73.2652 125.255 73.3171 125.255 73.3707 125.255C73.3707 125.659 73.3707 126.064 73.3707 126.48C71.3963 126.48 69.4219 126.48 67.3877 126.48C67.3877 123.407 67.3877 120.333 67.3877 117.166Z" fill="#907A54"/>
<path d="M135.719 9.80469C137.694 9.80469 139.668 9.80469 141.702 9.80469C141.702 9.96646 141.702 10.1282 141.702 10.2949C139.832 10.2949 137.961 10.2949 136.034 10.2949C136.034 10.4567 136.034 10.6185 136.034 10.7852C135.93 10.7852 135.826 10.7852 135.719 10.7852C135.719 13.8589 135.719 16.9327 135.719 20.0996C135.615 20.0996 135.511 20.0996 135.404 20.0996C135.404 16.8641 135.404 13.6285 135.404 10.2949C135.508 10.2949 135.612 10.2949 135.719 10.2949C135.719 10.1331 135.719 9.97137 135.719 9.80469Z" fill="#8F7445"/>
<path d="M0.314453 2.45117C2.08101 2.45117 3.84756 2.45117 5.66764 2.45117C5.66764 2.61295 5.66764 2.77473 5.66764 2.94141C5.53575 2.94498 5.40385 2.94856 5.26795 2.95224C4.77905 2.96719 4.29025 2.98537 3.80142 3.00574C3.48562 3.01791 3.16975 3.02635 2.8539 3.03476C2.65601 3.04345 2.45813 3.05214 2.25425 3.06109C2.0712 3.06751 1.88816 3.07393 1.69957 3.08054C1.55423 3.11552 1.40888 3.15049 1.25913 3.18652C1.10326 3.55052 1.10326 3.55052 0.94424 3.92188C0.840325 3.92188 0.736411 3.92188 0.629347 3.92188C0.634941 4.06112 0.640535 4.20036 0.646298 4.34383C0.749844 7.00623 0.835061 9.60015 0.629347 12.2559C0.525432 12.2559 0.421517 12.2559 0.314453 12.2559C0.314453 9.02031 0.314453 5.78477 0.314453 2.45117Z" fill="#B4A07E"/>
<path d="M54.791 1.96094C58.428 1.96094 62.0651 1.96094 65.8123 1.96094C65.8123 2.12271 65.8123 2.28449 65.8123 2.45117C64.4916 2.48893 63.1708 2.52525 61.85 2.55975C61.2367 2.57582 60.6234 2.59237 60.0101 2.61006C59.418 2.62711 58.8259 2.64287 58.2338 2.65773C58.0081 2.66362 57.7824 2.66998 57.5568 2.67681C57.2402 2.68631 56.9237 2.694 56.6071 2.70162C56.427 2.70651 56.247 2.71141 56.0614 2.71646C55.6167 2.69789 55.2228 2.61141 54.791 2.45117C54.791 2.28939 54.791 2.12762 54.791 1.96094Z" fill="#B49B6F"/>
<path d="M35.4254 0.980469C35.6891 1.05058 35.9518 1.13191 36.2126 1.22559C36.0048 1.30647 35.7969 1.38736 35.5828 1.4707C35.5828 1.63248 35.5828 1.79426 35.5828 1.96094C31.9458 1.96094 28.3088 1.96094 24.5615 1.96094C24.5615 1.71827 24.5615 1.47561 24.5615 1.22559C24.6866 1.28597 24.6866 1.28597 24.8143 1.34757C25.2808 1.49994 25.7084 1.49112 26.1853 1.47992C26.4871 1.47372 26.4871 1.47372 26.795 1.46739C27.0138 1.46154 27.2327 1.45562 27.4515 1.44964C27.6762 1.4443 27.9008 1.43904 28.1255 1.43386C28.5954 1.42273 29.0654 1.41066 29.5354 1.39793C30.1389 1.38166 30.7425 1.36764 31.3461 1.3543C31.8095 1.34382 32.273 1.33219 32.7364 1.3202C32.959 1.31457 33.1817 1.3093 33.4044 1.30439C33.7146 1.29736 34.0248 1.28863 34.335 1.2798C34.6002 1.27298 34.6002 1.27298 34.8707 1.26602C35.258 1.29486 35.258 1.29486 35.4254 0.980469Z" fill="#FEFBE9"/>
<path d="M80.6123 49.5137C84.3532 49.5137 88.0942 49.5137 91.9485 49.5137C91.9485 49.6754 91.9485 49.8372 91.9485 50.0039C91.7406 50.0039 91.5328 50.0039 91.3187 50.0039C91.3187 50.1657 91.3187 50.3275 91.3187 50.4941C91.2148 50.4941 91.1109 50.4941 91.0038 50.4941C91.0038 50.3324 91.0038 50.1706 91.0038 50.0039C87.5746 50.0039 84.1454 50.0039 80.6123 50.0039C80.6123 49.8421 80.6123 49.6804 80.6123 49.5137Z" fill="#A48650"/>
<path d="M136.034 20.0996C137.696 20.0996 139.359 20.0996 141.072 20.0996C141.072 20.2614 141.072 20.4232 141.072 20.5898C141.384 20.5898 141.695 20.5898 142.017 20.5898C142.017 20.7516 142.017 20.9134 142.017 21.0801C139.938 21.0801 137.86 21.0801 135.719 21.0801C135.823 20.7565 135.927 20.433 136.034 20.0996Z" fill="#B69869"/>
<path d="M0.314453 31.375C0.522283 31.375 0.730113 31.375 0.94424 31.375C0.94424 33.9634 0.94424 36.5519 0.94424 39.2188C0.840325 39.2188 0.736411 39.2188 0.629347 39.2188C0.629347 39.7041 0.629347 40.1894 0.629347 40.6895C0.525432 40.6895 0.421517 40.6895 0.314453 40.6895C0.314453 37.6157 0.314453 34.5419 0.314453 31.375Z" fill="#67573F"/>
<path d="M81.884 115.648C82.0455 115.649 82.0455 115.649 82.2103 115.65C82.5536 115.652 82.8968 115.658 83.2401 115.665C83.4731 115.667 83.7061 115.669 83.9391 115.671C84.5098 115.677 85.0804 115.685 85.651 115.695C85.5991 116.019 85.5471 116.342 85.4936 116.676C83.779 116.676 82.0644 116.676 80.2979 116.676C80.2979 116.514 80.2979 116.352 80.2979 116.186C80.8844 115.577 81.1844 115.639 81.884 115.648Z" fill="#6F5E43"/>
<path d="M107.379 115.205C107.587 115.205 107.794 115.205 108.009 115.205C108.061 115.367 108.113 115.529 108.166 115.695C108.632 116.058 109.085 116.027 109.603 116.078C109.804 116.099 110.006 116.119 110.214 116.141C110.447 116.163 110.447 116.163 110.685 116.186C110.633 116.509 110.581 116.833 110.528 117.166C109.281 117.166 108.034 117.166 106.749 117.166C106.749 117.004 106.749 116.842 106.749 116.676C106.853 116.676 106.957 116.676 107.064 116.676C107.098 116.448 107.098 116.448 107.133 116.216C107.221 115.695 107.221 115.695 107.379 115.205Z" fill="#69563B"/>
<path d="M103.915 107.361C104.331 107.361 104.746 107.361 105.175 107.361C105.175 107.523 105.175 107.685 105.175 107.852C107.045 107.852 108.915 107.852 110.843 107.852C110.843 108.013 110.843 108.175 110.843 108.342C108.868 108.342 106.894 108.342 104.86 108.342C104.86 108.18 104.86 108.018 104.86 107.852C104.652 107.852 104.444 107.852 104.23 107.852C104.178 108.094 104.126 108.337 104.072 108.587C103.813 108.506 103.553 108.425 103.285 108.342C103.285 108.18 103.285 108.018 103.285 107.852C103.493 107.852 103.701 107.852 103.915 107.852C103.915 107.69 103.915 107.528 103.915 107.361Z" fill="#664E24"/>
<path d="M79.9829 239.725C80.0868 239.725 80.1907 239.725 80.2978 239.725C80.2978 242.96 80.2978 246.196 80.2978 249.529C80.1938 249.529 80.0899 249.529 79.9829 249.529C79.9829 249.691 79.9829 249.853 79.9829 250.02C79.8789 250.02 79.775 250.02 79.668 250.02C79.668 249.049 79.668 248.078 79.668 247.078C79.7199 247.078 79.7719 247.078 79.8254 247.078C79.8774 244.651 79.9293 242.225 79.9829 239.725Z" fill="#4F412B"/>
<path d="M67.3877 40.1992C69.6738 40.1992 71.96 40.1992 74.3154 40.1992C74.3154 40.361 74.3154 40.5228 74.3154 40.6895C73.8997 40.8512 73.484 41.013 73.0558 41.1797C73.0558 41.0179 73.0558 40.8561 73.0558 40.6895C71.1853 40.7703 69.3148 40.8512 67.3877 40.9346C67.3877 40.6919 67.3877 40.4492 67.3877 40.1992Z" fill="#AF9264"/>
<path d="M108.953 86.2812C109.057 86.2812 109.161 86.2812 109.268 86.2812C109.268 86.7666 109.268 87.2519 109.268 87.752C109.684 87.752 110.1 87.752 110.528 87.752C110.528 87.9137 110.528 88.0755 110.528 88.2422C108.554 88.2422 106.579 88.2422 104.545 88.2422C104.545 88.0804 104.545 87.9186 104.545 87.752C106 87.752 107.455 87.752 108.953 87.752C108.953 87.2666 108.953 86.7813 108.953 86.2812Z" fill="#846B3E"/>
<path d="M73.5276 116.676C75.6578 116.676 77.7881 116.676 79.9829 116.676C79.9829 116.838 79.9829 116.999 79.9829 117.166C77.9046 117.166 75.8263 117.166 73.685 117.166C73.685 117.328 73.685 117.49 73.685 117.656C73.5811 117.656 73.4772 117.656 73.3701 117.656C73.4221 117.333 73.474 117.009 73.5276 116.676Z" fill="#5E4E2F"/>
<path d="M0.629883 97.5566C0.733798 97.5566 0.837713 97.5566 0.944776 97.5566C0.944776 100.307 0.944776 103.057 0.944776 105.891C1.04869 105.972 1.15261 106.052 1.25967 106.136C1.18173 106.742 1.18173 106.742 1.10222 107.361C0.946351 107.361 0.790479 107.361 0.629883 107.361C0.629883 104.126 0.629883 100.89 0.629883 97.5566Z" fill="#867857"/>
<path d="M79.668 212.271C79.7719 212.271 79.8758 212.271 79.9829 212.271C79.9829 214.86 79.9829 217.448 79.9829 220.115C80.0868 220.115 80.1907 220.115 80.2978 220.115C80.2978 220.277 80.2978 220.439 80.2978 220.605C80.1938 220.605 80.0899 220.605 79.9829 220.605C79.9829 221.091 79.9829 221.576 79.9829 222.076C79.8789 222.076 79.775 222.076 79.668 222.076C79.668 218.841 79.668 215.605 79.668 212.271Z" fill="#47371A"/>
<path d="M24.2468 98.0469C24.3507 98.0469 24.4546 98.0469 24.5616 98.0469C24.5616 101.121 24.5616 104.194 24.5616 107.361C24.3019 107.361 24.0421 107.361 23.7744 107.361C23.7744 107.2 23.7744 107.038 23.7744 106.871C23.9303 106.75 23.9303 106.75 24.0893 106.626C24.1413 103.795 24.1932 100.964 24.2468 98.0469Z" fill="#A78753"/>
<path d="M54.791 40.1992C54.9988 40.1992 55.2067 40.1992 55.4208 40.1992C55.4208 40.361 55.4208 40.5228 55.4208 40.6895C55.3169 40.6895 55.213 40.6895 55.1059 40.6895C55.1059 43.6014 55.1059 46.5134 55.1059 49.5137C55.002 49.5137 54.8981 49.5137 54.791 49.5137C54.791 46.4399 54.791 43.3661 54.791 40.1992Z" fill="#87693E"/>
<path d="M0.629883 78.9277C0.68184 78.9277 0.733798 78.9277 0.78733 78.9277C0.810061 79.1148 0.832792 79.3018 0.856213 79.4946C0.938992 80.1734 0.938992 80.1734 1.10222 80.8887C1.11408 81.9461 1.08737 83.0022 1.06413 84.059C1.05304 84.5796 1.04451 85.1003 1.03611 85.6211C1.0294 85.9512 1.02253 86.2814 1.0155 86.6116C1.00956 86.9124 1.00361 87.2132 0.997477 87.5232C0.944776 88.2422 0.944776 88.2422 0.629883 88.7324C0.629883 85.4969 0.629883 82.2613 0.629883 78.9277Z" fill="#AC986B"/>
<path d="M135.719 88.2422C137.485 88.2422 139.252 88.2422 141.072 88.2422C141.072 88.404 141.072 88.5657 141.072 88.7324C139.409 88.7324 137.747 88.7324 136.034 88.7324C135.982 88.9751 135.93 89.2178 135.876 89.4678C135.824 89.4678 135.772 89.4678 135.719 89.4678C135.719 89.0633 135.719 88.6589 135.719 88.2422Z" fill="#73562D"/>
<path d="M18.5791 98.0469C18.735 98.1278 18.8908 98.2087 19.0514 98.292C19.0514 100.88 19.0514 103.469 19.0514 106.136C18.8176 106.257 18.8176 106.257 18.5791 106.381C18.5791 103.631 18.5791 100.88 18.5791 98.0469Z" fill="#9E7E48"/>
<path d="M127.532 0.490234C128.156 0.490234 128.779 0.490234 129.422 0.490234C129.37 0.894678 129.318 1.29912 129.264 1.71582C128.91 2.0835 128.91 2.0835 128.477 2.20605C128.044 1.9303 128.044 1.9303 127.69 1.4707C127.638 1.14715 127.586 0.823594 127.532 0.490234Z" fill="#B89F7A"/>
<path d="M0.314453 20.835C1.09381 20.9158 1.87318 20.9967 2.67616 21.0801C2.6242 21.2419 2.57224 21.4036 2.51871 21.5703C1.89522 21.5703 1.27173 21.5703 0.629347 21.5703C0.629347 22.2174 0.629347 22.8645 0.629347 23.5312C0.473474 23.6526 0.473474 23.6526 0.314453 23.7764C0.314453 22.8057 0.314453 21.835 0.314453 20.835Z" fill="#927B53"/>
<path d="M125.957 0.48978C126.213 0.469948 126.469 0.455672 126.725 0.443821C126.867 0.43529 127.01 0.426759 127.156 0.417969C127.342 0.453516 127.342 0.453516 127.531 0.48978C127.635 0.732446 127.739 0.975112 127.846 1.22513C127.364 1.86829 127.259 1.96048 126.587 1.96048C126.639 1.63693 126.691 1.31337 126.744 0.980015C126.484 0.980015 126.225 0.980015 125.957 0.980015C125.957 0.818237 125.957 0.65646 125.957 0.48978Z" fill="#A28860"/>
<path d="M17.791 2.45117C18.8302 2.45117 19.8693 2.45117 20.94 2.45117C20.888 2.61295 20.836 2.77473 20.7825 2.94141C20.4049 3.0429 20.4049 3.0429 19.9362 3.0946C19.7824 3.11293 19.6285 3.13126 19.47 3.15014C19.1731 3.17589 18.8756 3.18652 18.5782 3.18652C18.5782 3.02475 18.5782 2.86297 18.5782 2.69629C18.3185 2.69629 18.0587 2.69629 17.791 2.69629C17.791 2.6154 17.791 2.53451 17.791 2.45117Z" fill="#B79A71"/>
<path d="M36.5278 1.96094C36.9954 1.96094 37.463 1.96094 37.9448 1.96094C37.8928 2.2036 37.8409 2.44627 37.7874 2.69629C37.2405 2.98007 36.7859 2.95824 36.2129 2.94141C36.2129 2.77963 36.2129 2.61785 36.2129 2.45117C36.3168 2.45117 36.4207 2.45117 36.5278 2.45117C36.5278 2.28939 36.5278 2.12762 36.5278 1.96094Z" fill="#887351"/>
<path d="M92.1067 22.0605C92.4704 22.0605 92.8341 22.0605 93.2088 22.0605C93.2088 22.3841 93.2088 22.7077 93.2088 23.041C92.7931 23.1219 92.3775 23.2028 91.9492 23.2861C92.0012 22.8817 92.0531 22.4772 92.1067 22.0605Z" fill="#B99664"/>
<path d="M0.629883 113.734C0.733798 113.734 0.837713 113.734 0.944776 113.734C0.961013 114.007 0.97725 114.28 0.993979 114.562C1.0297 114.855 1.06542 115.148 1.10222 115.45C1.2581 115.612 1.41397 115.774 1.57456 115.94C1.36673 116.021 1.1589 116.102 0.944776 116.186C0.944776 116.347 0.944776 116.509 0.944776 116.676C0.840862 116.676 0.736947 116.676 0.629883 116.676C0.629883 115.705 0.629883 114.734 0.629883 113.734Z" fill="#685E48"/>
<path d="M3.1485 2.20635C3.1485 2.28724 3.1485 2.36813 3.1485 2.45147C2.21326 2.45147 1.27803 2.45147 0.314453 2.45147C0.314453 2.28969 0.314453 2.12792 0.314453 1.96124C1.31429 1.61533 2.15605 1.86828 3.1485 2.20635Z" fill="#FEF7E4"/>
<path d="M0.314453 12.2559C0.418368 12.2559 0.522283 12.2559 0.629347 12.2559C0.668576 12.6893 0.703924 13.1235 0.737591 13.558C0.757684 13.7998 0.777777 14.0415 0.798479 14.2905C0.786794 14.9521 0.786794 14.9521 0.314453 15.6875C0.314453 14.5551 0.314453 13.4226 0.314453 12.2559Z" fill="#9B8961"/>
<path d="M78.7235 250.02C78.9314 250.02 79.1392 250.02 79.3533 250.02C79.3533 250.181 79.3533 250.343 79.3533 250.51C79.4572 250.51 79.5612 250.51 79.6682 250.51C79.6682 250.672 79.6682 250.833 79.6682 251C79.1486 251 78.6291 251 78.0938 251C78.0938 250.838 78.0938 250.676 78.0938 250.51C78.3016 250.51 78.5094 250.51 78.7235 250.51C78.7235 250.348 78.7235 250.186 78.7235 250.02Z" fill="#705F45"/>
<path d="M127.847 0.980469C128.267 0.980469 128.687 0.980469 129.106 0.980469C128.831 1.9303 128.831 1.9303 128.477 2.20605C128.063 1.8537 128.063 1.8537 127.689 1.4707C127.741 1.30893 127.793 1.14715 127.847 0.980469Z" fill="#B9996E"/>
<path d="M30.5444 95.1055C30.6483 95.1055 30.7522 95.1055 30.8593 95.1055C30.8593 95.9144 30.8593 96.7232 30.8593 97.5566C30.6514 97.5566 30.4436 97.5566 30.2295 97.5566C30.2295 97.3949 30.2295 97.2331 30.2295 97.0664C30.3334 97.0664 30.4373 97.0664 30.5444 97.0664C30.5444 96.4193 30.5444 95.7722 30.5444 95.1055Z" fill="#A78A54"/>
<path d="M5.66797 1.96094C5.97971 1.96094 6.29146 1.96094 6.61265 1.96094C6.61265 2.28449 6.61265 2.60805 6.61265 2.94141C6.3009 2.94141 5.98916 2.94141 5.66797 2.94141C5.66797 2.61785 5.66797 2.2943 5.66797 1.96094Z" fill="#9B8363"/>
<path d="M91.9492 20.0996C92.209 20.0996 92.4688 20.0996 92.7365 20.0996C92.7365 20.3423 92.7365 20.5849 92.7365 20.835C92.8404 20.9967 92.9443 21.1585 93.0513 21.3252C92.7916 21.4061 92.5318 21.487 92.2641 21.5703C92.2641 21.2468 92.2641 20.9232 92.2641 20.5898C92.1602 20.5898 92.0563 20.5898 91.9492 20.5898C91.9492 20.4281 91.9492 20.2663 91.9492 20.0996Z" fill="#BB9A64"/>
<path d="M107.379 115.205C107.587 115.205 107.795 115.205 108.009 115.205C108.009 115.852 108.009 116.499 108.009 117.166C107.905 117.166 107.801 117.166 107.694 117.166C107.694 116.681 107.694 116.195 107.694 115.695C107.59 115.695 107.486 115.695 107.379 115.695C107.379 115.534 107.379 115.372 107.379 115.205Z" fill="#614F32"/>
<path d="M90.6895 49.5137C91.1051 49.5137 91.5208 49.5137 91.949 49.5137C91.949 49.6754 91.949 49.8372 91.949 50.0039C91.7412 50.0039 91.5334 50.0039 91.3192 50.0039C91.3192 50.1657 91.3192 50.3275 91.3192 50.4941C91.2153 50.4941 91.1114 50.4941 91.0043 50.4941C91.0043 50.3324 91.0043 50.1706 91.0043 50.0039C90.9004 50.0039 90.7965 50.0039 90.6895 50.0039C90.6895 49.8421 90.6895 49.6804 90.6895 49.5137Z" fill="#9B7E47"/>
<path d="M96.043 0.980469C96.3547 0.980469 96.6665 0.980469 96.9876 0.980469C96.9357 1.30402 96.8837 1.62758 96.8302 1.96094C96.5704 1.88005 96.3106 1.79916 96.043 1.71582C96.043 1.47315 96.043 1.23049 96.043 0.980469Z" fill="#7A6B46"/>
<path d="M141.23 86.2812C141.334 86.3621 141.438 86.443 141.545 86.5264C141.643 87.1545 141.643 87.1545 141.702 87.752C141.494 87.752 141.286 87.752 141.072 87.752C141.124 87.2666 141.176 86.7813 141.23 86.2812Z" fill="#B49C67"/>
<path d="M67.3877 155.895C67.5955 155.895 67.8034 155.895 68.0175 155.895C67.742 157.089 67.742 157.089 67.3877 157.365C67.3877 156.88 67.3877 156.395 67.3877 155.895Z" fill="#685C48"/>
<path d="M5.19588 1.4707C5.09196 1.79426 4.98805 2.11781 4.88098 2.45117C4.6212 2.45117 4.36141 2.45117 4.09375 2.45117C4.43385 1.65695 4.58431 1.4707 5.19588 1.4707Z" fill="#FEFCE6"/>
</g>
</g>
<defs>
<filter id="filter0_n_1087_4271" x="0" y="0" width="148" height="251" filterUnits="userSpaceOnUse" color-interpolation-filters="sRGB">
<feFlood flood-opacity="0" result="BackgroundImageFix"/>
<feBlend mode="normal" in="SourceGraphic" in2="BackgroundImageFix" result="shape"/>
<feTurbulence type="fractalNoise" baseFrequency="2 2" stitchTiles="stitch" numOctaves="3" result="noise" seed="422" />
<feColorMatrix in="noise" type="luminanceToAlpha" result="alphaNoise" />
<feComponentTransfer in="alphaNoise" result="coloredNoise1">
<feFuncA type="discrete" tableValues="1 1 1 1 1 1 1 1 1 1 1 1 1 1 1 1 1 1 1 1 1 1 1 1 1 1 1 1 1 1 1 1 1 1 1 1 1 1 1 1 1 1 1 1 1 1 1 1 1 1 1 0 0 0 0 0 0 0 0 0 0 0 0 0 0 0 0 0 0 0 0 0 0 0 0 0 0 0 0 0 0 0 0 0 0 0 0 0 0 0 0 0 0 0 0 0 0 0 0 0 "/>
</feComponentTransfer>
<feComposite operator="in" in2="shape" in="coloredNoise1" result="noise1Clipped" />
<feFlood flood-color="rgba(0, 0, 0, 0.25)" result="color1Flood" />
<feComposite operator="in" in2="noise1Clipped" in="color1Flood" result="color1" />
<feMerge result="effect1_noise_1087_4271">
<feMergeNode in="shape" />
<feMergeNode in="color1" />
</feMerge>
</filter>
<clipPath id="clip0_1087_4271">
<rect width="148" height="251" fill="white"/>
</clipPath>
</defs>
</svg>
