<svg width="40" height="135" viewBox="0 0 40 135" fill="none" xmlns="http://www.w3.org/2000/svg">
<path d="M29.5005 132.5L20.0005 135L11.5005 132.5L10.0005 73L20.0005 75.5H29.5005V132.5Z" fill="#3B260A"/>
<path opacity="0.9" d="M1.0298 75.69C-1.0298 67.28 0 57.8187 4.11918 47.3063C6.17878 36.7938 8.23837 28.3838 10.298 22.0763C12.3576 13.6663 14.4171 7.35875 16.4767 3.15375C18.5363 -1.05125 20.5959 -1.05125 22.6555 3.15375C24.7151 7.35875 26.7747 13.6663 28.8343 22.0763C30.8939 28.3838 32.9535 36.7938 35.0131 47.3063C39.1322 57.8187 40.162 67.28 38.1024 75.69C33.9833 77.7925 27.8045 78.8438 19.5661 78.8438C11.3278 78.8438 5.14898 77.7925 1.0298 75.69Z" fill="url(#paint0_radial_342_28)"/>
<path opacity="0.9" d="M7.20863 75.6901C5.14904 69.3826 5.56096 62.0239 8.44439 53.6139C10.9159 43.1014 12.9755 33.6401 14.6232 25.2301C16.2708 16.8201 17.9185 10.0921 19.5662 5.04614C21.2139 10.0921 22.8615 16.8201 24.5092 25.2301C26.1569 33.6401 28.2165 43.1014 30.688 53.6139C33.5714 62.0239 33.9833 69.3826 31.9237 75.6901C28.6284 76.5311 24.5092 76.9516 19.5662 76.9516C14.6232 76.9516 10.504 76.5311 7.20863 75.6901Z" fill="url(#paint1_radial_342_28)"/>
<path opacity="0.8" d="M10.2981 76.9514C9.06238 71.0644 9.4743 64.3364 11.5339 56.7674C13.5935 48.3574 15.4471 39.9474 17.0948 31.5374C17.9186 23.1274 18.7425 15.7687 19.5663 9.46118C20.3901 15.7687 21.214 23.1274 22.0378 31.5374C23.6855 39.9474 25.5391 48.3574 27.5987 56.7674C29.6583 64.3364 30.0702 71.0644 28.8345 76.9514C25.951 77.7924 22.8616 78.2129 19.5663 78.2129C16.271 78.2129 13.1816 77.7924 10.2981 76.9514Z" fill="url(#paint2_radial_342_28)"/>
<path opacity="0.95" d="M13.3875 75.69C12.5637 71.4851 12.9756 66.2288 14.6233 59.9213C15.859 51.5113 17.0948 43.1013 18.3305 34.6913C18.7424 26.2813 19.1544 19.9738 19.5663 15.7688C19.9782 19.9738 20.3901 26.2813 20.802 34.6913C22.0378 43.1013 23.2735 51.5113 24.5093 59.9213C26.157 66.2288 26.5689 71.4851 25.7451 75.69C23.6855 76.531 21.6259 76.9515 19.5663 76.9515C17.5067 76.9515 15.4471 76.531 13.3875 75.69Z" fill="url(#paint3_radial_342_28)"/>
<path opacity="0.8" d="M15.8588 74.4284C15.4469 71.9054 15.6528 68.5414 16.4767 64.3364C17.3005 57.1879 18.1243 49.4087 18.9482 40.9987C19.3601 32.5887 19.5661 26.2812 19.5661 22.0762C19.5661 26.2812 19.772 32.5887 20.1839 40.9987C21.0078 49.4087 21.8316 57.1879 22.6554 64.3364C23.4793 68.5414 23.6852 71.9054 23.2733 74.4284C22.0376 75.2694 20.8018 75.6899 19.5661 75.6899C18.3303 75.6899 17.0945 75.2694 15.8588 74.4284Z" fill="#FFFACD"/>
<defs>
<radialGradient id="paint0_radial_342_28" cx="0" cy="0" r="1" gradientUnits="userSpaceOnUse" gradientTransform="translate(19.5661 63.075) scale(31.3058 63.075)">
<stop stop-color="#CC5200"/>
<stop offset="0.4" stop-color="#FF4500"/>
<stop offset="0.8" stop-color="#CC5200" stop-opacity="0.6"/>
<stop offset="1" stop-color="#CC5200" stop-opacity="0"/>
</radialGradient>
<radialGradient id="paint1_radial_342_28" cx="0" cy="0" r="1" gradientUnits="userSpaceOnUse" gradientTransform="translate(19.5662 69.7611) scale(21.8317 57.5244)">
<stop stop-color="#FF7A00"/>
<stop offset="0.3" stop-color="#FF8C42"/>
<stop offset="0.7" stop-color="#FF7A00" stop-opacity="0.8"/>
<stop offset="1" stop-color="#FF7A00" stop-opacity="0"/>
</radialGradient>
<radialGradient id="paint2_radial_342_28" cx="0" cy="0" r="1" gradientUnits="userSpaceOnUse" gradientTransform="translate(21.559 64.4626) scale(11.9559 41.2511)">
<stop stop-color="#FF8C42"/>
<stop offset="0.6" stop-color="#FF7A00"/>
<stop offset="1" stop-color="#FF7A00" stop-opacity="0"/>
</radialGradient>
<radialGradient id="paint3_radial_342_28" cx="0" cy="0" r="1" gradientUnits="userSpaceOnUse" gradientTransform="translate(19.5663 70.8333) scale(9.22697 42.8279)">
<stop stop-color="#FFD4A3"/>
<stop offset="0.2" stop-color="#FFEB99"/>
<stop offset="0.6" stop-color="#FFD4A3" stop-opacity="0.8"/>
<stop offset="1" stop-color="#FFD4A3" stop-opacity="0"/>
</radialGradient>
</defs>
</svg>
