<svg width="26" height="103" viewBox="0 0 26 103" fill="none" xmlns="http://www.w3.org/2000/svg">
<g style="mix-blend-mode:hard-light">
<path d="M2.62618 25.6834C2.49435 25.5949 2.27024 28.0721 2.42843 38.6887L4.60371 39.2197L10.1407 39.4852H17.8528L22.2033 38.9543V24.0911H19.6326V19.8445H18.6438V13.7399H15.4799V3.91956H14.4911V1H12.3159V6.57371H10.1407V14.2707C10.0747 14.6246 9.78471 15.2792 9.15192 15.0669C8.51912 14.8546 6.91077 15.8631 6.1857 16.394H9.15192V20.1098V21.9677V23.0293H6.1857V25.9489L4.99921 27.0106L4.40596 25.9489L2.62618 25.6834Z" fill="#E46A00" stroke="#ED4A4A"/>
<path d="M5.31934 89.4388C5.31934 89.9704 5.40011 81.625 5.72321 43.9907H12.3872V91.2993H5.31934V89.4388Z" fill="#502101" stroke="black"/>
<path d="M12.1904 89.2585C12.1904 89.7879 12.269 81.4756 12.5831 43.9907H19.062V91.1116H12.1904V89.2585Z" fill="#8D2F03" stroke="black"/>
<path d="M24.7559 38.4054C24.162 38.8068 4.16745 40.0376 2.78169 39.0674C1.39593 38.0973 1 38.4054 1 38.4054V43.6154H24.7559V38.4054Z" fill="#602B01" stroke="black"/>
<path d="M2.74763 91.3002C2.61382 90.5494 2.42649 91.6381 2.74763 102H21.6143V91.3002H21.2128H2.74763Z" fill="#321300" stroke="black"/>
<path d="M8.06787 39.1095C8.24871 31.8918 8.1724 30.4215 8.11319 30.1745L8.06787 30.1758C8.06787 30.1758 8.08912 30.0741 8.11319 30.1745L17.0867 29.9106L17.688 34.3385L17.2874 39.1095H8.06787Z" fill="#FEFF58" stroke="#FBB634"/>
</g>
</svg>
