<svg width="450" height="62" viewBox="0 0 450 62" fill="none" xmlns="http://www.w3.org/2000/svg">
<g opacity="0.68" filter="url(#filter0_n_683_1384)">
<path d="M449.807 22.6592C443.897 10.5111 429.581 14.9686 421.397 20.797C415.573 24.9407 410.117 30.543 403.513 32.8169C397.7 34.8199 393.306 30.9648 389.101 26.6873C384.732 22.2449 380.385 17.3094 374.63 15.708C368.92 14.1199 363.5 16.6527 359.092 20.9056C355.363 24.5018 352.443 29.0849 349.095 33.1478C347.443 35.1502 346.696 35.9622 344.75 37.2252C343.426 38.0858 345.564 36.9366 344.159 37.5207C343.704 37.7107 343.23 37.8219 342.759 37.9305C343.79 37.6912 342.244 37.8635 342.129 37.861C341.46 37.8465 341.991 37.9033 340.959 37.5579C339.543 37.0843 341.682 38.0612 340.383 37.2814C339.952 37.025 339.553 36.6998 339.155 36.3815C339.946 37.0174 338.707 35.8953 338.659 35.846C338.286 35.4438 337.945 34.9999 337.603 34.561C336.355 32.9603 335.317 30.925 334.086 28.5053C331.738 23.8899 329.564 18.9171 326.21 15.2029C321.852 10.3804 315.906 9.29743 310.532 12.3632C304.107 16.0314 299.174 22.5803 291.571 22.6718C285.979 22.7381 281.603 16.6306 277.592 12.7705C272.825 8.18477 267.267 4.59617 260.954 5.49664C250 7.05761 243.32 18.34 234.377 24.4721C230.631 27.0403 227.022 27.4741 222.747 24.5933C217.711 21.1942 213.8 15.8343 208.807 12.319C203.245 8.40706 196.88 7.79768 190.734 9.84993C184.88 11.8037 179.633 15.9177 174.29 19.248C169.529 22.2153 164.577 24.3711 159.225 22.6023C153.344 20.6562 148.37 15.3626 143.1 11.8725C137.605 8.23402 131.504 6.25883 125.213 7.0551C119.253 7.8078 113.758 10.5212 108.478 13.8042C101.644 18.059 95.2978 23.3525 88.2927 27.2297C85.3233 28.8728 81.7694 30.2146 78.7051 30.5872C74.0806 31.1517 69.709 29.6993 65.3417 28.0291C60.2617 26.088 55.3736 24.1911 50.0612 23.3772C45.1704 22.6295 40.1732 23.1896 35.2993 23.8135C26.4081 24.9482 16.2934 27.6515 7.94571 22.4325C1.94531 18.6829 -3.36713 29.5289 2.63956 33.3031C16.4046 41.951 31.185 35.6263 45.7676 35.6509C53.1681 35.666 59.8643 39.3582 66.9068 41.581C73.4628 43.6503 80.0994 43.5025 86.5774 41.1491C97.915 37.03 107.17 27.5997 117.864 21.8181C122.231 19.4576 127.033 18.2194 131.567 19.2777C137.637 20.696 142.711 25.7452 147.902 29.455C153.787 33.6606 160.147 36.1422 167.029 34.9361C173.059 33.8778 178.521 30.2001 183.793 26.7416C188.416 23.7099 193.236 20.3998 198.591 20.6265C203.638 20.8412 207.969 26.1745 211.649 29.7335C216.557 34.4846 221.748 38.4363 228.255 38.6434C233.611 38.8158 238.703 35.7273 242.953 32.1166C247.199 28.5053 250.924 24.1987 255.168 20.8115C257.163 19.2209 258.576 18.345 260.659 17.6618C262.173 17.1661 264.347 17.1288 266.291 18.155C271.635 20.977 275.541 26.9613 280.399 30.7375C286.736 35.6635 294.421 35.7153 301.332 32.5927C304.813 31.0166 308.038 28.8311 311.11 26.3368C312.443 25.2564 313.797 23.9171 315.304 23.1997C315.939 22.896 316.062 22.8518 316.626 22.812C316.933 22.8025 317.24 22.812 317.545 22.8417C316.921 22.7305 316.903 22.7457 317.485 22.8884C317.706 22.9478 318.918 23.5969 317.868 22.9995C318.26 23.2218 318.622 23.5129 318.982 23.799C318.062 23.069 319.215 24.0705 319.339 24.2031C319.684 24.5833 320 25 320.316 25.4142C321.186 26.5515 322.53 29.0679 323.648 31.2578C328.709 41.1838 335.109 52.617 346.356 49.2274C355.832 46.3712 360.199 33.1497 367.73 28.0045C369.723 26.6431 371.617 26.3987 374.424 27.5997C377.224 28.8014 379.766 31.7712 382.037 33.9984C388.776 40.6117 395.973 45.2763 404.912 42.4372C414.003 39.5483 419.644 30.4565 427.208 24.6079C432.94 20.1801 442.69 16.2903 447.669 24.1539C448.606 25.6315 450.632 24.3566 449.807 22.6592Z" fill="#486B28"/>
<path d="M383.099 -4.62389C381.236 -10.4157 376.996 -13.9329 372.107 -15.487C366.111 -17.3959 359.872 -15.2823 354.632 -11.6956C343.369 -3.98483 332.783 15.4004 318.021 9.84041C312.21 7.65492 307.694 1.47606 303.804 -3.80739C299.637 -9.46593 295.411 -17.9882 288.629 -19.1033C281.02 -20.3511 275.378 -13.4669 271.102 -6.87313C267.2 -0.859705 263.691 5.4972 260.056 11.7449C253.642 22.7633 246.188 34.8306 235.025 39.0506C220.39 44.586 205.294 33.3258 193.316 24.5074C187.853 20.4869 182.969 30.6471 188.323 34.739C201.438 44.7584 216.094 54.9212 232.264 52.1415C244.858 49.9756 254.511 39.8128 262.045 28.1604C265.949 22.1199 269.464 15.7585 273.035 9.43376C276.278 3.68871 279.618 -3.69372 284.622 -7.46798C287.189 -9.40657 288.972 -7.75149 290.851 -5.48201C293.231 -2.60633 295.448 0.472036 297.779 3.40518C302.26 9.0391 307.212 14.4312 313.27 17.4679C327.363 24.5295 339.357 12.9731 349.081 1.94712C353.942 -3.56808 359.322 -9.39645 366.029 -11.2441C371.949 -12.8746 378.997 -10.8596 381.913 -4.02715C382.245 -3.24729 383.365 -3.7973 383.099 -4.62389Z" fill="#87AB35"/>
<path d="M174.654 15.1577C169.996 7.66409 164.834 0.41239 159.196 -6.06011C154.054 -11.9605 147.309 -17.2812 139.875 -16.3214C136.517 -15.8876 133.424 -13.5442 130.092 -13.4034C129.458 -13.3763 128.908 -13.6156 128.342 -13.9509C127.084 -14.6935 126.516 -15.3079 125.641 -16.2305C121.473 -20.6185 117.933 -25.4435 112.679 -27.989C105.513 -31.4595 99.2693 -25.3671 94.136 -20.2289C89.0787 -15.1721 82.5944 -12.4196 76.1681 -11.2129C68.7039 -9.81481 61.8553 -13.4602 54.4981 -13.5341C46.7023 -13.6156 40.6382 -6.87913 33.5071 -4.25729C29.3211 -2.71526 24.9907 -2.51574 20.656 -3.04617C15.9593 -3.62332 12.0184 -6.50406 7.61789 -8.14713C2.80145 -9.94301 -0.80571 -2.24419 2.74612 1.87989C8.08127 8.07581 16.8697 9.99988 24.0498 10.296C31.7053 10.6143 38.9661 7.88892 45.6602 3.64359C48.4524 1.87234 51.2694 -0.184984 54.4981 -0.39463C58.536 -0.660477 62.8105 1.28063 66.8073 1.90957C73.8598 3.01968 81.3303 1.6753 87.9791 -1.23322C91.3069 -2.68621 94.4945 -4.57809 97.4717 -6.86967C100.462 -9.17325 102.941 -12.2687 105.89 -14.6095C106.869 -15.3843 107.71 -15.7638 108.576 -15.7815C109.083 -15.7891 109.448 -15.6331 110 -15.3104C112.271 -13.9806 113.469 -12.395 115.454 -10.2316C119.589 -5.72734 124.21 -1.44983 130.092 -1.62537C133.77 -1.73399 136.848 -4.09691 140.26 -5.37183C143.473 -6.57351 146.988 -5.34026 149.905 -3.65994C153.982 -1.31468 157.522 2.2152 161.008 5.60932C165.025 9.52123 169.032 13.2854 173.342 16.7269C174.115 17.3432 175.233 16.0878 174.654 15.1577Z" fill="#87AB35"/>
<path d="M330.343 55.5379C318.453 59.7902 306.601 54.3981 298.095 44.1691C293.587 38.7473 289.189 33.7645 282.581 32.7333C278.98 32.1738 275.376 32.6865 271.777 33.0294C267.9 33.3969 263.989 33.6167 260.141 34.2999C254.888 35.237 256.199 45.5154 261.382 45.2836C265.194 45.1137 269.024 44.3907 272.815 43.9051C276.255 43.4656 279.861 42.6914 283.277 43.6412C288.542 45.1062 292.743 51.5591 296.968 55.2222C306.751 63.6971 320.494 63.7097 331.248 58.108C332.484 57.4639 331.597 55.089 330.343 55.5379Z" fill="#6F9841"/>
<path d="M233.232 17.2574C230.137 15.7729 227.608 11.8211 225.597 8.7598C223.177 5.08216 220.972 1.41906 217.827 -1.43958C211.374 -7.31029 199.411 -8.30423 194.329 0.531201C192.276 4.09834 195.657 9.03387 198.972 7.76589C202.253 6.51054 204.542 4.4608 208.131 4.49743C211.407 4.52963 214.07 6.36972 216.5 8.86147C221.466 13.9473 225.599 19.801 232.377 20.9723C234.429 21.3253 235.174 18.1901 233.232 17.2574Z" fill="#6F9841"/>
<path d="M169.974 34.0877C164.771 30.6784 158.393 32.9157 153.171 35.1435C150.184 36.4159 147.132 37.8 143.951 38.1404C140.432 38.513 136.952 37.1831 133.785 35.4662C127.251 31.9243 121.23 27.9113 114.285 25.5503C111.062 24.4579 108.806 20.7827 106.543 18.0422C103.355 14.1795 100.178 10.3042 96.9288 6.51293C90.9305 -0.484947 84.9323 -7.48535 78.934 -14.4832C73.6711 -20.6229 67.9258 -26.6932 61.1163 -30.213C53.9694 -33.9058 46.5278 -34.0807 39.5222 -29.8234C33.438 -26.1236 28.8172 -18.8643 25.0819 -12.251C21.917 -6.64425 29.4181 0.373211 32.9499 -4.9816C36.5945 -10.5069 39.9877 -16.4123 45.3829 -19.6385C50.6459 -22.7863 56.6441 -19.4907 61.1516 -16.1307C67.0672 -11.7231 71.9289 -5.40089 76.904 0.356163C82.9265 7.32436 88.89 14.3765 95.0201 21.2064C100.369 27.1687 105.338 34.4627 112.646 36.7543C119.382 38.8653 125.532 42.8467 132.212 45.1307C138.677 47.3408 144.719 46.6797 150.845 43.535C156.814 40.4711 162.205 35.0424 169.045 36.7272C170.339 37.0448 171.226 34.9092 169.974 34.0877Z" fill="#6F9841"/>
<path d="M266.539 33.9446C263.567 33.5329 259.99 33.0984 257.233 34.7958C256.004 35.5529 255.059 37.1392 254.128 38.308C252.763 40.0199 251.153 41.3548 249.437 42.5092C248.383 43.2195 248.544 45.3627 249.783 45.681C256.794 47.4794 262.9 45.0129 269.567 42.7061C271.48 42.045 270.636 38.9029 268.766 39.2306C266.03 39.7143 263.429 41.1401 260.736 41.9023C257.371 42.8546 253.959 43.0863 250.555 42.3336C250.671 43.3919 250.786 44.4477 250.902 45.5061C253.084 43.8163 255.102 41.8234 256.673 39.3247C258.197 36.9024 259.932 36.4907 262.373 36.1648C263.86 35.9672 265.223 35.553 266.664 35.0598C267.212 34.8722 267.045 34.0166 266.539 33.9446Z" fill="#6F9841"/>
<path d="M257.719 40.4808C256.671 40.3179 255.6 40.7643 254.554 40.7864C254.68 41.899 254.806 43.0117 254.931 44.1237C256.412 43.5788 257.775 42.2047 258.462 40.5427C259.004 39.2299 258.1 37.2199 256.723 37.8318C255.697 38.2877 255.059 39.0549 254.672 40.2762C254.494 40.8312 254.686 41.6698 255.063 42.0493C255.38 42.3701 255.705 42.6391 256.119 42.7231C256.376 42.7724 256.582 42.797 256.833 42.7844C256.885 42.7818 256.937 42.7774 256.988 42.7749C256.743 42.7503 256.549 42.6145 256.41 42.3651C256.611 42.8835 257.157 43.1917 257.612 43.1917C258.291 43.1917 258.709 42.6663 258.952 41.9679C259.245 41.1394 258.872 39.9649 258.197 39.5557C257.841 39.3385 257.542 39.2154 257.142 39.1737C257.04 39.1535 256.939 39.1509 256.833 39.161C256.483 39.1389 256.609 39.2425 257.215 39.4717C257.344 40.064 257.476 40.6532 257.606 41.2455C257.583 41.3118 257.62 41.3566 257.542 41.3882C256.961 40.4858 256.381 39.5828 255.802 38.6798C255.318 39.7799 254.754 40.4138 253.838 41.0182C252.227 42.0841 253.759 45.1795 255.271 43.9539C256.206 43.1967 257.355 42.7793 258.193 41.8498C258.67 41.3219 258.248 40.5648 257.719 40.4808Z" fill="#6F9841"/>
<path d="M238.755 20.2028C237.874 20.5722 237.058 21.0439 236.208 21.5125C234.13 22.6617 233.335 22.7678 231.204 21.431C228.531 19.7513 226.18 17.6201 224.077 15.0298C220.813 11.0118 218.53 4.8873 213.637 3.36484C212.072 2.87925 211.022 5.61728 212.517 6.5449C217.871 9.87208 220.667 16.8156 225.486 21.1052C227.098 22.5411 230.78 25.73 232.956 25.3997C235.458 25.0221 237.544 23.0318 239.057 20.6739C239.201 20.4491 238.965 20.1138 238.755 20.2028Z" fill="#6F9841"/>
<path d="M239.29 20.2793C238.636 18.1677 236.292 18.2662 234.684 17.7484C231.61 16.757 228.682 15.1853 225.612 14.2135C224.191 13.7645 223.192 16.3301 224.589 17.1245C227.831 18.969 231.392 20.2124 234.894 21.1153C235.207 21.1968 239.943 22.3783 239.29 20.2793Z" fill="#6F9841"/>
<path d="M236.743 21.2413C234.779 20.3882 232.759 20.6787 231.064 19.0167C229.674 17.6546 228.663 15.8935 226.826 15.3757C225.066 14.8825 224.355 17.4721 225.667 18.6713C227.182 20.0523 228.593 22.1096 230.388 22.9532C232.419 23.9055 234.906 23.1528 236.842 22.1443C237.202 21.9543 237.037 21.3695 236.743 21.2413Z" fill="#6F9841"/>
<path d="M229.445 20.5209C223.828 18.6171 220.661 11.6413 216.679 7.06827C212.917 2.74148 207.277 -0.672222 201.991 1.21964C200.387 1.79427 200.62 5.02357 202.399 4.83098C209.305 4.08585 213.819 8.52819 218.149 14.4608C221.147 18.5678 224.559 22.428 229.445 21.4018C229.833 21.3204 229.788 20.6371 229.445 20.5209Z" fill="#6F9841"/>
<path d="M205.195 3.02909C204.056 3.58667 202.872 3.93713 201.711 4.4202C200.35 4.99041 198.869 6.21608 197.403 6.24071C194.481 6.28744 191.784 6.54191 188.977 7.59771C189.469 8.61121 189.961 9.62533 190.456 10.6388C191.831 9.21803 192.307 7.27695 193.108 5.38509C194.133 2.95522 195.921 1.17954 197.821 -0.214099C200.031 -1.83759 202.649 -2.2272 205.189 -2.22215C207.744 -2.21962 210.063 -1.03059 212.562 -0.78432C214 -0.643504 214.325 -3.02664 213.254 -3.84312C209.031 -7.06422 202.435 -6.64745 197.907 -4.68676C195.673 -3.71683 193.752 -2.15838 192.117 -0.10865C190.206 2.28902 189.982 5.62187 188.306 8.06626C187.173 9.72133 188.553 11.7389 190.147 10.9224C191.442 10.2612 192.745 9.79268 194.112 9.41317C195.527 9.02103 197.218 9.44729 198.566 8.91244C201.217 7.86421 203.14 5.46652 205.425 3.68263C205.695 3.47299 205.522 2.86617 205.195 3.02909Z" fill="#6F9841"/>
<path d="M192.913 4.88178C192.843 4.99545 192.777 5.1135 192.719 5.23663C192.348 5.95461 192.731 6.76353 193.329 7.03001C194.224 7.42972 195.235 7.12155 196.065 6.65743C196.582 6.36632 196.8 5.53532 196.658 4.91396C196.462 4.07033 195.758 3.658 195.072 3.83608C194.576 3.96426 194.101 4.25285 193.695 4.61531C194.37 5.0788 195.046 5.54543 195.723 6.00893C195.68 5.05416 195.639 4.09749 195.596 3.14272C194.665 3.293 193.734 3.44394 192.804 3.59423C192.806 3.44836 192.809 3.48309 192.814 3.69779C192.822 3.89039 192.834 4.07285 192.83 4.26481C192.783 6.16425 195.25 6.58102 195.604 4.71378C195.736 4.02107 195.738 3.36689 195.546 2.6887C195.34 1.9663 194.836 1.44092 194.175 1.44092C193.467 1.44092 192.666 2.21762 192.752 3.14272C192.845 4.09749 192.935 5.05416 193.026 6.00893C193.164 7.4373 194.379 8.10792 195.328 7.15126C195.406 7.07232 195.839 6.79066 196.065 6.65743C195.546 5.84852 195.026 5.03962 194.504 4.23325C194.2 4.5313 193.73 4.5831 193.329 4.67466C193.759 5.0668 194.189 5.45892 194.62 5.85106C194.624 5.71277 194.622 5.5726 194.611 5.43431C194.564 4.31157 193.431 3.99395 192.913 4.88178Z" fill="#6F9841"/>
<path d="M195.074 4.51715C194.463 4.23552 193.746 4.406 193.135 4.61312C192.422 4.85245 191.524 5.30142 191.123 6.05349C190.536 7.14908 191.71 8.59449 192.63 7.85947C193.112 7.4768 193.318 6.90468 193.81 6.53464C194.249 6.20881 194.757 6.1078 195.219 5.84637C195.744 5.54832 195.513 4.7167 195.074 4.51715Z" fill="#6F9841"/>
<path d="M175.54 31.4924C173.884 32.5015 172.766 34.3814 171.232 35.6266C169.397 37.1169 167.013 36.6926 164.941 36.4905C160.959 36.1003 156.534 35.6045 152.809 37.7281C151.633 38.3994 152.203 40.7326 153.47 40.6487C155.893 40.4908 158.239 39.7855 160.687 39.7286C163.195 39.6699 165.668 40.1827 168.174 39.8423C171.798 39.3517 174.726 35.8811 175.888 31.8132C175.96 31.5619 175.71 31.3889 175.54 31.4924Z" fill="#6F9841"/>
<path d="M174.691 32.4567C173.365 31.5909 171.903 32.3582 170.503 32.7156C167.96 33.3691 165.534 32.9448 162.989 33.1765C161.908 33.2757 161.496 35.3967 162.715 35.6013C164.937 35.9739 167.194 35.72 169.403 35.3033C171.085 34.9876 173.744 34.627 174.771 32.8292C174.842 32.7105 174.794 32.5255 174.691 32.4567Z" fill="#6F9841"/>
<path d="M173.211 32.6637C171.784 32.8317 170.392 33.2605 168.983 33.5667C167.338 33.9216 165.575 33.7517 164.014 34.5259C164.414 34.5878 164.811 34.649 165.211 34.7134C164.672 34.2746 164.295 34.1635 163.646 34.178C162.3 34.2077 161.669 36.4967 162.938 37.3056C163.068 37.4142 163.197 37.5254 163.329 37.6365C163.871 38.273 164.556 38.273 165.211 37.9276C166.576 37.2071 168.275 37.286 169.712 36.7335C171.15 36.181 172.556 35.086 173.604 33.8035C173.919 33.4183 173.717 32.6044 173.211 32.6637Z" fill="#6F9841"/>
<path d="M186.004 11.9867C187.619 10.9334 188.792 8.72078 189.89 6.98678C190.707 5.69923 191.315 4.17237 192.425 3.1955C193.495 2.25588 194.749 2.13714 195.997 1.81194C197.282 1.47852 196.86 -0.628049 195.707 -0.756236C193.673 -0.985457 191.2 0.183411 190.073 2.3127C189.21 3.94062 188.653 5.7952 187.885 7.4951C187.224 8.9601 186.239 10.1908 185.731 11.7373C185.667 11.9299 185.875 12.0732 186.004 11.9867Z" fill="#6F9841"/>
<path d="M189.355 9.59118C188.286 9.59371 187.419 9.73391 186.379 10.0427C185.436 10.3212 185.638 12.0899 186.608 12.0627C190.11 11.9712 193.158 8.80944 196.553 7.89382C197.56 7.62292 197.132 5.72095 196.125 6.0392C194.671 6.49764 193.322 7.21311 191.968 7.99044C190.157 9.03109 188.335 9.55647 186.379 10.0427C186.599 10.6691 186.822 11.2955 187.042 11.9219C187.967 11.3081 188.667 10.7038 189.441 9.84251C189.521 9.75411 189.46 9.58866 189.355 9.59118Z" fill="#6F9841"/>
<path d="M27.808 10.164C26.1791 11.3676 25.4501 13.8467 24.7358 15.8895C23.8297 18.4766 23.4654 21.38 23.4981 24.1749C23.5187 25.9581 25.7716 25.9556 25.8064 24.1749C25.8597 21.56 26.1196 19.0588 26.6588 16.5228C27.0953 14.4636 28.168 12.6551 28.3826 10.5587C28.4173 10.2082 28.0325 9.99855 27.808 10.164Z" fill="#6F9841"/>
<path d="M28.2691 9.89006C26.2201 9.42088 24.0109 10.1193 21.8876 9.97593C20.6625 9.89194 18.1444 8.62712 17.03 9.76881C15.8814 10.9503 15.7043 13.5677 15.311 15.2152C14.6316 18.0738 14.0528 21.1503 14.1761 24.1371C14.261 26.1894 16.6784 26.1546 16.8139 24.1371C16.9747 21.7495 17.127 19.4258 17.5287 17.0704C17.7116 16.007 17.9425 14.9563 18.1713 13.908C18.3294 13.2096 18.4881 12.5144 18.651 11.8185C18.729 12.5043 19.0974 12.7436 19.7527 12.534C22.3488 12.9659 26.4304 12.8276 28.3966 10.4691C28.5405 10.2967 28.4873 9.94184 28.2691 9.89006Z" fill="#6F9841"/>
<path d="M24.8961 24.5101C23.6858 24.6755 22.1697 24.2783 20.9531 24.1501C20.5578 24.1053 16.7977 23.5976 16.979 24.3642C16.8762 24.8334 16.7708 25.3044 16.668 25.773C16.6907 25.7382 16.7155 25.7041 16.7381 25.6694C17.5968 24.4115 16.5483 22.7312 15.3027 23.4397C15.2679 23.4593 15.2347 23.4789 15.202 23.4985C14.8315 23.7081 14.5942 24.2758 14.6027 24.7494C14.6027 24.8012 14.6027 24.8504 14.6048 24.8997C14.6132 25.5532 14.9712 26.143 15.5046 26.3154C16.9606 26.789 18.7476 26.6362 20.2552 26.7006C22.1782 26.7821 23.4364 26.4707 25.1143 25.4743C25.487 25.2552 25.3267 24.4507 24.8961 24.5101Z" fill="#6F9841"/>
<path d="M26.2825 11.4039C24.8123 11.9691 23.4534 13.2023 22.9531 15.0272C22.1234 18.0564 21.5984 21.2705 20.9579 24.3685C21.9258 24.0628 22.8936 23.7566 23.8614 23.4509C22.358 22.0055 25.5271 16.2333 26.1818 14.5341C26.544 13.5919 26.4681 12.24 25.5682 11.7316C23.6426 10.6417 22.3849 12.0474 21.2357 13.8483C20.5109 14.9805 20.1319 16.532 19.7924 17.8764C19.4134 19.3566 19.3496 22.0794 18.2606 23.1055C18.6538 22.911 19.0471 22.7159 19.4403 22.5208C19.2922 22.5139 19.1435 22.5088 18.9933 22.5012C19.531 22.9925 20.066 23.4806 20.6016 23.9687C19.842 21.1051 22.0222 18.6777 22.854 16.179C23.5093 14.2108 23.7275 11.4904 21.4666 10.9082C19.9838 10.523 18.3613 10.792 17.8136 12.7628C16.9238 15.9744 16.3719 19.3465 15.9728 22.6913C15.6328 25.5525 18.9337 26.0829 19.2321 23.2192C19.4155 21.4556 19.677 19.7114 19.9838 17.9698C20.1013 17.3365 20.2268 16.7025 20.3607 16.0736C20.4329 15.7578 20.5025 15.444 20.5747 15.1308C20.8282 13.9569 20.8857 13.8855 20.7476 14.9161C20.4925 14.517 20.2373 14.1198 19.9817 13.7227C20.3111 15.0298 18.1267 18.0961 17.7087 19.3414C17.0703 21.2332 16.86 23.0664 17.385 25.0296C17.6201 25.9054 18.2252 26.4656 18.9933 26.4971C20.7312 26.5666 21.4313 25.0195 21.9995 23.288C22.5783 21.5345 22.854 15.7724 24.8044 15.264C24.3674 15.1952 23.9288 15.1264 23.4903 15.0569C23.6078 15.1283 23.7254 15.1977 23.8424 15.2691C23.6389 14.3345 23.4328 13.3993 23.2288 12.4673C21.8187 16.162 17.8816 22.8321 21.4044 26.3936C22.3786 27.3755 23.9415 27.0819 24.3079 25.4735C24.7649 23.4756 25.0532 21.441 25.3147 19.3932C25.5888 17.25 25.4612 14.2777 26.9456 12.7653C27.4664 12.2324 26.913 11.1596 26.2825 11.4039Z" fill="#6F9841"/>
<path d="M181.516 14.068C178.501 10.5281 174.663 7.79004 171.374 4.5961C168.03 1.34722 164.836 -2.11572 161.63 -5.55657C156.145 -11.445 149.144 -17.0808 141.49 -13.8249C140.138 -13.2503 140.712 -10.6601 142.087 -11.2303C150.544 -14.7374 157.615 -5.97398 163.467 0.0103989C166.115 2.71622 168.813 5.34563 171.584 7.86896C174.452 10.4788 177.706 13.4511 181.166 14.7904C181.513 14.9237 181.769 14.3636 181.516 14.068Z" fill="#87AB35"/>
<path d="M181.182 13.9945C178.449 14.7908 176.199 17.0281 173.443 17.729C173.754 17.8818 174.065 18.0346 174.378 18.1849C172.789 14.5963 170.754 11.6038 167.995 9.22886C167.445 8.75526 166.809 9.78832 167.283 10.3314C169.546 12.9311 171.078 16.2065 172.947 19.1864C173.168 19.5369 173.499 19.7857 173.882 19.643C176.654 18.5973 178.966 16.5646 181.538 15.008C182.022 14.7169 181.678 13.8486 181.182 13.9945Z" fill="#87AB35"/>
<path d="M179.603 13.0395C178.056 13.4708 176.164 14.3984 174.57 14.2753C175.044 14.5986 175.518 14.9238 175.991 15.2496C174.877 13.2119 174.393 11.0485 173.003 9.1497C171.24 6.74193 169.295 4.49959 167.446 2.18591C166.672 3.11353 165.899 4.03864 165.125 4.96626C166.69 6.83349 168.257 8.71018 170.011 10.3261C171.885 12.05 174.416 13.0294 176.079 14.9857C176.753 13.9419 177.424 12.8987 178.097 11.8555C177.999 11.786 177.9 11.7198 177.803 11.6509C175.936 10.3457 174.227 13.8806 176.116 15.1037C176.218 15.1681 176.316 15.2319 176.417 15.2963C178.038 16.3446 179.869 13.7449 178.433 12.1687C176.864 10.4442 174.828 9.63779 173.061 8.24162C170.967 6.58908 169.198 4.31016 167.446 2.18591C165.953 0.378035 163.678 3.12365 165.125 4.96626C166.772 7.06019 168.418 9.15663 170.065 11.2537C171.523 13.1058 171.964 15.2641 173.151 17.2349C175.007 20.3089 179.117 16.1817 180.358 14.2184C180.741 13.6141 180.115 12.8962 179.603 13.0395Z" fill="#87AB35"/>
<path d="M190.436 22.8423C190.37 22.687 190.25 22.6674 190.125 22.7488C190.044 22.8006 190.001 22.956 190.059 23.0494C190.893 24.3913 192.229 25.1017 193.211 26.2831C193.888 27.0952 194.838 25.694 194.024 25.0228C193.419 24.5245 192.818 24.0193 192.198 23.5502C191.912 23.3336 191.554 22.9932 191.218 22.9067C191.061 22.8644 190.905 22.8278 190.748 22.7905C191.113 22.877 189.649 22.6251 190.293 23.0103C190.388 23.0671 190.483 22.9534 190.436 22.8423Z" fill="#87AB35"/>
<path d="M190.229 22.8713C186.914 23.1523 183.059 26.2553 180.375 28.4288C179.781 28.9074 179.787 29.8445 180.375 30.3257C184.626 33.8208 189.405 36.8279 194.524 37.9967C195.801 38.2878 196.301 36.1692 195.062 35.6634C190.256 33.7046 185.629 31.6796 181.301 28.4288C181.301 29.0603 181.301 29.6942 181.301 30.3257C182.759 29.0552 184.169 27.7727 185.732 26.6821C187.287 25.5973 189.07 24.8667 190.433 23.4611C190.62 23.2685 190.474 22.8517 190.229 22.8713Z" fill="#87AB35"/>
<path d="M186.812 29.9728C185.759 29.0281 184.631 28.3524 183.408 27.7822C183.156 28.8728 182.905 29.9658 182.654 31.0557C184.629 31.5123 186.328 29.8326 187.917 28.6657C187.271 27.6642 186.626 26.6627 185.979 25.6586C185.286 26.734 184.659 27.9698 184.709 29.3811C184.787 31.5786 187.231 31.8994 187.826 29.8863C188.032 29.186 188.131 28.5987 188.489 27.9799C189.396 26.4183 187.606 24.2896 186.303 25.3606C185.164 26.3002 184.052 27.5284 182.654 27.7822C181.027 28.0784 181.489 31.0854 183.031 31.1176C184.112 31.1397 185.145 31.3936 186.169 31.7984C187.139 32.1829 187.515 30.6017 186.812 29.9728Z" fill="#87AB35"/>
</g>
<defs>
<filter id="filter0_n_683_1384" x="0" y="-33" width="450" height="95" filterUnits="userSpaceOnUse" color-interpolation-filters="sRGB">
<feFlood flood-opacity="0" result="BackgroundImageFix"/>
<feBlend mode="normal" in="SourceGraphic" in2="BackgroundImageFix" result="shape"/>
<feTurbulence type="fractalNoise" baseFrequency="2 2" stitchTiles="stitch" numOctaves="3" result="noise" seed="9213" />
<feColorMatrix in="noise" type="luminanceToAlpha" result="alphaNoise" />
<feComponentTransfer in="alphaNoise" result="coloredNoise1">
<feFuncA type="discrete" tableValues="1 1 1 1 1 1 1 1 1 1 1 1 1 1 1 1 1 1 1 1 1 1 1 1 1 1 1 1 1 1 1 1 1 1 1 1 1 1 1 1 1 1 1 1 1 1 1 1 1 1 1 0 0 0 0 0 0 0 0 0 0 0 0 0 0 0 0 0 0 0 0 0 0 0 0 0 0 0 0 0 0 0 0 0 0 0 0 0 0 0 0 0 0 0 0 0 0 0 0 0 "/>
</feComponentTransfer>
<feComposite operator="in" in2="shape" in="coloredNoise1" result="noise1Clipped" />
<feFlood flood-color="rgba(0, 0, 0, 0.25)" result="color1Flood" />
<feComposite operator="in" in2="noise1Clipped" in="color1Flood" result="color1" />
<feMerge result="effect1_noise_683_1384">
<feMergeNode in="shape" />
<feMergeNode in="color1" />
</feMerge>
</filter>
</defs>
</svg>
