<svg width="96" height="369" viewBox="0 0 96 369" fill="none" xmlns="http://www.w3.org/2000/svg">
<g clip-path="url(#clip0_681_1103)" filter="url(#filter0_n_681_1103)">
<path d="M48 -1C64 14.4167 64 29.8333 48 45.25C32 60.6667 32 76.0833 48 91.5C64 106.917 64 122.333 48 137.75C32 153.167 32 168.583 48 184C64 199.417 64 214.833 48 230.25C32 245.667 32 261.083 48 276.5C64 291.917 64 307.333 48 322.75C32 338.167 32 353.583 48 369" stroke="url(#paint0_linear_681_1103)" stroke-width="12" stroke-linecap="round"/>
<path d="M48 -1C32 14.4167 32 29.8333 48 45.25C64 60.6667 64 76.0833 48 91.5C32 106.917 32 122.333 48 137.75C64 153.167 64 168.583 48 184C32 199.417 32 214.833 48 230.25C64 245.667 64 261.083 48 276.5C32 291.917 32 307.333 48 322.75C64 338.167 64 353.583 48 369" stroke="url(#paint1_linear_681_1103)" stroke-width="10" stroke-linecap="round"/>
<path opacity="0.7" d="M48 -1C56 11.3333 56 23.6667 48 36C40 48.3333 40 60.6667 48 73C56 85.3333 56 97.6667 48 110C40 122.333 40 134.667 48 147C56 159.333 56 171.667 48 184C40 196.333 40 208.667 48 221C56 233.333 56 245.667 48 258C40 270.333 40 282.667 48 295C56 307.333 56 319.667 48 332C40 344.333 40 356.667 48 369" stroke="url(#paint2_linear_681_1103)" stroke-width="8" stroke-linecap="round"/>
<path d="M57.6581 37.8989C59.3831 40.0808 65.4117 40.9995 71.1233 39.9507C76.835 38.902 80.0667 36.283 78.3417 34.1011C76.6167 31.9192 70.5881 31.0006 64.8765 32.0493C59.1648 33.098 55.9331 35.717 57.6581 37.8989Z" fill="url(#paint3_linear_681_1103)"/>
<path d="M79.2764 33.6274L56.7237 38.373" stroke="#33691E"/>
<path d="M21.2121 59.8257C19.3375 60.9094 20.8571 63.545 24.6062 65.7124C28.3552 67.8798 32.914 68.7583 34.7885 67.6746C36.663 66.5909 35.1434 63.9554 31.3944 61.788C27.6454 59.6205 23.0866 58.742 21.2121 59.8257Z" fill="url(#paint4_linear_681_1103)"/>
<path d="M34.7881 67.6743L21.2116 59.8254" stroke="#33691E"/>
<path d="M61.73 106.647C64.0382 107.381 68.7167 105.336 72.1797 102.079C75.6428 98.8226 76.5789 95.5873 74.2707 94.8532C71.9625 94.1191 67.284 96.1641 63.821 99.4209C60.3579 102.678 59.4218 105.913 61.73 106.647Z" fill="url(#paint5_linear_681_1103)"/>
<path d="M73.6001 95.1426L62.4001 106.358" stroke="#33691E"/>
<path d="M17.5076 126.453C16.1623 127.706 17.9786 129.638 21.5642 130.768C25.1499 131.899 29.1472 131.799 30.4924 130.546C31.8377 129.293 30.0215 127.361 26.4358 126.231C22.8501 125.101 18.8528 125.2 17.5076 126.453Z" fill="url(#paint6_linear_681_1103)"/>
<path d="M30.9282 130.812L17.0718 126.188" stroke="#33691E"/>
<path d="M66.9489 179.982C69.4483 181.427 75.5267 180.256 80.5254 177.366C85.5241 174.476 87.5502 170.962 85.0509 169.517C82.5515 168.072 76.4731 169.244 71.4744 172.133C66.4757 175.023 64.4496 178.537 66.9489 179.982Z" fill="url(#paint7_linear_681_1103)"/>
<path d="M85.0508 169.517L66.9488 179.982" stroke="#33691E"/>
<path d="M15.0454 202.475C13.056 203.107 13.6616 205.701 16.3981 208.268C19.1346 210.836 22.9656 212.406 24.955 211.775C26.9444 211.143 26.3388 208.549 23.6023 205.981C20.8659 203.413 17.0348 201.843 15.0454 202.475Z" fill="url(#paint8_linear_681_1103)"/>
<path d="M24.4004 211.531L15.6004 202.719" stroke="#33691E"/>
<path d="M63.5915 242.149C65.4681 243.895 70.7541 244.125 75.3982 242.662C80.0422 241.199 82.2857 238.598 80.4091 236.852C78.5325 235.106 73.2465 234.876 68.6024 236.339C63.9584 237.802 61.7149 240.403 63.5915 242.149Z" fill="url(#paint9_linear_681_1103)"/>
<path d="M81.0068 236.494L62.9935 242.507" stroke="#33691E"/>
<path d="M21.813 275.364C20.7377 276.723 22.6361 278.333 26.053 278.96C29.47 279.588 33.1116 278.995 34.1869 277.636C35.2621 276.277 33.3638 274.666 29.9468 274.039C26.5299 273.411 22.8882 274.005 21.813 275.364Z" fill="url(#paint10_linear_681_1103)"/>
<path d="M34.7661 277.923L21.2345 275.076" stroke="#33691E"/>
<path d="M58.7929 320.352C61.5054 320.867 66.0355 318.217 68.9112 314.433C71.7869 310.649 71.9192 307.163 69.2068 306.648C66.4943 306.133 61.9642 308.784 59.0885 312.568C56.2128 316.352 56.0804 319.837 58.7929 320.352Z" fill="url(#paint11_linear_681_1103)"/>
<path d="M68.104 306.981L59.8955 320.019" stroke="#33691E"/>
<path d="M57.5999 72.9998C57.5999 73.7661 58.6744 74.3873 59.9999 74.3873C61.3254 74.3873 62.3999 73.7661 62.3999 72.9998C62.3999 72.2335 61.3254 71.6123 59.9999 71.6123C58.6744 71.6123 57.5999 72.2335 57.5999 72.9998Z" fill="#7CB342"/>
<path d="M30 156.25C30 156.889 30.8954 157.406 32 157.406C33.1046 157.406 34 156.889 34 156.25C34 155.611 33.1046 155.094 32 155.094C30.8954 155.094 30 155.611 30 156.25Z" fill="#7CB342"/>
<path d="M53.5999 267.25C53.5999 268.016 54.6744 268.637 55.9999 268.637C57.3254 268.637 58.3999 268.016 58.3999 267.25C58.3999 266.484 57.3254 265.862 55.9999 265.862C54.6744 265.862 53.5999 266.484 53.5999 267.25Z" fill="#7CB342"/>
</g>
<defs>
<filter id="filter0_n_681_1103" x="0" y="-1" width="96" height="370" filterUnits="userSpaceOnUse" color-interpolation-filters="sRGB">
<feFlood flood-opacity="0" result="BackgroundImageFix"/>
<feBlend mode="normal" in="SourceGraphic" in2="BackgroundImageFix" result="shape"/>
<feTurbulence type="fractalNoise" baseFrequency="1.25 1.25" stitchTiles="stitch" numOctaves="3" result="noise" seed="8287" />
<feColorMatrix in="noise" type="luminanceToAlpha" result="alphaNoise" />
<feComponentTransfer in="alphaNoise" result="coloredNoise1">
<feFuncA type="discrete" tableValues="1 1 1 1 1 1 1 1 1 1 1 1 1 1 1 1 1 1 1 1 1 1 1 1 1 1 1 1 1 1 1 1 1 1 1 1 1 1 1 1 1 1 1 1 1 1 1 1 1 1 1 0 0 0 0 0 0 0 0 0 0 0 0 0 0 0 0 0 0 0 0 0 0 0 0 0 0 0 0 0 0 0 0 0 0 0 0 0 0 0 0 0 0 0 0 0 0 0 0 0 "/>
</feComponentTransfer>
<feComposite operator="in" in2="shape" in="coloredNoise1" result="noise1Clipped" />
<feFlood flood-color="rgba(0, 0, 0, 0.25)" result="color1Flood" />
<feComposite operator="in" in2="noise1Clipped" in="color1Flood" result="color1" />
<feMerge result="effect1_noise_681_1103">
<feMergeNode in="shape" />
<feMergeNode in="color1" />
</feMerge>
</filter>
<linearGradient id="paint0_linear_681_1103" x1="60" y1="-1" x2="-2340" y2="-1" gradientUnits="userSpaceOnUse">
<stop stop-color="#4A7C59"/>
<stop offset="0.5" stop-color="#2D5016"/>
<stop offset="1" stop-color="#1A3009"/>
</linearGradient>
<linearGradient id="paint1_linear_681_1103" x1="60" y1="-1" x2="-2340" y2="-1" gradientUnits="userSpaceOnUse">
<stop stop-color="#5A8C69"/>
<stop offset="0.5" stop-color="#3D6026"/>
<stop offset="1" stop-color="#2A4019"/>
</linearGradient>
<linearGradient id="paint2_linear_681_1103" x1="54" y1="-1" x2="-1146" y2="-1" gradientUnits="userSpaceOnUse">
<stop stop-color="#4A7C59"/>
<stop offset="0.5" stop-color="#2D5016"/>
<stop offset="1" stop-color="#1A3009"/>
</linearGradient>
<linearGradient id="paint3_linear_681_1103" x1="75.2183" y1="30.1504" x2="-131.77" y2="1388.52" gradientUnits="userSpaceOnUse">
<stop stop-color="#7CB342"/>
<stop offset="0.5" stop-color="#558B2F"/>
<stop offset="1" stop-color="#33691E"/>
</linearGradient>
<linearGradient id="paint4_linear_681_1103" x1="38.1826" y1="65.7124" x2="-1320.37" y2="849.023" gradientUnits="userSpaceOnUse">
<stop stop-color="#7CB342"/>
<stop offset="0.5" stop-color="#558B2F"/>
<stop offset="1" stop-color="#33691E"/>
</linearGradient>
<linearGradient id="paint5_linear_681_1103" x1="70.0913" y1="93.5239" x2="533.403" y2="1153.46" gradientUnits="userSpaceOnUse">
<stop stop-color="#7CB342"/>
<stop offset="0.5" stop-color="#558B2F"/>
<stop offset="1" stop-color="#33691E"/>
</linearGradient>
<linearGradient id="paint6_linear_681_1103" x1="32.9282" y1="128.277" x2="-937.17" y2="1040.26" gradientUnits="userSpaceOnUse">
<stop stop-color="#7CB342"/>
<stop offset="0.5" stop-color="#558B2F"/>
<stop offset="1" stop-color="#33691E"/>
</linearGradient>
<linearGradient id="paint7_linear_681_1103" x1="80.5254" y1="166.901" x2="339.794" y2="1512.3" gradientUnits="userSpaceOnUse">
<stop stop-color="#7CB342"/>
<stop offset="0.5" stop-color="#558B2F"/>
<stop offset="1" stop-color="#33691E"/>
</linearGradient>
<linearGradient id="paint8_linear_681_1103" x1="28.5571" y1="210.631" x2="-1439.09" y2="553.309" gradientUnits="userSpaceOnUse">
<stop stop-color="#7CB342"/>
<stop offset="0.5" stop-color="#558B2F"/>
<stop offset="1" stop-color="#33691E"/>
</linearGradient>
<linearGradient id="paint9_linear_681_1103" x1="77.0112" y1="233.69" x2="24.7261" y2="1436.97" gradientUnits="userSpaceOnUse">
<stop stop-color="#7CB342"/>
<stop offset="0.5" stop-color="#558B2F"/>
<stop offset="1" stop-color="#33691E"/>
</linearGradient>
<linearGradient id="paint10_linear_681_1103" x1="36.1338" y1="275.175" x2="-775.3" y2="1231.75" gradientUnits="userSpaceOnUse">
<stop stop-color="#7CB342"/>
<stop offset="0.5" stop-color="#558B2F"/>
<stop offset="1" stop-color="#33691E"/>
</linearGradient>
<linearGradient id="paint11_linear_681_1103" x1="64.2954" y1="305.716" x2="727.812" y2="1439.87" gradientUnits="userSpaceOnUse">
<stop stop-color="#7CB342"/>
<stop offset="0.5" stop-color="#558B2F"/>
<stop offset="1" stop-color="#33691E"/>
</linearGradient>
<clipPath id="clip0_681_1103">
<rect width="370" height="96" fill="white" transform="matrix(0 1 -1 0 96 -1)"/>
</clipPath>
</defs>
</svg>
