<svg width="1432" height="121" viewBox="0 0 1432 121" fill="none" xmlns="http://www.w3.org/2000/svg">
<path d="M624.156 46.7871C614.15 45.8156 606.914 41.0456 604.795 35.83C602.731 30.7633 608.854 25.5013 616.14 22.5988C633.837 15.5482 657.631 20.9109 670.145 29.2189C680.44 36.0525 683.517 46.1586 681.101 54.6749C678.394 64.2132 669.175 72.6937 654.285 78.107C637.973 84.0352 617.897 85.6697 598.662 84.4177C577.811 83.0582 560.832 76.9074 545.218 69.7521C527.557 61.6592 509.7 53.5668 486.092 51.5338C463.964 49.628 440.486 52.405 422.404 59.6569C413.775 63.1195 406.739 67.5268 398.587 71.2822C392.058 74.2904 384.61 76.1962 376.178 74.815C367.315 73.3603 359.853 69.0229 352.441 66.1907C342.8 62.5052 331.525 60.7273 319.728 60.9627C294.018 61.4726 273.546 70.4293 254.441 78.7231C238.355 85.7074 218.199 93.6724 196.226 91.1961C181.704 89.5598 174.611 82.049 164.679 76.8877C152.213 70.4114 135.33 68.6027 118.806 67.4247C81.5606 64.7682 41.9572 64.5006 5.16381 69.0339C-2.75585 70.0091 -1.13821 77.175 7.10038 76.7654C34.5819 75.3948 61.6611 74.3263 89.2744 75.21C102.162 75.6233 115.151 76.3111 127.826 77.6757C138.978 78.8757 148.048 81.1079 155.791 85.6628C163.412 90.1469 169.771 95.0485 179.874 98.06C190.452 101.212 202.498 101.523 214.192 100.659C238.62 98.8558 257.533 89.38 276.068 81.4545C291.948 74.6642 315.679 66.6289 336.452 71.9861C345.535 74.3281 352.717 78.3833 361.176 81.266C370.464 84.4324 381.424 85.6049 392.069 83.9387C402.341 82.3308 410.666 78.2021 418.194 74.2941C425.686 70.4077 432.728 66.7259 442.047 64.1305C459.774 59.1953 482.293 59.0445 500.229 63.6978C520.976 69.0803 536.301 79.032 555.702 85.5708C573.343 91.5156 594.927 94.1933 615.595 93.6494C636.578 93.0977 656.803 88.9437 672.504 81.3557C686.976 74.3622 694.696 64.3066 696.932 54.057C701.3 34.0175 677.334 13.6301 638.315 12.0062C618.439 11.1786 597.954 18.6135 594.11 29.3771C590.622 39.1522 604.187 49.8152 623.571 49.1182C625.907 49.034 626.724 47.0368 624.156 46.7871Z" fill="#486B28"/>
<path d="M611.778 100.166C607.755 105.111 614.316 110.761 623.549 112.086C634.508 113.66 644.069 107.656 643.9 102.151C643.694 95.5205 630.207 92.4709 620.463 90.7017C612.489 89.2543 604.489 87.8552 596.466 86.4884C587.981 85.0428 579.436 83.2038 570.623 82.4851C566.367 82.1371 562.883 85.3555 567.44 86.5638C577.739 89.2957 589.42 90.6966 600.36 92.5228C610.127 94.1536 621.174 95.1164 630.05 97.9646C637.635 100.398 638.243 105.562 630.817 108.299C621.901 111.594 613.167 105.355 614.731 100.838C615.044 99.9315 612.563 99.2023 611.778 100.166Z" fill="#486B28"/>
<path d="M434.287 78.8101C424.363 80.3674 422.118 87.2818 428.094 91.3462C435.639 96.4735 452.077 93.4924 455.971 88.0883C461.054 81.0336 451.745 74.1784 439.034 72.5403C432.38 71.6819 425.314 72.1725 418.703 72.8801C409.72 73.8424 401.74 74.9311 392.517 74.3582C387.095 74.0221 386.262 78.6341 391.258 79.378C401.55 80.9099 412.427 78.8515 422.503 77.754C430.616 76.8704 441.267 76.7145 446.33 80.9278C451.028 84.8377 446.483 89.6938 437.892 89.7549C428.965 89.8179 427.55 82.6446 435.463 81.1182C438.117 80.606 437.064 78.3738 434.287 78.8101Z" fill="#486B28"/>
<path d="M367.933 47.9355C364.721 45.7856 367.72 42.9355 372.059 42.2799C376.235 41.6514 380.169 43.1024 381.626 45.1552C385.215 50.1966 375.019 53.3304 367.318 53.5262C358.684 53.7474 350.678 53.1455 342.305 54.7313C334.672 56.1772 326.887 58.8513 322.352 62.5276C319.529 64.8177 325.638 67.0715 329.12 65.351C333.621 63.1276 337.661 61.1106 343.226 59.6614C349.418 58.0485 356.066 57.7506 362.816 57.6536C373.9 57.4973 385.716 55.5198 388.497 48.9589C390.636 43.9088 382.816 37.9856 372.64 39.004C368.162 39.4532 364.182 40.9511 363.009 43.4187C362.063 45.4155 363.81 47.5598 367.241 48.4187C367.843 48.5676 368.341 48.2104 367.933 47.9355Z" fill="#486B28"/>
<path d="M294.994 91.4671C295.676 95.2262 301.606 98.7949 309.104 98.177C318.173 97.4317 321.704 92.3637 316.751 88.3458C310.822 83.5348 297.682 84.3573 288.719 85.275C283.307 85.8299 278.018 86.6594 272.507 86.8911C267.171 87.1141 263.244 86.4566 258.537 85.2424C254.314 84.1541 249.119 87.1407 253.204 88.9766C263.703 93.6943 279.191 91.0957 290.995 89.7324C296.596 89.086 308.234 87.983 311.057 91.7908C312.382 93.5775 308.781 94.7287 306.031 94.8492C302.014 95.0253 299.161 92.7568 297.616 91.0832C297.007 90.4258 294.858 90.715 294.994 91.4671Z" fill="#486B28"/>
<path d="M206.92 60.9393C203.907 62.4299 201.089 60.4147 201.485 58.8685C201.917 57.1697 205.089 56.0042 207.797 55.4456C212.677 54.4378 217.783 55.28 221.239 57.2791C228.763 61.6345 220.504 67.1388 212.588 68.8813C202.079 71.1908 189.735 69.3715 178.917 68.8041C168.991 68.2832 158.316 68.8363 150.017 72.0671C144.984 74.0266 149.862 78.5847 154.911 76.593C169.107 70.9931 188.349 75.3484 204.322 74.7236C217.949 74.1898 233.657 68.7374 231.776 60.3917C230.063 52.7784 212.687 48.4198 201.352 53.4754C197.332 55.2676 193.233 59.2046 197.701 61.7513C200.744 63.4878 206.152 63.9099 208.803 61.7223C209.575 61.0846 207.89 60.4579 206.92 60.9393Z" fill="#486B28"/>
<path d="M216.944 112.132C214.844 110.876 211.07 111.837 209.758 113.153C207.883 115.03 208.519 117.198 211.874 118.477C220.352 121.706 230.724 117.81 232.524 112.909C234.647 107.135 223.72 103.288 214.764 102.268C208.206 101.521 201.429 101.817 194.908 100.944C192.439 100.614 190.309 99.9118 188.459 98.9886C186.22 97.8713 186.034 96.5927 185.379 95.0948C184.425 92.9128 177.691 92.7546 176.951 95.0948C175.831 98.6258 180.087 101.472 185.18 103.39C191.661 105.838 200.016 105.856 207.581 106.095C213.997 106.298 224.694 107.311 225.175 111.763C225.372 113.581 222.904 115.339 219.86 115.973C218.189 116.32 216.358 116.214 214.794 115.781C211.279 114.8 215.076 113.392 216.747 112.947C217.329 112.79 217.329 112.361 216.944 112.132Z" fill="#486B28"/>
<path d="M80.5971 86.509C81.644 90.6437 90.0255 93.4883 97.3047 91.9835C105.048 90.3812 107.524 85.1118 103.56 81.4212C98.8424 77.0231 87.8066 76.8539 79.7134 77.4612C73.6206 77.9192 67.9301 78.7739 61.7939 77.9803C56.5847 77.3049 52.1699 75.5054 48.9533 73.2387C45.3354 70.6902 37.2066 73.0842 40.7845 75.8176C44.837 78.9104 50.3652 80.9867 56.9172 82.2672C64.6413 83.7794 72.6638 82.8456 80.4279 82.012C85.6404 81.4515 96.9824 81.0028 97.946 85.1642C99.0916 90.1136 86.0359 90.514 83.7132 86.0442C83.1358 84.9269 80.3249 85.4281 80.5971 86.509Z" fill="#486B28"/>
<path d="M101.979 57.2309C98.3278 54.3248 118.161 50.9091 116.071 56.6792C114.643 60.6199 104.112 60.4364 98.6101 60.487C91.7434 60.5495 85.318 61.1803 79.7065 63.4286C75.4346 65.1403 70.0826 68.3693 70.4517 71.4387C70.6541 73.1288 74.9498 74.6033 77.3482 72.983C80.2415 71.0309 81.2255 68.732 85.1156 67.1228C89.4973 65.3072 94.8425 65.1509 100.149 65.0075C109.457 64.7523 119.51 63.698 122.809 58.3316C125.603 53.7877 118.281 50.1473 110.252 50.5891C104.205 50.9215 93.9793 54.2333 99.2914 58.0801C100.464 58.9298 103.125 58.1431 101.979 57.2309Z" fill="#486B28"/>
<path d="M690.085 13.5118C700.975 14.2695 706.44 7.02633 699.569 2.82773C691.214 -2.27845 676.976 0.032804 671.959 5.75875C666.135 12.4056 674.388 18.6681 680.261 24.2607C683.746 27.583 685.972 31.2166 687.387 34.9467C688.842 38.7719 688.131 42.434 688.361 46.2758C688.497 48.5778 694.773 49.1401 695.885 46.827C698.101 42.2096 696.659 36.7747 694.709 32.2004C692.643 27.3513 688.473 23.0032 683.743 18.7812C679.251 14.7688 674.581 9.4746 681.81 5.48565C685.298 3.56014 691.397 3.62313 694.384 5.79967C697.596 8.14356 694.646 11.2309 689.64 11.7321C687.607 11.9367 688.381 13.3932 690.085 13.5118Z" fill="#486B28"/>
<path d="M543.839 46.04C551.255 43.5687 557.703 49.3535 550.932 51.9972C545.371 54.1668 537.025 51.1241 531.511 50.1848C519.574 48.1522 504.644 48.4593 496.455 54.2491C493.043 56.6611 500.099 59.1866 503.88 57.3457C511.195 53.7857 519.829 53.7986 528.975 55.1526C537.278 56.3829 545.607 58.5613 553.752 55.8478C559.862 53.8147 561.682 49.6298 558.456 46.2754C555.344 43.0354 547.154 42.8377 542.53 45.126C541.623 45.5747 542.799 46.3866 543.839 46.04Z" fill="#486B28"/>
<path d="M348.094 71.2864L365.325 61.2686C362.508 62.2938 356.393 62.0138 351.489 64.3071C347.888 65.9917 346.336 68.7485 348.094 71.2864Z" fill="#668936"/>
<path d="M348.094 71.2864L365.325 61.2686C363.638 62.8616 364.601 66.1375 360.728 68.9462C357.881 71.0115 352.904 72.0478 348.094 71.2864Z" fill="#587E2B"/>
<path d="M372.59 80.3722C372.59 80.3722 372.977 80.6844 373.657 81.2342C374.331 81.7837 375.288 82.5759 376.381 83.54C378.597 85.4637 381.342 88.0963 383.793 90.8121C386.241 93.5257 388.391 96.3165 389.833 98.4429C390.567 99.5027 391.132 100.397 391.517 101.024C391.9 101.651 392.118 102.01 392.118 102.01C391.869 100.397 393.185 98.3551 394.028 95.8733C394.87 93.4034 395.241 90.4673 393.055 87.3639C391.461 85.0848 388.537 83.1358 384.91 81.8788C381.281 80.6163 376.963 80.0522 372.59 80.3722Z" fill="#668936"/>
<path d="M372.591 80.3721C372.591 80.3721 372.977 80.6843 373.657 81.2341C374.332 81.7836 375.289 82.5757 376.381 83.5399C378.598 85.4635 381.342 88.0962 383.793 90.812C386.242 93.5256 388.392 96.3164 389.833 98.4428C390.567 99.5026 391.132 100.397 391.517 101.024C391.9 101.651 392.119 102.01 392.119 102.01C390.571 100.616 387.205 99.4561 383.575 98.0892C379.926 96.7155 376.053 95.1453 373.136 92.7481C370.996 90.9808 369.834 88.9513 369.691 86.8231C369.555 84.6966 370.425 82.4659 372.591 80.3721Z" fill="#587E2B"/>
<path d="M397.457 80.1995C397.457 80.1995 398.803 80.6234 400.736 81.3361C402.676 82.0436 405.161 83.0676 407.487 84.1917C409.812 85.3181 411.968 86.5393 413.483 87.5034C415.008 88.4643 415.938 89.1416 415.938 89.1416C415.251 88.319 415.224 87.1103 414.742 85.7131C414.267 84.3246 413.324 82.7282 410.915 81.3489C409.158 80.3361 406.812 79.6588 404.404 79.4487C401.988 79.2313 399.53 79.4827 397.457 80.1995Z" fill="#668936"/>
<path d="M397.457 80.1992C397.457 80.1992 398.803 80.6231 400.736 81.3358C402.676 82.0433 405.161 83.0672 407.487 84.1914C409.812 85.3178 411.968 86.539 413.483 87.5031C415.008 88.464 415.938 89.1413 415.938 89.1413C414.639 88.5629 412.466 88.299 410.088 87.9826C407.699 87.6631 405.134 87.2897 402.745 86.4148C400.988 85.7684 399.62 84.8847 398.689 83.8268C397.766 82.7693 397.271 81.5353 397.457 80.1992Z" fill="#587E2B"/>
<path d="M416.998 65.2278L429.752 46.6504C427.038 48.8701 418.566 50.3304 414.368 54.8724C411.281 58.2076 412.038 62.3616 416.998 65.2278Z" fill="#668936"/>
<path d="M416.998 65.2278L429.751 46.6504C429.131 49.2904 433.791 53.3832 431.496 58.3064C429.808 61.9234 424.22 64.8039 416.998 65.2278Z" fill="#587E2B"/>
<path d="M449.403 55.9198L468.087 71.579C466.526 69.2227 469.27 64.9537 465.313 60.6862C462.406 57.5506 456.19 55.5175 449.403 55.9198Z" fill="#668936"/>
<path d="M449.403 55.9199L468.087 71.5792C464.761 69.8389 456.433 69.4256 450.875 65.7171C446.789 62.9925 445.925 59.0951 449.403 55.9199Z" fill="#587E2B"/>
<path d="M471.343 56.9215C471.343 56.9215 472.615 56.0341 474.645 54.7592C476.665 53.4787 479.485 51.83 482.472 50.2691C485.455 48.71 488.602 47.2411 491.037 46.1923C493.465 45.1399 495.149 44.4824 495.149 44.4824C493.107 44.9583 490.136 44.9385 486.704 45.1955C483.286 45.4489 479.379 45.984 475.838 47.5229C473.233 48.6493 471.359 50.2042 470.538 51.8727C469.712 53.5412 469.947 55.3178 471.343 56.9215Z" fill="#668936"/>
<path d="M471.343 56.9215C471.343 56.9215 472.615 56.0341 474.645 54.7592C476.665 53.4787 479.485 51.83 482.472 50.2691C485.455 48.71 488.602 47.2411 491.037 46.1923C493.465 45.1399 495.149 44.4824 495.149 44.4824C493.698 45.402 492.976 46.9555 492.037 48.6617C491.093 50.3753 489.93 52.2231 487.452 53.8953C485.622 55.1238 483.216 56.0378 480.456 56.5766C477.695 57.1136 474.572 57.2824 471.343 56.9215Z" fill="#587E2B"/>
<path d="M525.085 66.5557L536.148 86.8015C535.843 83.9712 541.344 79.8025 539.564 74.4811C538.255 70.5713 532.703 67.2904 525.085 66.5557Z" fill="#668936"/>
<path d="M525.085 66.5557L536.148 86.8015C533.56 84.3358 524.75 82.4517 520.896 77.4609C518.066 73.7933 519.428 69.4094 525.085 66.5557Z" fill="#587E2B"/>
<path d="M541.999 71.2875C541.999 71.2875 542.547 71.2641 543.511 71.2264C544.474 71.185 545.85 71.1206 547.494 71.007C550.783 70.7969 555.138 70.3804 559.417 69.7822C563.693 69.1827 567.876 68.4029 570.939 67.7225C572.477 67.3882 573.736 67.0848 574.614 66.8678C575.494 66.6485 575.992 66.5229 575.992 66.5229C573.666 66.7937 570.616 66.3629 567.244 65.9266C563.852 65.4898 560.182 65.059 556.122 65.3229C553.132 65.5188 550.348 66.151 547.906 67.1551C545.474 68.1606 543.371 69.5381 541.999 71.2875Z" fill="#668936"/>
<path d="M541.999 71.288C541.999 71.288 542.547 71.2646 543.511 71.2269C544.474 71.1855 545.85 71.1211 547.494 71.0075C550.783 70.7974 555.138 70.3809 559.417 69.7827C563.693 69.1832 567.876 68.4034 570.939 67.723C572.477 67.3887 573.736 67.0853 574.614 66.8683C575.494 66.649 575.992 66.5234 575.992 66.5234C574.138 67.317 572.653 68.8273 570.371 70.4167C568.101 71.9956 564.999 73.671 560.314 74.5638C556.883 75.2213 553.122 75.248 549.837 74.6678C546.541 74.0949 543.747 72.9151 541.999 71.288Z" fill="#587E2B"/>
<path d="M567.191 81.5735C567.191 81.5735 572.124 85.5155 576.22 89.7251C580.403 93.9099 583.712 98.3209 583.712 98.3209C583.327 97.0635 584.144 95.4221 584.603 93.4681C585.058 91.5196 585.161 89.2456 583.34 86.8842C582.011 85.1491 579.702 83.6819 576.855 82.7302C574.012 81.7744 570.639 81.3381 567.191 81.5735Z" fill="#668936"/>
<path d="M567.191 81.5732C567.191 81.5732 572.124 85.5153 576.22 89.7249C580.403 93.9097 583.712 98.3207 583.712 98.3207C582.337 97.2807 579.573 96.4743 576.586 95.4775C573.589 94.4771 570.387 93.2899 567.931 91.3971C566.127 90.0035 565.111 88.3764 564.944 86.679C564.782 84.982 565.463 83.2128 567.191 81.5732Z" fill="#587E2B"/>
<path d="M587.885 84.9467C587.885 84.9467 588.291 84.9503 588.998 84.9554C589.354 84.9628 589.781 84.954 590.276 84.9393C590.769 84.9306 591.327 84.9126 591.928 84.8694C593.141 84.8101 594.536 84.6593 596.011 84.4598C597.476 84.246 599.007 83.9499 600.486 83.5927C601.954 83.2207 603.37 82.7881 604.629 82.3283C605.871 81.8556 606.994 81.3835 607.868 80.9274C608.323 80.7081 608.711 80.4924 609.047 80.297C609.393 80.1048 609.685 79.9343 609.905 79.7848C610.363 79.4906 610.622 79.3232 610.622 79.3232C609.243 79.9108 606.944 80.0938 604.536 80.1641C602.101 80.2377 599.626 80.2179 597.153 80.5628C595.327 80.823 593.732 81.3205 592.187 82.0478C590.659 82.7788 589.15 83.7218 587.885 84.9467Z" fill="#668936"/>
<path d="M587.885 84.9467C587.885 84.9467 588.291 84.9503 588.998 84.9554C589.354 84.9628 589.781 84.954 590.276 84.9393C590.769 84.9306 591.327 84.9126 591.928 84.8694C593.141 84.8101 594.536 84.6593 596.011 84.4598C597.476 84.246 599.007 83.9499 600.486 83.5927C601.954 83.2207 603.37 82.7881 604.629 82.3283C605.871 81.8556 606.994 81.3835 607.868 80.9274C608.323 80.7081 608.711 80.4924 609.047 80.297C609.393 80.1048 609.685 79.9343 609.905 79.7848C610.363 79.4906 610.622 79.3232 610.622 79.3232C609.874 80.1623 609.692 81.4285 608.671 82.8851C607.676 84.3182 605.785 85.9719 602.153 87.0046C599.506 87.7664 596.35 87.9568 593.695 87.5563C591.021 87.1683 588.911 86.2018 587.885 84.9467Z" fill="#587E2B"/>
<path d="M630.522 88.6697C630.522 88.6697 633.509 89.0343 638.016 89.4955C642.525 89.9644 648.571 90.4941 654.644 90.8945C660.721 91.2954 666.826 91.5663 671.408 91.6973C675.993 91.8357 679.052 91.8702 679.052 91.8702C675.866 91.4191 672.554 89.878 668.663 88.2761C664.76 86.6688 660.299 85.0127 654.508 84.2389C650.242 83.6711 645.81 83.7773 641.644 84.5152C637.485 85.2573 633.578 86.6293 630.522 88.6697Z" fill="#668936"/>
<path d="M630.522 88.6689C630.522 88.6689 633.509 89.0336 638.016 89.4947C642.525 89.9637 648.571 90.4933 654.644 90.8938C660.721 91.2947 666.826 91.5655 671.408 91.6965C675.993 91.8349 679.052 91.8694 679.052 91.8694C675.836 92.2229 672.291 93.6115 667.823 94.908C663.371 96.199 657.966 97.4059 651.392 97.3163C646.564 97.2533 641.89 96.3714 638.176 94.8579C634.452 93.3471 631.704 91.2046 630.522 88.6689Z" fill="#587E2B"/>
<path d="M667.863 80.2589L706.317 68.8994C700.649 69.7522 690.885 67.4805 680.51 69.7991C672.885 71.5017 667.544 75.5711 667.863 80.2589Z" fill="#668936"/>
<path d="M667.863 80.2579L706.317 68.8984C701.928 71.0175 700.194 76.6837 690.982 80.1535C684.215 82.702 674.992 82.9338 667.863 80.2579Z" fill="#587E2B"/>
<path d="M689.348 60.1042L672.354 47.667C673.876 49.5723 672.023 53.186 675.71 56.6072C678.424 59.1216 683.766 60.6283 689.348 60.1042Z" fill="#668936"/>
<path d="M689.348 60.1042L672.354 47.667C675.278 49.0141 682.211 49.118 687.178 52.0311C690.826 54.1718 691.919 57.3741 689.348 60.1042Z" fill="#587E2B"/>
<path d="M690.122 50.0145C690.122 50.0145 690.474 49.6715 691.089 49.0734C691.387 48.7718 691.779 48.4145 692.238 48.0067C692.687 47.5957 693.205 47.1378 693.806 46.649C694.965 45.6559 696.45 44.5442 698.095 43.3787C699.766 42.2219 701.65 41.033 703.63 39.8909C705.633 38.7594 707.726 37.678 709.769 36.7121C711.835 35.7599 713.808 34.8997 715.576 34.2192C716.447 33.867 717.267 33.5618 718.001 33.2979C718.729 33.0284 719.367 32.7967 719.908 32.6188C720.981 32.2542 721.593 32.0459 721.593 32.0459C718.656 32.576 714.51 32.3944 709.596 32.7194C704.726 33.0408 699.002 33.8831 694.008 36.3314C690.344 38.118 687.899 40.559 687.192 43.0339C686.46 45.5157 687.48 48.0049 690.122 50.0145Z" fill="#668936"/>
<path d="M690.122 50.0145C690.122 50.0145 690.474 49.6715 691.089 49.0734C691.387 48.7718 691.779 48.4145 692.238 48.0067C692.687 47.5957 693.205 47.1378 693.806 46.649C694.965 45.6559 696.45 44.5442 698.095 43.3787C699.766 42.2219 701.65 41.033 703.63 39.8909C705.633 38.7594 707.726 37.678 709.769 36.7121C711.835 35.7599 713.808 34.8997 715.576 34.2192C716.447 33.867 717.267 33.5618 718.001 33.2979C718.729 33.0284 719.367 32.7967 719.908 32.6188C720.981 32.2542 721.593 32.0459 721.593 32.0459C719.367 33.2312 718.101 35.3594 716.772 37.6711C715.427 40.0022 714.015 42.4679 711.065 44.7383C708.876 46.41 705.958 47.6996 702.424 48.6173C698.886 49.5244 694.736 50.0794 690.122 50.0145Z" fill="#587E2B"/>
<path d="M679.945 31.347L655.222 30.1797C658.387 30.7383 661.674 33.4643 667.909 34.1323C672.49 34.6229 677.371 33.61 679.945 31.347Z" fill="#668936"/>
<path d="M679.945 31.3472L655.222 30.1799C658.521 29.9247 662.63 27.5468 668.985 27.4751C673.657 27.4213 678.138 28.876 679.945 31.3472Z" fill="#587E2B"/>
<path d="M654.79 18.0462C654.79 18.0462 648.641 14.512 641.773 11.392C634.973 8.23115 627.531 5.51758 627.531 5.51758C629.159 6.47849 630.06 8.13781 631.256 9.95895C632.455 11.7856 633.947 13.7594 636.887 15.489C639.053 16.7585 641.82 17.6582 644.903 18.1217C647.983 18.5814 651.388 18.6085 654.79 18.0462Z" fill="#668936"/>
<path d="M654.79 18.0462C654.79 18.0462 648.641 14.512 641.774 11.392C634.973 8.23114 627.532 5.51758 627.532 5.51758C629.771 5.98976 632.97 5.89828 636.678 6.07253C640.369 6.24495 644.591 6.6831 648.558 8.18103C651.475 9.27849 653.677 10.8482 654.807 12.5902C655.943 14.3341 655.996 16.2467 654.79 18.0462Z" fill="#587E2B"/>
<path d="M619.412 15.8613L600.702 18.2107C603.283 18.2121 606.911 19.791 611.794 19.4733C615.386 19.2379 618.525 17.8604 619.412 15.8613Z" fill="#668936"/>
<path d="M619.412 15.8613L600.702 18.2107C603.017 17.5964 604.984 15.3137 609.628 14.4355C613.04 13.7886 616.984 14.2774 619.412 15.8613Z" fill="#587E2B"/>
<path d="M289.147 71.1607C289.147 71.1607 289.719 71.2968 290.716 71.5322C291.712 71.7712 293.131 72.1161 294.812 72.5561C298.187 73.4232 302.596 74.6788 306.868 76.0636C311.137 77.448 315.263 78.962 318.264 80.162C319.771 80.7583 321.004 81.2719 321.861 81.6365C322.718 82.0011 323.207 82.2075 323.207 82.2075C321.549 81.0779 320.675 79.2098 319.06 77.139C317.456 75.0793 315.097 72.7965 310.695 71.0563C307.469 69.7759 303.556 69.0844 299.726 69.0899C295.888 69.0899 292.154 69.7883 289.147 71.1607Z" fill="#668936"/>
<path d="M289.147 71.1602C289.147 71.1602 289.719 71.2962 290.716 71.5316C291.712 71.7707 293.131 72.1155 294.812 72.5555C298.187 73.4227 302.596 74.6783 306.868 76.0631C311.137 77.4475 315.263 78.9615 318.264 80.1615C319.771 80.7578 321.004 81.2714 321.861 81.636C322.718 82.0005 323.207 82.207 323.207 82.207C320.784 81.5854 317.23 81.6144 313.28 81.555C309.313 81.4939 304.991 81.3394 300.639 80.3068C297.44 79.5417 294.735 78.3206 292.719 76.7596C290.712 75.1974 289.38 73.2953 289.147 71.1602Z" fill="#587E2B"/>
<path d="M281.918 73.5513L289.374 60.1748C287.646 61.8001 281.802 63.0304 279.217 66.3261C277.321 68.7472 278.194 71.6529 281.918 73.5513Z" fill="#668936"/>
<path d="M281.918 73.5513L289.373 60.1748C289.15 62.0461 292.765 64.8157 291.552 68.3338C290.659 70.9182 286.965 73.0805 281.918 73.5513Z" fill="#587E2B"/>
<path d="M224.302 92.96L262.591 102.189C258.102 100.352 255.641 95.0198 246.365 92.098C239.548 89.9481 230.721 90.1113 224.302 92.96Z" fill="#668936"/>
<path d="M224.302 92.96L262.591 102.189C257.063 101.613 248.079 104.187 237.854 102.406C230.342 101.101 224.668 97.4427 224.302 92.96Z" fill="#587E2B"/>
<path d="M243.042 89.4113C243.042 89.4113 244.232 88.551 245.872 87.2094C247.524 85.8715 249.57 84.0306 251.395 82.1267C253.218 80.2214 254.813 78.2545 255.879 76.7534C256.956 75.2536 257.57 74.2334 257.57 74.2334C256.447 75.2159 254.035 76.0205 251.431 76.9635C248.809 77.9097 246.025 78.9874 243.889 80.6522C242.322 81.8789 241.435 83.2977 241.252 84.8025C241.079 86.3041 241.6 87.8954 243.042 89.4113Z" fill="#668936"/>
<path d="M243.043 89.4113C243.043 89.4113 244.232 88.551 245.873 87.2094C247.525 85.8715 249.571 84.0306 251.395 82.1267C253.219 80.2214 254.813 78.2545 255.88 76.7534C256.956 75.2536 257.57 74.2334 257.57 74.2334C257.365 75.3755 258.262 76.8339 258.803 78.6067C259.341 80.3686 259.524 82.466 257.863 84.6609C256.647 86.272 254.494 87.6333 251.859 88.488C249.229 89.3482 246.132 89.6968 243.043 89.4113Z" fill="#587E2B"/>
<path d="M182.688 94.5919C182.688 94.5919 183.183 94.5004 184.051 94.3441C184.486 94.2705 185.007 94.1629 185.595 94.0351C186.194 93.9151 186.861 93.7694 187.572 93.5919C189.014 93.2577 190.632 92.7942 192.329 92.2646C194.007 91.7202 195.734 91.0793 197.383 90.3859C199.014 89.6784 200.562 88.9188 201.93 88.1607C203.273 87.3901 204.482 86.6448 205.412 85.9625C205.897 85.6301 206.313 85.3124 206.668 85.0269C207.033 84.7464 207.346 84.4968 207.578 84.2848C208.063 83.8646 208.339 83.626 208.339 83.626C206.768 84.5041 203.917 84.9873 200.844 85.4163C197.742 85.8531 194.505 86.2443 191.449 87.1657C189.197 87.8517 187.379 88.8181 185.891 90.0609C184.416 91.3018 183.23 92.8103 182.688 94.5919Z" fill="#668936"/>
<path d="M182.688 94.5919C182.688 94.5919 183.183 94.5004 184.051 94.3441C184.486 94.2705 185.007 94.1629 185.595 94.0351C186.194 93.9151 186.861 93.7694 187.572 93.5919C189.014 93.2577 190.632 92.7942 192.329 92.2646C194.007 91.7202 195.734 91.0793 197.383 90.3859C199.014 89.6784 200.562 88.9188 201.93 88.1607C203.273 87.3901 204.482 86.6448 205.412 85.9625C205.897 85.6301 206.313 85.3124 206.668 85.0269C207.033 84.7464 207.346 84.4968 207.578 84.2848C208.063 83.8646 208.339 83.626 208.339 83.626C207.655 84.7717 207.881 86.397 207.276 88.3368C206.681 90.2531 205.222 92.5284 201.452 94.3675C198.708 95.7183 195.09 96.4995 191.645 96.5317C188.186 96.5767 184.957 95.8728 182.688 94.5919Z" fill="#587E2B"/>
<path d="M157.772 81.5824C157.772 81.5824 158.097 81.9148 158.665 82.4969C158.958 82.7861 159.284 83.1452 159.649 83.558C160.025 83.9695 160.433 84.4367 160.842 84.9553C161.703 85.9847 162.562 87.2164 163.413 88.5493C164.23 89.8891 164.978 91.3382 165.599 92.8058C166.187 94.2748 166.649 95.7598 166.958 97.1607C167.234 98.5616 167.419 99.8766 167.447 101.004C167.486 101.568 167.483 102.085 167.463 102.543C167.459 103 167.447 103.4 167.407 103.73C167.35 104.384 167.317 104.762 167.317 104.762C168.164 103.22 170.706 101.552 172.908 99.2623C175.091 96.9957 176.958 94.061 176.014 90.5695C175.343 88.0141 173.021 85.6325 169.709 84.0036C166.403 82.3603 162.147 81.4859 157.772 81.5824Z" fill="#668936"/>
<path d="M157.773 81.582C157.773 81.582 158.098 81.9144 158.666 82.4965C158.958 82.7857 159.284 83.1448 159.65 83.5577C160.025 83.9691 160.433 84.4363 160.842 84.9549C161.703 85.9843 162.563 87.216 163.413 88.5489C164.23 89.8887 164.978 91.3378 165.6 92.8054C166.187 94.2744 166.649 95.7594 166.958 97.1603C167.234 98.5613 167.42 99.8762 167.447 101.004C167.486 101.568 167.483 102.085 167.463 102.543C167.46 102.999 167.447 103.4 167.407 103.73C167.35 104.384 167.317 104.761 167.317 104.761C166.815 103.161 164.4 101.453 161.743 99.6316C159.061 97.7944 156.211 95.8712 154.457 93.4031C153.174 91.582 152.832 89.6551 153.354 87.6473C153.892 85.6464 155.254 83.5577 157.773 81.582Z" fill="#587E2B"/>
<path d="M152.871 77.06L180.296 73.3028C176.499 73.3424 171.07 71.0739 163.894 71.6201C158.622 72.0224 154.071 74.1019 152.871 77.06Z" fill="#668936"/>
<path d="M152.871 77.06L180.296 73.3027C176.92 74.2453 174.149 77.6379 167.359 79.0048C162.37 80.0089 156.532 79.3514 152.871 77.06Z" fill="#587E2B"/>
<path d="M116.218 70.7523L136.194 86.246C134.454 83.8916 136.945 79.5127 132.649 75.2673C129.496 72.1496 123.068 70.2116 116.218 70.7523Z" fill="#668936"/>
<path d="M116.218 70.7529L136.194 86.2466C132.709 84.5496 124.248 84.2945 118.364 80.6485C114.045 77.9672 112.909 74.0375 116.218 70.7529Z" fill="#587E2B"/>
<path d="M128.361 70.4114C128.361 70.4114 129.63 70.1061 131.457 69.5723C133.29 69.0445 135.653 68.2541 137.879 67.3617C140.101 66.4675 142.181 65.4721 143.642 64.6748C145.114 63.8808 146.021 63.3135 146.021 63.3135C144.802 63.7806 142.842 63.9332 140.702 64.1199C138.55 64.3066 136.244 64.5259 134.018 65.1866C132.38 65.6753 131.048 66.3866 130.062 67.2721C129.081 68.159 128.433 69.2206 128.361 70.4114Z" fill="#668936"/>
<path d="M128.361 70.4114C128.361 70.4114 129.63 70.1061 131.457 69.5723C133.29 69.0445 135.653 68.2541 137.879 67.3617C140.101 66.4675 142.181 65.4721 143.642 64.6748C145.114 63.8808 146.021 63.3135 146.021 63.3135C145.313 64.0174 145.141 65.0882 144.522 66.3093C143.908 67.5231 142.838 68.9042 140.483 70.027C138.759 70.8532 136.556 71.347 134.38 71.4206C132.201 71.4978 130.064 71.1511 128.361 70.4114Z" fill="#587E2B"/>
<path d="M75.7802 70.0038C75.7802 70.0038 82.7371 72.6438 89.205 75.6217C95.7231 78.5688 101.704 81.8318 101.704 81.8318C100.498 80.7886 100.106 79.1615 99.1981 77.3279C98.2983 75.5013 96.8797 73.4576 93.7134 71.699C91.3915 70.408 88.3783 69.5385 85.2154 69.2264C82.049 68.9082 78.7407 69.1491 75.7802 70.0038Z" fill="#668936"/>
<path d="M75.7802 70.0039C75.7802 70.0039 82.7371 72.6439 89.205 75.6218C95.7231 78.5689 101.704 81.8319 101.704 81.8319C99.7628 81.1818 96.747 81.013 93.3944 80.7077C90.0325 80.4024 86.3516 79.9588 82.8732 78.7234C77.7873 76.9022 74.7868 73.6085 75.7802 70.0039Z" fill="#587E2B"/>
<path d="M57.721 71.7057C57.721 71.7057 58.0594 71.4832 58.648 71.0914C59.2357 70.6983 60.0632 70.1324 61.0029 69.4322C62.9097 68.04 65.2358 66.097 67.242 64.0602C69.2492 62.0221 70.9297 59.8938 72.003 58.263C72.5507 57.4492 72.9598 56.7632 73.232 56.28C73.505 55.7968 73.6572 55.5205 73.6572 55.5205C72.5278 56.6033 69.9866 57.5141 67.2259 58.5343C64.4516 59.5614 61.5081 60.6892 59.2127 62.406C57.5279 63.6722 56.538 65.1398 56.2462 66.7273C55.9664 68.3112 56.3653 70.0211 57.721 71.7057Z" fill="#668936"/>
<path d="M57.721 71.7057C57.721 71.7057 58.0594 71.4832 58.648 71.0914C59.2356 70.6983 60.0631 70.1324 61.0029 69.4322C62.9097 68.04 65.2357 66.097 67.242 64.0602C69.2492 62.0221 70.9297 59.8938 72.003 58.263C72.5507 57.4492 72.9598 56.7632 73.232 56.28C73.505 55.7968 73.6572 55.5205 73.6572 55.5205C73.5279 56.7527 74.5876 58.3062 75.2187 60.2276C75.8438 62.137 76.0394 64.4427 74.1258 66.8441C72.7336 68.6078 70.2757 70.0804 67.3356 70.9586C64.3955 71.8441 60.9962 72.1259 57.721 71.7057Z" fill="#587E2B"/>
<path d="M22.6586 72.096C22.6586 72.096 22.7946 71.9576 23.0345 71.7167C23.2735 71.4744 23.6358 71.1351 24.1239 70.7471C25.0773 69.9604 26.5759 68.9926 28.3228 68.1682C30.0739 67.342 32.047 66.6703 33.6187 66.2662C34.396 66.0561 35.0671 65.9089 35.5425 65.8119C36.0171 65.7168 36.29 65.663 36.29 65.663C35.0602 65.7365 33.4494 65.4919 31.4227 65.4653C29.4258 65.4381 26.9646 65.634 24.715 66.5678C23.0643 67.245 21.9085 68.2436 21.5428 69.262C21.1575 70.2836 21.5691 71.3075 22.6586 72.096Z" fill="#668936"/>
<path d="M22.6586 72.0962C22.6586 72.0962 22.7946 71.9578 23.0345 71.7168C23.2735 71.4745 23.6358 71.1352 24.1239 70.7472C25.0773 69.9605 26.5759 68.9927 28.3228 68.1684C30.0739 67.3422 32.047 66.6704 33.6187 66.2663C34.396 66.0562 35.0671 65.9091 35.5425 65.8121C36.0171 65.7169 36.29 65.6631 36.29 65.6631C35.2303 66.0258 34.436 66.8125 33.6816 67.6672C32.9179 68.533 32.1967 69.4396 30.9745 70.241C30.0671 70.83 28.9249 71.2645 27.5327 71.5808C26.1404 71.8911 24.5092 72.0998 22.6586 72.0962Z" fill="#587E2B"/>
<path d="M807.437 47.3877C817.443 46.4162 824.679 41.6461 826.798 36.4305C828.861 31.3639 822.739 26.1019 815.453 23.1993C797.756 16.1488 773.962 21.5115 761.447 29.8195C751.152 36.6531 748.076 46.7592 750.492 55.2755C753.199 64.8138 762.418 73.2943 777.308 78.7076C793.619 84.6358 813.696 86.2703 832.931 85.0183C853.781 83.6588 870.761 77.508 886.375 70.3526C904.036 62.2598 921.893 54.1674 945.5 52.1343C967.629 50.2286 991.106 53.0056 1009.19 60.2575C1017.82 63.72 1024.85 68.1274 1033.01 71.8827C1039.53 74.891 1046.98 76.7968 1055.41 75.4156C1064.28 73.9609 1071.74 69.6235 1079.15 66.7913C1088.79 63.1058 1100.07 61.3279 1111.86 61.5633C1137.57 62.0732 1158.05 71.0299 1177.15 79.3236C1193.24 86.308 1213.39 94.273 1235.37 91.7967C1249.89 90.1604 1256.98 82.6496 1266.91 77.4882C1279.38 71.012 1296.26 69.2032 1312.79 68.0253C1350.03 65.3688 1389.64 65.1012 1426.43 69.6345C1434.35 70.6097 1432.73 77.7756 1424.49 77.3659C1397.01 75.9954 1369.93 74.9269 1342.32 75.8106C1329.43 76.2239 1316.44 76.9117 1303.77 78.2763C1292.61 79.4763 1283.55 81.7084 1275.8 86.2634C1268.18 90.7475 1261.82 95.6491 1251.72 98.6605C1241.14 101.813 1229.09 102.124 1217.4 101.26C1192.97 99.4564 1174.06 89.9806 1155.53 82.0551C1139.65 75.2648 1115.91 67.2294 1095.14 72.5867C1086.06 74.9287 1078.88 78.9839 1070.42 81.8666C1061.13 85.033 1050.17 86.2054 1039.52 84.5392C1029.25 82.9314 1020.93 78.8027 1013.4 74.8947C1005.91 71.0083 998.864 67.3265 989.546 64.7311C971.818 59.7959 949.3 59.6451 931.364 64.2984C910.617 69.6809 895.291 79.6326 875.89 86.1714C858.25 92.1162 836.665 94.7939 815.998 94.25C795.015 93.6983 774.79 89.5443 759.089 81.9563C744.617 74.9627 736.897 64.9072 734.661 54.6576C730.293 34.6181 754.258 14.2306 793.277 12.6067C813.154 11.7792 833.639 19.2141 837.483 29.9777C840.971 39.7528 827.406 50.4157 808.021 49.7187C805.686 49.6346 804.869 47.6374 807.437 47.3877Z" fill="#486B28"/>
<path d="M819.814 100.767C823.838 105.711 817.277 111.361 808.044 112.687C797.084 114.26 787.523 108.256 787.693 102.752C787.898 96.1211 801.386 93.0714 811.13 91.3023C819.103 89.8549 827.104 88.4558 835.126 87.0889C843.612 85.6434 852.156 83.8043 860.97 83.0857C865.226 82.7377 868.71 85.9561 864.152 87.1643C853.854 89.8963 842.173 91.2972 831.233 93.1234C821.466 94.7542 810.419 95.7169 801.543 98.5652C793.958 100.999 793.35 106.162 800.776 108.899C809.692 112.195 818.426 105.956 816.862 101.439C816.549 100.532 819.03 99.8029 819.814 100.767Z" fill="#486B28"/>
<path d="M997.306 79.4107C1007.23 80.968 1009.47 87.8824 1003.5 91.9468C995.954 97.0741 979.516 94.093 975.621 88.6889C970.539 81.6342 979.847 74.779 992.559 73.1409C999.213 72.2825 1006.28 72.7731 1012.89 73.4807C1021.87 74.443 1029.85 75.5317 1039.08 74.9588C1044.5 74.6227 1045.33 79.2346 1040.33 79.9786C1030.04 81.5105 1019.17 79.4521 1009.09 78.3546C1000.98 77.471 990.326 77.3151 985.262 81.5284C980.565 85.4383 985.11 90.2944 993.701 90.3555C1002.63 90.4185 1004.04 83.2452 996.13 81.7188C993.475 81.2066 994.528 78.9744 997.306 79.4107Z" fill="#486B28"/>
<path d="M1063.66 48.5351C1066.87 46.3852 1063.87 43.5351 1059.53 42.8795C1055.36 42.251 1051.42 43.702 1049.97 45.7548C1046.38 50.7962 1056.57 53.93 1064.27 54.1259C1072.91 54.347 1080.92 53.7452 1089.29 55.3309C1096.92 56.7769 1104.71 59.4509 1109.24 63.1272C1112.06 65.4173 1105.96 67.6711 1102.47 65.9506C1097.97 63.7272 1093.93 61.7102 1088.37 60.261C1082.17 58.6481 1075.53 58.3502 1068.78 58.2532C1057.69 58.0969 1045.88 56.1194 1043.1 49.5585C1040.96 44.5084 1048.78 38.5852 1058.95 39.6036C1063.43 40.0528 1067.41 41.5507 1068.58 44.0183C1069.53 46.0151 1067.78 48.1594 1064.35 49.0183C1063.75 49.1673 1063.25 48.81 1063.66 48.5351Z" fill="#486B28"/>
<path d="M1136.6 92.0677C1135.92 95.8268 1129.99 99.3955 1122.49 98.7776C1113.42 98.0323 1109.89 92.9643 1114.84 88.9464C1120.77 84.1354 1133.91 84.9579 1142.87 85.8756C1148.29 86.4305 1153.57 87.2599 1159.09 87.4917C1164.42 87.7147 1168.35 87.0572 1173.06 85.8429C1177.28 84.7547 1182.47 87.7413 1178.39 89.5772C1167.89 94.2949 1152.4 91.6962 1140.6 90.333C1135 89.6866 1123.36 88.5836 1120.54 92.3914C1119.21 94.1781 1122.81 95.3293 1125.56 95.4498C1129.58 95.6259 1132.43 93.3574 1133.98 91.6838C1134.59 91.0263 1136.73 91.3156 1136.6 92.0677Z" fill="#486B28"/>
<path d="M1224.67 61.5399C1227.69 63.0305 1230.5 61.0153 1230.11 59.4691C1229.68 57.7703 1226.5 56.6048 1223.8 56.0461C1218.92 55.0383 1213.81 55.8806 1210.35 57.8797C1202.83 62.2351 1211.09 67.7394 1219 69.4819C1229.51 71.7913 1241.86 69.9721 1252.68 69.4047C1262.6 68.8838 1273.28 69.4369 1281.58 72.6677C1286.61 74.6272 1281.73 79.1853 1276.68 77.1936C1262.49 71.5936 1243.24 75.949 1227.27 75.3242C1213.64 74.7904 1197.94 69.338 1199.82 60.9923C1201.53 53.379 1218.91 49.0204 1230.24 54.076C1234.26 55.8682 1238.36 59.8052 1233.89 62.3518C1230.85 64.0884 1225.44 64.5105 1222.79 62.3229C1222.02 61.6852 1223.7 61.0585 1224.67 61.5399Z" fill="#486B28"/>
<path d="M1214.65 112.732C1216.75 111.476 1220.52 112.437 1221.83 113.754C1223.71 115.63 1223.07 117.798 1219.72 119.077C1211.24 122.306 1200.87 118.411 1199.07 113.51C1196.95 107.736 1207.87 103.888 1216.83 102.869C1223.39 102.122 1230.16 102.418 1236.69 101.545C1239.15 101.214 1241.28 100.512 1243.13 99.5892C1245.37 98.4719 1245.56 97.1933 1246.21 95.6954C1247.17 93.5133 1253.9 93.3552 1254.64 95.6954C1255.76 99.2264 1251.51 102.073 1246.41 103.991C1239.93 106.439 1231.58 106.457 1224.01 106.696C1217.6 106.899 1206.9 107.911 1206.42 112.364C1206.22 114.181 1208.69 115.939 1211.73 116.573C1213.4 116.92 1215.23 116.814 1216.8 116.381C1220.31 115.401 1216.52 113.993 1214.85 113.547C1214.26 113.391 1214.26 112.962 1214.65 112.732Z" fill="#486B28"/>
<path d="M1351 87.1086C1349.95 91.2433 1341.57 94.0879 1334.29 92.5831C1326.54 90.9808 1324.07 85.7114 1328.03 82.0208C1332.75 77.6227 1343.79 77.4535 1351.88 78.0609C1357.97 78.5188 1363.66 79.3735 1369.8 78.5799C1375.01 77.9045 1379.42 76.105 1382.64 73.8383C1386.26 71.2898 1394.39 73.6839 1390.81 76.4172C1386.76 79.51 1381.23 81.5864 1374.68 82.8668C1366.95 84.379 1358.93 83.4452 1351.16 82.6116C1345.95 82.0512 1334.61 81.6024 1333.65 85.7638C1332.5 90.7132 1345.56 91.1136 1347.88 86.6438C1348.46 85.5265 1351.27 86.0277 1351 87.1086Z" fill="#486B28"/>
<path d="M1329.61 57.8315C1333.26 54.9253 1313.43 51.5097 1315.52 57.2798C1316.95 61.2205 1327.48 61.037 1332.98 61.0876C1339.85 61.1501 1346.27 61.7809 1351.89 64.0292C1356.16 65.7409 1361.51 68.9699 1361.14 72.0393C1360.94 73.7294 1356.64 75.2039 1354.24 73.5836C1351.35 71.6315 1350.37 69.3326 1346.48 67.7234C1342.1 65.9078 1336.75 65.7515 1331.44 65.608C1322.14 65.3529 1312.08 64.2986 1308.78 58.9322C1305.99 54.3883 1313.31 50.7479 1321.34 51.1897C1327.39 51.5221 1337.61 54.8338 1332.3 58.6807C1331.13 59.5304 1328.47 58.7437 1329.61 57.8315Z" fill="#486B28"/>
<path d="M741.508 14.1124C730.618 14.8701 725.153 7.62692 732.023 3.42832C740.378 -1.67786 754.617 0.63339 759.634 6.35934C765.457 13.0062 757.205 19.2687 751.332 24.8613C747.847 28.1836 745.621 31.8171 744.206 35.5472C742.75 39.3725 743.461 43.0346 743.232 46.8764C743.096 49.1784 736.82 49.7407 735.708 47.4276C733.491 42.8102 734.934 37.3753 736.884 32.801C738.95 27.9519 743.12 23.6038 747.85 19.3818C752.341 15.3694 757.012 10.0752 749.783 6.08624C746.295 4.16073 740.196 4.22371 737.209 6.40025C733.996 8.74415 736.947 11.8315 741.953 12.3326C743.986 12.5372 743.212 13.9938 741.508 14.1124Z" fill="#486B28"/>
<path d="M887.754 46.6406C880.338 44.1693 873.89 49.9541 880.661 52.5978C886.222 54.7674 894.568 51.7247 900.082 50.7854C912.019 48.7527 926.949 49.0598 935.138 54.8497C938.55 57.2616 931.494 59.7872 927.712 57.9463C920.397 54.3863 911.763 54.3991 902.617 55.7532C894.315 56.9835 885.986 59.1619 877.84 56.4483C871.73 54.4152 869.91 50.2304 873.136 46.876C876.249 43.636 884.438 43.4383 889.062 45.7266C889.97 46.1753 888.794 46.9872 887.754 46.6406Z" fill="#486B28"/>
<path d="M1083.5 71.886L1066.27 61.8682C1069.08 62.8934 1075.2 62.6134 1080.1 64.9067C1083.7 66.5913 1085.26 69.3481 1083.5 71.886Z" fill="#668936"/>
<path d="M1083.5 71.886L1066.27 61.8682C1067.95 63.4613 1066.99 66.7371 1070.87 69.5458C1073.71 71.6111 1078.69 72.6474 1083.5 71.886Z" fill="#587E2B"/>
<path d="M1059 80.9728C1059 80.9728 1058.62 81.2849 1057.94 81.8348C1057.26 82.3843 1056.3 83.1764 1055.21 84.1406C1053 86.0642 1050.25 88.6969 1047.8 91.4127C1045.35 94.1263 1043.2 96.9171 1041.76 99.0435C1041.03 100.103 1040.46 100.998 1040.08 101.625C1039.69 102.251 1039.47 102.61 1039.47 102.61C1039.72 100.997 1038.41 98.9557 1037.56 96.4738C1036.72 94.004 1036.35 91.0679 1038.54 87.9645C1040.13 85.6854 1043.06 83.7364 1046.68 82.4794C1050.31 81.2169 1054.63 80.6528 1059 80.9728Z" fill="#668936"/>
<path d="M1059 80.9727C1059 80.9727 1058.62 81.2848 1057.94 81.8347C1057.26 82.3841 1056.3 83.1763 1055.21 84.1405C1053 86.0641 1050.25 88.6968 1047.8 91.4126C1045.35 94.1262 1043.2 96.9169 1041.76 99.0434C1041.03 100.103 1040.46 100.997 1040.08 101.625C1039.69 102.251 1039.47 102.61 1039.47 102.61C1041.02 101.217 1044.39 100.057 1048.02 98.6898C1051.67 97.316 1055.54 95.7459 1058.46 93.3487C1060.6 91.5814 1061.76 89.5519 1061.9 87.4237C1062.04 85.2972 1061.17 83.0664 1059 80.9727Z" fill="#587E2B"/>
<path d="M1034.14 80.8001C1034.14 80.8001 1032.79 81.224 1030.86 81.9367C1028.92 82.6442 1026.43 83.6681 1024.11 84.7923C1021.78 85.9187 1019.62 87.1398 1018.11 88.104C1016.59 89.0649 1015.65 89.7422 1015.65 89.7422C1016.34 88.9196 1016.37 87.7109 1016.85 86.3136C1017.33 84.9252 1018.27 83.3288 1020.68 81.9495C1022.43 80.9367 1024.78 80.2594 1027.19 80.0493C1029.6 79.8318 1032.06 80.0833 1034.14 80.8001Z" fill="#668936"/>
<path d="M1034.14 80.7998C1034.14 80.7998 1032.79 81.2237 1030.86 81.9363C1028.92 82.6439 1026.43 83.6678 1024.11 84.792C1021.78 85.9184 1019.62 87.1395 1018.11 88.1037C1016.59 89.0646 1015.65 89.7418 1015.65 89.7418C1016.95 89.1635 1019.13 88.8995 1021.51 88.5832C1023.89 88.2637 1026.46 87.8903 1028.85 87.0154C1030.6 86.369 1031.97 85.4853 1032.9 84.4274C1033.83 83.3699 1034.32 82.1359 1034.14 80.7998Z" fill="#587E2B"/>
<path d="M1014.59 65.8284L1001.84 47.251C1004.55 49.4707 1013.03 50.931 1017.23 55.473C1020.31 58.8082 1019.55 62.9622 1014.59 65.8284Z" fill="#668936"/>
<path d="M1014.6 65.8284L1001.84 47.251C1002.46 49.891 997.802 53.9838 1000.1 58.907C1001.78 62.524 1007.37 65.4044 1014.6 65.8284Z" fill="#587E2B"/>
<path d="M982.19 56.5203L963.505 72.1796C965.067 69.8233 962.323 65.5543 966.28 61.2868C969.187 58.1511 975.403 56.118 982.19 56.5203Z" fill="#668936"/>
<path d="M982.19 56.5205L963.505 72.1797C966.832 70.4395 975.159 70.0262 980.718 66.3177C984.804 63.5931 985.668 59.6957 982.19 56.5205Z" fill="#587E2B"/>
<path d="M960.25 57.522C960.25 57.522 958.978 56.6347 956.948 55.3598C954.928 54.0793 952.107 52.4306 949.121 50.8696C946.138 49.3106 942.991 47.8416 940.556 46.7929C938.128 45.7405 936.443 45.083 936.443 45.083C938.486 45.5589 941.457 45.5391 944.889 45.7961C948.307 46.0495 952.214 46.5846 955.755 48.1235C958.36 49.2499 960.234 50.8048 961.054 52.4733C961.881 54.1418 961.646 55.9184 960.25 57.522Z" fill="#668936"/>
<path d="M960.25 57.522C960.25 57.522 958.978 56.6347 956.948 55.3598C954.928 54.0793 952.107 52.4306 949.121 50.8696C946.138 49.3106 942.991 47.8416 940.556 46.7929C938.128 45.7405 936.443 45.083 936.443 45.083C937.895 46.0025 938.616 47.5561 939.556 49.2623C940.5 50.9759 941.663 52.8237 944.141 54.4958C945.971 55.7243 948.376 56.6384 951.137 57.1772C953.898 57.7142 957.021 57.883 960.25 57.522Z" fill="#587E2B"/>
<path d="M906.508 67.1562L895.445 87.4021C895.75 84.5718 890.249 80.4031 892.029 75.0817C893.338 71.1719 898.89 67.891 906.508 67.1562Z" fill="#668936"/>
<path d="M906.507 67.1562L895.444 87.4021C898.032 84.9364 906.842 83.0523 910.697 78.0615C913.527 74.3939 912.165 70.01 906.507 67.1562Z" fill="#587E2B"/>
<path d="M889.593 71.8881C889.593 71.8881 889.046 71.8646 888.082 71.8269C887.118 71.7856 885.743 71.7212 884.098 71.6076C880.81 71.3975 876.454 70.981 872.176 70.3828C867.899 69.7833 863.717 69.0035 860.654 68.3231C859.116 67.9888 857.857 67.6854 856.979 67.4683C856.099 67.249 855.601 67.1235 855.601 67.1235C857.927 67.3943 860.976 66.9635 864.349 66.5272C867.74 66.0904 871.411 65.6596 875.471 65.9235C878.461 66.1194 881.245 66.7516 883.687 67.7557C886.118 68.7612 888.222 70.1387 889.593 71.8881Z" fill="#668936"/>
<path d="M889.593 71.8886C889.593 71.8886 889.046 71.8651 888.082 71.8274C887.118 71.7861 885.743 71.7217 884.098 71.6081C880.81 71.398 876.454 70.9815 872.176 70.3833C867.899 69.7838 863.717 69.004 860.654 68.3236C859.116 67.9893 857.857 67.6859 856.979 67.4688C856.099 67.2495 855.601 67.124 855.601 67.124C857.455 67.9176 858.94 69.4279 861.222 71.0173C863.491 72.5962 866.594 74.2716 871.278 75.1644C874.71 75.8219 878.471 75.8486 881.756 75.2683C885.052 74.6955 887.846 73.5157 889.593 71.8886Z" fill="#587E2B"/>
<path d="M864.402 82.174C864.402 82.174 859.468 86.1161 855.372 90.3257C851.19 94.5105 847.881 98.9215 847.881 98.9215C848.266 97.6641 847.449 96.0227 846.99 94.0687C846.535 92.1202 846.432 89.8462 848.253 87.4848C849.582 85.7496 851.891 84.2825 854.738 83.3308C857.581 82.375 860.953 81.9386 864.402 82.174Z" fill="#668936"/>
<path d="M864.402 82.1738C864.402 82.1738 859.469 86.1159 855.373 90.3255C851.19 94.5103 847.881 98.9213 847.881 98.9213C849.256 97.8813 852.02 97.0749 855.007 96.0781C858.004 95.0776 861.206 93.8905 863.661 91.9977C865.465 90.6041 866.482 88.977 866.648 87.2795C866.811 85.5825 866.13 83.8134 864.402 82.1738Z" fill="#587E2B"/>
<path d="M843.708 85.5473C843.708 85.5473 843.302 85.5509 842.595 85.556C842.239 85.5633 841.811 85.5546 841.316 85.5399C840.824 85.5311 840.266 85.5132 839.665 85.47C838.452 85.4107 837.057 85.2599 835.582 85.0604C834.117 84.8466 832.585 84.5505 831.107 84.1932C829.638 83.8213 828.223 83.3886 826.964 82.9289C825.722 82.4562 824.598 81.9841 823.725 81.528C823.27 81.3087 822.881 81.093 822.545 80.8976C822.2 80.7054 821.908 80.5348 821.688 80.3854C821.23 80.0912 820.971 79.9238 820.971 79.9238C822.35 80.5114 824.649 80.6944 827.057 80.7647C829.492 80.8383 831.967 80.8185 834.439 81.1634C836.266 81.4236 837.861 81.921 839.405 82.6484C840.934 83.3794 842.442 84.3224 843.708 85.5473Z" fill="#668936"/>
<path d="M843.708 85.5473C843.708 85.5473 843.302 85.5509 842.595 85.556C842.239 85.5633 841.811 85.5546 841.316 85.5399C840.824 85.5311 840.266 85.5132 839.665 85.47C838.452 85.4107 837.057 85.2599 835.582 85.0604C834.117 84.8466 832.585 84.5505 831.107 84.1932C829.638 83.8213 828.223 83.3886 826.964 82.9289C825.722 82.4562 824.598 81.9841 823.725 81.528C823.27 81.3087 822.881 81.093 822.545 80.8976C822.2 80.7054 821.908 80.5348 821.688 80.3854C821.23 80.0912 820.971 79.9238 820.971 79.9238C821.719 80.7629 821.901 82.0291 822.921 83.4857C823.917 84.9187 825.808 86.5725 829.439 87.6052C832.087 88.367 835.243 88.5573 837.897 88.1569C840.571 87.7688 842.681 86.8024 843.708 85.5473Z" fill="#587E2B"/>
<path d="M801.071 89.2703C801.071 89.2703 798.084 89.6349 793.577 90.096C789.068 90.565 783.022 91.0946 776.949 91.4951C770.872 91.896 764.767 92.1668 760.185 92.2979C755.6 92.4363 752.541 92.4707 752.541 92.4707C755.727 92.0197 759.039 90.4786 762.93 88.8767C766.832 87.2694 771.294 85.6133 777.085 84.8395C781.351 84.2717 785.783 84.3779 789.948 85.1158C794.108 85.8579 798.014 87.2298 801.071 89.2703Z" fill="#668936"/>
<path d="M801.071 89.2695C801.071 89.2695 798.084 89.6341 793.577 90.0953C789.068 90.5642 783.022 91.0939 776.949 91.4943C770.872 91.8953 764.767 92.1661 760.185 92.2971C755.6 92.4355 752.541 92.47 752.541 92.47C755.757 92.8235 759.301 94.212 763.77 95.5086C768.221 96.7996 773.627 98.0065 780.201 97.9168C785.028 97.8538 789.703 96.972 793.417 95.4585C797.141 93.9477 799.889 91.8052 801.071 89.2695Z" fill="#587E2B"/>
<path d="M763.73 80.8594L725.276 69.4999C730.943 70.3528 740.708 68.0811 751.083 70.3997C758.707 72.1022 764.049 76.1716 763.73 80.8594Z" fill="#668936"/>
<path d="M763.73 80.8585L725.276 69.499C729.664 71.6181 731.398 77.2843 740.611 80.7541C747.378 83.3026 756.601 83.5344 763.73 80.8585Z" fill="#587E2B"/>
<path d="M742.245 60.7048L759.239 48.2676C757.717 50.1729 759.57 53.7866 755.883 57.2078C753.169 59.7222 747.827 61.2289 742.245 60.7048Z" fill="#668936"/>
<path d="M742.245 60.7048L759.239 48.2676C756.315 49.6147 749.381 49.7186 744.415 52.6317C740.767 54.7724 739.674 57.9747 742.245 60.7048Z" fill="#587E2B"/>
<path d="M741.471 50.6151C741.471 50.6151 741.119 50.2721 740.504 49.674C740.206 49.3724 739.814 49.0151 739.355 48.6073C738.906 48.1963 738.388 47.7383 737.787 47.2496C736.628 46.2565 735.143 45.1448 733.498 43.9793C731.827 42.8225 729.943 41.6336 727.963 40.4915C725.96 39.36 723.867 38.2786 721.824 37.3127C719.758 36.3605 717.784 35.5003 716.016 34.8198C715.146 34.4676 714.326 34.1623 713.592 33.8984C712.864 33.629 712.226 33.3973 711.685 33.2193C710.611 32.8547 710 32.6465 710 32.6465C712.937 33.1766 717.083 32.995 721.997 33.32C726.867 33.6414 732.591 34.4837 737.584 36.932C741.248 38.7186 743.693 41.1595 744.401 43.6345C745.132 46.1163 744.113 48.6055 741.471 50.6151Z" fill="#668936"/>
<path d="M741.471 50.6151C741.471 50.6151 741.119 50.2721 740.504 49.674C740.206 49.3724 739.814 49.0151 739.355 48.6073C738.906 48.1963 738.388 47.7383 737.787 47.2496C736.628 46.2565 735.143 45.1448 733.498 43.9793C731.827 42.8225 729.943 41.6336 727.963 40.4915C725.96 39.36 723.867 38.2786 721.824 37.3127C719.758 36.3605 717.784 35.5003 716.016 34.8198C715.146 34.4676 714.326 34.1623 713.592 33.8984C712.864 33.629 712.226 33.3973 711.685 33.2193C710.611 32.8547 710 32.6465 710 32.6465C712.226 33.8318 713.492 35.96 714.821 38.2717C716.166 40.6028 717.578 43.0685 720.528 45.3388C722.717 47.0106 725.634 48.3002 729.169 49.2179C732.707 50.125 736.856 50.6799 741.471 50.6151Z" fill="#587E2B"/>
<path d="M751.647 31.9476L776.371 30.7803C773.205 31.3389 769.919 34.0648 763.683 34.7329C759.103 35.2235 754.222 34.2106 751.647 31.9476Z" fill="#668936"/>
<path d="M751.647 31.9478L776.371 30.7805C773.072 30.5253 768.962 28.1474 762.608 28.0757C757.936 28.0219 753.455 29.4766 751.647 31.9478Z" fill="#587E2B"/>
<path d="M776.803 18.6468C776.803 18.6468 782.952 15.1126 789.819 11.9926C796.62 8.83173 804.061 6.11816 804.061 6.11816C802.434 7.07908 801.533 8.7384 800.337 10.5595C799.138 12.3862 797.646 14.36 794.706 16.0896C792.54 17.359 789.773 18.2588 786.69 18.7222C783.61 19.182 780.205 19.2091 776.803 18.6468Z" fill="#668936"/>
<path d="M776.803 18.6468C776.803 18.6468 782.952 15.1126 789.819 11.9926C796.62 8.83173 804.061 6.11816 804.061 6.11816C801.822 6.59035 798.622 6.49887 794.915 6.67312C791.224 6.84553 787.002 7.28369 783.035 8.78161C780.118 9.87908 777.916 11.4487 776.786 13.1908C775.65 14.9347 775.597 16.8473 776.803 18.6468Z" fill="#587E2B"/>
<path d="M812.181 16.4619L830.891 18.8113C828.31 18.8127 824.682 20.3916 819.798 20.0739C816.207 19.8385 813.068 18.461 812.181 16.4619Z" fill="#668936"/>
<path d="M812.181 16.4618L830.891 18.8113C828.575 18.197 826.609 15.9143 821.965 15.0361C818.552 14.3892 814.609 14.8779 812.181 16.4618Z" fill="#587E2B"/>
<path d="M1142.45 71.7613C1142.45 71.7613 1141.87 71.8974 1140.88 72.1328C1139.88 72.3718 1138.46 72.7167 1136.78 73.1567C1133.41 74.0238 1129 75.2794 1124.72 76.6642C1120.46 78.0486 1116.33 79.5626 1113.33 80.7626C1111.82 81.3589 1110.59 81.8725 1109.73 82.2371C1108.87 82.6017 1108.39 82.8081 1108.39 82.8081C1110.04 81.6784 1110.92 79.8104 1112.53 77.7396C1114.14 75.6799 1116.5 73.3971 1120.9 71.6569C1124.12 70.3765 1128.04 69.6849 1131.87 69.6905C1135.7 69.6905 1139.44 70.3889 1142.45 71.7613Z" fill="#668936"/>
<path d="M1142.45 71.7607C1142.45 71.7607 1141.87 71.8968 1140.88 72.1322C1139.88 72.3713 1138.46 72.7161 1136.78 73.1561C1133.41 74.0232 1129 75.2789 1124.72 76.6637C1120.46 78.0481 1116.33 79.5621 1113.33 80.7621C1111.82 81.3584 1110.59 81.8719 1109.73 82.2365C1108.87 82.6011 1108.39 82.8076 1108.39 82.8076C1110.81 82.186 1114.36 82.2149 1118.31 82.1556C1122.28 82.0945 1126.6 81.94 1130.95 80.9074C1134.15 80.1423 1136.86 78.9211 1138.87 77.3602C1140.88 75.7979 1142.21 73.8959 1142.45 71.7607Z" fill="#587E2B"/>
<path d="M1149.67 74.1509L1142.22 60.7744C1143.95 62.3997 1149.79 63.63 1152.38 66.9257C1154.27 69.3468 1153.4 72.2525 1149.67 74.1509Z" fill="#668936"/>
<path d="M1149.67 74.1509L1142.22 60.7744C1142.44 62.6457 1138.83 65.4153 1140.04 68.9334C1140.93 71.5178 1144.63 73.6801 1149.67 74.1509Z" fill="#587E2B"/>
<path d="M1207.29 93.5606L1169 102.79C1173.49 100.953 1175.95 95.6204 1185.23 92.6986C1192.04 90.5487 1200.87 90.7119 1207.29 93.5606Z" fill="#668936"/>
<path d="M1207.29 93.5596L1169 102.789C1174.53 102.212 1183.51 104.786 1193.74 103.006C1201.25 101.701 1206.92 98.0423 1207.29 93.5596Z" fill="#587E2B"/>
<path d="M1188.55 90.0118C1188.55 90.0118 1187.36 89.1516 1185.72 87.81C1184.07 86.4721 1182.02 84.6312 1180.2 82.7273C1178.37 80.822 1176.78 78.8551 1175.71 77.354C1174.64 75.8542 1174.02 74.834 1174.02 74.834C1175.15 75.8165 1177.56 76.6211 1180.16 77.5641C1182.78 78.5103 1185.57 79.588 1187.7 81.2528C1189.27 82.4795 1190.16 83.8983 1190.34 85.4031C1190.51 86.9047 1189.99 88.496 1188.55 90.0118Z" fill="#668936"/>
<path d="M1188.55 90.0118C1188.55 90.0118 1187.36 89.1516 1185.72 87.81C1184.07 86.4721 1182.02 84.6312 1180.2 82.7273C1178.37 80.822 1176.78 78.8551 1175.71 77.354C1174.64 75.8542 1174.02 74.834 1174.02 74.834C1174.23 75.976 1173.33 77.4344 1172.79 79.2073C1172.25 80.9691 1172.07 83.0666 1173.73 85.2615C1174.95 86.8725 1177.1 88.2339 1179.73 89.0886C1182.36 89.9488 1185.46 90.2974 1188.55 90.0118Z" fill="#587E2B"/>
<path d="M1248.9 95.1925C1248.9 95.1925 1248.41 95.101 1247.54 94.9447C1247.11 94.8711 1246.59 94.7635 1246 94.6357C1245.4 94.5157 1244.73 94.37 1244.02 94.1925C1242.58 93.8582 1240.96 93.3948 1239.26 92.8651C1237.59 92.3208 1235.86 91.6799 1234.21 90.9865C1232.58 90.2789 1231.03 89.5194 1229.66 88.7612C1228.32 87.9907 1227.11 87.2454 1226.18 86.5631C1225.7 86.2307 1225.28 85.913 1224.92 85.6275C1224.56 85.347 1224.25 85.0974 1224.01 84.8854C1223.53 84.4652 1223.25 84.2266 1223.25 84.2266C1224.83 85.1047 1227.68 85.5879 1230.75 86.0169C1233.85 86.4537 1237.09 86.8449 1240.14 87.7663C1242.4 88.4523 1244.21 89.4187 1245.7 90.6615C1247.18 91.9024 1248.36 93.4109 1248.9 95.1925Z" fill="#668936"/>
<path d="M1248.9 95.1925C1248.9 95.1925 1248.41 95.101 1247.54 94.9447C1247.11 94.8711 1246.59 94.7635 1246 94.6357C1245.4 94.5157 1244.73 94.37 1244.02 94.1925C1242.58 93.8582 1240.96 93.3948 1239.26 92.8651C1237.59 92.3208 1235.86 91.6799 1234.21 90.9865C1232.58 90.2789 1231.03 89.5194 1229.66 88.7612C1228.32 87.9907 1227.11 87.2454 1226.18 86.5631C1225.7 86.2307 1225.28 85.913 1224.92 85.6275C1224.56 85.347 1224.25 85.0974 1224.01 84.8854C1223.53 84.4652 1223.25 84.2266 1223.25 84.2266C1223.94 85.3723 1223.71 86.9976 1224.32 88.9374C1224.91 90.8537 1226.37 93.129 1230.14 94.9681C1232.89 96.3189 1236.5 97.1001 1239.95 97.1322C1243.41 97.1773 1246.64 96.4734 1248.9 95.1925Z" fill="#587E2B"/>
<path d="M1273.82 82.183C1273.82 82.183 1273.5 82.5154 1272.93 83.0975C1272.63 83.3867 1272.31 83.7458 1271.94 84.1586C1271.57 84.5701 1271.16 85.0372 1270.75 85.5559C1269.89 86.5853 1269.03 87.817 1268.18 89.1499C1267.36 90.4896 1266.62 91.9388 1265.99 93.4064C1265.41 94.8754 1264.94 96.3604 1264.64 97.7613C1264.36 99.1622 1264.17 100.477 1264.15 101.605C1264.11 102.169 1264.11 102.686 1264.13 103.144C1264.13 103.6 1264.15 104.001 1264.19 104.331C1264.24 104.985 1264.28 105.362 1264.28 105.362C1263.43 103.821 1260.89 102.153 1258.69 99.8629C1256.5 97.5963 1254.64 94.6616 1255.58 91.1701C1256.25 88.6147 1258.57 86.2331 1261.88 84.6041C1265.19 82.9609 1269.45 82.0865 1273.82 82.183Z" fill="#668936"/>
<path d="M1273.82 82.1826C1273.82 82.1826 1273.5 82.515 1272.93 83.0971C1272.63 83.3863 1272.31 83.7454 1271.94 84.1582C1271.57 84.5697 1271.16 85.0369 1270.75 85.5555C1269.89 86.5849 1269.03 87.8166 1268.18 89.1495C1267.36 90.4892 1266.61 91.9384 1265.99 93.406C1265.41 94.875 1264.94 96.36 1264.63 97.7609C1264.36 99.1618 1264.17 100.477 1264.15 101.605C1264.11 102.168 1264.11 102.685 1264.13 103.143C1264.13 103.6 1264.15 104 1264.19 104.331C1264.24 104.984 1264.28 105.362 1264.28 105.362C1264.78 103.761 1267.19 102.053 1269.85 100.232C1272.53 98.3949 1275.38 96.4717 1277.14 94.0037C1278.42 92.1826 1278.76 90.2557 1278.24 88.2479C1277.7 86.247 1276.34 84.1582 1273.82 82.1826Z" fill="#587E2B"/>
<path d="M1278.72 77.6606L1251.3 73.9034C1255.09 73.943 1260.52 71.6745 1267.7 72.2207C1272.97 72.623 1277.52 74.7025 1278.72 77.6606Z" fill="#668936"/>
<path d="M1278.72 77.6605L1251.3 73.9033C1254.67 74.8458 1257.44 78.2385 1264.23 79.6053C1269.22 80.6095 1275.06 79.952 1278.72 77.6605Z" fill="#587E2B"/>
<path d="M1315.37 71.3529L1295.4 86.8466C1297.14 84.4921 1294.65 80.1133 1298.94 75.8678C1302.1 72.7502 1308.52 70.8122 1315.37 71.3529Z" fill="#668936"/>
<path d="M1315.37 71.3535L1295.4 86.8472C1298.88 85.1502 1307.34 84.8951 1313.23 81.2491C1317.55 78.5677 1318.68 74.6381 1315.37 71.3535Z" fill="#587E2B"/>
<path d="M1303.23 71.012C1303.23 71.012 1301.96 70.7067 1300.14 70.1729C1298.3 69.6451 1295.94 68.8547 1293.71 67.9623C1291.49 67.0681 1289.41 66.0727 1287.95 65.2754C1286.48 64.4814 1285.57 63.9141 1285.57 63.9141C1286.79 64.3812 1288.75 64.5338 1290.89 64.7205C1293.04 64.9071 1295.35 65.1265 1297.57 65.7871C1299.21 66.2759 1300.54 66.9871 1301.53 67.8727C1302.51 68.7595 1303.16 69.8212 1303.23 71.012Z" fill="#668936"/>
<path d="M1303.23 71.012C1303.23 71.012 1301.96 70.7067 1300.14 70.1729C1298.3 69.6451 1295.94 68.8547 1293.71 67.9623C1291.49 67.0681 1289.41 66.0727 1287.95 65.2754C1286.48 64.4814 1285.57 63.9141 1285.57 63.9141C1286.28 64.618 1286.45 65.6888 1287.07 66.9099C1287.68 68.1237 1288.75 69.5048 1291.11 70.6276C1292.83 71.4538 1295.04 71.9476 1297.21 72.0211C1299.39 72.0984 1301.53 71.7517 1303.23 71.012Z" fill="#587E2B"/>
<path d="M1355.81 70.6044C1355.81 70.6044 1348.86 73.2444 1342.39 76.2223C1335.87 79.1694 1329.89 82.4324 1329.89 82.4324C1331.1 81.3892 1331.49 79.7621 1332.39 77.9285C1333.29 76.1019 1334.71 74.0582 1337.88 72.2996C1340.2 71.0085 1343.21 70.1391 1346.38 69.8269C1349.54 69.5088 1352.85 69.7497 1355.81 70.6044Z" fill="#668936"/>
<path d="M1355.81 70.6045C1355.81 70.6045 1348.86 73.2445 1342.39 76.2224C1335.87 79.1695 1329.89 82.4325 1329.89 82.4325C1331.83 81.7823 1334.85 81.6136 1338.2 81.3083C1341.56 81.003 1345.24 80.5594 1348.72 79.324C1353.81 77.5028 1356.81 74.2091 1355.81 70.6045Z" fill="#587E2B"/>
<path d="M1373.87 72.3063C1373.87 72.3063 1373.53 72.0837 1372.94 71.692C1372.36 71.2989 1371.53 70.733 1370.59 70.0327C1368.68 68.6406 1366.36 66.6976 1364.35 64.6608C1362.34 62.6227 1360.66 60.4944 1359.59 58.8636C1359.04 58.0498 1358.63 57.3638 1358.36 56.8806C1358.09 56.3974 1357.94 56.1211 1357.94 56.1211C1359.06 57.2038 1361.61 58.1146 1364.37 59.1349C1367.14 60.162 1370.08 61.2898 1372.38 63.0066C1374.06 64.2728 1375.05 65.7404 1375.35 67.3279C1375.63 68.9118 1375.23 70.6217 1373.87 72.3063Z" fill="#668936"/>
<path d="M1373.87 72.3063C1373.87 72.3063 1373.53 72.0837 1372.94 71.692C1372.36 71.2989 1371.53 70.733 1370.59 70.0327C1368.68 68.6406 1366.36 66.6976 1364.35 64.6608C1362.34 62.6227 1360.66 60.4944 1359.59 58.8636C1359.04 58.0498 1358.63 57.3638 1358.36 56.8806C1358.09 56.3974 1357.94 56.1211 1357.94 56.1211C1358.06 57.3533 1357.01 58.9068 1356.37 60.8282C1355.75 62.7376 1355.55 65.0433 1357.47 67.4447C1358.86 69.2084 1361.32 70.681 1364.26 71.5591C1367.2 72.4447 1370.6 72.7265 1373.87 72.3063Z" fill="#587E2B"/>
<path d="M1408.93 72.6966C1408.93 72.6966 1408.8 72.5582 1408.56 72.3173C1408.32 72.075 1407.96 71.7357 1407.47 71.3476C1406.52 70.561 1405.02 69.5932 1403.27 68.7688C1401.52 67.9426 1399.55 67.2709 1397.97 66.8668C1397.2 66.6566 1396.53 66.5095 1396.05 66.4125C1395.58 66.3174 1395.3 66.2635 1395.3 66.2635C1396.53 66.3371 1398.14 66.0925 1400.17 66.0658C1402.17 66.0387 1404.63 66.2346 1406.88 67.1684C1408.53 67.8456 1409.68 68.8442 1410.05 69.8626C1410.44 70.8842 1410.02 71.9081 1408.93 72.6966Z" fill="#668936"/>
<path d="M1408.93 72.6967C1408.93 72.6967 1408.8 72.5583 1408.56 72.3174C1408.32 72.0751 1407.96 71.7358 1407.47 71.3478C1406.52 70.5611 1405.02 69.5933 1403.27 68.769C1401.52 67.9428 1399.55 67.271 1397.97 66.8669C1397.2 66.6568 1396.53 66.5097 1396.05 66.4127C1395.58 66.3175 1395.3 66.2637 1395.3 66.2637C1396.36 66.6264 1397.16 67.4131 1397.91 68.2678C1398.67 69.1335 1399.4 70.0402 1400.62 70.8416C1401.53 71.4306 1402.67 71.865 1404.06 72.1814C1405.45 72.4917 1407.08 72.7004 1408.93 72.6967Z" fill="#587E2B"/>
</svg>
